<svg width="24" height="24" viewBox="0 0 24 24" fill="none"
    xmlns="http://www.w3.org/2000/svg">
    <path fill-rule="evenodd" clip-rule="evenodd" d="M11.6216 13C12.1546 13 12.5867 12.5523 12.5867 12C12.5867 11.4477 12.1546 11 11.6216 11C11.0886 11 10.6565 11.4477 10.6565 12C10.6565 12.5523 11.0886 13 11.6216 13Z" stroke="#26474E"/>
    <path fill-rule="evenodd" clip-rule="evenodd" d="M5.83096 13C6.36397 13 6.79607 12.5523 6.79607 12C6.79607 11.4477 6.36397 11 5.83096 11C5.29794 11 4.86584 11.4477 4.86584 12C4.86584 12.5523 5.29794 13 5.83096 13Z" stroke="#26474E"/>
    <path fill-rule="evenodd" clip-rule="evenodd" d="M17.4123 13C17.9453 13 18.3774 12.5523 18.3774 12C18.3774 11.4477 17.9453 11 17.4123 11C16.8792 11 16.4471 11.4477 16.4471 12C16.4471 12.5523 16.8792 13 17.4123 13Z" stroke="#26474E"/>
</svg>
