<svg width="80" height="19" viewBox="0 0 80 19" fill="none" xmlns="http://www.w3.org/2000/svg">
<path d="M18.008 15.7887C16.0845 17.846 14.3199 18.8746 12.7143 18.8746C11.8278 18.8746 11.1253 18.561 10.6068 17.9338C10.0883 17.3066 9.7998 16.4118 9.74126 15.2493C8.72935 16.4787 7.83034 17.3902 7.04423 17.984C6.26648 18.5778 5.43437 18.8746 4.54791 18.8746C3.41055 18.8746 2.49482 18.3854 1.8007 17.407C1.11494 16.4201 0.77206 15.1072 0.77206 13.468C0.77206 11.5111 1.22366 9.49566 2.12685 7.42166C3.03004 5.3393 4.3681 3.69599 6.14104 2.49173C7.91397 1.28748 10.0632 0.685347 12.5888 0.685347C14.4788 0.685347 16.1891 0.940416 17.7195 1.45055V2.27848C16.4734 3.73362 15.428 5.76999 14.5834 8.38757C13.7471 11.0052 13.3289 12.9997 13.3289 14.3712C13.3289 15.0403 13.4628 15.5588 13.7304 15.9267C14.0063 16.2947 14.3869 16.4787 14.8719 16.4787C15.7416 16.4787 16.787 15.7678 18.008 14.3461V15.7887ZM14.3576 2.27848C13.5882 1.86033 12.7603 1.65126 11.8738 1.65126C10.4772 1.65126 9.21858 2.23666 8.09796 3.40747C6.97733 4.56991 6.09086 6.11287 5.43856 8.03633C4.79461 9.9598 4.47264 11.6282 4.47264 13.0415C4.47264 13.9865 4.65244 14.7559 5.01205 15.3497C5.38001 15.9351 5.84834 16.2278 6.41701 16.2278C7.40384 16.2278 8.53701 15.3288 9.81653 13.5308C10.3434 8.81408 11.8571 5.06332 14.3576 2.27848ZM30.314 15.7887C28.3822 17.8293 26.7263 18.8496 25.3464 18.8496C24.7861 18.8496 24.3345 18.653 23.9916 18.26C23.6488 17.8669 23.4773 17.3401 23.4773 16.6794C23.4773 15.7846 23.8453 14.4172 24.5812 12.5774C24.9743 11.5906 25.1708 10.9633 25.1708 10.6957C25.1708 10.4281 25.0663 10.2943 24.8572 10.2943C24.7401 10.2943 24.5854 10.3529 24.3931 10.4699C24.2174 10.587 24.0125 10.7501 23.7784 10.9592C23.5693 11.1515 23.3352 11.3857 23.0759 11.6616C22.8501 11.8958 22.6076 12.1634 22.3483 12.4645L21.6458 13.2799C21.3364 13.6562 21.1441 14.0534 21.0688 14.4716C20.9434 15.1824 20.8597 15.8347 20.8179 16.4285C20.7928 16.8717 20.7803 17.4697 20.7803 18.2223L18.008 18.8746C17.916 17.7457 17.87 16.9052 17.87 16.3532C17.87 15.0068 18.0247 13.7315 18.3341 12.5272C18.6519 11.3229 19.1579 9.96816 19.852 8.46284L22.9128 7.87326C22.2689 9.60437 21.8466 10.9675 21.6458 11.9627C23.0174 10.4323 24.1045 9.3744 24.9074 8.78899C25.7186 8.19523 26.4378 7.89834 27.065 7.89834C27.4915 7.89834 27.8469 8.06142 28.1313 8.38757C28.4156 8.70536 28.5578 9.10678 28.5578 9.59183C28.5578 10.3947 28.1982 11.716 27.479 13.5558C26.9856 14.8186 26.7388 15.6382 26.7388 16.0145C26.7388 16.5163 26.9437 16.7672 27.3535 16.7672C27.964 16.7672 28.9508 15.9602 30.314 14.3461V15.7887ZM39.6972 15.7887C38.6351 16.8341 37.6817 17.6077 36.837 18.1094C35.9924 18.6028 35.0599 18.8496 34.0397 18.8496C32.9023 18.8496 31.9824 18.4858 31.2799 17.7582C30.5858 17.0306 30.2387 16.0731 30.2387 14.8855C30.2387 13.1126 30.8534 11.5111 32.0827 10.0811C33.3121 8.64264 34.6752 7.92343 36.1722 7.92343C36.9499 7.92343 37.573 8.12414 38.0413 8.52556C38.5096 8.92698 38.7438 9.45384 38.7438 10.1061C38.7438 11.8373 36.9039 13.2422 33.2243 14.321C33.5588 15.9518 34.4327 16.7672 35.846 16.7672C36.398 16.7672 36.9249 16.6208 37.4266 16.3281C37.9284 16.0271 38.6852 15.3664 39.6972 14.3461V15.7887ZM33.1239 13.468C35.2648 12.8659 36.3353 11.7536 36.3353 10.1312C36.3353 9.3284 36.0426 8.92698 35.4572 8.92698C34.9052 8.92698 34.3784 9.34931 33.8766 10.194C33.3748 11.0302 33.1239 12.1216 33.1239 13.468ZM48.0015 15.7887C46.8642 16.8341 45.8648 17.6077 45.0034 18.1094C44.1504 18.6028 43.335 18.8496 42.5573 18.8496C41.6624 18.8496 40.939 18.5025 40.3871 17.8084C39.8435 17.1143 39.5717 16.1818 39.5717 15.011C39.5717 13.2548 39.9522 11.1473 40.7132 8.68864C41.4743 6.22995 42.3984 3.9636 43.4855 1.8896L46.6718 0.710436C46.7722 0.676984 46.8474 0.660259 46.8976 0.660259C47.1401 0.660259 47.3367 0.840061 47.4872 1.19967C47.6461 1.55091 47.7255 2.02759 47.7255 2.62972C47.7255 4.33575 47.3325 5.98742 46.5464 7.58474C45.7603 9.18205 44.5309 10.8881 42.8583 12.7028C42.7914 13.5726 42.758 14.1705 42.758 14.4967C42.758 15.2242 42.8918 15.8013 43.1594 16.2278C43.427 16.6543 43.7824 16.8675 44.2257 16.8675C44.6773 16.8675 45.1581 16.7045 45.6683 16.3783C46.1784 16.0522 46.9561 15.3748 48.0015 14.3461V15.7887ZM43.197 10.8839C44.2591 9.70473 45.1205 8.38339 45.7812 6.91989C46.4418 5.45638 46.7722 4.19776 46.7722 3.14404C46.7722 2.83461 46.7262 2.58791 46.6342 2.40392C46.5422 2.21158 46.4251 2.1154 46.2829 2.1154C45.9735 2.1154 45.5219 2.88479 44.9281 4.42356C44.3427 5.96233 43.7657 8.11578 43.197 10.8839ZM56.3059 15.7887C55.1685 16.8341 54.1691 17.6077 53.3078 18.1094C52.4547 18.6028 51.6394 18.8496 50.8616 18.8496C49.9668 18.8496 49.2434 18.5025 48.6914 17.8084C48.1479 17.1143 47.8761 16.1818 47.8761 15.011C47.8761 13.2548 48.2566 11.1473 49.0176 8.68864C49.7786 6.22995 50.7027 3.9636 51.7899 1.8896L54.9762 0.710436C55.0765 0.676984 55.1518 0.660259 55.202 0.660259C55.4445 0.660259 55.641 0.840061 55.7915 1.19967C55.9504 1.55091 56.0299 2.02759 56.0299 2.62972C56.0299 4.33575 55.6368 5.98742 54.8507 7.58474C54.0646 9.18205 52.8353 10.8881 51.1627 12.7028C51.0958 13.5726 51.0623 14.1705 51.0623 14.4967C51.0623 15.2242 51.1961 15.8013 51.4637 16.2278C51.7314 16.6543 52.0868 16.8675 52.53 16.8675C52.9816 16.8675 53.4625 16.7045 53.9726 16.3783C54.4828 16.0522 55.2605 15.3748 56.3059 14.3461V15.7887ZM51.5014 10.8839C52.5635 9.70473 53.4248 8.38339 54.0855 6.91989C54.7462 5.45638 55.0765 4.19776 55.0765 3.14404C55.0765 2.83461 55.0305 2.58791 54.9385 2.40392C54.8465 2.21158 54.7295 2.1154 54.5873 2.1154C54.2779 2.1154 53.8263 2.88479 53.2325 4.42356C52.6471 5.96233 52.0701 8.11578 51.5014 10.8839ZM67.5707 15.7887C67.1442 16.1651 66.7302 16.4327 66.3288 16.5916C65.9274 16.7421 65.6096 16.8174 65.3754 16.8174C64.7733 16.8174 64.1753 16.5832 63.5816 16.1149C62.3773 17.938 60.9974 18.8496 59.4419 18.8496C58.4719 18.8496 57.6857 18.4858 57.0836 17.7582C56.4815 17.0306 56.1804 16.0647 56.1804 14.8605C56.1804 12.9537 56.8578 11.3188 58.2126 9.95562C59.5674 8.5841 61.1856 7.89834 63.0673 7.89834C63.7781 7.89834 64.2966 7.97779 64.6228 8.13669C64.9573 8.28722 65.1622 8.46702 65.2374 8.67609C65.3127 8.88517 65.3503 9.1486 65.3503 9.46639C65.3503 11.0302 64.9238 12.9495 64.0708 15.2242C64.4973 15.6173 64.9447 15.8138 65.4131 15.8138C65.9734 15.8138 66.6926 15.3246 67.5707 14.3461V15.7887ZM63.4311 8.77645C63.3056 8.72627 63.1258 8.70118 62.8916 8.70118C61.8045 8.70118 60.9515 9.26986 60.3326 10.4072C59.7221 11.5446 59.4169 12.8743 59.4169 14.3963C59.4169 15.241 59.5507 15.8975 59.8183 16.3658C60.0859 16.8341 60.458 17.0683 60.9347 17.0683C61.5285 17.0683 62.1724 16.5205 62.8666 15.4249C62.0804 14.4381 61.6874 13.376 61.6874 12.2387C61.6874 10.9006 62.2686 9.74654 63.4311 8.77645ZM79.8892 15.7887C77.9072 17.846 76.2765 18.8746 74.9969 18.8746C74.4283 18.8746 73.9558 18.6823 73.5794 18.2976C73.2115 17.9045 73.0275 17.4111 73.0275 16.8174C73.0275 15.8138 73.4122 14.4005 74.1816 12.5774C74.5913 11.5906 74.7962 10.9466 74.7962 10.6456C74.7962 10.3027 74.6331 10.1312 74.307 10.1312C73.9725 10.1312 73.4874 10.3612 72.8519 10.8212C72.2163 11.2728 71.5472 11.8916 70.8448 12.6777C70.5521 14.2165 70.4057 16.0647 70.4057 18.2223L67.6083 18.8746C67.4996 17.9965 67.4452 17.0432 67.4452 16.0145C67.4452 13.5224 67.7881 11.2017 68.4739 9.05242C69.1596 6.90316 70.2384 4.62427 71.7103 2.21576C72.8059 1.77252 73.7592 1.41292 74.5704 1.13694C75.39 0.852605 75.8583 0.710436 75.9754 0.710436C76.1928 0.710436 76.3768 0.886057 76.5273 1.2373C76.6779 1.58854 76.7531 2.02759 76.7531 2.55445C76.7531 3.44092 76.4813 4.42356 75.9378 5.50237C75.3942 6.57283 74.5412 7.86907 73.3787 9.39112C74.491 8.74718 75.2311 8.34158 75.5991 8.17432C75.967 8.00706 76.3434 7.92343 76.7281 7.92343C77.1546 7.92343 77.4974 8.07815 77.7567 8.38757C78.0243 8.68864 78.1581 9.09006 78.1581 9.59183C78.1581 10.3445 77.857 11.5111 77.2549 13.0917C76.6612 14.6723 76.3643 15.6633 76.3643 16.0647C76.3643 16.2487 76.4186 16.4118 76.5273 16.5539C76.6444 16.6961 76.7782 16.7672 76.9288 16.7672C77.464 16.7672 78.4508 15.9602 79.8892 14.3461V15.7887ZM71.196 10.6456C74.1816 7.17495 75.6743 4.61591 75.6743 2.96842C75.6743 2.46664 75.5363 2.21576 75.2604 2.21576C74.8004 2.21576 74.1439 3.0395 73.2909 4.68699C72.4379 6.33448 71.7396 8.32067 71.196 10.6456Z" fill="white"/>
</svg>
