<svg width="24" height="24" viewBox="0 0 24 24" fill="none"
    xmlns="http://www.w3.org/2000/svg">
    <g clip-path="url(#clip0)">
        <path d="M22.9641 10.4818H1.03526C0.949246 10.4818 0.866752 10.4487 0.80593 10.3897C0.745107 10.3307 0.710938 10.2507 0.710938 10.1673V7.87281C0.710937 7.81864 0.725356 7.76539 0.7528 7.71822C0.780244 7.67104 0.819783 7.63154 0.867586 7.60354L11.8297 1.18449C11.8803 1.15491 11.9382 1.13928 11.9973 1.13928C12.0563 1.13928 12.1142 1.15491 12.1648 1.18449L23.1315 7.60354C23.1793 7.63154 23.2188 7.67104 23.2463 7.71822C23.2737 7.76539 23.2881 7.81864 23.2881 7.87281V10.1673C23.2881 10.2506 23.254 10.3306 23.1932 10.3896C23.1325 10.4486 23.0501 10.4817 22.9641 10.4818ZM1.35991 9.85269H22.6398V8.05022L11.9977 1.82117L1.35991 8.04959V9.85269Z" fill="#F0F4F5"/>
        <path d="M12.0003 8.1581C11.6167 8.1581 11.2416 8.04776 10.9226 7.84103C10.6037 7.63429 10.355 7.34046 10.2082 6.99667C10.0614 6.65289 10.023 6.2746 10.0978 5.90964C10.1727 5.54468 10.3574 5.20944 10.6287 4.94632C10.9 4.6832 11.2456 4.50401 11.6219 4.43142C11.9982 4.35882 12.3882 4.39608 12.7427 4.53848C13.0971 4.68088 13.4001 4.92203 13.6132 5.23142C13.8263 5.54082 13.9401 5.90457 13.9401 6.27668C13.9395 6.77549 13.735 7.2537 13.3713 7.60641C13.0077 7.95911 12.5146 8.15752 12.0003 8.1581ZM12.0003 5.02408C11.745 5.02408 11.4953 5.09753 11.283 5.23513C11.0707 5.37273 10.9052 5.56831 10.8075 5.79714C10.7098 6.02597 10.6842 6.27776 10.734 6.52068C10.7838 6.7636 10.9068 6.98673 11.0874 7.16187C11.2679 7.33701 11.498 7.45627 11.7484 7.50459C11.9989 7.55291 12.2585 7.52811 12.4944 7.43333C12.7304 7.33855 12.932 7.17804 13.0739 6.9721C13.2157 6.76617 13.2915 6.52405 13.2915 6.27637C13.291 5.94437 13.1549 5.62609 12.9128 5.39133C12.6708 5.15657 12.3426 5.0245 12.0003 5.02408Z" fill="#F0F4F5"/>
        <path d="M21.0716 12.4689H17.6205C17.4347 12.4687 17.2566 12.397 17.1253 12.2695C16.9939 12.1421 16.9201 11.9693 16.9199 11.7891V10.1672C16.9199 10.0838 16.9541 10.0038 17.0149 9.9448C17.0757 9.8858 17.1582 9.85266 17.2442 9.85266H21.4478C21.5338 9.85266 21.6163 9.8858 21.6771 9.9448C21.7379 10.0038 21.7721 10.0838 21.7721 10.1672V11.7901C21.7717 11.9701 21.6977 12.1426 21.5664 12.2699C21.4351 12.3971 21.2572 12.4687 21.0716 12.4689ZM17.5689 10.4809V11.7891C17.5689 11.8025 17.5743 11.8154 17.5841 11.8248C17.5938 11.8343 17.607 11.8397 17.6208 11.8398H21.0716C21.0854 11.8397 21.0986 11.8343 21.1083 11.8248C21.118 11.8154 21.1235 11.8025 21.1235 11.7891V10.4818L17.5689 10.4809Z" fill="#F0F4F5"/>
        <path d="M20.7767 18.8229H17.9142C17.8282 18.8229 17.7457 18.7897 17.6848 18.7307C17.624 18.6717 17.5898 18.5917 17.5898 18.5083V12.154C17.5898 12.0706 17.624 11.9906 17.6848 11.9316C17.7457 11.8726 17.8282 11.8395 17.9142 11.8395H20.7767C20.8627 11.8395 20.9452 11.8726 21.006 11.9316C21.0668 11.9906 21.101 12.0706 21.101 12.154V18.5083C21.101 18.5917 21.0668 18.6717 21.006 18.7307C20.9452 18.7897 20.8627 18.8229 20.7767 18.8229ZM18.2385 18.1937H20.4523V12.4686H18.2385V18.1937Z" fill="#F0F4F5"/>
        <path d="M21.4478 20.8108H17.2442C17.1582 20.8108 17.0757 20.7777 17.0149 20.7187C16.9541 20.6597 16.9199 20.5797 16.9199 20.4962V18.8734C16.9201 18.6932 16.9939 18.5204 17.1253 18.393C17.2566 18.2656 17.4347 18.1939 17.6205 18.1936H21.0716C21.2574 18.1939 21.4354 18.2656 21.5668 18.393C21.6981 18.5204 21.7719 18.6932 21.7721 18.8734V20.4962C21.7721 20.5797 21.7379 20.6597 21.6771 20.7187C21.6163 20.7777 21.5338 20.8108 21.4478 20.8108ZM17.5686 20.1817H21.1235V18.8734C21.1235 18.86 21.118 18.8472 21.1083 18.8377C21.0986 18.8282 21.0854 18.8228 21.0716 18.8227H17.6205C17.6067 18.8228 17.5935 18.8282 17.5837 18.8377C17.574 18.8472 17.5686 18.86 17.5686 18.8734V20.1817Z" fill="#F0F4F5"/>
        <path d="M13.7256 12.4689H10.2748C10.089 12.4687 9.9109 12.397 9.77957 12.2695C9.64824 12.1421 9.57439 11.9693 9.57422 11.7891V10.1672C9.57422 10.0838 9.60839 10.0038 9.66921 9.9448C9.73003 9.8858 9.81253 9.85266 9.89854 9.85266H14.1018C14.1878 9.85266 14.2703 9.8858 14.3311 9.9448C14.392 10.0038 14.4261 10.0838 14.4261 10.1672V11.7901C14.4257 11.9701 14.3517 12.1426 14.2204 12.2699C14.0891 12.3971 13.9112 12.4687 13.7256 12.4689ZM10.2229 10.4818V11.7901C10.2229 11.8035 10.2283 11.8163 10.238 11.8258C10.2478 11.8353 10.261 11.8407 10.2748 11.8407H13.7256C13.7394 11.8407 13.7526 11.8353 13.7623 11.8258C13.772 11.8163 13.7775 11.8035 13.7775 11.7901V10.4818H10.2229Z" fill="#F0F4F5"/>
        <path d="M13.4264 18.8229H10.5724C10.4864 18.8229 10.4039 18.7897 10.343 18.7307C10.2822 18.6717 10.248 18.5917 10.248 18.5083V12.154C10.248 12.0706 10.2822 11.9906 10.343 11.9316C10.4039 11.8726 10.4864 11.8395 10.5724 11.8395H13.4264C13.5124 11.8395 13.5949 11.8726 13.6558 11.9316C13.7166 11.9906 13.7508 12.0706 13.7508 12.154V18.5083C13.7508 18.5917 13.7166 18.6717 13.6558 18.7307C13.5949 18.7897 13.5124 18.8229 13.4264 18.8229ZM10.8967 18.1937H13.1021V12.4686H10.8967V18.1937Z" fill="#F0F4F5"/>
        <path d="M14.1018 20.8108H9.89854C9.81253 20.8108 9.73003 20.7777 9.66921 20.7187C9.60839 20.6597 9.57422 20.5797 9.57422 20.4962V18.8734C9.57439 18.6932 9.64824 18.5204 9.77957 18.393C9.9109 18.2656 10.089 18.1939 10.2748 18.1936H13.7256C13.9114 18.1939 14.0894 18.2656 14.2208 18.393C14.3521 18.5204 14.4259 18.6932 14.4261 18.8734V20.4962C14.4261 20.5797 14.392 20.6597 14.3311 20.7187C14.2703 20.7777 14.1878 20.8108 14.1018 20.8108ZM10.2225 20.1817H13.7775V18.8734C13.7775 18.86 13.772 18.8472 13.7623 18.8377C13.7526 18.8282 13.7394 18.8228 13.7256 18.8227H10.2748C10.261 18.8228 10.2478 18.8282 10.238 18.8377C10.2283 18.8472 10.2229 18.86 10.2229 18.8734L10.2225 20.1817Z" fill="#F0F4F5"/>
        <path d="M6.70246 12.4689H3.25132C3.06555 12.4687 2.88747 12.397 2.75614 12.2695C2.6248 12.1421 2.55095 11.9693 2.55078 11.7891V10.1672C2.55078 10.0838 2.58495 10.0038 2.64577 9.9448C2.7066 9.8858 2.78909 9.85266 2.87511 9.85266H7.07868C7.1647 9.85266 7.24719 9.8858 7.30801 9.9448C7.36884 10.0038 7.40301 10.0838 7.40301 10.1672V11.7901C7.40258 11.9701 7.32861 12.1426 7.19731 12.2699C7.06601 12.3971 6.88807 12.4687 6.70246 12.4689ZM3.19943 10.4818V11.7901C3.19943 11.8035 3.20489 11.8163 3.21461 11.8258C3.22433 11.8353 3.23753 11.8407 3.25132 11.8407H6.70246C6.71626 11.8407 6.72945 11.8353 6.73918 11.8258C6.7489 11.8163 6.75436 11.8035 6.75436 11.7901V10.4818H3.19943Z" fill="#F0F4F5"/>
        <path d="M6.42175 18.8229H3.53526C3.44925 18.8229 3.36675 18.7897 3.30593 18.7307C3.24511 18.6717 3.21094 18.5917 3.21094 18.5083V12.154C3.21094 12.0706 3.24511 11.9906 3.30593 11.9316C3.36675 11.8726 3.44925 11.8395 3.53526 11.8395H6.42175C6.50776 11.8395 6.59026 11.8726 6.65108 11.9316C6.7119 11.9906 6.74607 12.0706 6.74607 12.154V18.5083C6.74607 18.5917 6.7119 18.6717 6.65108 18.7307C6.59026 18.7897 6.50776 18.8229 6.42175 18.8229ZM3.85959 18.1937H6.09742V12.4686H3.85959V18.1937Z" fill="#F0F4F5"/>
        <path d="M7.07868 20.8108H2.87511C2.78909 20.8108 2.7066 20.7777 2.64577 20.7187C2.58495 20.6597 2.55078 20.5797 2.55078 20.4962V18.8734C2.55095 18.6932 2.6248 18.5204 2.75614 18.393C2.88747 18.2656 3.06555 18.1939 3.25132 18.1936H6.70246C6.88824 18.1939 7.06632 18.2656 7.19765 18.393C7.32898 18.5204 7.40283 18.6932 7.40301 18.8734V20.4962C7.40301 20.5797 7.36884 20.6597 7.30801 20.7187C7.24719 20.7777 7.1647 20.8108 7.07868 20.8108ZM3.19943 20.1817H6.75436V18.8734C6.75436 18.86 6.7489 18.8472 6.73918 18.8377C6.72945 18.8282 6.71626 18.8228 6.70246 18.8227H3.25132C3.23753 18.8228 3.22433 18.8282 3.21461 18.8377C3.20489 18.8472 3.19943 18.86 3.19943 18.8734V20.1817Z" fill="#F0F4F5"/>
        <path d="M23.0268 23.1588H0.972762C0.886746 23.1588 0.804252 23.1257 0.74343 23.0667C0.682607 23.0077 0.648438 22.9277 0.648438 22.8443V20.4963C0.648438 20.4129 0.682607 20.3329 0.74343 20.2739C0.804252 20.2149 0.886746 20.1818 0.972762 20.1818H23.0268C23.1128 20.1818 23.1953 20.2149 23.2561 20.2739C23.317 20.3329 23.3511 20.4129 23.3511 20.4963V22.8443C23.3511 22.9277 23.317 23.0077 23.2561 23.0667C23.1953 23.1257 23.1128 23.1588 23.0268 23.1588ZM1.29709 22.5297H22.7025V20.8109H1.29709V22.5297Z" fill="#F0F4F5"/>
    </g>
    <defs>
        <clipPath id="clip0">
            <rect width="24" height="23.2779" fill="white" transform="translate(0 0.51001)"/>
        </clipPath>
    </defs>
</svg>
