<svg width="79" height="69" viewBox="0 0 79 69" fill="none"
    xmlns="http://www.w3.org/2000/svg">
    <path d="M30.625 68.6185C28.595 68.6223 26.6189 67.9659 24.9947 66.7483L24.894 66.6727L3.6908 50.4387C2.70883 49.6864 1.88467 48.7479 1.26538 47.677C0.646091 46.6061 0.243798 45.4238 0.0814607 44.1974C-0.0808762 42.971 -6.4944e-05 41.7247 0.319267 40.5295C0.638598 39.3344 1.19019 38.2139 1.94258 37.2319C2.69496 36.2499 3.63339 35.4258 4.70429 34.8065C5.77518 34.1872 6.95757 33.7849 8.18394 33.6226C9.41031 33.4602 10.6566 33.541 11.8518 33.8603C13.0469 34.1797 14.1675 34.7313 15.1494 35.4837L28.8833 46.0146L61.3386 3.68819C62.0913 2.70647 63.03 1.88264 64.1011 1.26371C65.1722 0.644793 66.3547 0.242909 67.5812 0.0810139C68.8076 -0.0808807 70.0539 0.000383295 71.2489 0.320165C72.4439 0.639946 73.5643 1.19198 74.546 1.94475L74.3442 2.21873L74.5512 1.94874C76.5314 3.47066 77.8271 5.71594 78.1539 8.19198C78.4808 10.668 77.8121 13.1726 76.2946 15.1562L38.1194 64.9422C37.2365 66.0895 36.1012 67.0179 34.8015 67.6554C33.5017 68.293 32.0726 68.6225 30.625 68.6185Z" fill="#F27348"/>
</svg>
