<svg width="273" height="183" viewBox="0 0 273 183" fill="none" xmlns="http://www.w3.org/2000/svg">
<path d="M3.146 3.3V11H1.716V4.499H0.088V3.3H3.146ZM7.66545 11.11C7.04945 11.11 6.49945 10.956 6.01545 10.648C5.53145 10.3327 5.15012 9.878 4.87145 9.284C4.59279 8.68267 4.45345 7.97133 4.45345 7.15C4.45345 6.32867 4.59279 5.621 4.87145 5.027C5.15012 4.42567 5.53145 3.971 6.01545 3.663C6.49945 3.34767 7.04945 3.19 7.66545 3.19C8.28145 3.19 8.83145 3.34767 9.31545 3.663C9.80679 3.971 10.1918 4.42567 10.4705 5.027C10.7491 5.621 10.8885 6.32867 10.8885 7.15C10.8885 7.97133 10.7491 8.68267 10.4705 9.284C10.1918 9.878 9.80679 10.3327 9.31545 10.648C8.83145 10.956 8.28145 11.11 7.66545 11.11ZM7.66545 9.867C8.21545 9.867 8.64812 9.63967 8.96345 9.185C9.28612 8.73033 9.44745 8.052 9.44745 7.15C9.44745 6.248 9.28612 5.56967 8.96345 5.115C8.64812 4.66033 8.21545 4.433 7.66545 4.433C7.12279 4.433 6.69012 4.66033 6.36745 5.115C6.05212 5.56967 5.89445 6.248 5.89445 7.15C5.89445 8.052 6.05212 8.73033 6.36745 9.185C6.69012 9.63967 7.12279 9.867 7.66545 9.867ZM14.8468 11.11C14.2308 11.11 13.6808 10.956 13.1968 10.648C12.7128 10.3327 12.3315 9.878 12.0528 9.284C11.7742 8.68267 11.6348 7.97133 11.6348 7.15C11.6348 6.32867 11.7742 5.621 12.0528 5.027C12.3315 4.42567 12.7128 3.971 13.1968 3.663C13.6808 3.34767 14.2308 3.19 14.8468 3.19C15.4628 3.19 16.0128 3.34767 16.4968 3.663C16.9882 3.971 17.3732 4.42567 17.6518 5.027C17.9305 5.621 18.0698 6.32867 18.0698 7.15C18.0698 7.97133 17.9305 8.68267 17.6518 9.284C17.3732 9.878 16.9882 10.3327 16.4968 10.648C16.0128 10.956 15.4628 11.11 14.8468 11.11ZM14.8468 9.867C15.3968 9.867 15.8295 9.63967 16.1448 9.185C16.4675 8.73033 16.6288 8.052 16.6288 7.15C16.6288 6.248 16.4675 5.56967 16.1448 5.115C15.8295 4.66033 15.3968 4.433 14.8468 4.433C14.3042 4.433 13.8715 4.66033 13.5488 5.115C13.2335 5.56967 13.0758 6.248 13.0758 7.15C13.0758 8.052 13.2335 8.73033 13.5488 9.185C13.8715 9.63967 14.3042 9.867 14.8468 9.867ZM20.5322 7.447C19.9822 7.447 19.5385 7.25267 19.2012 6.864C18.8639 6.47533 18.6952 5.96567 18.6952 5.335C18.6952 4.70433 18.8639 4.19467 19.2012 3.806C19.5385 3.41733 19.9822 3.223 20.5322 3.223C21.0822 3.223 21.5259 3.41733 21.8632 3.806C22.2079 4.18733 22.3802 4.697 22.3802 5.335C22.3802 5.973 22.2079 6.48633 21.8632 6.875C21.5259 7.25633 21.0822 7.447 20.5322 7.447ZM25.1522 3.3H26.2302L20.9722 11H19.8942L25.1522 3.3ZM20.5322 6.677C20.8329 6.677 21.0639 6.55967 21.2252 6.325C21.3939 6.09033 21.4782 5.76033 21.4782 5.335C21.4782 4.90967 21.3939 4.57967 21.2252 4.345C21.0639 4.11033 20.8329 3.993 20.5322 3.993C20.2462 3.993 20.0152 4.114 19.8392 4.356C19.6705 4.59067 19.5862 4.917 19.5862 5.335C19.5862 5.753 19.6705 6.083 19.8392 6.325C20.0152 6.55967 20.2462 6.677 20.5322 6.677ZM25.5812 11.077C25.0312 11.077 24.5875 10.8827 24.2502 10.494C23.9129 10.1053 23.7442 9.59567 23.7442 8.965C23.7442 8.33433 23.9129 7.82467 24.2502 7.436C24.5875 7.04733 25.0312 6.853 25.5812 6.853C26.1312 6.853 26.5749 7.04733 26.9122 7.436C27.2569 7.82467 27.4292 8.33433 27.4292 8.965C27.4292 9.59567 27.2569 10.1053 26.9122 10.494C26.5749 10.8827 26.1312 11.077 25.5812 11.077ZM25.5812 10.307C25.8745 10.307 26.1055 10.1897 26.2742 9.955C26.4429 9.713 26.5272 9.383 26.5272 8.965C26.5272 8.547 26.4429 8.22067 26.2742 7.986C26.1055 7.744 25.8745 7.623 25.5812 7.623C25.2879 7.623 25.0569 7.74033 24.8882 7.975C24.7195 8.20967 24.6352 8.53967 24.6352 8.965C24.6352 9.39033 24.7195 9.72033 24.8882 9.955C25.0569 10.1897 25.2879 10.307 25.5812 10.307Z" fill="#989DB3"/>
<path d="M3.982 35.248C4.488 35.248 4.94267 35.347 5.346 35.545C5.74933 35.7357 6.06467 36.0107 6.292 36.37C6.51933 36.7293 6.633 37.1437 6.633 37.613C6.633 38.1117 6.50833 38.5517 6.259 38.933C6.00967 39.307 5.67233 39.5967 5.247 39.802C4.82167 40.0073 4.345 40.11 3.817 40.11C2.761 40.11 1.93967 39.78 1.353 39.12C0.773667 38.46 0.484 37.514 0.484 36.282C0.484 35.4167 0.641667 34.6797 0.957 34.071C1.27233 33.455 1.71233 32.9893 2.277 32.674C2.849 32.3513 3.509 32.19 4.257 32.19C4.653 32.19 5.02333 32.234 5.368 32.322C5.72 32.4027 6.02433 32.5237 6.281 32.685L5.753 33.763C5.37167 33.5137 4.884 33.389 4.29 33.389C3.54933 33.389 2.97 33.6163 2.552 34.071C2.134 34.5257 1.925 35.182 1.925 36.04V36.051C2.15233 35.787 2.442 35.589 2.794 35.457C3.146 35.3177 3.542 35.248 3.982 35.248ZM3.74 38.988C4.18733 38.988 4.55033 38.8707 4.829 38.636C5.10767 38.394 5.247 38.075 5.247 37.679C5.247 37.2757 5.10767 36.9567 4.829 36.722C4.55033 36.4873 4.17633 36.37 3.707 36.37C3.245 36.37 2.86733 36.4947 2.574 36.744C2.288 36.9933 2.145 37.3087 2.145 37.69C2.145 38.064 2.28433 38.3757 2.563 38.625C2.849 38.867 3.24133 38.988 3.74 38.988ZM10.3725 40.11C9.75648 40.11 9.20648 39.956 8.72248 39.648C8.23848 39.3327 7.85715 38.878 7.57848 38.284C7.29982 37.6827 7.16048 36.9713 7.16048 36.15C7.16048 35.3287 7.29982 34.621 7.57848 34.027C7.85715 33.4257 8.23848 32.971 8.72248 32.663C9.20648 32.3477 9.75648 32.19 10.3725 32.19C10.9885 32.19 11.5385 32.3477 12.0225 32.663C12.5138 32.971 12.8988 33.4257 13.1775 34.027C13.4562 34.621 13.5955 35.3287 13.5955 36.15C13.5955 36.9713 13.4562 37.6827 13.1775 38.284C12.8988 38.878 12.5138 39.3327 12.0225 39.648C11.5385 39.956 10.9885 40.11 10.3725 40.11ZM10.3725 38.867C10.9225 38.867 11.3552 38.6397 11.6705 38.185C11.9932 37.7303 12.1545 37.052 12.1545 36.15C12.1545 35.248 11.9932 34.5697 11.6705 34.115C11.3552 33.6603 10.9225 33.433 10.3725 33.433C9.82982 33.433 9.39715 33.6603 9.07448 34.115C8.75915 34.5697 8.60148 35.248 8.60148 36.15C8.60148 37.052 8.75915 37.7303 9.07448 38.185C9.39715 38.6397 9.82982 38.867 10.3725 38.867ZM16.0579 36.447C15.5079 36.447 15.0642 36.2527 14.7269 35.864C14.3895 35.4753 14.2209 34.9657 14.2209 34.335C14.2209 33.7043 14.3895 33.1947 14.7269 32.806C15.0642 32.4173 15.5079 32.223 16.0579 32.223C16.6079 32.223 17.0515 32.4173 17.3889 32.806C17.7335 33.1873 17.9059 33.697 17.9059 34.335C17.9059 34.973 17.7335 35.4863 17.3889 35.875C17.0515 36.2563 16.6079 36.447 16.0579 36.447ZM20.6779 32.3H21.7559L16.4979 40H15.4199L20.6779 32.3ZM16.0579 35.677C16.3585 35.677 16.5895 35.5597 16.7509 35.325C16.9195 35.0903 17.0039 34.7603 17.0039 34.335C17.0039 33.9097 16.9195 33.5797 16.7509 33.345C16.5895 33.1103 16.3585 32.993 16.0579 32.993C15.7719 32.993 15.5409 33.114 15.3649 33.356C15.1962 33.5907 15.1119 33.917 15.1119 34.335C15.1119 34.753 15.1962 35.083 15.3649 35.325C15.5409 35.5597 15.7719 35.677 16.0579 35.677ZM21.1069 40.077C20.5569 40.077 20.1132 39.8827 19.7759 39.494C19.4385 39.1053 19.2699 38.5957 19.2699 37.965C19.2699 37.3343 19.4385 36.8247 19.7759 36.436C20.1132 36.0473 20.5569 35.853 21.1069 35.853C21.6569 35.853 22.1005 36.0473 22.4379 36.436C22.7825 36.8247 22.9549 37.3343 22.9549 37.965C22.9549 38.5957 22.7825 39.1053 22.4379 39.494C22.1005 39.8827 21.6569 40.077 21.1069 40.077ZM21.1069 39.307C21.4002 39.307 21.6312 39.1897 21.7999 38.955C21.9685 38.713 22.0529 38.383 22.0529 37.965C22.0529 37.547 21.9685 37.2207 21.7999 36.986C21.6312 36.744 21.4002 36.623 21.1069 36.623C20.8135 36.623 20.5825 36.7403 20.4139 36.975C20.2452 37.2097 20.1609 37.5397 20.1609 37.965C20.1609 38.3903 20.2452 38.7203 20.4139 38.955C20.5825 39.1897 20.8135 39.307 21.1069 39.307Z" fill="#989DB3"/>
<path d="M7.348 68.251H5.984V70H4.598V68.251H0.374V67.261L4.169 62.3H5.698L2.123 67.041H4.642V65.49H5.984V67.041H7.348V68.251ZM10.9418 70.11C10.3258 70.11 9.77582 69.956 9.29182 69.648C8.80782 69.3327 8.42649 68.878 8.14782 68.284C7.86915 67.6827 7.72982 66.9713 7.72982 66.15C7.72982 65.3287 7.86915 64.621 8.14782 64.027C8.42649 63.4257 8.80782 62.971 9.29182 62.663C9.77582 62.3477 10.3258 62.19 10.9418 62.19C11.5578 62.19 12.1078 62.3477 12.5918 62.663C13.0832 62.971 13.4682 63.4257 13.7468 64.027C14.0255 64.621 14.1648 65.3287 14.1648 66.15C14.1648 66.9713 14.0255 67.6827 13.7468 68.284C13.4682 68.878 13.0832 69.3327 12.5918 69.648C12.1078 69.956 11.5578 70.11 10.9418 70.11ZM10.9418 68.867C11.4918 68.867 11.9245 68.6397 12.2398 68.185C12.5625 67.7303 12.7238 67.052 12.7238 66.15C12.7238 65.248 12.5625 64.5697 12.2398 64.115C11.9245 63.6603 11.4918 63.433 10.9418 63.433C10.3992 63.433 9.96649 63.6603 9.64382 64.115C9.32849 64.5697 9.17082 65.248 9.17082 66.15C9.17082 67.052 9.32849 67.7303 9.64382 68.185C9.96649 68.6397 10.3992 68.867 10.9418 68.867ZM16.6272 66.447C16.0772 66.447 15.6335 66.2527 15.2962 65.864C14.9589 65.4753 14.7902 64.9657 14.7902 64.335C14.7902 63.7043 14.9589 63.1947 15.2962 62.806C15.6335 62.4173 16.0772 62.223 16.6272 62.223C17.1772 62.223 17.6209 62.4173 17.9582 62.806C18.3029 63.1873 18.4752 63.697 18.4752 64.335C18.4752 64.973 18.3029 65.4863 17.9582 65.875C17.6209 66.2563 17.1772 66.447 16.6272 66.447ZM21.2472 62.3H22.3252L17.0672 70H15.9892L21.2472 62.3ZM16.6272 65.677C16.9279 65.677 17.1589 65.5597 17.3202 65.325C17.4889 65.0903 17.5732 64.7603 17.5732 64.335C17.5732 63.9097 17.4889 63.5797 17.3202 63.345C17.1589 63.1103 16.9279 62.993 16.6272 62.993C16.3412 62.993 16.1102 63.114 15.9342 63.356C15.7655 63.5907 15.6812 63.917 15.6812 64.335C15.6812 64.753 15.7655 65.083 15.9342 65.325C16.1102 65.5597 16.3412 65.677 16.6272 65.677ZM21.6762 70.077C21.1262 70.077 20.6825 69.8827 20.3452 69.494C20.0079 69.1053 19.8392 68.5957 19.8392 67.965C19.8392 67.3343 20.0079 66.8247 20.3452 66.436C20.6825 66.0473 21.1262 65.853 21.6762 65.853C22.2262 65.853 22.6699 66.0473 23.0072 66.436C23.3519 66.8247 23.5242 67.3343 23.5242 67.965C23.5242 68.5957 23.3519 69.1053 23.0072 69.494C22.6699 69.8827 22.2262 70.077 21.6762 70.077ZM21.6762 69.307C21.9695 69.307 22.2005 69.1897 22.3692 68.955C22.5379 68.713 22.6222 68.383 22.6222 67.965C22.6222 67.547 22.5379 67.2207 22.3692 66.986C22.2005 66.744 21.9695 66.623 21.6762 66.623C21.3829 66.623 21.1519 66.7403 20.9832 66.975C20.8145 67.2097 20.7302 67.5397 20.7302 67.965C20.7302 68.3903 20.8145 68.7203 20.9832 68.955C21.1519 69.1897 21.3829 69.307 21.6762 69.307Z" fill="#989DB3"/>
<path d="M6.061 98.79V100H0.385V99.043L3.443 96.139C3.78767 95.809 4.01867 95.523 4.136 95.281C4.26067 95.0317 4.323 94.786 4.323 94.544C4.323 94.1847 4.202 93.9097 3.96 93.719C3.718 93.5283 3.36233 93.433 2.893 93.433C2.10833 93.433 1.507 93.7007 1.089 94.236L0.088 93.466C0.388667 93.0627 0.792 92.751 1.298 92.531C1.81133 92.3037 2.38333 92.19 3.014 92.19C3.85 92.19 4.51733 92.388 5.016 92.784C5.51467 93.18 5.764 93.719 5.764 94.401C5.764 94.819 5.676 95.2113 5.5 95.578C5.324 95.9447 4.98667 96.3627 4.488 96.832L2.431 98.79H6.061ZM9.84612 100.11C9.23012 100.11 8.68012 99.956 8.19612 99.648C7.71212 99.3327 7.33078 98.878 7.05212 98.284C6.77345 97.6827 6.63412 96.9713 6.63412 96.15C6.63412 95.3287 6.77345 94.621 7.05212 94.027C7.33078 93.4257 7.71212 92.971 8.19612 92.663C8.68012 92.3477 9.23012 92.19 9.84612 92.19C10.4621 92.19 11.0121 92.3477 11.4961 92.663C11.9875 92.971 12.3725 93.4257 12.6511 94.027C12.9298 94.621 13.0691 95.3287 13.0691 96.15C13.0691 96.9713 12.9298 97.6827 12.6511 98.284C12.3725 98.878 11.9875 99.3327 11.4961 99.648C11.0121 99.956 10.4621 100.11 9.84612 100.11ZM9.84612 98.867C10.3961 98.867 10.8288 98.6397 11.1441 98.185C11.4668 97.7303 11.6281 97.052 11.6281 96.15C11.6281 95.248 11.4668 94.5697 11.1441 94.115C10.8288 93.6603 10.3961 93.433 9.84612 93.433C9.30345 93.433 8.87078 93.6603 8.54812 94.115C8.23278 94.5697 8.07512 95.248 8.07512 96.15C8.07512 97.052 8.23278 97.7303 8.54812 98.185C8.87078 98.6397 9.30345 98.867 9.84612 98.867ZM15.5315 96.447C14.9815 96.447 14.5378 96.2527 14.2005 95.864C13.8632 95.4753 13.6945 94.9657 13.6945 94.335C13.6945 93.7043 13.8632 93.1947 14.2005 92.806C14.5378 92.4173 14.9815 92.223 15.5315 92.223C16.0815 92.223 16.5252 92.4173 16.8625 92.806C17.2072 93.1873 17.3795 93.697 17.3795 94.335C17.3795 94.973 17.2072 95.4863 16.8625 95.875C16.5252 96.2563 16.0815 96.447 15.5315 96.447ZM20.1515 92.3H21.2295L15.9715 100H14.8935L20.1515 92.3ZM15.5315 95.677C15.8322 95.677 16.0632 95.5597 16.2245 95.325C16.3932 95.0903 16.4775 94.7603 16.4775 94.335C16.4775 93.9097 16.3932 93.5797 16.2245 93.345C16.0632 93.1103 15.8322 92.993 15.5315 92.993C15.2455 92.993 15.0145 93.114 14.8385 93.356C14.6698 93.5907 14.5855 93.917 14.5855 94.335C14.5855 94.753 14.6698 95.083 14.8385 95.325C15.0145 95.5597 15.2455 95.677 15.5315 95.677ZM20.5805 100.077C20.0305 100.077 19.5868 99.8827 19.2495 99.494C18.9122 99.1053 18.7435 98.5957 18.7435 97.965C18.7435 97.3343 18.9122 96.8247 19.2495 96.436C19.5868 96.0473 20.0305 95.853 20.5805 95.853C21.1305 95.853 21.5742 96.0473 21.9115 96.436C22.2562 96.8247 22.4285 97.3343 22.4285 97.965C22.4285 98.5957 22.2562 99.1053 21.9115 99.494C21.5742 99.8827 21.1305 100.077 20.5805 100.077ZM20.5805 99.307C20.8738 99.307 21.1048 99.1897 21.2735 98.955C21.4422 98.713 21.5265 98.383 21.5265 97.965C21.5265 97.547 21.4422 97.2207 21.2735 96.986C21.1048 96.744 20.8738 96.623 20.5805 96.623C20.2872 96.623 20.0562 96.7403 19.8875 96.975C19.7188 97.2097 19.6345 97.5397 19.6345 97.965C19.6345 98.3903 19.7188 98.7203 19.8875 98.955C20.0562 99.1897 20.2872 99.307 20.5805 99.307Z" fill="#989DB3"/>
<path d="M3.146 121.3V129H1.716V122.499H0.088V121.3H3.146ZM7.66545 129.11C7.04945 129.11 6.49945 128.956 6.01545 128.648C5.53145 128.333 5.15012 127.878 4.87145 127.284C4.59279 126.683 4.45345 125.971 4.45345 125.15C4.45345 124.329 4.59279 123.621 4.87145 123.027C5.15012 122.426 5.53145 121.971 6.01545 121.663C6.49945 121.348 7.04945 121.19 7.66545 121.19C8.28145 121.19 8.83145 121.348 9.31545 121.663C9.80679 121.971 10.1918 122.426 10.4705 123.027C10.7491 123.621 10.8885 124.329 10.8885 125.15C10.8885 125.971 10.7491 126.683 10.4705 127.284C10.1918 127.878 9.80679 128.333 9.31545 128.648C8.83145 128.956 8.28145 129.11 7.66545 129.11ZM7.66545 127.867C8.21545 127.867 8.64812 127.64 8.96345 127.185C9.28612 126.73 9.44745 126.052 9.44745 125.15C9.44745 124.248 9.28612 123.57 8.96345 123.115C8.64812 122.66 8.21545 122.433 7.66545 122.433C7.12279 122.433 6.69012 122.66 6.36745 123.115C6.05212 123.57 5.89445 124.248 5.89445 125.15C5.89445 126.052 6.05212 126.73 6.36745 127.185C6.69012 127.64 7.12279 127.867 7.66545 127.867ZM13.3508 125.447C12.8008 125.447 12.3572 125.253 12.0198 124.864C11.6825 124.475 11.5138 123.966 11.5138 123.335C11.5138 122.704 11.6825 122.195 12.0198 121.806C12.3572 121.417 12.8008 121.223 13.3508 121.223C13.9008 121.223 14.3445 121.417 14.6818 121.806C15.0265 122.187 15.1988 122.697 15.1988 123.335C15.1988 123.973 15.0265 124.486 14.6818 124.875C14.3445 125.256 13.9008 125.447 13.3508 125.447ZM17.9708 121.3H19.0488L13.7908 129H12.7128L17.9708 121.3ZM13.3508 124.677C13.6515 124.677 13.8825 124.56 14.0438 124.325C14.2125 124.09 14.2968 123.76 14.2968 123.335C14.2968 122.91 14.2125 122.58 14.0438 122.345C13.8825 122.11 13.6515 121.993 13.3508 121.993C13.0648 121.993 12.8338 122.114 12.6578 122.356C12.4892 122.591 12.4048 122.917 12.4048 123.335C12.4048 123.753 12.4892 124.083 12.6578 124.325C12.8338 124.56 13.0648 124.677 13.3508 124.677ZM18.3998 129.077C17.8498 129.077 17.4062 128.883 17.0688 128.494C16.7315 128.105 16.5628 127.596 16.5628 126.965C16.5628 126.334 16.7315 125.825 17.0688 125.436C17.4062 125.047 17.8498 124.853 18.3998 124.853C18.9498 124.853 19.3935 125.047 19.7308 125.436C20.0755 125.825 20.2478 126.334 20.2478 126.965C20.2478 127.596 20.0755 128.105 19.7308 128.494C19.3935 128.883 18.9498 129.077 18.3998 129.077ZM18.3998 128.307C18.6932 128.307 18.9242 128.19 19.0928 127.955C19.2615 127.713 19.3458 127.383 19.3458 126.965C19.3458 126.547 19.2615 126.221 19.0928 125.986C18.9242 125.744 18.6932 125.623 18.3998 125.623C18.1065 125.623 17.8755 125.74 17.7068 125.975C17.5382 126.21 17.4538 126.54 17.4538 126.965C17.4538 127.39 17.5382 127.72 17.7068 127.955C17.8755 128.19 18.1065 128.307 18.3998 128.307Z" fill="#989DB3"/>
<path d="M3.696 159.11C3.08 159.11 2.53 158.956 2.046 158.648C1.562 158.333 1.18067 157.878 0.902 157.284C0.623333 156.683 0.484 155.971 0.484 155.15C0.484 154.329 0.623333 153.621 0.902 153.027C1.18067 152.426 1.562 151.971 2.046 151.663C2.53 151.348 3.08 151.19 3.696 151.19C4.312 151.19 4.862 151.348 5.346 151.663C5.83733 151.971 6.22233 152.426 6.501 153.027C6.77967 153.621 6.919 154.329 6.919 155.15C6.919 155.971 6.77967 156.683 6.501 157.284C6.22233 157.878 5.83733 158.333 5.346 158.648C4.862 158.956 4.312 159.11 3.696 159.11ZM3.696 157.867C4.246 157.867 4.67867 157.64 4.994 157.185C5.31667 156.73 5.478 156.052 5.478 155.15C5.478 154.248 5.31667 153.57 4.994 153.115C4.67867 152.66 4.246 152.433 3.696 152.433C3.15333 152.433 2.72067 152.66 2.398 153.115C2.08267 153.57 1.925 154.248 1.925 155.15C1.925 156.052 2.08267 156.73 2.398 157.185C2.72067 157.64 3.15333 157.867 3.696 157.867ZM9.38137 155.447C8.83137 155.447 8.3877 155.253 8.05037 154.864C7.71303 154.475 7.54437 153.966 7.54437 153.335C7.54437 152.704 7.71303 152.195 8.05037 151.806C8.3877 151.417 8.83137 151.223 9.38137 151.223C9.93137 151.223 10.375 151.417 10.7124 151.806C11.057 152.187 11.2294 152.697 11.2294 153.335C11.2294 153.973 11.057 154.486 10.7124 154.875C10.375 155.256 9.93137 155.447 9.38137 155.447ZM14.0014 151.3H15.0794L9.82137 159H8.74337L14.0014 151.3ZM9.38137 154.677C9.68203 154.677 9.91303 154.56 10.0744 154.325C10.243 154.09 10.3274 153.76 10.3274 153.335C10.3274 152.91 10.243 152.58 10.0744 152.345C9.91303 152.11 9.68203 151.993 9.38137 151.993C9.09537 151.993 8.86437 152.114 8.68837 152.356C8.5197 152.591 8.43537 152.917 8.43537 153.335C8.43537 153.753 8.5197 154.083 8.68837 154.325C8.86437 154.56 9.09537 154.677 9.38137 154.677ZM14.4304 159.077C13.8804 159.077 13.4367 158.883 13.0994 158.494C12.762 158.105 12.5934 157.596 12.5934 156.965C12.5934 156.334 12.762 155.825 13.0994 155.436C13.4367 155.047 13.8804 154.853 14.4304 154.853C14.9804 154.853 15.424 155.047 15.7614 155.436C16.106 155.825 16.2784 156.334 16.2784 156.965C16.2784 157.596 16.106 158.105 15.7614 158.494C15.424 158.883 14.9804 159.077 14.4304 159.077ZM14.4304 158.307C14.7237 158.307 14.9547 158.19 15.1234 157.955C15.292 157.713 15.3764 157.383 15.3764 156.965C15.3764 156.547 15.292 156.221 15.1234 155.986C14.9547 155.744 14.7237 155.623 14.4304 155.623C14.137 155.623 13.906 155.74 13.7374 155.975C13.5687 156.21 13.4844 156.54 13.4844 156.965C13.4844 157.39 13.5687 157.72 13.7374 157.955C13.906 158.19 14.137 158.307 14.4304 158.307Z" fill="#989DB3"/>
<path d="M50.4014 7H267.992" stroke="#E8E8E8" stroke-width="0.978261" stroke-linecap="square"/>
<path d="M50.4092 35H268" stroke="#E8E8E8" stroke-width="0.978261" stroke-linecap="square"/>
<path d="M50.4014 65H267.992" stroke="#E8E8E8" stroke-width="0.978261" stroke-linecap="square"/>
<path d="M50.4014 95H267.992" stroke="#E8E8E8" stroke-width="0.978261" stroke-linecap="square"/>
<path d="M50.3779 123H267.969" stroke="#E8E8E8" stroke-width="0.978261" stroke-linecap="square"/>
<path d="M49.9268 153H267.518" stroke="#E8E8E8" stroke-width="0.978261" stroke-linecap="square"/>
<path d="M51.3941 172.3L48.8421 180H47.3241L45.4211 174.302L43.4851 180H41.9561L39.4041 172.3H40.8891L42.8031 178.152L44.7941 172.3H46.1141L48.0611 178.185L50.0301 172.3H51.3941ZM57.2887 177.096C57.2887 177.191 57.2813 177.327 57.2667 177.503H52.6577C52.7383 177.936 52.9473 178.28 53.2847 178.537C53.6293 178.786 54.0547 178.911 54.5607 178.911C55.206 178.911 55.7377 178.698 56.1557 178.273L56.8927 179.12C56.6287 179.435 56.295 179.674 55.8917 179.835C55.4883 179.996 55.0337 180.077 54.5277 180.077C53.8823 180.077 53.314 179.949 52.8227 179.692C52.3313 179.435 51.95 179.08 51.6787 178.625C51.4147 178.163 51.2827 177.642 51.2827 177.063C51.2827 176.491 51.411 175.978 51.6677 175.523C51.9317 175.061 52.2947 174.702 52.7567 174.445C53.2187 174.188 53.7393 174.06 54.3187 174.06C54.8907 174.06 55.4003 174.188 55.8477 174.445C56.3023 174.694 56.6543 175.05 56.9037 175.512C57.1603 175.967 57.2887 176.495 57.2887 177.096ZM54.3187 175.16C53.8787 175.16 53.5047 175.292 53.1967 175.556C52.896 175.813 52.7127 176.157 52.6467 176.59H55.9797C55.921 176.165 55.7413 175.82 55.4407 175.556C55.14 175.292 54.766 175.16 54.3187 175.16ZM63.9114 177.096C63.9114 177.191 63.9041 177.327 63.8894 177.503H59.2804C59.3611 177.936 59.5701 178.28 59.9074 178.537C60.2521 178.786 60.6774 178.911 61.1834 178.911C61.8288 178.911 62.3604 178.698 62.7784 178.273L63.5154 179.12C63.2514 179.435 62.9178 179.674 62.5144 179.835C62.1111 179.996 61.6564 180.077 61.1504 180.077C60.5051 180.077 59.9368 179.949 59.4454 179.692C58.9541 179.435 58.5728 179.08 58.3014 178.625C58.0374 178.163 57.9054 177.642 57.9054 177.063C57.9054 176.491 58.0338 175.978 58.2904 175.523C58.5544 175.061 58.9174 174.702 59.3794 174.445C59.8414 174.188 60.3621 174.06 60.9414 174.06C61.5134 174.06 62.0231 174.188 62.4704 174.445C62.9251 174.694 63.2771 175.05 63.5264 175.512C63.7831 175.967 63.9114 176.495 63.9114 177.096ZM60.9414 175.16C60.5014 175.16 60.1274 175.292 59.8194 175.556C59.5188 175.813 59.3354 176.157 59.2694 176.59H62.6024C62.5438 176.165 62.3641 175.82 62.0634 175.556C61.7628 175.292 61.3888 175.16 60.9414 175.16ZM67.4102 177.481L66.3872 178.449V180H65.0122V171.838H66.3872V176.766L69.2362 174.126H70.8862L68.4332 176.59L71.1172 180H69.4452L67.4102 177.481ZM76.8494 172.3V180H75.4194V173.499H73.7914V172.3H76.8494Z" fill="#989DB3"/>
<path d="M39 38C39 35.2386 41.2386 33 44 33H53C55.7614 33 58 35.2386 58 38V151.521H39V38Z" fill="#F27348"/>
<path d="M58 111.702C58 108.941 60.2386 106.702 63 106.702H72C74.7614 106.702 77 108.941 77 111.702V151.521H58V111.702Z" fill="#76CDCD"/>
<path d="M112.288 172.3L109.736 180H108.218L106.315 174.302L104.379 180H102.85L100.298 172.3H101.783L103.697 178.152L105.688 172.3H107.008L108.955 178.185L110.924 172.3H112.288ZM118.182 177.096C118.182 177.191 118.175 177.327 118.16 177.503H113.551C113.632 177.936 113.841 178.28 114.178 178.537C114.523 178.786 114.948 178.911 115.454 178.911C116.1 178.911 116.631 178.698 117.049 178.273L117.786 179.12C117.522 179.435 117.189 179.674 116.785 179.835C116.382 179.996 115.927 180.077 115.421 180.077C114.776 180.077 114.208 179.949 113.716 179.692C113.225 179.435 112.844 179.08 112.572 178.625C112.308 178.163 112.176 177.642 112.176 177.063C112.176 176.491 112.305 175.978 112.561 175.523C112.825 175.061 113.188 174.702 113.65 174.445C114.112 174.188 114.633 174.06 115.212 174.06C115.784 174.06 116.294 174.188 116.741 174.445C117.196 174.694 117.548 175.05 117.797 175.512C118.054 175.967 118.182 176.495 118.182 177.096ZM115.212 175.16C114.772 175.16 114.398 175.292 114.09 175.556C113.79 175.813 113.606 176.157 113.54 176.59H116.873C116.815 176.165 116.635 175.82 116.334 175.556C116.034 175.292 115.66 175.16 115.212 175.16ZM124.805 177.096C124.805 177.191 124.798 177.327 124.783 177.503H120.174C120.255 177.936 120.464 178.28 120.801 178.537C121.146 178.786 121.571 178.911 122.077 178.911C122.722 178.911 123.254 178.698 123.672 178.273L124.409 179.12C124.145 179.435 123.811 179.674 123.408 179.835C123.005 179.996 122.55 180.077 122.044 180.077C121.399 180.077 120.83 179.949 120.339 179.692C119.848 179.435 119.466 179.08 119.195 178.625C118.931 178.163 118.799 177.642 118.799 177.063C118.799 176.491 118.927 175.978 119.184 175.523C119.448 175.061 119.811 174.702 120.273 174.445C120.735 174.188 121.256 174.06 121.835 174.06C122.407 174.06 122.917 174.188 123.364 174.445C123.819 174.694 124.171 175.05 124.42 175.512C124.677 175.967 124.805 176.495 124.805 177.096ZM121.835 175.16C121.395 175.16 121.021 175.292 120.713 175.556C120.412 175.813 120.229 176.157 120.163 176.59H123.496C123.437 176.165 123.258 175.82 122.957 175.556C122.656 175.292 122.282 175.16 121.835 175.16ZM128.304 177.481L127.281 178.449V180H125.906V171.838H127.281V176.766L130.13 174.126H131.78L129.327 176.59L132.011 180H130.339L128.304 177.481ZM140.658 178.79V180H134.982V179.043L138.04 176.139C138.385 175.809 138.616 175.523 138.733 175.281C138.858 175.032 138.92 174.786 138.92 174.544C138.92 174.185 138.799 173.91 138.557 173.719C138.315 173.528 137.959 173.433 137.49 173.433C136.705 173.433 136.104 173.701 135.686 174.236L134.685 173.466C134.986 173.063 135.389 172.751 135.895 172.531C136.408 172.304 136.98 172.19 137.611 172.19C138.447 172.19 139.114 172.388 139.613 172.784C140.112 173.18 140.361 173.719 140.361 174.401C140.361 174.819 140.273 175.211 140.097 175.578C139.921 175.945 139.584 176.363 139.085 176.832L137.028 178.79H140.658Z" fill="#989DB3"/>
<path d="M99 56C99 53.2386 101.239 51 104 51H113C115.761 51 118 53.2386 118 56V152H99V56Z" fill="#F27348"/>
<path d="M118 64C118 61.2386 120.239 59 123 59H132C134.761 59 137 61.2386 137 64V152H118V64Z" fill="#76CDCD"/>
<path d="M177.238 172.3L174.686 180H173.168L171.265 174.302L169.329 180H167.8L165.248 172.3H166.733L168.647 178.152L170.638 172.3H171.958L173.905 178.185L175.874 172.3H177.238ZM183.352 177.096C183.352 177.191 183.345 177.327 183.33 177.503H178.721C178.802 177.936 179.011 178.28 179.348 178.537C179.693 178.786 180.118 178.911 180.624 178.911C181.27 178.911 181.801 178.698 182.219 178.273L182.956 179.12C182.692 179.435 182.359 179.674 181.955 179.835C181.552 179.996 181.097 180.077 180.591 180.077C179.946 180.077 179.378 179.949 178.886 179.692C178.395 179.435 178.014 179.08 177.742 178.625C177.478 178.163 177.346 177.642 177.346 177.063C177.346 176.491 177.475 175.978 177.731 175.523C177.995 175.061 178.358 174.702 178.82 174.445C179.282 174.188 179.803 174.06 180.382 174.06C180.954 174.06 181.464 174.188 181.911 174.445C182.366 174.694 182.718 175.05 182.967 175.512C183.224 175.967 183.352 176.495 183.352 177.096ZM180.382 175.16C179.942 175.16 179.568 175.292 179.26 175.556C178.96 175.813 178.776 176.157 178.71 176.59H182.043C181.985 176.165 181.805 175.82 181.504 175.556C181.204 175.292 180.83 175.16 180.382 175.16ZM190.195 177.096C190.195 177.191 190.188 177.327 190.173 177.503H185.564C185.645 177.936 185.854 178.28 186.191 178.537C186.536 178.786 186.961 178.911 187.467 178.911C188.112 178.911 188.644 178.698 189.062 178.273L189.799 179.12C189.535 179.435 189.201 179.674 188.798 179.835C188.395 179.996 187.94 180.077 187.434 180.077C186.789 180.077 186.22 179.949 185.729 179.692C185.238 179.435 184.856 179.08 184.585 178.625C184.321 178.163 184.189 177.642 184.189 177.063C184.189 176.491 184.317 175.978 184.574 175.523C184.838 175.061 185.201 174.702 185.663 174.445C186.125 174.188 186.646 174.06 187.225 174.06C187.797 174.06 188.307 174.188 188.754 174.445C189.209 174.694 189.561 175.05 189.81 175.512C190.067 175.967 190.195 176.495 190.195 177.096ZM187.225 175.16C186.785 175.16 186.411 175.292 186.103 175.556C185.802 175.813 185.619 176.157 185.553 176.59H188.886C188.827 176.165 188.648 175.82 188.347 175.556C188.046 175.292 187.672 175.16 187.225 175.16ZM193.914 177.481L192.891 178.449V180H191.516V171.838H192.891V176.766L195.74 174.126H197.39L194.937 176.59L197.621 180H195.949L193.914 177.481ZM204.409 175.479C205.12 175.567 205.663 175.809 206.037 176.205C206.411 176.601 206.598 177.096 206.598 177.69C206.598 178.137 206.484 178.544 206.257 178.911C206.03 179.278 205.685 179.571 205.223 179.791C204.768 180.004 204.211 180.11 203.551 180.11C203.001 180.11 202.469 180.033 201.956 179.879C201.45 179.718 201.017 179.498 200.658 179.219L201.274 178.108C201.553 178.343 201.89 178.53 202.286 178.669C202.689 178.801 203.104 178.867 203.529 178.867C204.035 178.867 204.431 178.764 204.717 178.559C205.01 178.346 205.157 178.06 205.157 177.701C205.157 177.342 205.018 177.063 204.739 176.865C204.468 176.66 204.05 176.557 203.485 176.557H202.781V175.578L204.53 173.499H201.032V172.3H206.279V173.257L204.409 175.479Z" fill="#989DB3"/>
<path d="M164 19C164 16.2386 166.239 14 169 14H178C180.761 14 183 16.2386 183 19V152H164V19Z" fill="#F27348"/>
<path d="M183 48C183 45.2386 185.239 43 188 43H197C199.761 43 202 45.2386 202 48V152H183V48Z" fill="#76CDCD"/>
<path d="M242.756 172.3L240.204 180H238.686L236.783 174.302L234.847 180H233.318L230.766 172.3H232.251L234.165 178.152L236.156 172.3H237.476L239.423 178.185L241.392 172.3H242.756ZM248.65 177.096C248.65 177.191 248.643 177.327 248.628 177.503H244.019C244.1 177.936 244.309 178.28 244.646 178.537C244.991 178.786 245.416 178.911 245.922 178.911C246.568 178.911 247.099 178.698 247.517 178.273L248.254 179.12C247.99 179.435 247.657 179.674 247.253 179.835C246.85 179.996 246.395 180.077 245.889 180.077C245.244 180.077 244.676 179.949 244.184 179.692C243.693 179.435 243.312 179.08 243.04 178.625C242.776 178.163 242.644 177.642 242.644 177.063C242.644 176.491 242.773 175.978 243.029 175.523C243.293 175.061 243.656 174.702 244.118 174.445C244.58 174.188 245.101 174.06 245.68 174.06C246.252 174.06 246.762 174.188 247.209 174.445C247.664 174.694 248.016 175.05 248.265 175.512C248.522 175.967 248.65 176.495 248.65 177.096ZM245.68 175.16C245.24 175.16 244.866 175.292 244.558 175.556C244.258 175.813 244.074 176.157 244.008 176.59H247.341C247.283 176.165 247.103 175.82 246.802 175.556C246.502 175.292 246.128 175.16 245.68 175.16ZM255.273 177.096C255.273 177.191 255.266 177.327 255.251 177.503H250.642C250.723 177.936 250.932 178.28 251.269 178.537C251.614 178.786 252.039 178.911 252.545 178.911C253.191 178.911 253.722 178.698 254.14 178.273L254.877 179.12C254.613 179.435 254.28 179.674 253.876 179.835C253.473 179.996 253.018 180.077 252.512 180.077C251.867 180.077 251.299 179.949 250.807 179.692C250.316 179.435 249.935 179.08 249.663 178.625C249.399 178.163 249.267 177.642 249.267 177.063C249.267 176.491 249.396 175.978 249.652 175.523C249.916 175.061 250.279 174.702 250.741 174.445C251.203 174.188 251.724 174.06 252.303 174.06C252.875 174.06 253.385 174.188 253.832 174.445C254.287 174.694 254.639 175.05 254.888 175.512C255.145 175.967 255.273 176.495 255.273 177.096ZM252.303 175.16C251.863 175.16 251.489 175.292 251.181 175.556C250.881 175.813 250.697 176.157 250.631 176.59H253.964C253.906 176.165 253.726 175.82 253.425 175.556C253.125 175.292 252.751 175.16 252.303 175.16ZM258.772 177.481L257.749 178.449V180H256.374V171.838H257.749V176.766L260.598 174.126H262.248L259.795 176.59L262.479 180H260.807L258.772 177.481ZM272.413 178.251H271.049V180H269.663V178.251H265.439V177.261L269.234 172.3H270.763L267.188 177.041H269.707V175.49H271.049V177.041H272.413V178.251Z" fill="#989DB3"/>
<path d="M230 25C230 22.2386 232.239 20 235 20H244C246.761 20 249 22.2386 249 25V152H230V25Z" fill="#F27348"/>
<path d="M249 84C249 81.2386 251.239 79 254 79H263C265.761 79 268 81.2386 268 84V152H249V84Z" fill="#76CDCD"/>
</svg>
