<svg width="521" height="268" viewBox="0 0 521 268" fill="none" xmlns="http://www.w3.org/2000/svg">
<path d="M41.6924 106.001H518" stroke="#E8E8E8" stroke-width="1.54386" stroke-linecap="square"/>
<path d="M41.6924 69.6675H518" stroke="#E8E8E8" stroke-width="1.54386" stroke-linecap="square"/>
<path d="M41.6924 33.334H518" stroke="#E8E8E8" stroke-width="1.54386" stroke-linecap="square"/>
<path d="M41.6455 141.004H517.953" stroke="#E8E8E8" stroke-width="1.54386" stroke-linecap="square"/>
<path d="M41.6455 176.007H517.953" stroke="#E8E8E8" stroke-width="1.54386" stroke-linecap="square"/>
<path d="M41.6455 212.03H517.953" stroke="#E8E8E8" stroke-width="1.54386" stroke-linecap="square"/>
<path d="M41 246H517.308" stroke="#E8E8E8" stroke-width="1.54386" stroke-linecap="square"/>
<path d="M3.24389 69.6435C4.42789 69.6435 5.30389 69.8755 5.87189 70.3395C6.43989 70.7955 6.72389 71.4195 6.72389 72.2115C6.72389 72.7155 6.59989 73.1715 6.35189 73.5795C6.10389 73.9875 5.73189 74.3115 5.23589 74.5515C4.73989 74.7915 4.12789 74.9115 3.39989 74.9115C2.79989 74.9115 2.21989 74.8275 1.65989 74.6595C1.09989 74.4835 0.627891 74.2435 0.243891 73.9395L0.903891 72.7275C1.21589 72.9835 1.58789 73.1875 2.01989 73.3395C2.45989 73.4835 2.91189 73.5555 3.37589 73.5555C3.92789 73.5555 4.35989 73.4435 4.67189 73.2195C4.99189 72.9875 5.15189 72.6715 5.15189 72.2715C5.15189 71.8395 4.97989 71.5155 4.63589 71.2995C4.29989 71.0755 3.71989 70.9635 2.89589 70.9635H0.867891L1.29989 66.3915H6.23189V67.6995H2.61989L2.43989 69.6435H3.24389ZM11.1277 74.9115C10.4557 74.9115 9.8557 74.7435 9.3277 74.4075C8.7997 74.0635 8.3837 73.5675 8.0797 72.9195C7.7757 72.2635 7.6237 71.4875 7.6237 70.5915C7.6237 69.6955 7.7757 68.9235 8.0797 68.2755C8.3837 67.6195 8.7997 67.1235 9.3277 66.7875C9.8557 66.4435 10.4557 66.2715 11.1277 66.2715C11.7997 66.2715 12.3997 66.4435 12.9277 66.7875C13.4637 67.1235 13.8837 67.6195 14.1877 68.2755C14.4917 68.9235 14.6437 69.6955 14.6437 70.5915C14.6437 71.4875 14.4917 72.2635 14.1877 72.9195C13.8837 73.5675 13.4637 74.0635 12.9277 74.4075C12.3997 74.7435 11.7997 74.9115 11.1277 74.9115ZM11.1277 73.5555C11.7277 73.5555 12.1997 73.3075 12.5437 72.8115C12.8957 72.3155 13.0717 71.5755 13.0717 70.5915C13.0717 69.6075 12.8957 68.8675 12.5437 68.3715C12.1997 67.8755 11.7277 67.6275 11.1277 67.6275C10.5357 67.6275 10.0637 67.8755 9.7117 68.3715C9.3677 68.8675 9.1957 69.6075 9.1957 70.5915C9.1957 71.5755 9.3677 72.3155 9.7117 72.8115C10.0637 73.3075 10.5357 73.5555 11.1277 73.5555Z" fill="#989DB3"/>
<path d="M3.51989 29.0902V37.4902H1.95989V30.3982H0.183891V29.0902H3.51989ZM8.6902 37.6102C8.0182 37.6102 7.4182 37.4422 6.8902 37.1062C6.3622 36.7622 5.9462 36.2662 5.6422 35.6182C5.3382 34.9622 5.1862 34.1862 5.1862 33.2902C5.1862 32.3942 5.3382 31.6222 5.6422 30.9742C5.9462 30.3182 6.3622 29.8222 6.8902 29.4862C7.4182 29.1422 8.0182 28.9702 8.6902 28.9702C9.3622 28.9702 9.9622 29.1422 10.4902 29.4862C11.0262 29.8222 11.4462 30.3182 11.7502 30.9742C12.0542 31.6222 12.2062 32.3942 12.2062 33.2902C12.2062 34.1862 12.0542 34.9622 11.7502 35.6182C11.4462 36.2662 11.0262 36.7622 10.4902 37.1062C9.9622 37.4422 9.3622 37.6102 8.6902 37.6102ZM8.6902 36.2542C9.2902 36.2542 9.7622 36.0062 10.1062 35.5102C10.4582 35.0142 10.6342 34.2742 10.6342 33.2902C10.6342 32.3062 10.4582 31.5662 10.1062 31.0702C9.7622 30.5742 9.2902 30.3262 8.6902 30.3262C8.0982 30.3262 7.6262 30.5742 7.2742 31.0702C6.9302 31.5662 6.7582 32.3062 6.7582 33.2902C6.7582 34.2742 6.9302 35.0142 7.2742 35.5102C7.6262 36.0062 8.0982 36.2542 8.6902 36.2542ZM16.7644 37.6102C16.0924 37.6102 15.4924 37.4422 14.9644 37.1062C14.4364 36.7622 14.0204 36.2662 13.7164 35.6182C13.4124 34.9622 13.2604 34.1862 13.2604 33.2902C13.2604 32.3942 13.4124 31.6222 13.7164 30.9742C14.0204 30.3182 14.4364 29.8222 14.9644 29.4862C15.4924 29.1422 16.0924 28.9702 16.7644 28.9702C17.4364 28.9702 18.0364 29.1422 18.5644 29.4862C19.1004 29.8222 19.5204 30.3182 19.8244 30.9742C20.1284 31.6222 20.2804 32.3942 20.2804 33.2902C20.2804 34.1862 20.1284 34.9622 19.8244 35.6182C19.5204 36.2662 19.1004 36.7622 18.5644 37.1062C18.0364 37.4422 17.4364 37.6102 16.7644 37.6102ZM16.7644 36.2542C17.3644 36.2542 17.8364 36.0062 18.1804 35.5102C18.5324 35.0142 18.7084 34.2742 18.7084 33.2902C18.7084 32.3062 18.5324 31.5662 18.1804 31.0702C17.8364 30.5742 17.3644 30.3262 16.7644 30.3262C16.1724 30.3262 15.7004 30.5742 15.3484 31.0702C15.0044 31.5662 14.8324 32.3062 14.8324 33.2902C14.8324 34.2742 15.0044 35.0142 15.3484 35.5102C15.7004 36.0062 16.1724 36.2542 16.7644 36.2542Z" fill="#989DB3"/>
<path d="M8.016 108.441H6.528V110.349H5.016V108.441H0.408V107.361L4.548 101.949H6.216L2.316 107.121H5.064V105.429H6.528V107.121H8.016V108.441ZM12.1765 110.469C11.5045 110.469 10.9045 110.301 10.3765 109.965C9.84853 109.621 9.43253 109.125 9.12853 108.477C8.82453 107.821 8.67253 107.045 8.67253 106.149C8.67253 105.253 8.82453 104.481 9.12853 103.833C9.43253 103.177 9.84853 102.681 10.3765 102.345C10.9045 102.001 11.5045 101.829 12.1765 101.829C12.8485 101.829 13.4485 102.001 13.9765 102.345C14.5125 102.681 14.9325 103.177 15.2365 103.833C15.5405 104.481 15.6925 105.253 15.6925 106.149C15.6925 107.045 15.5405 107.821 15.2365 108.477C14.9325 109.125 14.5125 109.621 13.9765 109.965C13.4485 110.301 12.8485 110.469 12.1765 110.469ZM12.1765 109.113C12.7765 109.113 13.2485 108.865 13.5925 108.369C13.9445 107.873 14.1205 107.133 14.1205 106.149C14.1205 105.165 13.9445 104.425 13.5925 103.929C13.2485 103.433 12.7765 103.185 12.1765 103.185C11.5845 103.185 11.1125 103.433 10.7605 103.929C10.4165 104.425 10.2445 105.165 10.2445 106.149C10.2445 107.133 10.4165 107.873 10.7605 108.369C11.1125 108.865 11.5845 109.113 12.1765 109.113Z" fill="#989DB3"/>
<path d="M4.19189 140.109C4.96789 140.205 5.55989 140.469 5.96789 140.901C6.37589 141.333 6.57989 141.873 6.57989 142.521C6.57989 143.009 6.45589 143.453 6.20789 143.853C5.95989 144.253 5.58389 144.573 5.07989 144.813C4.58389 145.045 3.97589 145.161 3.25589 145.161C2.65589 145.161 2.07589 145.077 1.51589 144.909C0.963891 144.733 0.491891 144.493 0.0998906 144.189L0.771891 142.977C1.07589 143.233 1.44389 143.437 1.87589 143.589C2.31589 143.733 2.76789 143.805 3.23189 143.805C3.78389 143.805 4.21589 143.693 4.52789 143.469C4.84789 143.237 5.00789 142.925 5.00789 142.533C5.00789 142.141 4.85589 141.837 4.55189 141.621C4.25589 141.397 3.79989 141.285 3.18389 141.285H2.41589V140.217L4.32389 137.949H0.507891V136.641H6.23189V137.685L4.19189 140.109ZM11.1043 145.161C10.4323 145.161 9.83227 144.993 9.30427 144.657C8.77627 144.313 8.36027 143.817 8.05627 143.169C7.75227 142.513 7.60027 141.737 7.60027 140.841C7.60027 139.945 7.75227 139.173 8.05627 138.525C8.36027 137.869 8.77627 137.373 9.30427 137.037C9.83227 136.693 10.4323 136.521 11.1043 136.521C11.7763 136.521 12.3763 136.693 12.9043 137.037C13.4403 137.373 13.8603 137.869 14.1643 138.525C14.4683 139.173 14.6203 139.945 14.6203 140.841C14.6203 141.737 14.4683 142.513 14.1643 143.169C13.8603 143.817 13.4403 144.313 12.9043 144.657C12.3763 144.993 11.7763 145.161 11.1043 145.161ZM11.1043 143.805C11.7043 143.805 12.1763 143.557 12.5203 143.061C12.8723 142.565 13.0483 141.825 13.0483 140.841C13.0483 139.857 12.8723 139.117 12.5203 138.621C12.1763 138.125 11.7043 137.877 11.1043 137.877C10.5123 137.877 10.0403 138.125 9.68827 138.621C9.34427 139.117 9.17227 139.857 9.17227 140.841C9.17227 141.825 9.34427 142.565 9.68827 143.061C10.0403 143.557 10.5123 143.805 11.1043 143.805Z" fill="#989DB3"/>
<path d="M6.69989 177.224V178.544H0.507891V177.5L3.84389 174.332C4.21989 173.972 4.47189 173.66 4.59989 173.396C4.73589 173.124 4.80389 172.856 4.80389 172.592C4.80389 172.2 4.67189 171.9 4.40789 171.692C4.14389 171.484 3.75589 171.38 3.24389 171.38C2.38789 171.38 1.73189 171.672 1.27589 172.256L0.183891 171.416C0.511891 170.976 0.951891 170.636 1.50389 170.396C2.06389 170.148 2.68789 170.024 3.37589 170.024C4.28789 170.024 5.01589 170.24 5.55989 170.672C6.10389 171.104 6.37589 171.692 6.37589 172.436C6.37589 172.892 6.27989 173.32 6.08789 173.72C5.89589 174.12 5.52789 174.576 4.98389 175.088L2.73989 177.224H6.69989ZM11.0691 178.664C10.3971 178.664 9.79711 178.496 9.26911 178.16C8.74111 177.816 8.32511 177.32 8.02111 176.672C7.71711 176.016 7.56511 175.24 7.56511 174.344C7.56511 173.448 7.71711 172.676 8.02111 172.028C8.32511 171.372 8.74111 170.876 9.26911 170.54C9.79711 170.196 10.3971 170.024 11.0691 170.024C11.7411 170.024 12.3411 170.196 12.8691 170.54C13.4051 170.876 13.8251 171.372 14.1291 172.028C14.4331 172.676 14.5851 173.448 14.5851 174.344C14.5851 175.24 14.4331 176.016 14.1291 176.672C13.8251 177.32 13.4051 177.816 12.8691 178.16C12.3411 178.496 11.7411 178.664 11.0691 178.664ZM11.0691 177.308C11.6691 177.308 12.1411 177.06 12.4851 176.564C12.8371 176.068 13.0131 175.328 13.0131 174.344C13.0131 173.36 12.8371 172.62 12.4851 172.124C12.1411 171.628 11.6691 171.38 11.0691 171.38C10.4771 171.38 10.0051 171.628 9.65311 172.124C9.30911 172.62 9.13711 173.36 9.13711 174.344C9.13711 175.328 9.30911 176.068 9.65311 176.564C10.0051 177.06 10.4771 177.308 11.0691 177.308Z" fill="#989DB3"/>
<path d="M3.51989 203.025V211.425H1.95989V204.333H0.183891V203.025H3.51989ZM8.6902 211.545C8.0182 211.545 7.4182 211.377 6.8902 211.041C6.3622 210.697 5.9462 210.201 5.6422 209.553C5.3382 208.897 5.1862 208.121 5.1862 207.225C5.1862 206.329 5.3382 205.557 5.6422 204.909C5.9462 204.253 6.3622 203.757 6.8902 203.421C7.4182 203.077 8.0182 202.905 8.6902 202.905C9.3622 202.905 9.9622 203.077 10.4902 203.421C11.0262 203.757 11.4462 204.253 11.7502 204.909C12.0542 205.557 12.2062 206.329 12.2062 207.225C12.2062 208.121 12.0542 208.897 11.7502 209.553C11.4462 210.201 11.0262 210.697 10.4902 211.041C9.9622 211.377 9.3622 211.545 8.6902 211.545ZM8.6902 210.189C9.2902 210.189 9.7622 209.941 10.1062 209.445C10.4582 208.949 10.6342 208.209 10.6342 207.225C10.6342 206.241 10.4582 205.501 10.1062 205.005C9.7622 204.509 9.2902 204.261 8.6902 204.261C8.0982 204.261 7.6262 204.509 7.2742 205.005C6.9302 205.501 6.7582 206.241 6.7582 207.225C6.7582 208.209 6.9302 208.949 7.2742 209.445C7.6262 209.941 8.0982 210.189 8.6902 210.189Z" fill="#989DB3"/>
<path d="M5.35231 245.172C4.68031 245.172 4.08031 245.004 3.55231 244.668C3.02431 244.324 2.60831 243.828 2.30431 243.18C2.00031 242.524 1.84831 241.748 1.84831 240.852C1.84831 239.956 2.00031 239.184 2.30431 238.536C2.60831 237.88 3.02431 237.384 3.55231 237.048C4.08031 236.704 4.68031 236.532 5.35231 236.532C6.02431 236.532 6.62431 236.704 7.15231 237.048C7.68831 237.384 8.10831 237.88 8.41231 238.536C8.71631 239.184 8.86831 239.956 8.86831 240.852C8.86831 241.748 8.71631 242.524 8.41231 243.18C8.10831 243.828 7.68831 244.324 7.15231 244.668C6.62431 245.004 6.02431 245.172 5.35231 245.172ZM5.35231 243.816C5.95231 243.816 6.42431 243.568 6.76831 243.072C7.12031 242.576 7.29631 241.836 7.29631 240.852C7.29631 239.868 7.12031 239.128 6.76831 238.632C6.42431 238.136 5.95231 237.888 5.35231 237.888C4.76031 237.888 4.28831 238.136 3.93631 238.632C3.59231 239.128 3.42031 239.868 3.42031 240.852C3.42031 241.836 3.59231 242.576 3.93631 243.072C4.28831 243.568 4.76031 243.816 5.35231 243.816Z" fill="#989DB3"/>
<path d="M49.1389 265L49.1269 259.432L46.3669 264.04H45.6709L42.9109 259.504V265H41.4229V256.6H42.7069L46.0429 262.168L49.3189 256.6H50.6029L50.6149 265H49.1389ZM55.6199 265.084C54.9719 265.084 54.3879 264.944 53.8679 264.664C53.3479 264.384 52.9399 263.996 52.6439 263.5C52.3559 262.996 52.2119 262.428 52.2119 261.796C52.2119 261.164 52.3559 260.6 52.6439 260.104C52.9399 259.608 53.3479 259.22 53.8679 258.94C54.3879 258.66 54.9719 258.52 55.6199 258.52C56.2759 258.52 56.8639 258.66 57.3839 258.94C57.9039 259.22 58.3079 259.608 58.5959 260.104C58.8919 260.6 59.0399 261.164 59.0399 261.796C59.0399 262.428 58.8919 262.996 58.5959 263.5C58.3079 263.996 57.9039 264.384 57.3839 264.664C56.8639 264.944 56.2759 265.084 55.6199 265.084ZM55.6199 263.8C56.1719 263.8 56.6279 263.616 56.9879 263.248C57.3479 262.88 57.5279 262.396 57.5279 261.796C57.5279 261.196 57.3479 260.712 56.9879 260.344C56.6279 259.976 56.1719 259.792 55.6199 259.792C55.0679 259.792 54.6119 259.976 54.2519 260.344C53.8999 260.712 53.7239 261.196 53.7239 261.796C53.7239 262.396 53.8999 262.88 54.2519 263.248C54.6119 263.616 55.0679 263.8 55.6199 263.8ZM64.1102 258.52C64.9182 258.52 65.5662 258.756 66.0542 259.228C66.5422 259.7 66.7862 260.4 66.7862 261.328V265H65.2862V261.52C65.2862 260.96 65.1542 260.54 64.8902 260.26C64.6262 259.972 64.2502 259.828 63.7622 259.828C63.2102 259.828 62.7742 259.996 62.4542 260.332C62.1342 260.66 61.9742 261.136 61.9742 261.76V265H60.4742V258.592H61.9022V259.42C62.1502 259.124 62.4622 258.9 62.8382 258.748C63.2142 258.596 63.6382 258.52 64.1102 258.52Z" fill="#989DB3"/>
<path d="M119.982 257.92H117.198V256.6H124.326V257.92H121.542V265H119.982V257.92ZM131.405 258.592V265H129.977V264.184C129.737 264.472 129.437 264.696 129.077 264.856C128.717 265.008 128.329 265.084 127.913 265.084C127.057 265.084 126.381 264.848 125.885 264.376C125.397 263.896 125.153 263.188 125.153 262.252V258.592H126.653V262.048C126.653 262.624 126.781 263.056 127.037 263.344C127.301 263.624 127.673 263.764 128.153 263.764C128.689 263.764 129.113 263.6 129.425 263.272C129.745 262.936 129.905 262.456 129.905 261.832V258.592H131.405ZM139.393 261.832C139.393 261.936 139.385 262.084 139.369 262.276H134.341C134.429 262.748 134.657 263.124 135.025 263.404C135.401 263.676 135.865 263.812 136.417 263.812C137.121 263.812 137.701 263.58 138.157 263.116L138.961 264.04C138.673 264.384 138.309 264.644 137.869 264.82C137.429 264.996 136.933 265.084 136.381 265.084C135.677 265.084 135.057 264.944 134.521 264.664C133.985 264.384 133.569 263.996 133.273 263.5C132.985 262.996 132.841 262.428 132.841 261.796C132.841 261.172 132.981 260.612 133.261 260.116C133.549 259.612 133.945 259.22 134.449 258.94C134.953 258.66 135.521 258.52 136.153 258.52C136.777 258.52 137.333 258.66 137.821 258.94C138.317 259.212 138.701 259.6 138.973 260.104C139.253 260.6 139.393 261.176 139.393 261.832ZM136.153 259.72C135.673 259.72 135.265 259.864 134.929 260.152C134.601 260.432 134.401 260.808 134.329 261.28H137.965C137.901 260.816 137.705 260.44 137.377 260.152C137.049 259.864 136.641 259.72 136.153 259.72Z" fill="#989DB3"/>
<path d="M203.519 256.6L200.735 265H199.079L197.003 258.784L194.891 265H193.223L190.439 256.6H192.059L194.147 262.984L196.319 256.6H197.759L199.883 263.02L202.031 256.6H203.519ZM210.19 261.832C210.19 261.936 210.182 262.084 210.166 262.276H205.138C205.226 262.748 205.454 263.124 205.822 263.404C206.198 263.676 206.662 263.812 207.214 263.812C207.918 263.812 208.498 263.58 208.954 263.116L209.758 264.04C209.47 264.384 209.106 264.644 208.666 264.82C208.226 264.996 207.73 265.084 207.178 265.084C206.474 265.084 205.854 264.944 205.318 264.664C204.782 264.384 204.366 263.996 204.07 263.5C203.782 262.996 203.638 262.428 203.638 261.796C203.638 261.172 203.778 260.612 204.058 260.116C204.346 259.612 204.742 259.22 205.246 258.94C205.75 258.66 206.318 258.52 206.95 258.52C207.574 258.52 208.13 258.66 208.618 258.94C209.114 259.212 209.498 259.6 209.77 260.104C210.05 260.6 210.19 261.176 210.19 261.832ZM206.95 259.72C206.47 259.72 206.062 259.864 205.726 260.152C205.398 260.432 205.198 260.808 205.126 261.28H208.762C208.698 260.816 208.502 260.44 208.174 260.152C207.846 259.864 207.438 259.72 206.95 259.72ZM217.906 256.096V265H216.466V264.172C216.218 264.476 215.91 264.704 215.542 264.856C215.182 265.008 214.782 265.084 214.342 265.084C213.726 265.084 213.17 264.948 212.674 264.676C212.186 264.404 211.802 264.02 211.522 263.524C211.242 263.02 211.102 262.444 211.102 261.796C211.102 261.148 211.242 260.576 211.522 260.08C211.802 259.584 212.186 259.2 212.674 258.928C213.17 258.656 213.726 258.52 214.342 258.52C214.766 258.52 215.154 258.592 215.506 258.736C215.858 258.88 216.158 259.096 216.406 259.384V256.096H217.906ZM214.522 263.8C214.882 263.8 215.206 263.72 215.494 263.56C215.782 263.392 216.01 263.156 216.178 262.852C216.346 262.548 216.43 262.196 216.43 261.796C216.43 261.396 216.346 261.044 216.178 260.74C216.01 260.436 215.782 260.204 215.494 260.044C215.206 259.876 214.882 259.792 214.522 259.792C214.162 259.792 213.838 259.876 213.55 260.044C213.262 260.204 213.034 260.436 212.866 260.74C212.698 261.044 212.614 261.396 212.614 261.796C212.614 262.196 212.698 262.548 212.866 262.852C213.034 263.156 213.262 263.392 213.55 263.56C213.838 263.72 214.162 263.8 214.522 263.8Z" fill="#989DB3"/>
<path d="M272.012 257.92H269.228V256.6H276.356V257.92H273.572V265H272.012V257.92ZM281.018 258.52C281.826 258.52 282.474 258.756 282.962 259.228C283.45 259.7 283.694 260.4 283.694 261.328V265H282.194V261.52C282.194 260.96 282.062 260.54 281.798 260.26C281.534 259.972 281.158 259.828 280.67 259.828C280.118 259.828 279.682 259.996 279.362 260.332C279.042 260.66 278.882 261.136 278.882 261.76V265H277.382V256.096H278.882V259.336C279.13 259.072 279.434 258.872 279.794 258.736C280.162 258.592 280.57 258.52 281.018 258.52ZM291.801 258.592V265H290.373V264.184C290.133 264.472 289.833 264.696 289.473 264.856C289.113 265.008 288.725 265.084 288.309 265.084C287.453 265.084 286.777 264.848 286.281 264.376C285.793 263.896 285.549 263.188 285.549 262.252V258.592H287.049V262.048C287.049 262.624 287.177 263.056 287.433 263.344C287.697 263.624 288.069 263.764 288.549 263.764C289.085 263.764 289.509 263.6 289.821 263.272C290.141 262.936 290.301 262.456 290.301 261.832V258.592H291.801ZM295.193 259.528C295.625 258.856 296.385 258.52 297.473 258.52V259.948C297.345 259.924 297.229 259.912 297.125 259.912C296.541 259.912 296.085 260.084 295.757 260.428C295.429 260.764 295.265 261.252 295.265 261.892V265H293.765V258.592H295.193V259.528Z" fill="#989DB3"/>
<path d="M348.702 257.908V260.464H352.758V261.784H348.702V265H347.142V256.6H353.274V257.908H348.702ZM355.949 259.528C356.381 258.856 357.141 258.52 358.229 258.52V259.948C358.101 259.924 357.985 259.912 357.881 259.912C357.297 259.912 356.841 260.084 356.513 260.428C356.185 260.764 356.021 261.252 356.021 261.892V265H354.521V258.592H355.949V259.528ZM359.502 258.592H361.002V265H359.502V258.592ZM360.258 257.536C359.986 257.536 359.758 257.452 359.574 257.284C359.39 257.108 359.298 256.892 359.298 256.636C359.298 256.38 359.39 256.168 359.574 256C359.758 255.824 359.986 255.736 360.258 255.736C360.53 255.736 360.758 255.82 360.942 255.988C361.126 256.148 361.218 256.352 361.218 256.6C361.218 256.864 361.126 257.088 360.942 257.272C360.766 257.448 360.538 257.536 360.258 257.536Z" fill="#989DB3"/>
<path d="M483.767 265.12C483.119 265.12 482.491 265.028 481.883 264.844C481.283 264.66 480.807 264.416 480.455 264.112L480.995 262.9C481.339 263.172 481.759 263.396 482.255 263.572C482.759 263.74 483.263 263.824 483.767 263.824C484.391 263.824 484.855 263.724 485.159 263.524C485.471 263.324 485.627 263.06 485.627 262.732C485.627 262.492 485.539 262.296 485.363 262.144C485.195 261.984 484.979 261.86 484.715 261.772C484.451 261.684 484.091 261.584 483.635 261.472C482.995 261.32 482.475 261.168 482.075 261.016C481.683 260.864 481.343 260.628 481.055 260.308C480.775 259.98 480.635 259.54 480.635 258.988C480.635 258.524 480.759 258.104 481.007 257.728C481.263 257.344 481.643 257.04 482.147 256.816C482.659 256.592 483.283 256.48 484.019 256.48C484.531 256.48 485.035 256.544 485.531 256.672C486.027 256.8 486.455 256.984 486.815 257.224L486.323 258.436C485.955 258.22 485.571 258.056 485.171 257.944C484.771 257.832 484.383 257.776 484.007 257.776C483.391 257.776 482.931 257.88 482.627 258.088C482.331 258.296 482.183 258.572 482.183 258.916C482.183 259.156 482.267 259.352 482.435 259.504C482.611 259.656 482.831 259.776 483.095 259.864C483.359 259.952 483.719 260.052 484.175 260.164C484.799 260.308 485.311 260.46 485.711 260.62C486.111 260.772 486.451 261.008 486.731 261.328C487.019 261.648 487.163 262.08 487.163 262.624C487.163 263.088 487.035 263.508 486.779 263.884C486.531 264.26 486.151 264.56 485.639 264.784C485.127 265.008 484.503 265.12 483.767 265.12ZM494.77 258.592V265H493.342V264.184C493.102 264.472 492.802 264.696 492.442 264.856C492.082 265.008 491.694 265.084 491.278 265.084C490.422 265.084 489.746 264.848 489.25 264.376C488.762 263.896 488.518 263.188 488.518 262.252V258.592H490.018V262.048C490.018 262.624 490.146 263.056 490.402 263.344C490.666 263.624 491.038 263.764 491.518 263.764C492.054 263.764 492.478 263.6 492.79 263.272C493.11 262.936 493.27 262.456 493.27 261.832V258.592H494.77ZM500.37 258.52C501.178 258.52 501.826 258.756 502.314 259.228C502.802 259.7 503.046 260.4 503.046 261.328V265H501.546V261.52C501.546 260.96 501.414 260.54 501.15 260.26C500.886 259.972 500.51 259.828 500.022 259.828C499.47 259.828 499.034 259.996 498.714 260.332C498.394 260.66 498.234 261.136 498.234 261.76V265H496.734V258.592H498.162V259.42C498.41 259.124 498.722 258.9 499.098 258.748C499.474 258.596 499.898 258.52 500.37 258.52Z" fill="#989DB3"/>
<path d="M414.771 265.12C414.123 265.12 413.495 265.028 412.887 264.844C412.287 264.66 411.811 264.416 411.459 264.112L411.999 262.9C412.343 263.172 412.763 263.396 413.259 263.572C413.763 263.74 414.267 263.824 414.771 263.824C415.395 263.824 415.859 263.724 416.163 263.524C416.475 263.324 416.631 263.06 416.631 262.732C416.631 262.492 416.543 262.296 416.367 262.144C416.199 261.984 415.983 261.86 415.719 261.772C415.455 261.684 415.095 261.584 414.639 261.472C413.999 261.32 413.479 261.168 413.079 261.016C412.687 260.864 412.347 260.628 412.059 260.308C411.779 259.98 411.639 259.54 411.639 258.988C411.639 258.524 411.763 258.104 412.011 257.728C412.267 257.344 412.647 257.04 413.151 256.816C413.663 256.592 414.287 256.48 415.023 256.48C415.535 256.48 416.039 256.544 416.535 256.672C417.031 256.8 417.459 256.984 417.819 257.224L417.327 258.436C416.959 258.22 416.575 258.056 416.175 257.944C415.775 257.832 415.387 257.776 415.011 257.776C414.395 257.776 413.935 257.88 413.631 258.088C413.335 258.296 413.187 258.572 413.187 258.916C413.187 259.156 413.271 259.352 413.439 259.504C413.615 259.656 413.835 259.776 414.099 259.864C414.363 259.952 414.723 260.052 415.179 260.164C415.803 260.308 416.315 260.46 416.715 260.62C417.115 260.772 417.455 261.008 417.735 261.328C418.023 261.648 418.167 262.08 418.167 262.624C418.167 263.088 418.039 263.508 417.783 263.884C417.535 264.26 417.155 264.56 416.643 264.784C416.131 265.008 415.507 265.12 414.771 265.12ZM422.018 258.52C422.962 258.52 423.682 258.748 424.178 259.204C424.682 259.652 424.934 260.332 424.934 261.244V265H423.518V264.22C423.334 264.5 423.07 264.716 422.726 264.868C422.39 265.012 421.982 265.084 421.502 265.084C421.022 265.084 420.602 265.004 420.242 264.844C419.882 264.676 419.602 264.448 419.402 264.16C419.21 263.864 419.114 263.532 419.114 263.164C419.114 262.588 419.326 262.128 419.75 261.784C420.182 261.432 420.858 261.256 421.778 261.256H423.434V261.16C423.434 260.712 423.298 260.368 423.026 260.128C422.762 259.888 422.366 259.768 421.838 259.768C421.478 259.768 421.122 259.824 420.77 259.936C420.426 260.048 420.134 260.204 419.894 260.404L419.306 259.312C419.642 259.056 420.046 258.86 420.518 258.724C420.99 258.588 421.49 258.52 422.018 258.52ZM421.814 263.992C422.19 263.992 422.522 263.908 422.81 263.74C423.106 263.564 423.314 263.316 423.434 262.996V262.252H421.886C421.022 262.252 420.59 262.536 420.59 263.104C420.59 263.376 420.698 263.592 420.914 263.752C421.13 263.912 421.43 263.992 421.814 263.992ZM430.711 264.652C430.535 264.796 430.319 264.904 430.063 264.976C429.815 265.048 429.551 265.084 429.271 265.084C428.567 265.084 428.023 264.9 427.639 264.532C427.255 264.164 427.063 263.628 427.063 262.924V259.84H426.007V258.64H427.063V257.176H428.563V258.64H430.279V259.84H428.563V262.888C428.563 263.2 428.639 263.44 428.791 263.608C428.943 263.768 429.163 263.848 429.451 263.848C429.787 263.848 430.067 263.76 430.291 263.584L430.711 264.652Z" fill="#989DB3"/>
<path d="M42.9375 222.018L130.681 91.1721L233 102L312.503 38.6588L394 73.9999L481 38.6588" stroke="#F27348" stroke-width="2.34898"/>
<path d="M42.9375 222.018L138 104.707L241 118L320 65.7277L408 75.0001L487 50" stroke="#26474E" stroke-width="2.34898"/>
<path d="M42 223.274L163 169.712H250L331 154.187L393 181L482 154.187" stroke="#76CDCD" stroke-width="2.34898"/>
<path d="M42 224.972L151 160.042L243 150.372L325 139H405L491 114" stroke="#F6C929" stroke-width="2.22535"/>
<path d="M42 224.972L155 169L241 200L318 180L405 137L489 124.703" stroke="#1FD38A" stroke-width="2.22535"/>
<path d="M42 224.972L155 169L244 180H318L404 152L490 141" stroke="#F74B55" stroke-width="2.22535"/>
</svg>
