<svg width="50" height="50" viewBox="0 0 50 50" fill="none" xmlns="http://www.w3.org/2000/svg">
<circle cx="25" cy="25" r="25" fill="#26474E"/>
<g clip-path="url(#clip0)">
<path d="M20.2917 17.1667C24.3187 17.1667 27.5833 16.2339 27.5833 15.0833C27.5833 13.9327 24.3187 13 20.2917 13C16.2646 13 13 13.9327 13 15.0833C13 16.2339 16.2646 17.1667 20.2917 17.1667Z" fill="white"/>
<path d="M20.2917 21.854C24.3188 21.854 27.5833 20.9217 27.5833 19.7706V17.4092C25.2875 18.6394 21.3375 18.729 20.2917 18.729C19.2458 18.729 15.2958 18.6394 13 17.4092V19.7706C13 20.9217 16.2646 21.854 20.2917 21.854Z" fill="white"/>
<path d="M22.8958 32.6563V35.7708C22.0938 35.8646 21.2083 35.9167 20.2917 35.9167C16.2604 35.9167 13 34.9792 13 33.8333V31.4688C15.2917 32.6979 19.25 32.7917 20.2917 32.7917C20.7396 32.7917 21.7292 32.7708 22.8958 32.6563Z" fill="white"/>
<path d="M23.0104 27.9583C22.9792 28.0521 22.9583 28.1667 22.9375 28.2708L22.8958 28.2396V31.0833C22.0938 31.1771 21.2083 31.2292 20.2917 31.2292C16.2604 31.2292 13 30.2917 13 29.1458V26.7812C15.2917 28.0104 19.25 28.1042 20.2917 28.1042C20.75 28.1042 21.7917 28.0833 23.0104 27.9583Z" fill="white"/>
<path d="M20.2917 23.4165C19.2458 23.4165 15.2958 23.3269 13 22.0967V24.4581C13 25.6092 16.2646 26.5415 20.2917 26.5415C24.3188 26.5415 27.5833 25.6092 27.5833 24.4581V22.0967C25.2875 23.3269 21.3375 23.4165 20.2917 23.4165Z" fill="white"/>
<path d="M31.2288 30.7082C34.9683 30.7082 37.9997 29.7754 37.9997 28.6248C37.9997 27.4742 34.9683 26.5415 31.2288 26.5415C27.4894 26.5415 24.458 27.4742 24.458 28.6248C24.458 29.7754 27.4894 30.7082 31.2288 30.7082Z" fill="white"/>
<path d="M31.2288 34.3543C34.9684 34.3543 37.9997 33.422 37.9997 32.271V30.9512C35.8684 32.1824 32.1997 32.271 31.2288 32.271C30.258 32.271 26.5893 32.1814 24.458 30.9512V32.271C24.458 33.422 27.4893 34.3543 31.2288 34.3543Z" fill="white"/>
<path d="M31.2288 35.9165C30.258 35.9165 26.5893 35.8269 24.458 34.5967V35.9165C24.458 37.0675 27.4893 37.9998 31.2288 37.9998C34.9684 37.9998 37.9997 37.0675 37.9997 35.9165V34.5967C35.8684 35.8269 32.1997 35.9165 31.2288 35.9165Z" fill="white"/>
</g>
<defs>
<clipPath id="clip0">
<rect width="25" height="25" fill="white" transform="translate(13 13)"/>
</clipPath>
</defs>
</svg>
