<svg width="174" height="174" viewBox="0 0 174 174" fill="none" xmlns="http://www.w3.org/2000/svg">
<path d="M169.69 111.803C173.252 100.025 174.267 87.6233 172.666 75.4227C171.065 63.2221 166.886 51.5021 160.406 41.0415C153.925 30.581 145.293 21.6198 135.081 14.7534C124.87 7.88707 113.314 3.27295 101.182 1.2178C89.0497 -0.837362 76.6189 -0.286481 64.7159 2.83382C52.813 5.95412 41.7106 11.5724 32.1467 19.3151C22.5829 27.0578 14.7767 36.7475 9.24714 47.7403C3.71757 58.733 0.591254 70.7768 0.0760329 83.0712L18.6511 83.8496C19.0559 74.1916 21.5118 64.7303 25.8557 56.0947C30.1996 47.4592 36.3318 39.8472 43.8449 33.7647C51.358 27.6823 60.0797 23.2688 69.4303 20.8176C78.7809 18.3664 88.5461 17.9336 98.0769 19.5481C107.608 21.1625 116.686 24.7873 124.707 30.1813C132.729 35.5752 139.51 42.615 144.601 50.8324C149.692 59.0499 152.975 68.2568 154.233 77.8412C155.49 87.4256 154.693 97.1679 151.894 106.42L169.69 111.803Z" fill="#F27348"/>
<path d="M120.758 6.96901C105.58 0.485569 88.8658 -1.53054 72.5808 1.15761C56.2958 3.84576 41.1164 11.1265 28.8266 22.1441C16.5369 33.1617 7.64729 47.4585 3.20267 63.3541C-1.24195 79.2498 -1.05695 96.0839 3.73593 111.878L21.5263 106.479C17.7611 94.072 17.6158 80.8477 21.1073 68.3605C24.5989 55.8734 31.5823 44.6423 41.2368 35.9871C50.8912 27.332 62.8157 21.6125 75.6087 19.5008C88.4017 17.3891 101.532 18.9729 113.456 24.0661L120.758 6.96901Z" fill="#26474E"/>
<path d="M71.2292 112.409C72.4798 112.409 73.6185 112.661 74.6452 113.165C75.6718 113.669 76.4838 114.388 77.0812 115.321C77.6785 116.236 77.9772 117.3 77.9772 118.513C77.9772 119.82 77.6505 120.968 76.9972 121.957C76.3438 122.947 75.4478 123.712 74.3092 124.253C73.1892 124.776 71.9385 125.037 70.5572 125.037C67.8132 125.037 65.6665 124.197 64.1172 122.517C62.5678 120.837 61.7932 118.439 61.7932 115.321C61.7932 113.1 62.2132 111.196 63.0532 109.609C63.8932 108.023 65.0598 106.819 66.5532 105.997C68.0652 105.176 69.8105 104.765 71.7892 104.765C72.8345 104.765 73.8332 104.887 74.7852 105.129C75.7558 105.353 76.5772 105.68 77.2492 106.109L75.5692 109.441C74.5985 108.788 73.3758 108.461 71.9012 108.461C70.2398 108.461 68.9238 108.947 67.9532 109.917C66.9825 110.888 66.4598 112.297 66.3852 114.145C67.5425 112.988 69.1572 112.409 71.2292 112.409ZM70.3052 121.649C71.2758 121.649 72.0598 121.388 72.6572 120.865C73.2732 120.343 73.5812 119.633 73.5812 118.737C73.5812 117.841 73.2732 117.132 72.6572 116.609C72.0598 116.068 71.2572 115.797 70.2492 115.797C69.2598 115.797 68.4478 116.077 67.8132 116.637C67.1785 117.179 66.8612 117.879 66.8612 118.737C66.8612 119.596 67.1692 120.296 67.7852 120.837C68.4012 121.379 69.2412 121.649 70.3052 121.649ZM85.7813 112.465C88.544 112.465 90.5786 113.016 91.8853 114.117C93.2106 115.219 93.8733 116.693 93.8733 118.541C93.8733 119.736 93.5746 120.828 92.9773 121.817C92.38 122.788 91.4653 123.572 90.2333 124.169C89.02 124.748 87.5173 125.037 85.7253 125.037C84.344 125.037 82.9813 124.86 81.6373 124.505C80.312 124.132 79.1826 123.609 78.2493 122.937L80.0413 119.465C80.788 120.025 81.6466 120.464 82.6173 120.781C83.588 121.08 84.5866 121.229 85.6133 121.229C86.752 121.229 87.648 121.005 88.3013 120.557C88.9546 120.109 89.2813 119.484 89.2813 118.681C89.2813 117.841 88.936 117.207 88.2453 116.777C87.5733 116.348 86.3973 116.133 84.7173 116.133H79.7053L80.7133 105.101H92.6693V108.741H84.4933L84.1853 112.465H85.7813ZM99.4162 115.685C97.9789 115.685 96.8029 115.2 95.8882 114.229C94.9922 113.24 94.5442 111.924 94.5442 110.281C94.5442 108.639 94.9922 107.332 95.8882 106.361C96.8029 105.372 97.9789 104.877 99.4162 104.877C100.854 104.877 102.02 105.372 102.916 106.361C103.812 107.332 104.26 108.639 104.26 110.281C104.26 111.924 103.812 113.24 102.916 114.229C102.02 115.2 100.854 115.685 99.4162 115.685ZM111.092 105.101H114.424L101.04 124.701H97.7082L111.092 105.101ZM99.4162 113.389C100.051 113.389 100.546 113.128 100.9 112.605C101.274 112.083 101.46 111.308 101.46 110.281C101.46 109.255 101.274 108.48 100.9 107.957C100.546 107.435 100.051 107.173 99.4162 107.173C98.8002 107.173 98.3055 107.444 97.9322 107.985C97.5589 108.508 97.3722 109.273 97.3722 110.281C97.3722 111.289 97.5589 112.064 97.9322 112.605C98.3055 113.128 98.8002 113.389 99.4162 113.389ZM112.716 124.925C111.783 124.925 110.943 124.711 110.196 124.281C109.468 123.833 108.899 123.199 108.488 122.377C108.078 121.556 107.872 120.604 107.872 119.521C107.872 118.439 108.078 117.487 108.488 116.665C108.899 115.844 109.468 115.219 110.196 114.789C110.943 114.341 111.783 114.117 112.716 114.117C114.154 114.117 115.32 114.612 116.216 115.601C117.131 116.572 117.588 117.879 117.588 119.521C117.588 121.164 117.131 122.48 116.216 123.469C115.32 124.44 114.154 124.925 112.716 124.925ZM112.716 122.629C113.351 122.629 113.846 122.368 114.2 121.845C114.574 121.304 114.76 120.529 114.76 119.521C114.76 118.513 114.574 117.748 114.2 117.225C113.846 116.684 113.351 116.413 112.716 116.413C112.1 116.413 111.606 116.675 111.232 117.197C110.859 117.72 110.672 118.495 110.672 119.521C110.672 120.548 110.859 121.323 111.232 121.845C111.606 122.368 112.1 122.629 112.716 122.629Z" fill="#26474E"/>
<path d="M87.9437 87.8026C84.8936 93.3369 79.088 95.9865 74.9767 93.7206C70.8653 91.4547 70.005 85.1313 73.0552 79.597C76.1053 74.0627 98.1454 51.6824 98.1454 51.6824C98.1454 51.6824 90.9939 82.2683 87.9437 87.8026Z" fill="#4D4D4D"/>
<circle cx="80.2012" cy="85.2012" r="2.5" fill="white"/>
</svg>
