<svg width="124" height="29" viewBox="0 0 124 29" fill="none"
    xmlns="http://www.w3.org/2000/svg">
    <path d="M27.5195 23.6836C24.5247 26.8867 21.7773 28.4883 19.2773 28.4883C17.8971 28.4883 16.8034 28 15.9961 27.0234C15.1888 26.0469 14.7396 24.6536 14.6484 22.8438C13.0729 24.7578 11.6732 26.1771 10.4492 27.1016C9.23828 28.026 7.94271 28.4883 6.5625 28.4883C4.79167 28.4883 3.36589 27.7266 2.28516 26.2031C1.21745 24.6667 0.683594 22.6224 0.683594 20.0703C0.683594 17.0234 1.38672 13.8854 2.79297 10.6562C4.19922 7.41406 6.28255 4.85547 9.04297 2.98047C11.8034 1.10547 15.1497 0.167969 19.082 0.167969C22.0247 0.167969 24.6875 0.565104 27.0703 1.35938V2.64844C25.1302 4.91406 23.5026 8.08464 22.1875 12.1602C20.8854 16.2357 20.2344 19.3411 20.2344 21.4766C20.2344 22.5182 20.4427 23.3255 20.8594 23.8984C21.2891 24.4714 21.8815 24.7578 22.6367 24.7578C23.9909 24.7578 25.6185 23.651 27.5195 21.4375V23.6836ZM21.8359 2.64844C20.638 1.9974 19.349 1.67188 17.9688 1.67188C15.7943 1.67188 13.8346 2.58333 12.0898 4.40625C10.3451 6.21615 8.96484 8.61849 7.94922 11.6133C6.94661 14.6081 6.44531 17.2057 6.44531 19.4062C6.44531 20.8776 6.72526 22.0755 7.28516 23C7.85807 23.9115 8.58724 24.3672 9.47266 24.3672C11.0091 24.3672 12.7734 22.9674 14.7656 20.168C15.5859 12.8242 17.9427 6.98438 21.8359 2.64844ZM46.6797 23.6836C43.6719 26.8607 41.0938 28.4492 38.9453 28.4492C38.0729 28.4492 37.3698 28.1432 36.8359 27.5312C36.3021 26.9193 36.0352 26.099 36.0352 25.0703C36.0352 23.6771 36.6081 21.5482 37.7539 18.6836C38.3659 17.1471 38.6719 16.1706 38.6719 15.7539C38.6719 15.3372 38.5091 15.1289 38.1836 15.1289C38.0013 15.1289 37.7604 15.2201 37.4609 15.4023C37.1875 15.5846 36.8685 15.8385 36.5039 16.1641C36.1784 16.4635 35.8138 16.8281 35.4102 17.2578C35.0586 17.6224 34.681 18.0391 34.2773 18.5078L33.1836 19.7773C32.7018 20.3633 32.4023 20.9818 32.2852 21.6328C32.0898 22.7396 31.9596 23.7552 31.8945 24.6797C31.8555 25.3698 31.8359 26.3008 31.8359 27.4727L27.5195 28.4883C27.3763 26.7305 27.3047 25.4219 27.3047 24.5625C27.3047 22.4661 27.5456 20.4805 28.0273 18.6055C28.5221 16.7305 29.3099 14.6211 30.3906 12.2773L35.1562 11.3594C34.1536 14.0547 33.4961 16.1771 33.1836 17.7266C35.319 15.3438 37.0117 13.6966 38.2617 12.7852C39.5247 11.8607 40.6445 11.3984 41.6211 11.3984C42.2852 11.3984 42.8385 11.6523 43.2812 12.1602C43.724 12.6549 43.9453 13.2799 43.9453 14.0352C43.9453 15.2852 43.3854 17.3424 42.2656 20.207C41.4974 22.1732 41.1133 23.4492 41.1133 24.0352C41.1133 24.8164 41.4323 25.207 42.0703 25.207C43.0208 25.207 44.5573 23.9505 46.6797 21.4375V23.6836ZM61.2891 23.6836C59.6354 25.3112 58.151 26.5156 56.8359 27.2969C55.5208 28.0651 54.069 28.4492 52.4805 28.4492C50.7096 28.4492 49.2773 27.8828 48.1836 26.75C47.1029 25.6172 46.5625 24.1263 46.5625 22.2773C46.5625 19.5169 47.5195 17.0234 49.4336 14.7969C51.3477 12.5573 53.4701 11.4375 55.8008 11.4375C57.0117 11.4375 57.9818 11.75 58.7109 12.375C59.4401 13 59.8047 13.8203 59.8047 14.8359C59.8047 17.5312 56.9401 19.7188 51.2109 21.3984C51.7318 23.9375 53.0924 25.207 55.293 25.207C56.1523 25.207 56.9727 24.9792 57.7539 24.5234C58.5352 24.0547 59.7135 23.026 61.2891 21.4375V23.6836ZM51.0547 20.0703C54.388 19.1328 56.0547 17.401 56.0547 14.875C56.0547 13.625 55.599 13 54.6875 13C53.8281 13 53.0078 13.6576 52.2266 14.9727C51.4453 16.2747 51.0547 17.974 51.0547 20.0703ZM74.2188 23.6836C72.4479 25.3112 70.8919 26.5156 69.5508 27.2969C68.2227 28.0651 66.9531 28.4492 65.7422 28.4492C64.349 28.4492 63.2227 27.9089 62.3633 26.8281C61.5169 25.7474 61.0938 24.2956 61.0938 22.4727C61.0938 19.7383 61.6862 16.457 62.8711 12.6289C64.056 8.80078 65.4948 5.27214 67.1875 2.04297L72.1484 0.207031C72.3047 0.154948 72.4219 0.128906 72.5 0.128906C72.8776 0.128906 73.1836 0.408854 73.418 0.96875C73.6654 1.51562 73.7891 2.25781 73.7891 3.19531C73.7891 5.85156 73.1771 8.42318 71.9531 10.9102C70.7292 13.3971 68.8151 16.0534 66.2109 18.8789C66.1068 20.2331 66.0547 21.1641 66.0547 21.6719C66.0547 22.8047 66.263 23.7031 66.6797 24.3672C67.0964 25.0312 67.6497 25.3633 68.3398 25.3633C69.043 25.3633 69.7917 25.1094 70.5859 24.6016C71.3802 24.0938 72.5911 23.0391 74.2188 21.4375V23.6836ZM66.7383 16.0469C68.3919 14.2109 69.7331 12.1536 70.7617 9.875C71.7904 7.59635 72.3047 5.63672 72.3047 3.99609C72.3047 3.51432 72.2331 3.13021 72.0898 2.84375C71.9466 2.54427 71.7643 2.39453 71.543 2.39453C71.0612 2.39453 70.3581 3.59245 69.4336 5.98828C68.5221 8.38411 67.6237 11.737 66.7383 16.0469ZM87.1484 23.6836C85.3776 25.3112 83.8216 26.5156 82.4805 27.2969C81.1523 28.0651 79.8828 28.4492 78.6719 28.4492C77.2786 28.4492 76.1523 27.9089 75.293 26.8281C74.4466 25.7474 74.0234 24.2956 74.0234 22.4727C74.0234 19.7383 74.6159 16.457 75.8008 12.6289C76.9857 8.80078 78.4245 5.27214 80.1172 2.04297L85.0781 0.207031C85.2344 0.154948 85.3516 0.128906 85.4297 0.128906C85.8073 0.128906 86.1133 0.408854 86.3477 0.96875C86.5951 1.51562 86.7188 2.25781 86.7188 3.19531C86.7188 5.85156 86.1068 8.42318 84.8828 10.9102C83.6589 13.3971 81.7448 16.0534 79.1406 18.8789C79.0365 20.2331 78.9844 21.1641 78.9844 21.6719C78.9844 22.8047 79.1927 23.7031 79.6094 24.3672C80.026 25.0312 80.5794 25.3633 81.2695 25.3633C81.9727 25.3633 82.7214 25.1094 83.5156 24.6016C84.3099 24.0938 85.5208 23.0391 87.1484 21.4375V23.6836ZM79.668 16.0469C81.3216 14.2109 82.6628 12.1536 83.6914 9.875C84.7201 7.59635 85.2344 5.63672 85.2344 3.99609C85.2344 3.51432 85.1628 3.13021 85.0195 2.84375C84.8763 2.54427 84.694 2.39453 84.4727 2.39453C83.9909 2.39453 83.2878 3.59245 82.3633 5.98828C81.4518 8.38411 80.5534 11.737 79.668 16.0469ZM104.688 23.6836C104.023 24.2695 103.379 24.6862 102.754 24.9336C102.129 25.168 101.634 25.2852 101.27 25.2852C100.332 25.2852 99.401 24.9206 98.4766 24.1914C96.6016 27.0299 94.4531 28.4492 92.0312 28.4492C90.5208 28.4492 89.2969 27.8828 88.3594 26.75C87.4219 25.6172 86.9531 24.1133 86.9531 22.2383C86.9531 19.2695 88.0078 16.724 90.1172 14.6016C92.2266 12.4661 94.7461 11.3984 97.6758 11.3984C98.7826 11.3984 99.5898 11.5221 100.098 11.7695C100.618 12.0039 100.938 12.2839 101.055 12.6094C101.172 12.9349 101.23 13.3451 101.23 13.8398C101.23 16.2747 100.566 19.263 99.2383 22.8047C99.9023 23.4167 100.599 23.7227 101.328 23.7227C102.201 23.7227 103.32 22.9609 104.688 21.4375V23.6836ZM98.2422 12.7656C98.0469 12.6875 97.7669 12.6484 97.4023 12.6484C95.7096 12.6484 94.3815 13.5339 93.418 15.3047C92.4674 17.0755 91.9922 19.1458 91.9922 21.5156C91.9922 22.8307 92.2005 23.8529 92.6172 24.582C93.0339 25.3112 93.6133 25.6758 94.3555 25.6758C95.2799 25.6758 96.2826 24.8229 97.3633 23.1172C96.1393 21.5807 95.5273 19.9271 95.5273 18.1562C95.5273 16.0729 96.4323 14.276 98.2422 12.7656ZM123.867 23.6836C120.781 26.8867 118.242 28.4883 116.25 28.4883C115.365 28.4883 114.629 28.1888 114.043 27.5898C113.47 26.9779 113.184 26.2096 113.184 25.2852C113.184 23.7227 113.783 21.5221 114.98 18.6836C115.618 17.1471 115.938 16.1445 115.938 15.6758C115.938 15.1419 115.684 14.875 115.176 14.875C114.655 14.875 113.9 15.2331 112.91 15.9492C111.921 16.6523 110.879 17.6159 109.785 18.8398C109.329 21.2357 109.102 24.1133 109.102 27.4727L104.746 28.4883C104.577 27.1211 104.492 25.6367 104.492 24.0352C104.492 20.1549 105.026 16.5417 106.094 13.1953C107.161 9.84896 108.841 6.30078 111.133 2.55078C112.839 1.86068 114.323 1.30078 115.586 0.871094C116.862 0.428385 117.591 0.207031 117.773 0.207031C118.112 0.207031 118.398 0.480469 118.633 1.02734C118.867 1.57422 118.984 2.25781 118.984 3.07812C118.984 4.45833 118.561 5.98828 117.715 7.66797C116.868 9.33464 115.54 11.3529 113.73 13.7227C115.462 12.7201 116.615 12.0885 117.188 11.8281C117.76 11.5677 118.346 11.4375 118.945 11.4375C119.609 11.4375 120.143 11.6784 120.547 12.1602C120.964 12.6289 121.172 13.2539 121.172 14.0352C121.172 15.207 120.703 17.0234 119.766 19.4844C118.841 21.9453 118.379 23.4883 118.379 24.1133C118.379 24.3997 118.464 24.6536 118.633 24.875C118.815 25.0964 119.023 25.207 119.258 25.207C120.091 25.207 121.628 23.9505 123.867 21.4375V23.6836ZM110.332 15.6758C114.98 10.2721 117.305 6.28776 117.305 3.72266C117.305 2.94141 117.09 2.55078 116.66 2.55078C115.944 2.55078 114.922 3.83333 113.594 6.39844C112.266 8.96354 111.178 12.056 110.332 15.6758Z" fill="#26474E"/>
</svg>
