<svg width="24" height="24" viewBox="0 0 24 24" fill="none" xmlns="http://www.w3.org/2000/svg">
<path d="M9.5438 4.36754L9.06946 4.20943L9.06946 4.20943L9.5438 4.36754ZM9.12827 5.61412L9.33358 6.07003L9.53334 5.98007L9.60261 5.77224L9.12827 5.61412ZM7.90662 6.32071L7.80638 6.81056L8.02137 6.85455L8.19929 6.7261L7.90662 6.32071ZM6.61767 6.05695L6.51743 6.54679L6.61767 6.05695ZM4.48466 7.01634L4.91767 7.26634L4.48466 7.01634ZM3.92618 7.98366L4.35919 8.23366L3.92618 7.98366ZM4.16182 10.3106L4.53592 9.97886H4.53592L4.16182 10.3106ZM5.03471 11.295L5.53223 11.3447L5.55401 11.127L5.40881 10.9632L5.03471 11.295ZM5.03471 12.705L5.40881 13.0368L5.55401 12.873L5.53223 12.6553L5.03471 12.705ZM4.16182 13.6894L3.78772 13.3577H3.78772L4.16182 13.6894ZM3.92618 16.0163L4.35919 15.7663L3.92618 16.0163ZM4.48466 16.9837L4.91767 16.7337L4.48466 16.9837ZM6.61767 17.9431L6.51743 17.4532H6.51743L6.61767 17.9431ZM7.90662 17.6793L8.19929 17.2739L8.02137 17.1454L7.80638 17.1894L7.90662 17.6793ZM9.12827 18.3859L9.60261 18.2278L9.53334 18.0199L9.33358 17.93L9.12827 18.3859ZM9.5438 19.6325L9.06946 19.7906L9.5438 19.6325ZM14.4555 19.6325L13.9812 19.4743L14.4555 19.6325ZM14.871 18.3859L14.6657 17.93L14.466 18.0199L14.3967 18.2278L14.871 18.3859ZM16.0927 17.6793L16.1929 17.1894L15.9779 17.1454L15.8 17.2739L16.0927 17.6793ZM17.3816 17.9431L17.2814 18.4329H17.2814L17.3816 17.9431ZM19.5146 16.9837L19.0816 16.7337L19.5146 16.9837ZM20.0731 16.0163L20.5061 16.2663L20.0731 16.0163ZM19.8375 13.6894L19.4634 14.0211V14.0211L19.8375 13.6894ZM18.9646 12.705L18.4671 12.6553L18.4453 12.873L18.5905 13.0368L18.9646 12.705ZM18.9646 11.295L18.5905 10.9632L18.4453 11.127L18.4671 11.3447L18.9646 11.295ZM19.8375 10.3106L20.2116 10.6423L19.8375 10.3106ZM20.0731 7.98366L19.6401 8.23366L19.6401 8.23366L20.0731 7.98366ZM19.5146 7.01634L19.9476 6.76634V6.76634L19.5146 7.01634ZM17.3816 6.05695L17.2814 5.5671L17.3816 6.05695ZM16.0927 6.32071L15.8 6.7261L15.9779 6.85455L16.1929 6.81056L16.0927 6.32071ZM14.871 5.61412L14.3967 5.77224L14.466 5.98007L14.6657 6.07003L14.871 5.61412ZM14.4555 4.36754L13.9812 4.52566V4.52566L14.4555 4.36754ZM10.0181 4.52566C10.2223 3.91315 10.7955 3.5 11.4412 3.5V2.5C10.3651 2.5 9.40974 3.18858 9.06946 4.20943L10.0181 4.52566ZM9.60261 5.77224L10.0181 4.52566L9.06946 4.20943L8.65393 5.45601L9.60261 5.77224ZM8.19929 6.7261C8.55254 6.47107 8.9323 6.25074 9.33358 6.07003L8.92296 5.15822C8.45957 5.3669 8.02134 5.6212 7.61394 5.91532L8.19929 6.7261ZM6.51743 6.54679L7.80638 6.81056L8.00686 5.83086L6.71791 5.5671L6.51743 6.54679ZM4.91767 7.26634C5.24049 6.7072 5.88489 6.41736 6.51743 6.54679L6.71791 5.5671C5.66368 5.35136 4.58968 5.83443 4.05165 6.76634L4.91767 7.26634ZM4.35919 8.23366L4.91767 7.26634L4.05165 6.76634L3.49316 7.73366L4.35919 8.23366ZM4.53592 9.97886C4.10756 9.49579 4.03637 8.79281 4.35919 8.23366L3.49316 7.73366C2.95513 8.66557 3.07378 9.83721 3.78772 10.6423L4.53592 9.97886ZM5.40881 10.9632L4.53592 9.97886L3.78772 10.6423L4.66061 11.6267L5.40881 10.9632ZM5.49965 12C5.49965 11.7787 5.51069 11.5601 5.53223 11.3447L4.53719 11.2452C4.51235 11.4936 4.49965 11.7454 4.49965 12H5.49965ZM5.53223 12.6553C5.51069 12.4399 5.49965 12.2213 5.49965 12H4.49965C4.49965 12.2546 4.51235 12.5064 4.53719 12.7548L5.53223 12.6553ZM4.53592 14.0211L5.40881 13.0368L4.66061 12.3733L3.78772 13.3577L4.53592 14.0211ZM4.35919 15.7663C4.03637 15.2072 4.10756 14.5042 4.53592 14.0211L3.78772 13.3577C3.07378 14.1628 2.95513 15.3344 3.49316 16.2663L4.35919 15.7663ZM4.91767 16.7337L4.35919 15.7663L3.49316 16.2663L4.05164 17.2337L4.91767 16.7337ZM6.51743 17.4532C5.88489 17.5826 5.24049 17.2928 4.91767 16.7337L4.05164 17.2337C4.58968 18.1656 5.66368 18.6486 6.71791 18.4329L6.51743 17.4532ZM7.80638 17.1894L6.51743 17.4532L6.71791 18.4329L8.00686 18.1691L7.80638 17.1894ZM9.33358 17.93C8.9323 17.7493 8.55254 17.5289 8.19929 17.2739L7.61394 18.0847C8.02134 18.3788 8.45958 18.6331 8.92296 18.8418L9.33358 17.93ZM10.0181 19.4743L9.60261 18.2278L8.65393 18.544L9.06946 19.7906L10.0181 19.4743ZM11.4412 20.5C10.7955 20.5 10.2223 20.0869 10.0181 19.4743L9.06946 19.7906C9.40974 20.8114 10.3651 21.5 11.4412 21.5V20.5ZM12.5581 20.5H11.4412V21.5H12.5581V20.5ZM13.9812 19.4743C13.777 20.0869 13.2038 20.5 12.5581 20.5V21.5C13.6342 21.5 14.5896 20.8114 14.9298 19.7906L13.9812 19.4743ZM14.3967 18.2278L13.9812 19.4743L14.9298 19.7906L15.3454 18.544L14.3967 18.2278ZM15.8 17.2739C15.4468 17.5289 15.067 17.7493 14.6657 17.93L15.0763 18.8418C15.5397 18.6331 15.978 18.3788 16.3853 18.0847L15.8 17.2739ZM17.4819 17.4532L16.1929 17.1894L15.9924 18.1691L17.2814 18.4329L17.4819 17.4532ZM19.0816 16.7337C18.7588 17.2928 18.1144 17.5826 17.4819 17.4532L17.2814 18.4329C18.3356 18.6486 19.4096 18.1656 19.9476 17.2337L19.0816 16.7337ZM19.6401 15.7663L19.0816 16.7337L19.9476 17.2337L20.5061 16.2663L19.6401 15.7663ZM19.4634 14.0211C19.8917 14.5042 19.9629 15.2072 19.6401 15.7663L20.5061 16.2663C21.0442 15.3344 20.9255 14.1628 20.2116 13.3577L19.4634 14.0211ZM18.5905 13.0368L19.4634 14.0211L20.2116 13.3577L19.3387 12.3733L18.5905 13.0368ZM18.4996 12C18.4996 12.2213 18.4886 12.4399 18.4671 12.6553L19.4621 12.7548C19.4869 12.5064 19.4996 12.2546 19.4996 12H18.4996ZM18.4671 11.3447C18.4886 11.5601 18.4996 11.7787 18.4996 12H19.4996C19.4996 11.7454 19.4869 11.4936 19.4621 11.2452L18.4671 11.3447ZM19.4634 9.97886L18.5905 10.9632L19.3387 11.6267L20.2116 10.6423L19.4634 9.97886ZM19.6401 8.23366C19.9629 8.7928 19.8917 9.49579 19.4634 9.97886L20.2116 10.6423C20.9255 9.83721 21.0442 8.66557 20.5061 7.73366L19.6401 8.23366ZM19.0816 7.26634L19.6401 8.23366L20.5061 7.73366L19.9476 6.76634L19.0816 7.26634ZM17.4819 6.54679C18.1144 6.41735 18.7588 6.7072 19.0816 7.26634L19.9476 6.76634C19.4096 5.83443 18.3356 5.35136 17.2814 5.5671L17.4819 6.54679ZM16.1929 6.81056L17.4819 6.54679L17.2814 5.5671L15.9924 5.83086L16.1929 6.81056ZM14.6657 6.07003C15.067 6.25074 15.4468 6.47107 15.8 6.7261L16.3853 5.91532C15.978 5.6212 15.5397 5.3669 15.0763 5.15822L14.6657 6.07003ZM13.9812 4.52566L14.3967 5.77224L15.3454 5.45601L14.9298 4.20943L13.9812 4.52566ZM12.5581 3.5C13.2038 3.5 13.777 3.91315 13.9812 4.52566L14.9298 4.20943C14.5896 3.18858 13.6342 2.5 12.5581 2.5V3.5ZM11.4412 3.5H12.5581V2.5H11.4412V3.5Z" fill="#26474E"/>
<path fill-rule="evenodd" clip-rule="evenodd" d="M12 13C12.5523 13 13 12.5523 13 12C13 11.4477 12.5523 11 12 11C11.4477 11 11 11.4477 11 12C11 12.5523 11.4477 13 12 13Z" stroke="#26474E"/>
</svg>
