<svg width="272" height="281" viewBox="0 0 272 281" fill="none"
    xmlns="http://www.w3.org/2000/svg">
    <g clip-path="url(#clip0)">
        <path d="M138.916 280.404C147.097 280.404 153.729 270.682 153.729 258.689C153.729 246.697 147.097 236.975 138.916 236.975C130.735 236.975 124.103 246.697 124.103 258.689C124.103 270.682 130.735 280.404 138.916 280.404Z" fill="#26474E"/>
        <path d="M227.408 279.184C235.695 275.536 244.506 271.732 251.078 263.058C256.951 255.308 260.915 243.473 258.482 231.85C256.054 220.25 248.782 212.516 241.273 208.669C237.015 206.487 232.559 205.277 228.106 204.326C223.264 203.292 218.401 202.445 213.541 201.63C193.859 198.33 174.104 196.314 154.275 195.583C144.491 195.221 134.708 195.23 124.923 195.438C116.183 195.624 106.979 195.62 98.8718 190.175C92.5672 185.94 86.8451 178.237 85.0884 168.114C83.0606 156.428 86.8009 144.528 92.1663 136.064C94.9945 131.603 98.2999 127.849 101.71 124.396C105.409 120.651 109.237 117.171 113.148 113.922C120.851 107.527 128.904 102.084 137.224 97.6508C141.328 95.463 145.494 93.5756 149.695 91.8343C153.243 90.364 156.801 88.8916 160.23 86.8883C166.858 83.0156 173.163 76.4558 174.848 65.7015C176.445 55.509 173.752 44.4443 169.031 36.8724C163.568 28.1124 155.332 24.2723 147.436 23.6509C138.572 22.9534 129.911 26.2057 121.579 30.3334C112.693 34.7358 103.998 39.7978 94.9233 43.3638C85.9248 46.8964 76.7522 49.3959 67.4888 50.8396C62.9541 51.5475 58.2823 52.3468 53.7206 51.8049C49.8974 51.3507 46.0938 49.7024 43.2762 45.7249C40.8603 42.3143 39.4211 37.6271 39.9159 32.6807C40.0058 31.7823 40.9368 32.1642 40.8474 33.0572C40.2451 39.0784 43.0371 44.6268 46.4776 47.4689C50.454 50.7536 55.2926 50.7581 59.7196 50.3825C69.3186 49.5326 78.8526 47.5121 88.2228 44.3421C97.43 41.2593 106.308 36.8523 115.177 32.1445C123.6 27.6734 132.211 23.3095 141.209 22.3411C149.016 21.5008 157.23 23.1682 164.031 29.1497C170.009 34.4065 174.405 43.1733 175.806 53.2334C177.175 63.0639 175.279 72.9585 170.203 79.8185C164.947 86.9213 157.741 89.958 151.025 92.7547C142.506 96.302 134.171 100.448 126.103 105.832C117.925 111.274 110.081 117.738 102.66 125.153C95.4963 132.329 88.4266 141.359 86.1609 154.162C85.1055 160.125 85.3004 166.45 87.0663 172.083C88.6365 177.092 91.2224 181.305 94.2349 184.554C101.423 192.308 110.482 193.9 119.164 194.058C128.915 194.236 138.666 193.753 148.421 193.988C168.299 194.466 188.138 196.24 207.935 199.31C212.896 200.079 217.851 200.93 222.799 201.862C227.25 202.7 231.715 203.533 236.091 205.022C243.872 207.67 251.443 212.76 256.279 222.431C258.425 226.623 259.755 231.59 260.126 236.803C260.465 242.243 259.556 247.693 257.879 252.533C254.165 263.244 247.209 270.057 239.822 274.533C235.865 276.931 231.761 278.747 227.665 280.55C227.069 280.813 226.814 279.446 227.408 279.184L227.408 279.184Z" fill="#F27348"/>
        <path d="M40.5394 44.1375C44.8077 44.1375 48.2679 39.0651 48.2679 32.808C48.2679 26.5509 44.8077 21.4785 40.5394 21.4785C36.2712 21.4785 32.811 26.5509 32.811 32.808C32.811 39.0651 36.2712 44.1375 40.5394 44.1375Z" fill="#F27348"/>
        <path d="M94.1557 65.6165C98.4239 65.6165 101.884 60.5441 101.884 54.287C101.884 48.0299 98.4239 42.9575 94.1557 42.9575C89.8874 42.9575 86.4272 48.0299 86.4272 54.287C86.4272 60.5441 89.8874 65.6165 94.1557 65.6165Z" fill="#F27348"/>
        <path d="M139.56 22.6589C143.828 22.6589 147.288 17.5866 147.288 11.3295C147.288 5.07238 143.828 0 139.56 0C135.292 0 131.832 5.07238 131.832 11.3295C131.832 17.5866 135.292 22.6589 139.56 22.6589Z" fill="#F27348"/>
        <path d="M167.897 70.8093C172.166 70.8093 175.626 65.737 175.626 59.4799C175.626 53.2228 172.166 48.1504 167.897 48.1504C163.629 48.1504 160.169 53.2228 160.169 59.4799C160.169 65.737 163.629 70.8093 167.897 70.8093Z" fill="#F27348"/>
        <path d="M129.578 126.512C133.846 126.512 137.306 121.44 137.306 115.183C137.306 108.926 133.846 103.854 129.578 103.854C125.309 103.854 121.849 108.926 121.849 115.183C121.849 121.44 125.309 126.512 129.578 126.512Z" fill="#F27348"/>
        <path d="M80.953 153.42C85.2213 153.42 88.6814 148.348 88.6814 142.091C88.6814 135.834 85.2213 130.761 80.953 130.761C76.6847 130.761 73.2246 135.834 73.2246 142.091C73.2246 148.348 76.6847 153.42 80.953 153.42Z" fill="#F27348"/>
        <path d="M132.475 195.433C136.744 195.433 140.204 190.361 140.204 184.104C140.204 177.847 136.744 172.774 132.475 172.774C128.207 172.774 124.747 177.847 124.747 184.104C124.747 190.361 128.207 195.433 132.475 195.433Z" fill="#F27348"/>
        <path d="M187.863 219.036C192.131 219.036 195.591 213.964 195.591 207.707C195.591 201.45 192.131 196.377 187.863 196.377C183.594 196.377 180.134 201.45 180.134 207.707C180.134 213.964 183.594 219.036 187.863 219.036Z" fill="#F27348"/>
        <path d="M252.588 213.844C256.856 213.844 260.316 208.772 260.316 202.515C260.316 196.257 256.856 191.185 252.588 191.185C248.32 191.185 244.859 196.257 244.859 202.515C244.859 208.772 248.32 213.844 252.588 213.844Z" fill="#F27348"/>
        <path d="M137.329 32.1017C114.179 32.3415 95.2233 59.9203 94.8944 93.8551C94.8914 94.1684 94.89 96.3714 94.8902 99.2527C94.8903 103.477 96.0352 107.529 98.0729 110.516C100.111 113.504 102.874 115.182 105.756 115.183H105.756C107.185 115.182 108.599 114.769 109.919 113.967C111.239 113.165 112.438 111.99 113.447 110.508C114.457 109.026 115.257 107.267 115.803 105.332C116.349 103.397 116.629 101.323 116.628 99.2283C116.627 97.2683 116.626 95.9117 116.626 95.8284C116.625 90.5838 117.556 85.4293 119.326 80.8718C121.097 76.3144 123.646 72.511 126.723 69.8359C129.8 67.1607 133.299 65.7059 136.877 65.6146C140.454 65.5233 143.985 66.7986 147.124 69.315C150.263 71.8315 152.901 75.5024 154.778 79.9667C156.656 84.431 157.708 89.535 157.832 94.7764C157.956 100.018 157.147 105.216 155.485 109.86C153.822 114.504 151.364 118.434 148.351 121.263L148.355 121.27C148.355 121.27 132.889 135.865 128.174 155.888L128.178 155.89C127.349 159.992 126.929 164.248 126.931 168.526C126.931 170.284 127.001 185.672 127.138 198.161C127.185 202.47 128.387 206.579 130.483 209.601C132.578 212.624 135.401 214.317 138.341 214.316H138.341C139.818 214.316 141.281 213.887 142.644 213.056C144.008 212.224 145.247 211.005 146.288 209.469C147.329 207.933 148.153 206.11 148.712 204.105C149.271 202.101 149.554 199.954 149.545 197.789C149.498 186.351 149.472 173.033 149.472 172.066C149.472 159.772 157.563 147.522 164.209 139.533C171.862 130.334 177.369 117.798 179.581 103.657C180.07 100.745 180.34 97.764 180.386 94.7663C180.386 86.4987 179.27 78.3129 177.102 70.6804C174.934 63.048 171.758 56.1197 167.756 50.2948C163.753 44.47 159.004 39.8636 153.782 36.7412C148.56 33.6188 142.969 32.042 137.329 32.1017Z" fill="#26474E"/>
        <path d="M271.616 281H0.383288C0.281791 281 0.184554 280.94 0.112889 280.835C0.041223 280.73 0.000976562 280.587 0.000976562 280.438C0.000976562 280.289 0.041223 280.147 0.112889 280.041C0.184554 279.936 0.281791 279.876 0.383288 279.876H271.616C271.718 279.876 271.816 279.935 271.888 280.041C271.959 280.146 272 280.289 272 280.438C272 280.587 271.959 280.73 271.888 280.835C271.816 280.941 271.718 281 271.616 281Z" fill="#3F3D56"/>
        <path d="M202.371 128.871C207.707 128.871 212.032 122.53 212.032 114.709C212.032 106.887 207.707 100.547 202.371 100.547C197.036 100.547 192.711 106.887 192.711 114.709C192.711 122.53 197.036 128.871 202.371 128.871Z" fill="#2F2E41"/>
        <path d="M184.52 274.801H180.572L178.694 252.478H184.521L184.52 274.801Z" fill="#A0616A"/>
        <path d="M177.752 273.146H185.366V280.174H172.958C172.958 279.251 173.082 278.337 173.323 277.485C173.564 276.632 173.917 275.857 174.363 275.205C174.808 274.552 175.336 274.035 175.918 273.681C176.499 273.328 177.123 273.146 177.752 273.146Z" fill="#2F2E41"/>
        <path d="M215.112 274.801H211.164L209.286 252.478H215.113L215.112 274.801Z" fill="#A0616A"/>
        <path d="M208.344 273.146H215.957V280.174H203.55C203.55 279.251 203.674 278.337 203.915 277.485C204.156 276.632 204.509 275.857 204.954 275.205C205.399 274.552 205.927 274.035 206.509 273.681C207.091 273.328 207.714 273.146 208.344 273.146Z" fill="#2F2E41"/>
        <path d="M200.903 128.954C205.271 128.954 208.812 123.763 208.812 117.359C208.812 110.956 205.271 105.765 200.903 105.765C196.535 105.765 192.994 110.956 192.994 117.359C192.994 123.763 196.535 128.954 200.903 128.954Z" fill="#A0616A"/>
        <path d="M205.617 166.357L209.156 154.438C210.016 151.642 210.262 148.523 209.861 145.513C209.46 142.503 208.432 139.749 206.918 137.632C206.607 137.182 206.277 136.761 205.93 136.372C204.184 134.369 202.032 133.278 199.815 133.271C198.324 133.279 196.852 133.759 195.5 134.677C195.384 134.753 195.271 134.833 195.155 134.913C194.933 135.069 194.714 135.239 194.501 135.414C193.115 136.581 191.935 138.209 191.057 140.167C190.179 142.125 189.627 144.358 189.446 146.686L187.884 165.871C187.491 167.377 173.477 221.758 178.378 263.276C178.43 263.72 178.578 264.127 178.799 264.439C179.02 264.75 179.304 264.95 179.608 265.009L184.577 266C184.94 266.073 185.308 265.941 185.607 265.632C185.906 265.323 186.115 264.859 186.19 264.334L194.527 206.077C194.579 205.715 194.712 205.389 194.906 205.151C195.099 204.913 195.341 204.777 195.593 204.764C195.845 204.752 196.093 204.863 196.297 205.082C196.5 205.3 196.648 205.612 196.717 205.968L208.496 267.232C208.58 267.677 208.761 268.07 209.012 268.349C209.263 268.629 209.569 268.78 209.884 268.78C209.978 268.78 210.072 268.767 210.164 268.743L216.234 267.029C216.587 266.932 216.903 266.646 217.119 266.226C217.335 265.806 217.437 265.282 217.403 264.758C216.511 250.176 211.771 177.134 205.617 166.357Z" fill="#2F2E41"/>
        <path d="M170.166 127.008C170.111 127.697 170.16 128.396 170.31 129.054C170.459 129.713 170.705 130.316 171.03 130.82C171.355 131.324 171.752 131.718 172.192 131.973C172.632 132.228 173.105 132.338 173.578 132.297L177.999 147.871L181.343 140.604L176.632 126.928C176.532 125.769 176.144 124.704 175.544 123.936C174.944 123.167 174.172 122.748 173.375 122.758C172.578 122.768 171.811 123.206 171.22 123.989C170.629 124.772 170.254 125.846 170.166 127.008L170.166 127.008Z" fill="#A0616A"/>
        <path d="M200.465 182.039C200.935 181.957 201.387 181.725 201.789 181.358C202.191 180.992 202.534 180.501 202.792 179.92C203.051 179.339 203.22 178.682 203.286 177.995C203.353 177.308 203.316 176.608 203.178 175.944L212.48 166.012L206.88 162.938L198.905 172.84C198.16 173.254 197.544 174.054 197.174 175.089C196.804 176.123 196.706 177.321 196.898 178.455C197.09 179.589 197.559 180.58 198.217 181.241C198.874 181.901 199.674 182.186 200.465 182.039Z" fill="#A0616A"/>
        <path d="M185.301 158.254C184.945 158.254 184.589 158.202 184.239 158.101C183.393 157.865 182.6 157.327 181.929 156.536C181.258 155.744 180.73 154.723 180.392 153.561L174.198 142.49C174.067 142.256 173.972 141.984 173.919 141.691C173.865 141.399 173.855 141.093 173.889 140.794C173.923 140.496 174 140.211 174.115 139.96C174.23 139.708 174.38 139.496 174.556 139.336L178.963 135.338C179.125 135.19 179.306 135.091 179.495 135.047C179.684 135.002 179.877 135.013 180.063 135.078C180.249 135.143 180.425 135.262 180.579 135.428C180.734 135.593 180.865 135.801 180.964 136.041L185.329 146.584L193.689 137.527C194.355 137.015 195.124 136.872 195.856 137.123C196.588 137.374 197.234 138.002 197.675 138.893C198.117 139.785 198.326 140.879 198.263 141.977C198.199 143.075 197.869 144.103 197.331 144.873L188.987 156.031C188.007 157.456 186.682 158.255 185.301 158.254Z" fill="#2F2E41"/>
        <path d="M207.891 174.905C207.88 174.905 207.869 174.905 207.857 174.905C207.654 174.898 207.454 174.828 207.27 174.7C207.087 174.572 206.923 174.39 206.791 174.163L202.873 167.463C202.74 167.235 202.641 166.968 202.583 166.68C202.525 166.391 202.51 166.088 202.538 165.791C202.566 165.493 202.637 165.207 202.746 164.953C202.855 164.698 202.999 164.48 203.17 164.313L210.506 157.144L203.86 145.431C203.473 144.486 203.331 143.369 203.46 142.283C203.589 141.198 203.98 140.217 204.562 139.519C205.143 138.821 205.877 138.454 206.628 138.483C207.38 138.513 208.098 138.937 208.654 139.68L216.731 151.251C217.367 152.103 217.852 153.168 218.145 154.354C218.439 155.541 218.531 156.815 218.415 158.065C218.298 159.316 217.976 160.506 217.477 161.535C216.978 162.563 216.316 163.398 215.548 163.969L208.946 174.238C208.81 174.449 208.647 174.616 208.465 174.731C208.284 174.846 208.089 174.905 207.891 174.905Z" fill="#2F2E41"/>
        <path d="M198.892 150.217C198.829 150.217 198.766 150.211 198.704 150.199C198.431 150.151 198.174 149.988 197.962 149.732C197.75 149.475 197.593 149.134 197.509 148.751L194.565 135.519C194.491 135.185 194.503 134.822 194.597 134.499C194.692 134.176 194.862 133.914 195.079 133.761L195.174 133.695C195.261 133.634 195.346 133.575 195.434 133.517C196.807 132.584 198.301 132.097 199.814 132.09C201.779 132.096 203.7 132.942 205.341 134.525C205.561 134.739 205.714 135.072 205.769 135.451C205.823 135.83 205.773 136.226 205.631 136.552L200.108 149.235C199.979 149.536 199.799 149.784 199.587 149.956C199.374 150.128 199.135 150.217 198.892 150.217Z" fill="#E6E6E6"/>
        <path d="M209.988 108.386C211.734 108.386 213.149 106.312 213.149 103.752C213.149 101.193 211.734 99.1182 209.988 99.1182C208.242 99.1182 206.827 101.193 206.827 103.752C206.827 106.312 208.242 108.386 209.988 108.386Z" fill="#2F2E41"/>
        <path d="M199.151 98.6587C196.931 98.6587 194.801 99.9518 193.231 102.254C191.661 104.555 190.779 107.677 190.779 110.932V116.125H195.135L197.219 110.932L197.844 116.125H211.066L207.524 110.932C207.524 107.677 206.642 104.555 205.071 102.254C203.501 99.9518 201.372 98.6587 199.151 98.6587Z" fill="#2F2E41"/>
        <path d="M211.612 100.578C211.962 98.9758 212.686 97.6053 213.656 96.7078C214.627 95.8103 215.782 95.4431 216.919 95.6708C218.934 96.1645 220.527 98.5384 221.476 101.19C222.425 103.841 222.863 106.808 223.501 109.653C224.139 112.497 225.044 115.357 226.655 117.198C228.265 119.039 230.737 119.539 232.319 117.645C232.138 119.619 231.539 121.46 230.605 122.907C229.672 124.354 228.451 125.334 227.117 125.709C225.783 126.084 224.402 125.834 223.17 124.995C221.937 124.156 220.916 122.771 220.25 121.035C219.416 118.858 219.2 116.306 218.953 113.835C218.705 111.365 218.384 108.808 217.387 106.783C216.391 104.757 214.525 103.434 212.942 104.357L211.612 100.578Z" fill="#2F2E41"/>
        <path d="M108.825 107.648C105.943 107.648 103.179 105.969 101.141 102.982C99.1035 99.9941 97.9586 95.9425 97.9585 91.7178C97.9583 88.8365 97.9597 86.6335 97.9627 86.3202C98.0543 76.451 99.7498 66.756 102.909 58.0396C97.7188 68.4546 94.8652 80.9766 94.7425 93.8731C94.7396 94.1864 94.7381 96.3894 94.7383 99.2708C94.7385 103.496 95.8833 107.547 97.9211 110.535C99.9588 113.522 102.723 115.2 105.604 115.201C107.973 115.2 110.276 114.065 112.164 111.97C114.052 109.875 115.422 106.933 116.066 103.593C114.076 106.208 111.497 107.653 108.825 107.648Z" fill="#3F3D56"/>
        <path d="M138.066 65.6678C141.397 65.9011 144.641 67.3162 147.517 69.7917C150.393 72.2672 152.817 75.7291 154.58 79.8801C156.342 84.0312 157.391 88.7473 157.637 93.6237C157.882 98.5 157.317 103.391 155.989 107.876C157.91 104.569 159.322 100.694 160.128 96.5147C160.935 92.3354 161.117 87.9502 160.663 83.6582C160.208 79.3662 159.128 75.2683 157.495 71.6439C155.863 68.0194 153.716 64.9536 151.202 62.6555C148.688 60.3573 145.866 58.8809 142.927 58.3269C139.988 57.7728 137.003 58.1542 134.174 59.445C131.345 60.7357 128.739 62.9056 126.534 65.8065C124.329 68.7074 122.576 72.2713 121.396 76.2551C123.436 72.737 126 69.9527 128.89 68.1171C131.78 66.2815 134.92 65.4435 138.066 65.6678Z" fill="#3F3D56"/>
        <path d="M141.409 206.781C138.469 206.782 135.647 205.089 133.551 202.066C131.455 199.044 130.254 194.935 130.206 190.626C130.07 178.137 129.999 162.75 129.999 160.991C129.997 156.713 130.417 152.457 131.246 148.355L131.242 148.353C131.732 146.295 132.323 144.291 133.012 142.358C130.899 146.486 129.217 151.052 128.022 155.906L128.026 155.908C127.197 160.01 126.777 164.266 126.779 168.544C126.779 170.303 126.849 185.69 126.986 198.179C127.033 202.488 128.235 206.597 130.331 209.619C132.427 212.642 135.249 214.335 138.189 214.334C140.613 214.333 142.971 213.181 144.911 211.049C146.85 208.917 148.265 205.921 148.945 202.51C146.885 205.263 144.197 206.787 141.409 206.781Z" fill="#3F3D56"/>
        <path d="M40.7485 275.016L44.6961 275.016L46.5745 252.693L40.7476 252.693L40.7485 275.016Z" fill="#FFB8B8"/>
        <path d="M52.3101 280.389L39.9025 280.39L39.9023 273.362L47.516 273.361C48.7874 273.361 50.0068 274.102 50.9058 275.42C51.8049 276.737 52.31 278.525 52.3101 280.389L52.3101 280.389Z" fill="#2F2E41"/>
        <path d="M26.5796 275.016L30.5272 275.016L32.4055 252.693L26.5786 252.693L26.5796 275.016Z" fill="#FFB8B8"/>
        <path d="M38.1411 280.389L25.7336 280.39L25.7333 273.362L33.3471 273.361C34.6185 273.361 35.8378 274.102 36.7369 275.42C37.6359 276.737 38.1411 278.525 38.1411 280.389L38.1411 280.389Z" fill="#2F2E41"/>
        <path d="M30.0297 268.15L26.1735 267.853C25.9747 267.838 25.7799 267.765 25.6004 267.638C25.421 267.512 25.2604 267.334 25.1281 267.116C24.9957 266.898 24.8942 266.644 24.8294 266.368C24.7647 266.092 24.7379 265.8 24.7507 265.508L29.3596 190.703L50.5841 199.099L52.6289 198.281L46.2342 264.504C46.1798 265.002 46.011 265.458 45.7558 265.796C45.5007 266.135 45.1744 266.336 44.8308 266.366L40.6739 266.65C40.4661 266.667 40.2581 266.62 40.0631 266.513C39.8681 266.406 39.6904 266.241 39.5412 266.029C39.3919 265.816 39.2744 265.56 39.196 265.277C39.1177 264.994 39.0802 264.691 39.0859 264.386L39.8391 224.64C39.8426 224.456 39.7991 224.277 39.717 224.138C39.635 223.999 39.5203 223.91 39.3958 223.889C39.2712 223.868 39.1457 223.915 39.044 224.023C38.9423 224.131 38.8717 224.29 38.8463 224.47L31.5826 266.395C31.514 266.892 31.3299 267.34 31.0616 267.66C30.7933 267.981 30.4574 268.155 30.1112 268.154C30.0842 268.154 30.057 268.153 30.0297 268.15Z" fill="#2F2E41"/>
        <path d="M41.4574 129.496C45.8255 129.496 49.3665 124.305 49.3665 117.902C49.3665 111.499 45.8255 106.308 41.4574 106.308C37.0894 106.308 33.5483 111.499 33.5483 117.902C33.5483 124.305 37.0894 129.496 41.4574 129.496Z" fill="#FFB8B8"/>
        <path d="M28.2893 151.965L29.1589 179.471L29.4733 189.478C29.4858 189.914 29.5867 190.334 29.763 190.685C29.9394 191.036 30.1832 191.302 30.4632 191.449L50.8585 202.28C51.0233 202.37 51.1978 202.414 51.3736 202.412C51.5745 202.414 51.7735 202.356 51.9588 202.242C52.1441 202.128 52.3118 201.961 52.452 201.75C52.5921 201.539 52.7019 201.288 52.7746 201.014C52.8474 200.739 52.8816 200.446 52.8754 200.152L52.0392 150.695C51.9843 146.638 50.9654 142.735 49.1582 139.661C47.351 136.586 44.8687 134.533 42.1392 133.854C41.942 133.809 41.7413 133.765 41.5405 133.726C39.8481 133.418 38.1301 133.657 36.5075 134.427C34.885 135.197 33.3972 136.479 32.1489 138.183C30.8563 139.926 29.8407 142.063 29.1737 144.445C28.5068 146.826 28.2049 149.394 28.2892 151.965L28.2893 151.965Z" fill="#CCCCCC"/>
        <path d="M60.6012 196.791C60.1188 196.572 59.6781 196.19 59.3142 195.676C58.9503 195.163 58.6733 194.532 58.5054 193.834C58.3374 193.135 58.2832 192.389 58.3469 191.655C58.4106 190.92 58.5905 190.218 58.8723 189.603L51.9561 176.121L57.9244 175.58L63.5772 188.465C64.1824 189.151 64.6035 190.128 64.7667 191.223C64.9299 192.319 64.8247 193.464 64.4697 194.457C64.1146 195.45 63.5324 196.228 62.825 196.655C62.1176 197.082 61.3303 197.13 60.6012 196.791H60.6012Z" fill="#FFB8B8"/>
        <path d="M55.7382 187.163C55.5549 187.054 55.3883 186.893 55.2478 186.689C55.1074 186.485 54.9959 186.242 54.9199 185.974L44.5 149.581C44.2955 148.869 44.1889 148.104 44.1861 147.331C44.1833 146.558 44.2845 145.792 44.4838 145.076C44.6831 144.36 44.9767 143.709 45.3477 143.16C45.7188 142.611 46.16 142.174 46.6462 141.875C47.1325 141.576 47.6541 141.42 48.1814 141.417C48.7087 141.413 49.2313 141.562 49.7194 141.855C50.2074 142.147 50.6513 142.578 51.0257 143.123C51.4001 143.667 51.6977 144.314 51.9014 145.027L62.3213 181.421C62.4753 181.961 62.477 182.568 62.326 183.109C62.1751 183.651 61.8838 184.082 61.5161 184.309L56.8901 187.155C56.708 187.268 56.5125 187.327 56.3147 187.328C56.117 187.33 55.921 187.274 55.7382 187.163L55.7382 187.163Z" fill="#CCCCCC"/>
        <path d="M38.9145 185.88L48.9225 157.788C49.1155 157.247 49.4468 156.841 49.8437 156.659C50.2407 156.476 50.6708 156.532 51.0398 156.814L65.5664 167.935C65.935 168.218 66.2119 168.704 66.3365 169.286C66.461 169.868 66.4231 170.498 66.2309 171.039L56.2228 199.131C56.0298 199.671 55.6985 200.077 55.3016 200.26C54.9047 200.442 54.4746 200.387 54.1056 200.105L39.5789 188.983C39.2104 188.7 38.9335 188.215 38.8089 187.633C38.6843 187.051 38.7223 186.42 38.9145 185.88Z" fill="#3F3D56"/>
        <path d="M45.6261 173.045C45.4482 172.352 45.1623 171.73 44.7911 171.227C44.42 170.725 43.9739 170.357 43.4885 170.153C43.003 169.948 42.4917 169.913 41.9953 170.049C41.4989 170.186 41.0312 170.491 40.6294 170.939L31.0402 161.614L31.0239 170.38L40.1325 177.892C40.6353 178.737 41.325 179.295 42.0807 179.469C42.8363 179.644 43.6097 179.422 44.2651 178.844C44.9205 178.266 45.4161 177.368 45.665 176.307C45.9139 175.247 45.9001 174.092 45.6261 173.045Z" fill="#FFB8B8"/>
        <path d="M33.5019 175.017L25.6651 165.917C24.8173 165.499 24.0512 164.787 23.4327 163.84C22.8141 162.893 22.3615 161.74 22.1138 160.481C21.866 159.221 21.8305 157.892 22.0103 156.608C22.19 155.323 22.5797 154.122 23.1458 153.107L30.2614 139.437C30.7559 138.551 31.4513 137.955 32.2206 137.759C32.9898 137.563 33.7815 137.78 34.4509 138.369C35.1203 138.958 35.6227 139.881 35.8663 140.968C36.1099 142.056 36.0783 143.235 35.7775 144.291L30.1474 157.792L38.4213 163.545C38.6137 163.679 38.7845 163.871 38.9225 164.109C39.0605 164.347 39.1626 164.625 39.2218 164.924C39.2811 165.224 39.2964 165.539 39.2665 165.848C39.2366 166.157 39.1624 166.454 39.0486 166.717L35.7087 174.466C35.5958 174.727 35.4467 174.951 35.2711 175.123C35.0954 175.295 34.8971 175.41 34.689 175.462C34.6807 175.465 34.6724 175.466 34.6641 175.468C34.4596 175.514 34.251 175.497 34.0511 175.419C33.8512 175.342 33.6643 175.205 33.5019 175.017Z" fill="#CCCCCC"/>
        <path d="M35.4807 125.665C35.4468 125.519 35.436 125.364 35.4492 125.212C35.4625 125.059 35.4994 124.913 35.5571 124.785C35.6148 124.656 35.6917 124.549 35.7821 124.471C35.8725 124.393 35.9739 124.346 36.0785 124.334C36.2927 124.351 36.5023 124.432 36.6947 124.571C36.8871 124.71 37.0583 124.905 37.1978 125.144C37.4841 125.628 37.8173 126.047 38.1868 126.389C38.5694 126.671 39.0883 126.631 39.3064 126.092C39.5112 125.586 39.3709 124.908 39.2469 124.32C38.9314 122.824 38.7548 121.273 38.722 119.708C38.6863 117.961 38.8544 116.138 39.5141 114.776C40.3655 113.018 41.8878 112.35 43.3285 112.399C44.7693 112.447 46.1866 113.099 47.6137 113.511C48.1063 113.653 48.6854 113.726 49.0149 113.166C49.3653 112.571 49.2366 111.608 49.0876 110.804C48.7009 108.719 48.2906 106.563 47.3921 104.879C46.4206 103.129 45.0328 101.983 43.5083 101.673C42.0447 101.408 40.5589 101.655 39.1732 102.395C36.9155 103.438 34.9289 105.467 33.479 108.21C31.9844 111.127 31.3386 114.793 31.6828 118.407C32.019 121.554 33.1566 124.397 34.8662 126.363L35.4807 125.665Z" fill="#2F2E41"/>
        <path d="M135.653 275.108C133.548 273.765 131.686 271.722 130.212 269.143C128.739 266.564 127.694 263.517 127.161 260.245C126.628 256.972 126.621 253.563 127.141 250.286C127.66 247.008 128.693 243.953 130.156 241.361C128.459 243.177 127.046 245.501 126.009 248.178C124.972 250.856 124.335 253.827 124.141 256.893C123.947 259.959 124.201 263.05 124.884 265.962C125.567 268.874 126.665 271.539 128.105 273.781C129.545 276.023 131.294 277.791 133.235 278.966C135.176 280.142 137.266 280.699 139.365 280.6C141.465 280.501 143.526 279.749 145.412 278.393C147.298 277.037 148.965 275.109 150.304 272.736C148.216 274.973 145.765 276.369 143.194 276.786C140.623 277.202 138.023 276.623 135.653 275.108Z" fill="#3F3D56"/>
    </g>
    <defs>
        <clipPath id="clip0">
            <rect width="272" height="281" fill="white"/>
        </clipPath>
    </defs>
</svg>
