<svg width="272" height="302" viewBox="0 0 272 302" fill="none"
    xmlns="http://www.w3.org/2000/svg">
    <path d="M9.58301 104.883H81.3352C81.3352 104.883 74.9939 93.3474 56.5322 95.0244C38.9044 96.6336 38.0027 89.3537 29.0337 88.4522C20.0646 87.5507 12.5695 94.4331 9.58301 104.883Z" fill="#F0F0F0" fill-opacity="0.8"/>
    <path d="M19.3198 100.644H91.072C91.072 100.644 84.7307 89.1082 66.269 90.7852C48.6413 92.3943 47.7395 85.1144 38.7705 84.2129C29.8015 83.3114 22.3063 90.1939 19.3198 100.644Z" fill="#F5F5F5" fill-opacity="0.5"/>
    <path d="M56.5615 64.8254C65.6919 55.6975 65.6919 40.8982 56.5615 31.7703C47.4311 22.6424 32.6278 22.6424 23.4974 31.7703C14.367 40.8982 14.367 55.6975 23.4974 64.8254C32.6278 73.9533 47.4311 73.9533 56.5615 64.8254Z" fill="#F5F5F5" fill-opacity="0.5"/>
    <path d="M56.5612 64.8262C65.6916 55.6983 65.6916 40.899 56.5612 31.7711C56.5612 31.7711 58.0454 50.6608 48.915 59.7887C39.7846 68.9166 23.4971 64.8262 23.4971 64.8262C32.6275 73.9541 47.4308 73.9541 56.5612 64.8262Z" fill="#F0F0F0" fill-opacity="0.5"/>
    <path d="M88.367 0H0V135.461H88.367V0Z" fill="#26474E" fill-opacity="0.5"/>
    <path d="M42.1346 5.4248H4.81592V65.6789H42.1346V5.4248Z" fill="#FDFDFD" fill-opacity="0.5"/>
    <path d="M83.5576 5.4248H46.2456V65.6789H83.5576V5.4248Z" fill="#FDFDFD" fill-opacity="0.5"/>
    <path d="M42.1346 69.7822H4.81592V130.036H42.1346V69.7822Z" fill="#FDFDFD" fill-opacity="0.5"/>
    <path d="M83.5576 69.7822H46.2456V130.036H83.5576V69.7822Z" fill="#FDFDFD" fill-opacity="0.5"/>
    <path d="M27.4124 5.4248L4.81592 28.0151V14.6849L14.0852 5.4248H27.4124Z" fill="#EBEBEB" fill-opacity="0.5"/>
    <path d="M4.81592 127.81L42.1346 90.502V103.819L15.9163 130.037H4.81592V127.81Z" fill="#EBEBEB" fill-opacity="0.5"/>
    <path d="M76.1868 69.7822L46.2393 99.7215V86.398L62.8596 69.7822H76.1868Z" fill="#EBEBEB" fill-opacity="0.5"/>
    <path d="M83.5574 49.0967V62.4135L80.291 65.679H66.9639L83.5574 49.0967Z" fill="#EBEBEB" fill-opacity="0.5"/>
    <path d="M83.5577 116.076V129.4L82.9206 130.037H69.6001L83.5577 116.076Z" fill="#EBEBEB" fill-opacity="0.5"/>
    <path d="M6.95551 69.7822H13.6157L4.81592 78.5796V71.9145L6.95551 69.7822Z" fill="#EBEBEB" fill-opacity="0.5"/>
    <path d="M11.0591 65.679L42.1334 34.6064V41.2648L17.7193 65.679H11.0591Z" fill="#EBEBEB" fill-opacity="0.5"/>
    <path d="M77.991 5.4248L46.2393 37.1611V30.5028L71.3308 5.4248H77.991Z" fill="#EBEBEB" fill-opacity="0.5"/>
    <path d="M38.3652 5.4248L4.81592 38.9649V37.2953L36.6951 5.4248H38.3652Z" fill="#EBEBEB" fill-opacity="0.5"/>
    <path d="M25.6753 130.037L42.1347 113.575V115.245L27.3454 130.037H25.6753Z" fill="#EBEBEB" fill-opacity="0.5"/>
    <path d="M83.558 72.1758V73.832L46.2393 111.14V109.471L83.558 72.1758Z" fill="#EBEBEB" fill-opacity="0.5"/>
    <path d="M196.588 0H108.221V135.461H196.588V0Z" fill="#26474E" fill-opacity="0.5"/>
    <path d="M150.354 5.4248H113.036V65.6789H150.354V5.4248Z" fill="#FDFDFD" fill-opacity="0.5"/>
    <path d="M191.771 5.4248H154.459V65.6789H191.771V5.4248Z" fill="#FDFDFD" fill-opacity="0.5"/>
    <path d="M150.354 69.7822H113.036V130.036H150.354V69.7822Z" fill="#FDFDFD" fill-opacity="0.5"/>
    <path d="M191.771 69.7822H154.459V130.036H191.771V69.7822Z" fill="#FDFDFD" fill-opacity="0.5"/>
    <path d="M113.036 69.7822H116.55L113.036 73.2958V69.7822Z" fill="#EBEBEB" fill-opacity="0.5"/>
    <path d="M113.036 59.9724L150.354 22.6572V35.9874L120.655 65.6786H113.036V59.9724Z" fill="#EBEBEB" fill-opacity="0.5"/>
    <path d="M180.926 5.4248L154.459 31.884V18.5538L167.592 5.4248H180.926Z" fill="#EBEBEB" fill-opacity="0.5"/>
    <path d="M191.771 89.3486V102.672L164.406 130.037H154.459V126.65L191.771 89.3486Z" fill="#EBEBEB" fill-opacity="0.5"/>
    <path d="M150.354 5.4248V6.65859L113.036 43.9671V37.302L144.915 5.4248H150.354Z" fill="#EBEBEB" fill-opacity="0.5"/>
    <path d="M135.546 130.037L150.355 115.231V121.89L142.206 130.037H135.546Z" fill="#EBEBEB" fill-opacity="0.5"/>
    <path d="M191.771 73.8193V80.4844L154.459 117.786V111.128L191.771 73.8193Z" fill="#EBEBEB" fill-opacity="0.5"/>
    <path d="M121.084 69.7822H122.754L113.036 79.4983V77.8353L121.084 69.7822Z" fill="#EBEBEB" fill-opacity="0.5"/>
    <path d="M125.189 65.6789L150.355 40.5205V42.1901L126.86 65.6789H125.189Z" fill="#EBEBEB" fill-opacity="0.5"/>
    <path d="M187.13 5.4248L154.459 38.0865V36.4169L185.46 5.4248H187.13Z" fill="#EBEBEB" fill-opacity="0.5"/>
    <path d="M113.036 128.783L150.354 91.4746V93.1375L113.445 130.037H113.036V128.783Z" fill="#EBEBEB" fill-opacity="0.5"/>
    <path d="M173.715 69.7822L154.459 89.0332V87.3703L172.045 69.7822H173.715Z" fill="#EBEBEB" fill-opacity="0.5"/>
    <path d="M191.771 50.0625V51.7321L177.82 65.6792H176.15L191.771 50.0625Z" fill="#EBEBEB" fill-opacity="0.5"/>
    <path d="M168.082 302L94.7029 301.656C92.6029 301.648 90.5251 301.218 88.5881 300.391C86.6511 299.564 84.8928 298.355 83.4138 296.835C81.9348 295.314 80.7639 293.512 79.9682 291.53C79.1724 289.547 78.7673 287.425 78.776 285.283L79.5519 97.6679C79.5758 93.346 81.2816 89.2107 84.2942 86.1713C87.3069 83.1319 91.3797 81.4373 95.6171 81.4602L168.996 81.8099C173.234 81.8293 177.29 83.5645 180.273 86.6338C183.257 89.703 184.923 93.8551 184.905 98.177L184.135 285.743C184.13 287.886 183.711 290.008 182.901 291.986C182.092 293.963 180.907 295.759 179.416 297.269C177.925 298.779 176.156 299.974 174.211 300.786C172.266 301.598 170.183 302.01 168.082 302Z" fill="#455A64"/>
    <path d="M168.9 88.257L154.676 88.2079C154.211 88.2167 153.752 88.3189 153.326 88.5087C152.9 88.6985 152.514 88.9722 152.192 89.3141C151.869 89.656 151.616 90.0594 151.447 90.5012C151.278 90.9429 151.196 91.4144 151.205 91.8887V94.5204C151.215 94.9946 151.132 95.4661 150.963 95.9079C150.794 96.3497 150.541 96.7531 150.218 97.095C149.896 97.4369 149.511 97.7106 149.085 97.9004C148.658 98.0902 148.2 98.1924 147.735 98.2012L119.995 98.0233C119.061 97.9976 118.175 97.5961 117.531 96.9064C116.886 96.2168 116.535 95.2951 116.555 94.3425V91.7108C116.574 90.7582 116.223 89.8365 115.578 89.1468C114.934 88.4572 114.048 88.0557 113.114 88.03H108.116L95.6656 87.9748C94.1949 87.9667 92.7371 88.2545 91.3756 88.8216C90.0141 89.3887 88.7756 90.2241 87.7309 91.2799C86.6863 92.3357 85.8559 93.5912 85.2875 94.9746C84.7191 96.3581 84.4236 97.8422 84.4181 99.3422L83.6603 282.467C83.6475 285.494 84.8137 288.402 86.9025 290.552C88.9914 292.702 91.8318 293.918 94.7995 293.932L168.028 294.276C169.498 294.283 170.955 293.995 172.316 293.427C173.677 292.86 174.915 292.024 175.959 290.969C177.003 289.913 177.833 288.658 178.401 287.275C178.969 285.892 179.264 284.408 179.27 282.909L180.033 99.7839C180.048 98.2806 179.771 96.7891 179.218 95.3953C178.666 94.0014 177.849 92.7325 176.815 91.6615C175.78 90.5904 174.549 89.7383 173.19 89.1541C171.832 88.5698 170.374 88.265 168.9 88.257Z" fill="#FAFAFA"/>
    <path d="M151.957 108.165C152.211 108.052 152.426 107.866 152.577 107.629C152.728 107.392 152.807 107.116 152.805 106.834C152.817 106.648 152.792 106.462 152.731 106.287C152.67 106.113 152.574 105.952 152.45 105.817C152.326 105.681 152.175 105.573 152.008 105.499C151.841 105.425 151.661 105.387 151.479 105.387C151.297 105.387 151.117 105.425 150.95 105.499C150.783 105.573 150.632 105.681 150.508 105.817C150.384 105.952 150.288 106.113 150.227 106.287C150.166 106.462 150.141 106.648 150.153 106.834C150.146 107.118 150.222 107.399 150.372 107.639C150.522 107.879 150.739 108.069 150.995 108.183C150.576 108.232 150.181 108.407 149.86 108.686C149.538 108.964 149.306 109.334 149.19 109.748C149.665 110.301 150.318 110.662 151.031 110.766H151.843C152.567 110.669 153.233 110.31 153.719 109.754C153.617 109.338 153.394 108.965 153.08 108.681C152.765 108.397 152.374 108.217 151.957 108.165Z" fill="#455A64"/>
    <path d="M151.452 110.778C151.452 110.778 151.717 110.778 152.174 110.643C152.819 110.462 153.386 110.067 153.786 109.52C154.078 109.123 154.268 108.657 154.339 108.165C154.411 107.674 154.361 107.172 154.195 106.705C154.003 106.151 153.65 105.669 153.184 105.324C152.688 104.95 152.087 104.748 151.47 104.748C150.853 104.748 150.252 104.95 149.756 105.324C149.287 105.664 148.931 106.141 148.733 106.692C148.563 107.159 148.509 107.661 148.578 108.154C148.646 108.647 148.834 109.114 149.124 109.514C149.519 110.063 150.082 110.462 150.724 110.649C151.181 110.778 151.452 110.766 151.452 110.79C151.386 110.8 151.319 110.8 151.254 110.79C151.067 110.792 150.881 110.769 150.7 110.723C150.125 110.585 149.602 110.279 149.194 109.844C148.787 109.408 148.512 108.861 148.403 108.269C148.223 107.467 148.355 106.626 148.771 105.921C149.187 105.217 149.854 104.704 150.633 104.491C151.412 104.278 152.242 104.382 152.947 104.78C153.653 105.177 154.18 105.839 154.417 106.625C154.589 107.125 154.635 107.661 154.551 108.184C154.467 108.707 154.256 109.201 153.936 109.619C153.506 110.179 152.898 110.569 152.216 110.723C152.035 110.768 151.849 110.788 151.663 110.784C151.593 110.793 151.521 110.791 151.452 110.778Z" fill="#455A64"/>
    <path d="M167.794 106.888L156.439 106.846L156.435 108.079L167.789 108.121L167.794 106.888Z" fill="#455A64"/>
    <path d="M172.22 105.446C172.22 105.517 172.206 105.587 172.18 105.652C172.153 105.717 172.114 105.776 172.065 105.826C172.015 105.875 171.957 105.915 171.893 105.941C171.829 105.967 171.76 105.981 171.691 105.98C171.561 105.966 171.441 105.903 171.353 105.804C171.266 105.705 171.218 105.576 171.218 105.443C171.218 105.31 171.266 105.181 171.353 105.082C171.441 104.983 171.561 104.92 171.691 104.906C171.76 104.905 171.83 104.919 171.894 104.946C171.959 104.973 172.017 105.012 172.067 105.063C172.116 105.113 172.155 105.173 172.181 105.239C172.208 105.304 172.221 105.375 172.22 105.446Z" fill="#455A64"/>
    <path d="M172.215 107.373C172.215 107.48 172.184 107.585 172.125 107.673C172.067 107.762 171.984 107.832 171.887 107.872C171.79 107.913 171.683 107.923 171.58 107.902C171.477 107.881 171.383 107.829 171.309 107.752C171.235 107.676 171.185 107.58 171.166 107.474C171.146 107.369 171.157 107.261 171.198 107.162C171.239 107.063 171.308 106.98 171.396 106.921C171.484 106.862 171.587 106.832 171.692 106.833C171.831 106.835 171.964 106.892 172.062 106.993C172.16 107.094 172.215 107.231 172.215 107.373Z" fill="#455A64"/>
    <path d="M172.208 109.299C172.208 109.406 172.176 109.51 172.118 109.599C172.059 109.688 171.976 109.757 171.879 109.798C171.782 109.839 171.676 109.849 171.573 109.828C171.47 109.806 171.376 109.754 171.302 109.678C171.228 109.602 171.178 109.505 171.158 109.4C171.139 109.295 171.15 109.186 171.191 109.088C171.232 108.989 171.301 108.905 171.389 108.847C171.476 108.788 171.579 108.758 171.684 108.759C171.824 108.76 171.957 108.818 172.055 108.919C172.153 109.02 172.208 109.157 172.208 109.299Z" fill="#455A64"/>
    <path d="M128.697 285.418C128.742 285.733 128.692 286.054 128.553 286.339C128.414 286.624 128.193 286.859 127.919 287.012C127.646 287.165 127.333 287.228 127.022 287.194C126.712 287.16 126.42 287.03 126.184 286.822C125.948 286.613 125.781 286.336 125.704 286.027C125.628 285.719 125.646 285.394 125.756 285.096C125.866 284.798 126.062 284.542 126.319 284.361C126.576 284.181 126.881 284.085 127.193 284.087C127.565 284.063 127.931 284.189 128.212 284.438C128.494 284.687 128.668 285.039 128.697 285.418Z" fill="#455A64"/>
    <path d="M133.365 285.442C133.411 285.757 133.361 286.079 133.222 286.363C133.083 286.648 132.861 286.883 132.588 287.036C132.314 287.189 132.001 287.252 131.691 287.219C131.381 287.185 131.088 287.055 130.852 286.846C130.617 286.637 130.449 286.36 130.373 286.052C130.296 285.743 130.314 285.418 130.424 285.12C130.534 284.823 130.731 284.566 130.988 284.386C131.245 284.205 131.55 284.109 131.862 284.111C132.046 284.098 132.231 284.122 132.407 284.181C132.582 284.241 132.744 284.335 132.884 284.459C133.024 284.582 133.138 284.733 133.221 284.902C133.303 285.07 133.352 285.254 133.365 285.442Z" fill="#455A64"/>
    <path d="M138.05 285.46C138.096 285.775 138.046 286.096 137.907 286.381C137.768 286.666 137.547 286.9 137.274 287.053C137.001 287.206 136.688 287.27 136.378 287.237C136.068 287.203 135.776 287.074 135.54 286.866C135.304 286.658 135.136 286.382 135.059 286.074C134.982 285.766 134.999 285.441 135.108 285.143C135.217 284.845 135.412 284.588 135.668 284.407C135.925 284.226 136.229 284.129 136.541 284.129C136.913 284.104 137.281 284.229 137.564 284.479C137.846 284.728 138.021 285.081 138.05 285.46Z" fill="#455A64"/>
    <path d="M163.582 158.756H92.0073V159.369H163.582V158.756Z" fill="#263238"/>
    <path d="M92.0074 119.494H92.6089V158.756H92.0074V119.494Z" fill="#263238"/>
    <path d="M118.217 139.396H110.653V158.75H118.217V139.396Z" fill="#F9968B"/>
    <path d="M103.435 147.962H95.6162V159.004H103.435V147.962Z" fill="#F9968B"/>
    <path d="M132.306 144.646H124.487V158.756H132.306V144.646Z" fill="#F9968B"/>
    <path d="M146.741 136.058H139.523V158.756H146.741V136.058Z" fill="#F9968B"/>
    <path d="M161.778 123.788H154.214V158.75H161.778V123.788Z" fill="#F9968B"/>
    <path d="M160.821 176.419L93.1028 176.419C92.4261 176.419 91.8766 176.966 91.8741 177.643L91.7788 203.53C91.7763 204.21 92.3263 204.762 93.0058 204.762L160.82 204.762C161.498 204.762 162.049 204.212 162.049 203.533L162.048 177.646C162.048 176.968 161.499 176.419 160.821 176.419Z" fill="white"/>
    <path d="M162.565 204.432L92.4807 205.393C91.7941 205.402 91.2332 204.847 91.236 204.16L91.3449 177.184C91.3477 176.508 91.8966 175.961 92.5727 175.961H162.565V204.432ZM92.3163 203.199C92.3137 203.879 92.8642 204.432 93.5442 204.432H162.565V175.961L93.6256 176.922C92.9561 176.932 92.4175 177.476 92.4149 178.145L92.3163 203.199Z" fill="#263238"/>
    <path d="M110.801 189.091C110.792 190.519 110.368 191.911 109.583 193.093C108.799 194.274 107.688 195.193 106.392 195.731C105.096 196.269 103.673 196.404 102.302 196.118C100.931 195.832 99.6739 195.138 98.6893 194.124C97.7048 193.109 97.0371 191.82 96.7704 190.419C96.5037 189.018 96.65 187.568 97.191 186.251C97.7319 184.935 98.6431 183.812 99.8095 183.023C100.976 182.235 102.345 181.817 103.745 181.821C105.623 181.84 107.418 182.615 108.739 183.976C110.06 185.338 110.801 187.176 110.801 189.091Z" fill="#F27348"/>
    <path d="M104.291 189.173C104.582 189.042 104.83 188.827 105.003 188.554C105.176 188.281 105.267 187.963 105.265 187.638C105.265 187.227 105.105 186.832 104.82 186.541C104.534 186.25 104.148 186.087 103.744 186.087C103.341 186.087 102.954 186.25 102.669 186.541C102.384 186.832 102.224 187.227 102.224 187.638C102.216 187.966 102.304 188.289 102.476 188.566C102.648 188.844 102.896 189.063 103.19 189.197C100.814 189.552 100.941 192.161 100.941 192.161H106.485C106.485 192.161 106.611 189.544 104.291 189.173Z" fill="white"/>
    <g filter="url(#filter0_d)">
        <path d="M141.55 193.594C141.506 192.144 142.666 190.943 144.116 190.935L156.293 190.871C157.731 190.863 158.897 192.031 158.888 193.468L158.866 196.898C158.857 198.312 157.712 199.455 156.298 199.463L144.246 199.527C142.846 199.534 141.695 198.423 141.653 197.023L141.55 193.594Z" fill="#26474E"/>
    </g>
    <path d="M146.975 196.337C146.817 196.342 146.663 196.325 146.512 196.288C146.364 196.248 146.244 196.196 146.152 196.13L146.299 195.776C146.387 195.836 146.491 195.883 146.61 195.918C146.73 195.953 146.849 195.968 146.967 195.965C147.099 195.961 147.196 195.939 147.257 195.899C147.319 195.857 147.349 195.803 147.347 195.738C147.346 195.691 147.326 195.652 147.286 195.623C147.249 195.591 147.201 195.567 147.141 195.55C147.083 195.532 147.004 195.514 146.904 195.494C146.75 195.462 146.624 195.429 146.526 195.396C146.427 195.363 146.342 195.307 146.269 195.229C146.197 195.151 146.16 195.045 146.156 194.911C146.152 194.795 146.181 194.689 146.241 194.594C146.301 194.496 146.393 194.418 146.518 194.359C146.644 194.3 146.799 194.267 146.982 194.262C147.11 194.258 147.235 194.269 147.358 194.296C147.482 194.323 147.59 194.364 147.683 194.418L147.551 194.775C147.362 194.676 147.175 194.629 146.99 194.634C146.86 194.638 146.765 194.662 146.703 194.706C146.643 194.75 146.614 194.806 146.616 194.875C146.618 194.943 146.655 194.994 146.727 195.026C146.8 195.056 146.911 195.086 147.059 195.114C147.213 195.145 147.339 195.178 147.437 195.211C147.536 195.245 147.621 195.299 147.692 195.376C147.765 195.452 147.803 195.557 147.807 195.69C147.811 195.805 147.781 195.911 147.719 196.008C147.659 196.104 147.566 196.181 147.44 196.24C147.313 196.299 147.159 196.332 146.975 196.337ZM150.51 194.655L149.998 196.212L149.569 196.225L149.193 195.279L148.864 196.246L148.435 196.259L147.833 194.735L148.254 194.722L148.649 195.754L148.996 194.7L149.374 194.689L149.771 195.72L150.115 194.667L150.51 194.655ZM151.288 194.609C151.527 194.601 151.712 194.653 151.843 194.764C151.975 194.873 152.044 195.042 152.051 195.271L152.077 196.15L151.659 196.162L151.653 195.971C151.573 196.116 151.419 196.193 151.19 196.199C151.072 196.203 150.968 196.186 150.879 196.149C150.792 196.111 150.724 196.058 150.676 195.988C150.628 195.919 150.603 195.84 150.6 195.75C150.596 195.607 150.646 195.492 150.751 195.407C150.857 195.322 151.023 195.276 151.248 195.269L151.603 195.258C151.6 195.161 151.568 195.087 151.508 195.038C151.447 194.986 151.357 194.962 151.239 194.966C151.157 194.968 151.076 194.984 150.997 195.013C150.919 195.04 150.853 195.076 150.799 195.122L150.63 194.815C150.712 194.753 150.811 194.704 150.926 194.668C151.044 194.632 151.164 194.612 151.288 194.609ZM151.293 195.895C151.369 195.893 151.436 195.874 151.494 195.838C151.552 195.8 151.593 195.746 151.616 195.677L151.611 195.519L151.305 195.528C151.121 195.534 151.031 195.597 151.035 195.717C151.037 195.774 151.06 195.819 151.105 195.852C151.152 195.883 151.214 195.898 151.293 195.895ZM153.345 194.547C153.488 194.543 153.619 194.572 153.738 194.636C153.858 194.697 153.953 194.787 154.024 194.905C154.094 195.021 154.132 195.159 154.136 195.317C154.141 195.476 154.112 195.616 154.049 195.738C153.985 195.859 153.896 195.954 153.779 196.024C153.665 196.093 153.536 196.129 153.393 196.133C153.196 196.139 153.039 196.082 152.923 195.961L152.945 196.68L152.498 196.693L152.435 194.597L152.862 194.584L152.867 194.762C152.974 194.625 153.133 194.553 153.345 194.547ZM153.304 195.769C153.419 195.766 153.511 195.725 153.582 195.646C153.654 195.566 153.688 195.461 153.684 195.331C153.68 195.201 153.64 195.099 153.563 195.025C153.488 194.949 153.393 194.912 153.279 194.916C153.164 194.919 153.071 194.961 152.999 195.042C152.929 195.12 152.895 195.225 152.899 195.354C152.903 195.484 152.942 195.587 153.017 195.663C153.094 195.737 153.19 195.773 153.304 195.769Z" fill="white"/>
    <path d="M147.198 184.941C146.771 185.014 146.331 185.05 145.891 185.048C145.056 185.067 143.844 185.095 142.344 185.184C139.34 185.253 135.198 185.394 130.619 185.453C126.039 185.512 121.884 185.608 118.879 185.631L115.329 185.643C114.889 185.664 114.448 185.646 114.019 185.588C114.448 185.522 114.887 185.489 115.326 185.488C116.161 185.469 117.384 185.395 118.885 185.345C121.877 185.276 126.031 185.142 130.61 185.075C135.19 185.008 139.332 184.921 142.337 184.898C143.839 184.864 145.052 184.882 145.888 184.886C146.328 184.872 146.767 184.89 147.198 184.941Z" fill="#263238"/>
    <path d="M138.195 189.807C137.906 189.877 137.608 189.909 137.31 189.905C136.744 189.918 135.923 189.937 134.907 190.014C132.872 190.061 130.067 190.172 126.964 190.197C123.861 190.222 121.047 190.286 119.011 190.287L116.605 190.273C116.307 190.291 116.008 190.269 115.717 190.208C116.007 190.145 116.304 190.115 116.602 190.118C117.168 190.105 117.996 190.04 119.013 190.001C121.04 189.954 123.853 189.851 126.956 189.818C130.058 189.786 132.865 189.729 134.901 189.728C135.918 189.705 136.74 189.732 137.307 189.742C137.604 189.731 137.902 189.753 138.195 189.807Z" fill="#263238"/>
    <path d="M160.821 241.091L93.1028 241.091C92.4261 241.091 91.8766 241.638 91.8741 242.315L91.7788 268.202C91.7763 268.882 92.3263 269.434 93.0058 269.434L160.82 269.434C161.498 269.434 162.049 268.883 162.049 268.205L162.048 242.317C162.048 241.64 161.499 241.091 160.821 241.091Z" fill="white"/>
    <path d="M162.565 269.104L92.4807 270.065C91.7941 270.074 91.2332 269.519 91.236 268.832L91.3449 241.856C91.3477 241.18 91.8966 240.633 92.5727 240.633H162.565V269.104ZM92.3163 267.871C92.3137 268.551 92.8642 269.104 93.5442 269.104H162.565V240.633L93.6256 241.594C92.9561 241.603 92.4175 242.147 92.4149 242.817L92.3163 267.871Z" fill="#263238"/>
    <path d="M110.801 253.763C110.792 255.191 110.368 256.583 109.583 257.765C108.799 258.946 107.688 259.864 106.392 260.403C105.096 260.941 103.673 261.076 102.302 260.79C100.931 260.504 99.6739 259.81 98.6893 258.796C97.7048 257.781 97.0371 256.492 96.7704 255.091C96.5037 253.69 96.65 252.24 97.191 250.923C97.7319 249.607 98.6431 248.484 99.8095 247.695C100.976 246.907 102.345 246.488 103.745 246.493C105.623 246.512 107.418 247.287 108.739 248.648C110.06 250.009 110.801 251.848 110.801 253.763Z" fill="#F27348"/>
    <path d="M104.291 253.845C104.582 253.714 104.83 253.499 105.003 253.226C105.176 252.953 105.267 252.635 105.265 252.31C105.265 251.898 105.105 251.504 104.82 251.213C104.534 250.922 104.148 250.759 103.744 250.759C103.341 250.759 102.954 250.922 102.669 251.213C102.384 251.504 102.224 251.898 102.224 252.31C102.216 252.638 102.304 252.961 102.476 253.238C102.648 253.516 102.896 253.735 103.19 253.869C100.814 254.224 100.941 256.833 100.941 256.833H106.485C106.485 256.833 106.611 254.216 104.291 253.845Z" fill="white"/>
    <g filter="url(#filter1_d)">
        <path d="M141.55 257.19C141.506 255.741 142.666 254.54 144.116 254.532L156.293 254.467C157.731 254.46 158.897 255.628 158.888 257.065L158.866 260.495C158.857 261.909 157.712 263.052 156.298 263.06L144.246 263.124C142.846 263.131 141.695 262.02 141.653 260.62L141.55 257.19Z" fill="#26474E"/>
    </g>
    <path d="M146.975 259.934C146.817 259.939 146.663 259.922 146.512 259.885C146.364 259.845 146.244 259.792 146.152 259.726L146.299 259.372C146.387 259.433 146.491 259.48 146.61 259.515C146.73 259.549 146.849 259.565 146.967 259.561C147.099 259.558 147.196 259.535 147.257 259.495C147.319 259.453 147.349 259.4 147.347 259.335C147.346 259.287 147.326 259.249 147.286 259.219C147.249 259.188 147.201 259.164 147.141 259.146C147.083 259.129 147.004 259.11 146.904 259.09C146.75 259.059 146.624 259.026 146.526 258.993C146.427 258.959 146.342 258.904 146.269 258.826C146.197 258.748 146.16 258.642 146.156 258.508C146.152 258.392 146.181 258.286 146.241 258.19C146.301 258.093 146.393 258.015 146.518 257.955C146.644 257.896 146.799 257.864 146.982 257.858C147.11 257.855 147.235 257.866 147.358 257.893C147.482 257.92 147.59 257.961 147.683 258.015L147.551 258.372C147.362 258.272 147.175 258.225 146.99 258.231C146.86 258.235 146.765 258.259 146.703 258.302C146.643 258.346 146.614 258.403 146.616 258.471C146.618 258.54 146.655 258.591 146.727 258.623C146.8 258.653 146.911 258.682 147.059 258.71C147.213 258.742 147.339 258.775 147.437 258.808C147.536 258.841 147.621 258.896 147.692 258.972C147.765 259.048 147.803 259.153 147.807 259.287C147.811 259.401 147.781 259.507 147.719 259.605C147.659 259.7 147.566 259.778 147.44 259.837C147.313 259.896 147.159 259.928 146.975 259.934ZM150.51 258.252L149.998 259.809L149.569 259.822L149.193 258.876L148.864 259.843L148.435 259.856L147.833 258.332L148.254 258.319L148.649 259.351L148.996 258.297L149.374 258.286L149.771 259.317L150.115 258.263L150.51 258.252ZM151.288 258.205C151.527 258.198 151.712 258.25 151.843 258.361C151.975 258.469 152.044 258.638 152.051 258.868L152.077 259.747L151.659 259.759L151.653 259.567C151.573 259.713 151.419 259.789 151.19 259.796C151.072 259.8 150.968 259.783 150.879 259.745C150.792 259.708 150.724 259.654 150.676 259.585C150.628 259.516 150.603 259.436 150.6 259.347C150.596 259.203 150.646 259.089 150.751 259.004C150.857 258.919 151.023 258.872 151.248 258.866L151.603 258.855C151.6 258.758 151.568 258.684 151.508 258.634C151.447 258.583 151.357 258.559 151.239 258.562C151.157 258.565 151.076 258.58 150.997 258.61C150.919 258.637 150.853 258.673 150.799 258.719L150.63 258.411C150.712 258.35 150.811 258.301 150.926 258.265C151.044 258.229 151.164 258.209 151.288 258.205ZM151.293 259.492C151.369 259.49 151.436 259.471 151.494 259.434C151.552 259.396 151.593 259.343 151.616 259.273L151.611 259.116L151.305 259.125C151.121 259.13 151.031 259.193 151.035 259.314C151.037 259.371 151.06 259.416 151.105 259.449C151.152 259.48 151.214 259.494 151.293 259.492ZM153.345 258.144C153.488 258.139 153.619 258.169 153.738 258.232C153.858 258.294 153.953 258.383 154.024 258.502C154.094 258.618 154.132 258.756 154.136 258.914C154.141 259.072 154.112 259.213 154.049 259.335C153.985 259.455 153.896 259.551 153.779 259.621C153.665 259.69 153.536 259.726 153.393 259.73C153.196 259.736 153.039 259.679 152.923 259.558L152.945 260.277L152.498 260.29L152.435 258.194L152.862 258.181L152.867 258.359C152.974 258.222 153.133 258.15 153.345 258.144ZM153.304 259.366C153.419 259.363 153.511 259.322 153.582 259.243C153.654 259.162 153.688 259.057 153.684 258.928C153.68 258.798 153.64 258.696 153.563 258.622C153.488 258.545 153.393 258.509 153.279 258.513C153.164 258.516 153.071 258.558 152.999 258.638C152.929 258.717 152.895 258.821 152.899 258.951C152.903 259.081 152.942 259.184 153.017 259.26C153.094 259.334 153.19 259.369 153.304 259.366Z" fill="white"/>
    <path d="M147.198 249.613C146.771 249.685 146.331 249.721 145.891 249.72C145.056 249.739 143.844 249.767 142.344 249.856C139.34 249.925 135.198 250.066 130.619 250.125C126.039 250.184 121.884 250.28 118.879 250.302L115.329 250.315C114.889 250.336 114.448 250.318 114.019 250.26C114.448 250.194 114.887 250.161 115.326 250.16C116.161 250.141 117.384 250.067 118.885 250.017C121.877 249.948 126.031 249.814 130.61 249.747C135.19 249.68 139.332 249.593 142.337 249.57C143.839 249.535 145.052 249.554 145.888 249.558C146.328 249.544 146.767 249.562 147.198 249.613Z" fill="#263238"/>
    <path d="M138.195 254.479C137.906 254.548 137.608 254.581 137.31 254.577C136.744 254.59 135.923 254.608 134.907 254.686C132.872 254.733 130.067 254.843 126.964 254.868C123.861 254.893 121.047 254.958 119.011 254.959L116.605 254.944C116.307 254.963 116.008 254.941 115.717 254.88C116.007 254.817 116.304 254.787 116.602 254.79C117.168 254.777 117.996 254.712 119.013 254.673C121.04 254.626 123.853 254.523 126.956 254.49C130.058 254.457 132.865 254.401 134.901 254.4C135.918 254.377 136.74 254.404 137.307 254.414C137.604 254.403 137.902 254.425 138.195 254.479Z" fill="#263238"/>
    <path d="M92.976 209.556L160.695 209.556C161.371 209.556 161.921 210.104 161.923 210.781L162.019 236.668C162.021 237.348 161.471 237.9 160.792 237.9L92.9775 237.9C92.2991 237.9 91.7488 237.349 91.7488 236.671L91.749 210.783C91.749 210.106 92.2982 209.556 92.976 209.556Z" fill="white"/>
    <path d="M91.232 237.57L161.316 238.53C162.003 238.54 162.564 237.984 162.561 237.298L162.452 210.322C162.449 209.645 161.9 209.099 161.224 209.099H91.232V237.57ZM161.481 236.337C161.483 237.017 160.933 237.57 160.253 237.57H91.232V209.099L160.171 210.06C160.841 210.069 161.379 210.613 161.382 211.283L161.481 236.337Z" fill="#263238"/>
    <path d="M110.802 222.229C110.792 223.656 110.369 225.049 109.584 226.23C108.799 227.412 107.689 228.33 106.393 228.869C105.097 229.407 103.673 229.542 102.302 229.256C100.931 228.97 99.6743 228.276 98.6898 227.261C97.7053 226.247 97.0376 224.958 96.7709 223.557C96.5042 222.156 96.6505 220.705 97.1914 219.389C97.7324 218.073 98.6436 216.95 99.81 216.161C100.976 215.373 102.346 214.954 103.745 214.959C105.623 214.978 107.418 215.753 108.739 217.114C110.061 218.475 110.802 220.314 110.802 222.229Z" fill="#F27348"/>
    <path d="M104.291 222.31C104.583 222.179 104.83 221.964 105.004 221.692C105.177 221.419 105.268 221.1 105.265 220.776C105.265 220.364 105.105 219.97 104.82 219.679C104.535 219.388 104.148 219.225 103.745 219.225C103.342 219.225 102.955 219.388 102.67 219.679C102.384 219.97 102.224 220.364 102.224 220.776C102.217 221.104 102.304 221.427 102.476 221.704C102.648 221.982 102.897 222.201 103.19 222.335C100.814 222.69 100.941 225.299 100.941 225.299H106.485C106.485 225.299 106.612 222.682 104.291 222.31Z" fill="white"/>
    <g filter="url(#filter2_d)">
        <path d="M141.55 226.196C141.507 224.746 142.666 223.545 144.117 223.538L156.294 223.473C157.731 223.466 158.898 224.634 158.888 226.071L158.866 229.501C158.857 230.915 157.713 232.058 156.299 232.065L144.247 232.129C142.846 232.137 141.695 231.026 141.653 229.625L141.55 226.196Z" fill="#26474E"/>
    </g>
    <path d="M146.976 228.94C146.817 228.944 146.663 228.928 146.513 228.89C146.365 228.851 146.245 228.798 146.153 228.732L146.3 228.378C146.388 228.438 146.491 228.486 146.611 228.521C146.73 228.555 146.849 228.571 146.968 228.567C147.099 228.563 147.196 228.541 147.258 228.501C147.32 228.459 147.35 228.406 147.348 228.341C147.346 228.293 147.326 228.255 147.287 228.225C147.25 228.194 147.201 228.17 147.141 228.152C147.084 228.135 147.005 228.116 146.905 228.096C146.751 228.065 146.625 228.032 146.526 227.999C146.428 227.965 146.342 227.91 146.269 227.832C146.198 227.753 146.16 227.648 146.156 227.514C146.153 227.397 146.181 227.291 146.241 227.196C146.302 227.099 146.394 227.02 146.518 226.961C146.644 226.902 146.799 226.87 146.982 226.864C147.11 226.86 147.236 226.872 147.359 226.899C147.482 226.926 147.59 226.967 147.684 227.021L147.551 227.378C147.363 227.278 147.176 227.231 146.991 227.237C146.861 227.241 146.765 227.264 146.703 227.308C146.644 227.352 146.615 227.408 146.617 227.477C146.619 227.546 146.656 227.596 146.727 227.629C146.801 227.659 146.912 227.688 147.06 227.716C147.213 227.748 147.34 227.78 147.438 227.814C147.536 227.847 147.621 227.902 147.692 227.978C147.765 228.054 147.804 228.159 147.808 228.293C147.811 228.407 147.782 228.513 147.72 228.611C147.66 228.706 147.566 228.783 147.44 228.843C147.314 228.902 147.159 228.934 146.976 228.94ZM150.511 227.257L149.999 228.815L149.569 228.828L149.194 227.882L148.865 228.849L148.435 228.862L147.833 227.338L148.254 227.325L148.649 228.356L148.996 227.303L149.374 227.291L149.772 228.323L150.116 227.269L150.511 227.257ZM151.289 227.211C151.528 227.204 151.713 227.256 151.844 227.367C151.975 227.475 152.044 227.644 152.051 227.873L152.077 228.753L151.659 228.765L151.654 228.573C151.574 228.719 151.42 228.795 151.19 228.802C151.072 228.806 150.968 228.789 150.879 228.751C150.792 228.714 150.725 228.66 150.677 228.591C150.629 228.522 150.604 228.442 150.601 228.352C150.597 228.209 150.647 228.095 150.751 228.01C150.857 227.924 151.023 227.878 151.249 227.872L151.604 227.861C151.601 227.764 151.569 227.69 151.508 227.64C151.447 227.589 151.358 227.565 151.239 227.568C151.157 227.571 151.077 227.586 150.997 227.615C150.92 227.643 150.854 227.679 150.8 227.725L150.63 227.417C150.712 227.355 150.811 227.307 150.927 227.271C151.044 227.235 151.165 227.215 151.289 227.211ZM151.293 228.498C151.369 228.496 151.437 228.476 151.495 228.44C151.553 228.402 151.593 228.349 151.616 228.279L151.611 228.122L151.305 228.131C151.122 228.136 151.032 228.199 151.036 228.319C151.037 228.377 151.061 228.422 151.105 228.455C151.152 228.486 151.215 228.5 151.293 228.498ZM153.346 227.15C153.489 227.145 153.62 227.175 153.738 227.238C153.858 227.3 153.954 227.389 154.024 227.508C154.095 227.624 154.132 227.761 154.137 227.92C154.142 228.078 154.112 228.219 154.049 228.341C153.986 228.461 153.896 228.557 153.78 228.627C153.665 228.695 153.536 228.732 153.393 228.736C153.196 228.742 153.04 228.685 152.924 228.564L152.945 229.283L152.498 229.296L152.436 227.2L152.862 227.187L152.868 227.365C152.974 227.228 153.134 227.156 153.346 227.15ZM153.305 228.372C153.419 228.368 153.512 228.327 153.582 228.249C153.654 228.168 153.688 228.063 153.684 227.933C153.68 227.804 153.64 227.702 153.563 227.627C153.489 227.551 153.394 227.515 153.279 227.518C153.165 227.522 153.071 227.564 152.999 227.644C152.929 227.723 152.896 227.827 152.9 227.957C152.904 228.087 152.943 228.19 153.018 228.266C153.095 228.34 153.19 228.375 153.305 228.372Z" fill="white"/>
    <path d="M147.199 218.079C146.772 218.151 146.333 218.187 145.893 218.186C145.057 218.205 143.846 218.233 142.345 218.321C139.341 218.391 135.2 218.532 130.62 218.591C126.041 218.65 121.886 218.746 118.881 218.768L115.33 218.78C114.891 218.802 114.449 218.783 114.02 218.726C114.449 218.66 114.888 218.626 115.327 218.626C116.163 218.607 117.385 218.532 118.887 218.482C121.879 218.414 126.032 218.279 130.612 218.213C135.191 218.146 139.334 218.059 142.339 218.036C143.841 218.001 145.053 218.02 145.889 218.024C146.329 218.009 146.769 218.028 147.199 218.079Z" fill="#263238"/>
    <path d="M138.195 222.945C137.906 223.014 137.609 223.047 137.311 223.042C136.744 223.055 135.924 223.074 134.908 223.152C132.873 223.198 130.067 223.309 126.965 223.334C123.862 223.359 121.047 223.424 119.011 223.424L116.606 223.41C116.308 223.428 116.009 223.407 115.718 223.346C116.008 223.283 116.305 223.253 116.602 223.256C117.168 223.243 117.996 223.177 119.013 223.139C121.04 223.092 123.854 222.989 126.956 222.956C130.059 222.923 132.865 222.866 134.901 222.866C135.919 222.843 136.74 222.87 137.307 222.88C137.605 222.869 137.903 222.891 138.195 222.945Z" fill="#263238"/>
    <path d="M253.264 124.264L200.914 124.264C200.391 124.264 199.966 124.687 199.964 125.21L199.891 145.222C199.889 145.748 200.314 146.174 200.839 146.174L253.263 146.174C253.787 146.174 254.213 145.749 254.213 145.225L254.213 125.212C254.213 124.688 253.788 124.264 253.264 124.264Z" fill="white"/>
    <path d="M254.612 145.919L200.433 146.662C199.902 146.669 199.469 146.239 199.471 145.709L199.555 124.855C199.557 124.332 199.981 123.909 200.504 123.909H254.612V145.919ZM200.306 144.966C200.304 145.491 200.729 145.919 201.255 145.919H254.612V123.909L201.318 124.652C200.8 124.659 200.384 125.08 200.382 125.598L200.306 144.966Z" fill="#263238"/>
    <path d="M214.595 134.06C214.588 135.163 214.261 136.239 213.654 137.153C213.047 138.066 212.189 138.776 211.187 139.192C210.185 139.609 209.085 139.713 208.025 139.492C206.965 139.27 205.993 138.734 205.232 137.95C204.471 137.166 203.955 136.169 203.749 135.086C203.543 134.003 203.656 132.882 204.074 131.864C204.492 130.847 205.196 129.978 206.098 129.369C207 128.759 208.058 128.436 209.14 128.439C210.592 128.454 211.98 129.053 213.001 130.105C214.023 131.158 214.596 132.579 214.595 134.06Z" fill="#F27348"/>
    <path d="M209.563 134.122C209.789 134.021 209.98 133.854 210.114 133.643C210.248 133.433 210.318 133.186 210.316 132.935C210.316 132.617 210.193 132.312 209.972 132.087C209.752 131.863 209.453 131.736 209.141 131.736C208.829 131.736 208.53 131.863 208.31 132.087C208.089 132.312 207.965 132.617 207.965 132.935C207.96 133.189 208.027 133.439 208.16 133.653C208.293 133.868 208.485 134.037 208.712 134.141C206.876 134.415 206.974 136.432 206.974 136.432H211.259C211.259 136.432 211.357 134.409 209.563 134.122Z" fill="white"/>
    <g filter="url(#filter3_d)">
        <path d="M238.749 137.878C238.715 136.757 239.611 135.829 240.733 135.823L250.146 135.773C251.257 135.767 252.159 136.67 252.152 137.782L252.135 140.433C252.128 141.526 251.243 142.41 250.15 142.416L240.833 142.465C239.75 142.471 238.861 141.612 238.828 140.529L238.749 137.878Z" fill="#26474E"/>
    </g>
    <path d="M242.934 139.68C242.812 139.683 242.692 139.671 242.576 139.642C242.462 139.611 242.369 139.57 242.298 139.519L242.412 139.246C242.479 139.292 242.56 139.329 242.652 139.356C242.744 139.383 242.836 139.395 242.928 139.392C243.03 139.389 243.104 139.372 243.152 139.341C243.2 139.308 243.223 139.267 243.222 139.217C243.221 139.18 243.205 139.15 243.175 139.127C243.146 139.103 243.108 139.084 243.062 139.071C243.017 139.058 242.956 139.043 242.879 139.028C242.76 139.003 242.663 138.978 242.587 138.952C242.511 138.927 242.444 138.883 242.388 138.823C242.333 138.763 242.304 138.681 242.301 138.578C242.298 138.488 242.32 138.406 242.366 138.332C242.413 138.257 242.484 138.196 242.58 138.15C242.678 138.105 242.798 138.08 242.939 138.075C243.038 138.072 243.135 138.081 243.23 138.102C243.326 138.123 243.409 138.154 243.481 138.197L243.379 138.472C243.233 138.395 243.089 138.359 242.946 138.363C242.845 138.366 242.771 138.385 242.724 138.419C242.677 138.453 242.655 138.496 242.657 138.549C242.658 138.602 242.687 138.641 242.742 138.666C242.799 138.69 242.885 138.712 242.999 138.734C243.118 138.758 243.215 138.784 243.291 138.809C243.368 138.835 243.433 138.878 243.488 138.936C243.544 138.995 243.574 139.076 243.577 139.18C243.58 139.268 243.557 139.35 243.509 139.425C243.463 139.499 243.391 139.559 243.293 139.605C243.195 139.651 243.076 139.676 242.934 139.68ZM245.667 138.379L245.271 139.583L244.939 139.593L244.649 138.862L244.394 139.609L244.062 139.619L243.597 138.441L243.923 138.432L244.228 139.229L244.496 138.414L244.788 138.406L245.096 139.203L245.361 138.388L245.667 138.379ZM246.268 138.344C246.453 138.338 246.596 138.378 246.697 138.464C246.799 138.548 246.852 138.678 246.858 138.855L246.878 139.535L246.555 139.545L246.55 139.396C246.489 139.509 246.369 139.568 246.192 139.573C246.101 139.576 246.021 139.563 245.952 139.534C245.884 139.505 245.832 139.464 245.795 139.41C245.758 139.357 245.739 139.295 245.736 139.226C245.733 139.115 245.772 139.027 245.853 138.961C245.935 138.895 246.063 138.859 246.237 138.854L246.512 138.846C246.509 138.771 246.485 138.714 246.438 138.675C246.391 138.635 246.322 138.617 246.23 138.619C246.167 138.621 246.104 138.634 246.043 138.656C245.983 138.677 245.932 138.705 245.89 138.74L245.759 138.503C245.823 138.455 245.899 138.417 245.988 138.39C246.079 138.362 246.173 138.346 246.268 138.344ZM246.272 139.338C246.331 139.337 246.383 139.322 246.428 139.294C246.473 139.264 246.504 139.223 246.521 139.169L246.518 139.047L246.281 139.054C246.139 139.059 246.07 139.107 246.073 139.2C246.074 139.245 246.092 139.279 246.127 139.305C246.163 139.329 246.211 139.34 246.272 139.338ZM247.858 138.296C247.969 138.293 248.07 138.315 248.162 138.364C248.255 138.412 248.328 138.481 248.383 138.573C248.437 138.663 248.466 138.769 248.47 138.891C248.474 139.014 248.451 139.122 248.402 139.217C248.353 139.31 248.284 139.384 248.194 139.438C248.105 139.491 248.006 139.519 247.895 139.522C247.743 139.527 247.622 139.483 247.532 139.389L247.549 139.945L247.203 139.955L247.155 138.335L247.485 138.325L247.489 138.462C247.571 138.356 247.694 138.301 247.858 138.296ZM247.827 139.241C247.915 139.238 247.987 139.206 248.041 139.146C248.097 139.084 248.123 139.002 248.12 138.902C248.117 138.801 248.086 138.723 248.027 138.665C247.969 138.607 247.896 138.578 247.807 138.581C247.718 138.584 247.646 138.616 247.591 138.678C247.536 138.739 247.511 138.82 247.514 138.92C247.517 139.02 247.547 139.1 247.605 139.159C247.664 139.216 247.738 139.243 247.827 139.241Z" fill="white"/>
    <path d="M242.733 130.851C242.402 130.907 242.063 130.935 241.723 130.934C241.077 130.949 240.14 130.97 238.98 131.039C236.658 131.092 233.456 131.202 229.916 131.247C226.376 131.293 223.164 131.367 220.841 131.384L218.096 131.393C217.756 131.41 217.415 131.396 217.084 131.351C217.415 131.3 217.754 131.274 218.094 131.274C218.74 131.259 219.685 131.202 220.846 131.163C223.158 131.11 226.369 131.006 229.91 130.955C233.45 130.903 236.652 130.835 238.975 130.818C240.136 130.791 241.073 130.805 241.72 130.808C242.06 130.797 242.4 130.812 242.733 130.851Z" fill="#263238"/>
    <path d="M235.772 134.612C235.548 134.666 235.318 134.691 235.088 134.688C234.65 134.698 234.016 134.712 233.23 134.772C231.657 134.809 229.489 134.894 227.09 134.914C224.692 134.933 222.516 134.983 220.942 134.983L219.082 134.972C218.852 134.986 218.621 134.97 218.396 134.922C218.62 134.874 218.85 134.851 219.08 134.853C219.517 134.843 220.157 134.792 220.943 134.762C222.51 134.726 224.685 134.646 227.084 134.621C229.482 134.596 231.652 134.552 233.226 134.551C234.012 134.533 234.647 134.555 235.085 134.562C235.316 134.554 235.546 134.571 235.772 134.612Z" fill="#263238"/>
    <path d="M250.884 134.926C253.003 131.272 253.615 126.383 254.15 122.191C254.401 120.219 254.846 117.387 253.506 116.145C252.037 114.831 251.902 112.774 250.214 111.749C249.38 111.218 248.414 110.942 247.432 110.952C246.449 110.963 245.489 111.26 244.666 111.808" fill="#263238"/>
    <path d="M245.007 147.872C244.236 147.934 243.461 147.838 242.727 147.587C241.994 147.337 241.318 146.938 240.739 146.415C240.16 145.891 239.691 145.254 239.359 144.541C239.028 143.829 238.841 143.055 238.809 142.267C238.68 139.08 238.565 135.846 238.565 135.846C238.565 135.846 233.816 135.413 233.462 130.622C233.107 125.832 233.23 114.786 233.23 114.786C235.821 113.443 238.717 112.83 241.618 113.008C244.519 113.185 247.321 114.148 249.736 115.798L249.492 132.653V141.715C249.524 144.777 247.977 147.629 245.007 147.872Z" fill="#B78876"/>
    <path d="M238.139 124.767C238.486 124.251 239.011 123.89 239.61 123.755C240.208 123.621 240.834 123.724 241.361 124.044C241.893 124.419 242.277 124.974 242.446 125.61C242.615 126.247 242.557 126.923 242.282 127.52C242.04 127.963 241.711 128.35 241.315 128.657C240.919 128.963 240.465 129.183 239.982 129.301C239.551 129.396 239.17 129.649 238.91 130.013C238.651 130.377 238.533 130.825 238.578 131.273C238.713 132.475 240.678 132.915 241.561 133.901C242.946 135.445 245.967 136.089 248.003 136.332C250.039 136.576 249.762 136.589 250.922 134.906C251.702 133.769 252.1 132.404 252.056 131.016C252.112 127.485 252.172 123.957 252.236 120.43C252.313 119.156 252.231 117.878 251.991 116.625C251.745 115.363 251.038 114.243 250.013 113.491C248.873 112.728 247.436 112.669 246.148 112.242C244.524 111.71 243.139 110.613 241.638 109.824C240.137 109.035 238.249 108.569 236.722 109.357C235.627 109.916 234.892 111.04 233.829 111.657C232.315 112.544 230.247 112.347 229.519 114.628C229.272 115.423 229.283 116.278 229.551 117.065C230.588 120.154 234.351 121.396 237.057 120.049C237.115 120.575 236.612 121.738 237.154 123.394C237.334 123.926 237.392 124.708 238.204 124.747" fill="#263238"/>
    <path d="M238.971 127.751C238.971 127.751 238.97 127.843 239.035 127.961C239.099 128.041 239.18 128.106 239.271 128.151C239.362 128.196 239.462 128.221 239.563 128.224C239.891 128.204 240.2 128.057 240.425 127.812C240.65 127.568 240.775 127.245 240.774 126.91C240.793 126.539 240.668 126.175 240.427 125.898C240.23 125.682 239.974 125.533 239.692 125.471C239.209 125.365 238.925 125.549 238.951 125.582C238.977 125.615 239.235 125.582 239.595 125.701C239.84 125.783 240.051 125.944 240.197 126.16C240.344 126.376 240.418 126.634 240.407 126.897C240.408 127.155 240.32 127.406 240.159 127.607C239.998 127.807 239.774 127.944 239.525 127.994C239.318 127.982 239.121 127.896 238.971 127.751Z" fill="#AA6550"/>
    <path d="M252.487 121.587C252.88 120.785 253.446 120.084 254.142 119.537C254.839 118.989 255.647 118.609 256.508 118.426C257.37 118.262 258.26 118.336 259.085 118.641C259.909 118.946 260.639 119.471 261.198 120.161C261.734 120.869 262.043 121.728 262.083 122.621C262.123 123.515 261.893 124.399 261.423 125.155C260.289 126.844 258.118 127.376 256.134 127.645C256.863 128.492 257.752 129.179 258.749 129.665C259.746 130.15 260.829 130.425 261.932 130.471C261.145 131.004 260.23 131.311 259.286 131.36C258.342 131.409 257.402 131.197 256.566 130.747L259.787 133.546C258.161 133.961 256.444 133.785 254.932 133.047C253.42 132.31 252.207 131.058 251.503 129.507C250.798 127.955 250.647 126.202 251.073 124.549C251.5 122.896 252.478 121.446 253.84 120.45" fill="#263238"/>
    <path d="M255.47 127.442C254.934 127.482 254.396 127.387 253.904 127.166C253.336 126.859 252.848 126.417 252.483 125.877C252.117 125.337 251.884 124.715 251.804 124.064C251.711 123.413 251.762 122.748 251.954 122.119C252.146 121.49 252.473 120.913 252.912 120.43C253.297 120.039 253.717 119.687 254.169 119.379C254.169 119.379 254.001 119.379 253.743 119.53C253.375 119.718 253.038 119.964 252.745 120.259C252.242 120.748 251.862 121.353 251.637 122.024C251.413 122.694 251.351 123.41 251.456 124.11C251.538 124.815 251.795 125.488 252.203 126.063C252.611 126.638 253.157 127.097 253.788 127.396C254.176 127.565 254.599 127.633 255.019 127.593C255.328 127.54 255.476 127.462 255.47 127.442Z" fill="#254750"/>
    <path d="M262.254 122.612C262.293 122.612 262.01 121.955 261.024 121.475C259.747 120.983 258.353 120.901 257.029 121.238C255.701 121.513 254.453 122.098 253.383 122.947C253.061 123.2 252.761 123.482 252.487 123.788C252.3 124.011 252.21 124.143 252.223 124.156C252.236 124.169 252.693 123.722 253.512 123.144C254.586 122.382 255.8 121.847 257.081 121.573C258.356 121.251 259.694 121.294 260.947 121.698C261.44 121.907 261.885 122.218 262.254 122.612Z" fill="#455A64"/>
    <path d="M260.843 125.825C260.843 125.772 260.399 125.877 259.696 125.89C258.779 125.915 257.868 125.723 257.035 125.331C256.202 124.939 255.468 124.357 254.89 123.63C254.446 123.071 254.246 122.67 254.194 122.69C254.271 123.09 254.446 123.463 254.703 123.774C255.256 124.58 256.008 125.222 256.883 125.635C257.757 126.048 258.724 126.218 259.684 126.127C260.089 126.13 260.489 126.026 260.843 125.825Z" fill="#455A64"/>
    <path d="M253.712 132.271C253.712 132.225 253.274 131.929 252.675 131.285C251.883 130.459 251.316 129.437 251.03 128.319C250.745 127.201 250.75 126.027 251.045 124.911C251.264 124.05 251.534 123.564 251.483 123.531C251.171 123.913 250.951 124.362 250.838 124.846C250.467 125.997 250.429 127.234 250.728 128.407C251.028 129.581 251.652 130.641 252.526 131.463C252.857 131.819 253.263 132.095 253.712 132.271Z" fill="#455A64"/>
    <path d="M243.816 113.3C244.376 112.878 245.04 112.623 245.733 112.563C246.427 112.503 247.124 112.639 247.746 112.958C248.533 113.37 249.2 113.986 249.679 114.746C250.511 116.174 251.028 117.771 251.193 119.424C251.257 120.12 251.382 120.808 251.566 121.481C251.575 120.782 251.53 120.083 251.431 119.391C251.324 117.682 250.818 116.024 249.956 114.555C249.449 113.743 248.73 113.09 247.881 112.669C247.18 112.342 246.403 112.224 245.639 112.327C245.126 112.396 244.637 112.592 244.215 112.899C243.938 113.116 243.803 113.293 243.816 113.3Z" fill="#455A64"/>
    <path d="M230.608 118.235C230.409 118.14 230.22 118.028 230.041 117.9C229.814 117.719 229.643 117.475 229.547 117.198C229.451 116.921 229.434 116.622 229.499 116.336C229.594 115.955 229.824 115.622 230.144 115.403C230.555 115.198 231.017 115.12 231.471 115.18C231.761 115.199 232.053 115.186 232.341 115.14C232.634 115.08 232.91 114.952 233.146 114.766C233.583 114.367 233.982 113.927 234.338 113.451C235.079 112.645 236.032 112.073 237.083 111.802C237.941 111.563 238.839 111.513 239.718 111.657C240.518 111.822 241.289 112.11 242.005 112.512C241.85 112.341 241.666 112.198 241.464 112.091C240.927 111.772 240.341 111.549 239.731 111.434C238.82 111.247 237.88 111.271 236.98 111.506C235.863 111.777 234.85 112.379 234.067 113.234C233.72 113.688 233.336 114.113 232.921 114.503C232.508 114.797 232.004 114.928 231.503 114.871C230.991 114.818 230.475 114.923 230.021 115.173C229.83 115.299 229.665 115.463 229.535 115.655C229.406 115.847 229.315 116.062 229.267 116.29C229.183 116.664 229.236 117.057 229.416 117.394C229.54 117.656 229.726 117.881 229.957 118.051C230.098 118.153 230.258 118.224 230.427 118.261C230.55 118.248 230.608 118.248 230.608 118.235Z" fill="#455A64"/>
    <path d="M243.209 131.522C243.452 131.482 243.685 131.39 243.892 131.253C244.641 130.822 245.221 130.141 245.533 129.324C245.845 128.507 245.871 127.605 245.606 126.771C245.429 126.178 245.115 125.637 244.691 125.194C244.232 124.74 243.714 124.353 243.151 124.044C242.59 123.715 242.043 123.387 241.547 123.085C241.076 122.769 240.658 122.379 240.31 121.928C239.72 121.151 239.336 120.232 239.195 119.26C239.087 118.354 239.151 117.435 239.382 116.553C239.382 116.553 239.337 116.605 239.285 116.724C239.209 116.892 239.148 117.069 239.105 117.249C238.923 117.914 238.873 118.608 238.957 119.293C239.072 120.319 239.455 121.295 240.065 122.119C240.424 122.603 240.859 123.022 241.353 123.361C241.862 123.715 242.423 124.018 242.971 124.34C243.508 124.635 244.004 125.002 244.446 125.431C244.836 125.837 245.13 126.329 245.303 126.87C245.452 127.329 245.509 127.815 245.473 128.298C245.436 128.78 245.306 129.251 245.09 129.682C244.788 130.271 244.345 130.773 243.802 131.141C243.441 131.404 243.196 131.489 243.209 131.522Z" fill="#455A64"/>
    <path d="M251.328 124.471C251.328 124.399 250.445 124.577 249.054 124.425C247.238 124.241 245.496 123.599 243.983 122.559C242.438 121.574 241.244 120.109 240.575 118.38C240.348 117.65 240.324 116.87 240.504 116.126C240.385 116.303 240.306 116.505 240.272 116.717C240.16 117.294 240.187 117.889 240.35 118.452C240.717 119.891 241.98 121.593 243.796 122.842C245.349 123.921 247.159 124.55 249.034 124.662C249.598 124.7 250.163 124.682 250.723 124.609C250.93 124.595 251.134 124.548 251.328 124.471Z" fill="#455A64"/>
    <path d="M197.709 151.94L200.525 155.12L214.461 171.883C215.33 172.929 216.452 173.726 217.716 174.194C218.98 174.663 220.341 174.787 221.666 174.555C222.992 174.323 224.234 173.742 225.272 172.87C226.31 171.998 227.107 170.865 227.585 169.583L232.436 158.977L224.17 154.233C223.777 154.542 219.473 163.098 219.473 163.098C218.217 162.69 204.01 148.135 204.01 148.135L203.83 147.215C203.759 146.84 203.682 146.42 203.611 145.94C203.528 145.384 203.539 144.817 203.643 144.264C203.744 143.573 203.937 142.899 204.217 142.26C204.526 141.702 204.03 141.044 203.521 141.281C203.012 141.518 202.116 143.029 201.917 145.086C201.717 147.143 200.067 145.033 199.43 144.061C198.586 142.746 196.917 143.542 197.529 145.099C197.375 145.124 197.229 145.182 197.099 145.269C196.969 145.356 196.858 145.471 196.775 145.605C196.664 145.837 196.6 146.089 196.587 146.346C196.574 146.603 196.611 146.861 196.698 147.103C196.532 147.746 196.49 148.416 196.575 149.075C196.755 150.099 197.141 151.075 197.709 151.94Z" fill="#B78876"/>
    <path d="M238.03 231.773L224.59 295.002L214.449 294.766L223.282 234.297L238.03 231.773Z" fill="#B78876"/>
    <path d="M213.063 295.85L213.108 294.693L224.589 295.029L224.493 298.846H223.778C220.621 298.925 207.709 299.044 205.615 298.38C203.289 297.631 213.063 295.85 213.063 295.85Z" fill="#254750"/>
    <g opacity="0.6">
        <path opacity="0.6" d="M220.351 298.616C220.558 297.689 221.104 296.878 221.878 296.349C222.665 295.794 223.619 295.54 224.571 295.633L224.488 298.662L220.351 298.616Z" fill="white"/>
    </g>
    <g opacity="0.6">
        <path opacity="0.6" d="M208.283 296.868C208.283 296.868 204.849 297.703 205.255 298.248C205.661 298.794 218.72 299.142 224.493 298.82V298.577L209.262 298.288C209.262 298.288 208.947 296.908 208.283 296.868Z" fill="white"/>
    </g>
    <path d="M224.662 298.57H224.462H223.895L221.82 298.603C220.061 298.603 217.633 298.603 214.952 298.531C212.272 298.458 209.85 298.347 208.097 298.242L206.023 298.104L205.456 298.058H205.262H205.456H206.023L208.104 298.15C209.856 298.228 212.279 298.327 214.959 298.399C217.639 298.472 220.061 298.498 221.82 298.511H223.895H224.462L224.662 298.57Z" fill="#263238"/>
    <path d="M209.249 298.478C209.163 298.149 209.042 297.829 208.888 297.526C208.69 297.244 208.461 296.986 208.205 296.757C208.547 296.886 208.833 297.135 209.011 297.46C209.216 297.755 209.302 298.12 209.249 298.478Z" fill="#263238"/>
    <path d="M212.671 296.927C212.638 296.927 212.484 296.756 212.323 296.5C212.162 296.244 212.059 296.027 212.091 296.007C212.123 295.988 212.284 296.178 212.439 296.434C212.593 296.691 212.703 296.908 212.671 296.927Z" fill="#263238"/>
    <path d="M213.612 296.507C213.612 296.507 213.406 296.415 213.212 296.237C213.019 296.06 212.89 295.909 212.916 295.883C212.942 295.856 213.116 295.975 213.309 296.145C213.502 296.316 213.657 296.461 213.612 296.507Z" fill="#263238"/>
    <path d="M214.224 295.483C214.03 295.541 213.826 295.559 213.625 295.535C213.425 295.551 213.223 295.526 213.032 295.463C213.424 295.37 213.832 295.37 214.224 295.463V295.483Z" fill="#263238"/>
    <path d="M214.449 294.766C214.252 294.877 214.03 294.934 213.804 294.93C213.57 294.963 213.33 294.927 213.115 294.825C213.342 294.805 213.571 294.805 213.798 294.825C214.013 294.786 214.231 294.766 214.449 294.766Z" fill="#263238"/>
    <path d="M212.311 295.969C212.067 296.007 211.819 296.007 211.576 295.969C211.314 295.929 211.055 295.867 210.803 295.785C210.649 295.737 210.5 295.673 210.358 295.594C210.316 295.571 210.279 295.539 210.249 295.5C210.219 295.462 210.197 295.418 210.184 295.371C210.174 295.318 210.179 295.263 210.2 295.214C210.221 295.165 210.256 295.123 210.3 295.095C210.584 294.972 210.899 294.946 211.197 295.022C211.496 295.098 211.762 295.271 211.956 295.515C212.067 295.653 212.144 295.815 212.182 295.988C212.197 296.051 212.197 296.116 212.182 296.179C212.115 295.959 212.008 295.754 211.866 295.574C211.696 295.376 211.472 295.234 211.222 295.167C210.935 295.069 210.624 295.081 210.345 295.2C210.23 295.279 210.268 295.41 210.397 295.489C210.526 295.561 210.662 295.621 210.803 295.666C211.049 295.753 211.301 295.824 211.557 295.877C212.034 295.942 212.311 295.949 212.311 295.969Z" fill="#263238"/>
    <path d="M212.116 296.001C212.037 295.852 212.014 295.679 212.052 295.515C212.078 295.33 212.151 295.155 212.265 295.009C212.335 294.901 212.431 294.814 212.544 294.755C212.657 294.697 212.782 294.668 212.909 294.673C212.944 294.68 212.977 294.693 213.007 294.713C213.037 294.733 213.063 294.758 213.082 294.788C213.102 294.818 213.116 294.852 213.123 294.888C213.129 294.923 213.129 294.96 213.122 294.995C213.104 295.109 213.057 295.215 212.986 295.304C212.887 295.458 212.767 295.597 212.632 295.718C212.512 295.843 212.364 295.936 212.2 295.988C212.2 295.988 212.348 295.869 212.561 295.653C212.682 295.529 212.79 295.392 212.883 295.245C212.986 295.101 213.064 294.838 212.883 294.798C212.787 294.808 212.693 294.838 212.609 294.886C212.524 294.935 212.451 295.001 212.394 295.081C212.288 295.211 212.213 295.364 212.174 295.528C212.143 295.684 212.123 295.842 212.116 296.001Z" fill="#263238"/>
    <path d="M224.513 295.601C224.513 295.601 224.191 295.561 223.669 295.601C223.002 295.649 222.36 295.876 221.807 296.258C221.277 296.638 220.862 297.162 220.608 297.769C220.421 298.229 220.396 298.545 220.37 298.538C220.344 298.532 220.37 298.459 220.37 298.321C220.394 298.121 220.442 297.925 220.512 297.736C220.745 297.095 221.165 296.542 221.717 296.153C222.288 295.753 222.957 295.525 223.649 295.496C223.865 295.482 224.081 295.493 224.294 295.528C224.371 295.538 224.445 295.563 224.513 295.601Z" fill="#263238"/>
    <path d="M218.94 297.526C217.832 297.695 216.705 297.675 215.603 297.467C215.603 297.427 216.35 297.467 217.272 297.506C218.193 297.546 218.94 297.486 218.94 297.526Z" fill="#263238"/>
    <path d="M221.182 297.578C221.182 297.578 221.117 297.73 221.033 297.887C220.95 298.045 220.911 298.19 220.866 298.19C220.821 298.19 220.814 298.019 220.911 297.835C221.008 297.651 221.156 297.552 221.182 297.578Z" fill="#263238"/>
    <path d="M222.033 296.605C222.033 296.605 221.981 296.743 221.859 296.855C221.736 296.967 221.614 297.033 221.588 297.006C221.562 296.98 221.64 296.868 221.762 296.757C221.885 296.645 222.033 296.579 222.033 296.605Z" fill="#263238"/>
    <path d="M223.276 296.185C223.276 296.218 223.115 296.218 222.947 296.264C222.78 296.31 222.657 296.402 222.625 296.376C222.593 296.35 222.696 296.205 222.908 296.139C223.121 296.073 223.289 296.152 223.276 296.185Z" fill="#263238"/>
    <path d="M224.146 295.995C224.146 295.995 224.088 296.081 223.998 296.114C223.908 296.147 223.811 296.147 223.798 296.114C223.785 296.081 223.85 296.028 223.946 295.995C224.043 295.962 224.133 295.955 224.146 295.995Z" fill="#263238"/>
    <path d="M262.848 229.638L266.114 291.381L256.134 293.839L248.648 230.939L262.848 229.638Z" fill="#B78876"/>
    <path d="M266.41 291.145L268.111 298.767H256.624L256.134 293.806L266.41 291.145Z" fill="#254750"/>
    <path d="M256.391 297.664C256.943 297.752 257.502 297.785 258.06 297.762C259.097 297.762 260.527 297.762 262.099 297.683L266.133 297.506C266.692 297.514 267.25 297.47 267.801 297.375C267.248 297.283 266.686 297.253 266.126 297.283C265.089 297.283 263.665 297.283 262.087 297.361L258.06 297.532C257.501 297.525 256.942 297.569 256.391 297.664Z" fill="#263238"/>
    <path d="M261.257 292.63C261.15 293.45 261.15 294.281 261.257 295.101C261.262 295.926 261.368 296.747 261.572 297.545C261.681 296.725 261.681 295.894 261.572 295.074C261.573 294.249 261.467 293.427 261.257 292.63Z" fill="#263238"/>
    <g opacity="0.6">
        <path opacity="0.6" d="M268.111 298.767H256.624L256.514 297.663L267.905 297.374L268.111 298.636" fill="white"/>
    </g>
    <path d="M267.892 162.749L271.758 172.107C272.173 173.446 272.052 174.899 271.421 176.147C270.789 177.396 269.699 178.339 268.388 178.77C267.088 179.198 265.674 179.087 264.453 178.461C263.232 177.835 262.301 176.745 261.862 175.425L258.756 166.192L267.892 162.749Z" fill="#B78876"/>
    <path d="M257.384 182.673C257.384 182.673 264.388 194.613 264.388 201.73L269.149 278.521L250.168 280.736L245.555 205.521C245.555 205.521 230.035 281.853 229.378 281.853C228.72 281.853 212.092 280.736 212.092 280.736L230.035 183.054L257.384 182.673Z" fill="#263238"/>
    <path d="M237.831 207.466C237.831 207.558 241.542 206.717 246.071 205.587C250.6 204.457 254.247 203.471 254.247 203.379C254.247 203.287 250.542 204.128 246.013 205.258C241.484 206.389 237.812 207.374 237.831 207.466Z" fill="#455A64"/>
    <path d="M257.384 182.673L254.111 172.967L256.386 161.218L258.164 166.396L269.149 162.282C269.149 162.282 262.062 147.773 261.675 147.01C258.454 140.045 249.763 140.045 249.763 140.045L238.733 140.341C236.981 140.224 235.225 140.499 233.588 141.145C231.951 141.792 230.472 142.796 229.255 144.086C226.098 147.332 219.333 162.269 219.333 162.269L229.255 167.592L232.799 160.836L232.154 170.076L229.867 184.151L257.384 182.673Z" fill="#254750"/>
    <path d="M234.35 143.396C234.35 143.429 234.66 143.442 235.162 143.652C235.862 143.977 236.448 144.511 236.844 145.184C237.436 146.178 237.677 147.349 237.527 148.502C237.322 149.919 236.886 151.292 236.238 152.563C234.95 155.356 233.829 157.906 233.017 159.752L232.076 161.947C231.951 162.211 231.849 162.486 231.773 162.768C231.942 162.528 232.084 162.271 232.198 161.999L233.229 159.851C234.099 158.03 235.259 155.507 236.541 152.708C237.2 151.402 237.636 149.991 237.829 148.535C237.971 147.317 237.691 146.088 237.037 145.059C236.603 144.359 235.959 143.822 235.201 143.528C234.993 143.451 234.777 143.405 234.557 143.39C234.428 143.396 234.35 143.396 234.35 143.396Z" fill="#263238"/>
    <path d="M254.002 173.519C254.099 173.519 255.419 167.441 256.959 159.904C258.499 152.367 259.672 146.236 259.582 146.216C259.491 146.196 258.171 152.294 256.631 159.832C255.091 167.369 253.912 173.5 254.002 173.519Z" fill="#263238"/>
    <g opacity="0.2">
        <path opacity="0.2" d="M253.191 172.763C251.123 174.347 248.037 173.815 245.518 173.388C242.932 172.994 240.566 171.681 238.836 169.682C238.029 168.813 237.585 167.658 237.599 166.462C237.696 165.279 238.72 164.142 239.874 164.28C241.162 164.444 241.807 165.956 242.451 167.145C243.491 169.029 245.078 170.537 246.993 171.462C248.909 172.387 251.058 172.683 253.146 172.31C253.146 172.31 253.558 172.481 253.191 172.763Z" fill="black"/>
    </g>
    <path d="M237.43 164.372C237.391 164.64 237.391 164.912 237.43 165.18C237.507 165.919 237.687 166.643 237.965 167.329C238.909 169.61 240.617 171.473 242.784 172.586C244.947 173.65 247.339 174.136 249.736 173.999C250.458 173.973 251.176 173.898 251.888 173.776C252.15 173.744 252.407 173.682 252.655 173.592C252.655 173.526 251.54 173.736 249.73 173.756C247.381 173.819 245.05 173.31 242.933 172.271C240.833 171.19 239.156 169.412 238.178 167.231C237.812 166.313 237.561 165.353 237.43 164.372Z" fill="#263238"/>
    <g opacity="0.2">
        <path opacity="0.2" d="M237.43 149.856C236.786 155.159 235.942 159.516 234.853 164.747C234.318 167.316 233.674 170.004 231.928 171.942L232.933 160.18L237.43 149.856Z" fill="black"/>
    </g>
    <defs>
        <filter id="filter0_d" x="138.451" y="188.806" width="24.2226" height="15.5395" filterUnits="userSpaceOnUse" color-interpolation-filters="sRGB">
            <feFlood flood-opacity="0" result="BackgroundImageFix"/>
            <feColorMatrix in="SourceAlpha" type="matrix" values="0 0 0 0 0 0 0 0 0 0 0 0 0 0 0 0 0 0 127 0"/>
            <feOffset dx="0.344164" dy="1.37666"/>
            <feGaussianBlur stdDeviation="1.72082"/>
            <feColorMatrix type="matrix" values="0 0 0 0 0 0 0 0 0 0 0 0 0 0 0 0 0 0 0.05 0"/>
            <feBlend mode="normal" in2="BackgroundImageFix" result="effect1_dropShadow"/>
            <feBlend mode="normal" in="SourceGraphic" in2="effect1_dropShadow" result="shape"/>
        </filter>
        <filter id="filter1_d" x="138.451" y="252.403" width="24.2226" height="15.5395" filterUnits="userSpaceOnUse" color-interpolation-filters="sRGB">
            <feFlood flood-opacity="0" result="BackgroundImageFix"/>
            <feColorMatrix in="SourceAlpha" type="matrix" values="0 0 0 0 0 0 0 0 0 0 0 0 0 0 0 0 0 0 127 0"/>
            <feOffset dx="0.344164" dy="1.37666"/>
            <feGaussianBlur stdDeviation="1.72082"/>
            <feColorMatrix type="matrix" values="0 0 0 0 0 0 0 0 0 0 0 0 0 0 0 0 0 0 0.05 0"/>
            <feBlend mode="normal" in2="BackgroundImageFix" result="effect1_dropShadow"/>
            <feBlend mode="normal" in="SourceGraphic" in2="effect1_dropShadow" result="shape"/>
        </filter>
        <filter id="filter2_d" x="138.452" y="221.409" width="24.2226" height="15.5395" filterUnits="userSpaceOnUse" color-interpolation-filters="sRGB">
            <feFlood flood-opacity="0" result="BackgroundImageFix"/>
            <feColorMatrix in="SourceAlpha" type="matrix" values="0 0 0 0 0 0 0 0 0 0 0 0 0 0 0 0 0 0 127 0"/>
            <feOffset dx="0.344164" dy="1.37666"/>
            <feGaussianBlur stdDeviation="1.72082"/>
            <feColorMatrix type="matrix" values="0 0 0 0 0 0 0 0 0 0 0 0 0 0 0 0 0 0 0.05 0"/>
            <feBlend mode="normal" in2="BackgroundImageFix" result="effect1_dropShadow"/>
            <feBlend mode="normal" in="SourceGraphic" in2="effect1_dropShadow" result="shape"/>
        </filter>
        <filter id="filter3_d" x="236.353" y="134.177" width="18.7253" height="12.0128" filterUnits="userSpaceOnUse" color-interpolation-filters="sRGB">
            <feFlood flood-opacity="0" result="BackgroundImageFix"/>
            <feColorMatrix in="SourceAlpha" type="matrix" values="0 0 0 0 0 0 0 0 0 0 0 0 0 0 0 0 0 0 127 0"/>
            <feOffset dx="0.266057" dy="1.06423"/>
            <feGaussianBlur stdDeviation="1.33028"/>
            <feColorMatrix type="matrix" values="0 0 0 0 0 0 0 0 0 0 0 0 0 0 0 0 0 0 0.05 0"/>
            <feBlend mode="normal" in2="BackgroundImageFix" result="effect1_dropShadow"/>
            <feBlend mode="normal" in="SourceGraphic" in2="effect1_dropShadow" result="shape"/>
        </filter>
    </defs>
</svg>
