<svg width="75" height="18" viewBox="0 0 75 18" fill="none"
    xmlns="http://www.w3.org/2000/svg">
    <path d="M16.5117 14.4102C14.7148 16.332 13.0664 17.293 11.5664 17.293C10.7383 17.293 10.082 17 9.59766 16.4141C9.11328 15.8281 8.84375 14.9922 8.78906 13.9062C7.84375 15.0547 7.00391 15.9062 6.26953 16.4609C5.54297 17.0156 4.76562 17.293 3.9375 17.293C2.875 17.293 2.01953 16.8359 1.37109 15.9219C0.730469 15 0.410156 13.7734 0.410156 12.2422C0.410156 10.4141 0.832031 8.53125 1.67578 6.59375C2.51953 4.64844 3.76953 3.11328 5.42578 1.98828C7.08203 0.863281 9.08984 0.300781 11.4492 0.300781C13.2148 0.300781 14.8125 0.539062 16.2422 1.01562V1.78906C15.0781 3.14844 14.1016 5.05078 13.3125 7.49609C12.5312 9.94141 12.1406 11.8047 12.1406 13.0859C12.1406 13.7109 12.2656 14.1953 12.5156 14.5391C12.7734 14.8828 13.1289 15.0547 13.582 15.0547C14.3945 15.0547 15.3711 14.3906 16.5117 13.0625V14.4102ZM13.1016 1.78906C12.3828 1.39844 11.6094 1.20312 10.7812 1.20312C9.47656 1.20312 8.30078 1.75 7.25391 2.84375C6.20703 3.92969 5.37891 5.37109 4.76953 7.16797C4.16797 8.96484 3.86719 10.5234 3.86719 11.8438C3.86719 12.7266 4.03516 13.4453 4.37109 14C4.71484 14.5469 5.15234 14.8203 5.68359 14.8203C6.60547 14.8203 7.66406 13.9805 8.85938 12.3008C9.35156 7.89453 10.7656 4.39062 13.1016 1.78906ZM28.0078 14.4102C26.2031 16.3164 24.6562 17.2695 23.3672 17.2695C22.8438 17.2695 22.4219 17.0859 22.1016 16.7188C21.7812 16.3516 21.6211 15.8594 21.6211 15.2422C21.6211 14.4062 21.9648 13.1289 22.6523 11.4102C23.0195 10.4883 23.2031 9.90234 23.2031 9.65234C23.2031 9.40234 23.1055 9.27734 22.9102 9.27734C22.8008 9.27734 22.6562 9.33203 22.4766 9.44141C22.3125 9.55078 22.1211 9.70312 21.9023 9.89844C21.707 10.0781 21.4883 10.2969 21.2461 10.5547C21.0352 10.7734 20.8086 11.0234 20.5664 11.3047L19.9102 12.0664C19.6211 12.418 19.4414 12.7891 19.3711 13.1797C19.2539 13.8438 19.1758 14.4531 19.1367 15.0078C19.1133 15.4219 19.1016 15.9805 19.1016 16.6836L16.5117 17.293C16.4258 16.2383 16.3828 15.4531 16.3828 14.9375C16.3828 13.6797 16.5273 12.4883 16.8164 11.3633C17.1133 10.2383 17.5859 8.97266 18.2344 7.56641L21.0938 7.01562C20.4922 8.63281 20.0977 9.90625 19.9102 10.8359C21.1914 9.40625 22.207 8.41797 22.957 7.87109C23.7148 7.31641 24.3867 7.03906 24.9727 7.03906C25.3711 7.03906 25.7031 7.19141 25.9688 7.49609C26.2344 7.79297 26.3672 8.16797 26.3672 8.62109C26.3672 9.37109 26.0312 10.6055 25.3594 12.3242C24.8984 13.5039 24.668 14.2695 24.668 14.6211C24.668 15.0898 24.8594 15.3242 25.2422 15.3242C25.8125 15.3242 26.7344 14.5703 28.0078 13.0625V14.4102ZM36.7734 14.4102C35.7812 15.3867 34.8906 16.1094 34.1016 16.5781C33.3125 17.0391 32.4414 17.2695 31.4883 17.2695C30.4258 17.2695 29.5664 16.9297 28.9102 16.25C28.2617 15.5703 27.9375 14.6758 27.9375 13.5664C27.9375 11.9102 28.5117 10.4141 29.6602 9.07812C30.8086 7.73438 32.082 7.0625 33.4805 7.0625C34.207 7.0625 34.7891 7.25 35.2266 7.625C35.6641 8 35.8828 8.49219 35.8828 9.10156C35.8828 10.7188 34.1641 12.0312 30.7266 13.0391C31.0391 14.5625 31.8555 15.3242 33.1758 15.3242C33.6914 15.3242 34.1836 15.1875 34.6523 14.9141C35.1211 14.6328 35.8281 14.0156 36.7734 13.0625V14.4102ZM30.6328 12.2422C32.6328 11.6797 33.6328 10.6406 33.6328 9.125C33.6328 8.375 33.3594 8 32.8125 8C32.2969 8 31.8047 8.39453 31.3359 9.18359C30.8672 9.96484 30.6328 10.9844 30.6328 12.2422ZM44.5312 14.4102C43.4688 15.3867 42.5352 16.1094 41.7305 16.5781C40.9336 17.0391 40.1719 17.2695 39.4453 17.2695C38.6094 17.2695 37.9336 16.9453 37.418 16.2969C36.9102 15.6484 36.6562 14.7773 36.6562 13.6836C36.6562 12.043 37.0117 10.0742 37.7227 7.77734C38.4336 5.48047 39.2969 3.36328 40.3125 1.42578L43.2891 0.324219C43.3828 0.292969 43.4531 0.277344 43.5 0.277344C43.7266 0.277344 43.9102 0.445312 44.0508 0.78125C44.1992 1.10938 44.2734 1.55469 44.2734 2.11719C44.2734 3.71094 43.9062 5.25391 43.1719 6.74609C42.4375 8.23828 41.2891 9.83203 39.7266 11.5273C39.6641 12.3398 39.6328 12.8984 39.6328 13.2031C39.6328 13.8828 39.7578 14.4219 40.0078 14.8203C40.2578 15.2188 40.5898 15.418 41.0039 15.418C41.4258 15.418 41.875 15.2656 42.3516 14.9609C42.8281 14.6562 43.5547 14.0234 44.5312 13.0625V14.4102ZM40.043 9.82812C41.0352 8.72656 41.8398 7.49219 42.457 6.125C43.0742 4.75781 43.3828 3.58203 43.3828 2.59766C43.3828 2.30859 43.3398 2.07812 43.2539 1.90625C43.168 1.72656 43.0586 1.63672 42.9258 1.63672C42.6367 1.63672 42.2148 2.35547 41.6602 3.79297C41.1133 5.23047 40.5742 7.24219 40.043 9.82812ZM52.2891 14.4102C51.2266 15.3867 50.293 16.1094 49.4883 16.5781C48.6914 17.0391 47.9297 17.2695 47.2031 17.2695C46.3672 17.2695 45.6914 16.9453 45.1758 16.2969C44.668 15.6484 44.4141 14.7773 44.4141 13.6836C44.4141 12.043 44.7695 10.0742 45.4805 7.77734C46.1914 5.48047 47.0547 3.36328 48.0703 1.42578L51.0469 0.324219C51.1406 0.292969 51.2109 0.277344 51.2578 0.277344C51.4844 0.277344 51.668 0.445312 51.8086 0.78125C51.957 1.10938 52.0312 1.55469 52.0312 2.11719C52.0312 3.71094 51.6641 5.25391 50.9297 6.74609C50.1953 8.23828 49.0469 9.83203 47.4844 11.5273C47.4219 12.3398 47.3906 12.8984 47.3906 13.2031C47.3906 13.8828 47.5156 14.4219 47.7656 14.8203C48.0156 15.2188 48.3477 15.418 48.7617 15.418C49.1836 15.418 49.6328 15.2656 50.1094 14.9609C50.5859 14.6562 51.3125 14.0234 52.2891 13.0625V14.4102ZM47.8008 9.82812C48.793 8.72656 49.5977 7.49219 50.2148 6.125C50.832 4.75781 51.1406 3.58203 51.1406 2.59766C51.1406 2.30859 51.0977 2.07812 51.0117 1.90625C50.9258 1.72656 50.8164 1.63672 50.6836 1.63672C50.3945 1.63672 49.9727 2.35547 49.418 3.79297C48.8711 5.23047 48.332 7.24219 47.8008 9.82812ZM62.8125 14.4102C62.4141 14.7617 62.0273 15.0117 61.6523 15.1602C61.2773 15.3008 60.9805 15.3711 60.7617 15.3711C60.1992 15.3711 59.6406 15.1523 59.0859 14.7148C57.9609 16.418 56.6719 17.2695 55.2188 17.2695C54.3125 17.2695 53.5781 16.9297 53.0156 16.25C52.4531 15.5703 52.1719 14.668 52.1719 13.543C52.1719 11.7617 52.8047 10.2344 54.0703 8.96094C55.3359 7.67969 56.8477 7.03906 58.6055 7.03906C59.2695 7.03906 59.7539 7.11328 60.0586 7.26172C60.3711 7.40234 60.5625 7.57031 60.6328 7.76562C60.7031 7.96094 60.7383 8.20703 60.7383 8.50391C60.7383 9.96484 60.3398 11.7578 59.543 13.8828C59.9414 14.25 60.3594 14.4336 60.7969 14.4336C61.3203 14.4336 61.9922 13.9766 62.8125 13.0625V14.4102ZM58.9453 7.85938C58.8281 7.8125 58.6602 7.78906 58.4414 7.78906C57.4258 7.78906 56.6289 8.32031 56.0508 9.38281C55.4805 10.4453 55.1953 11.6875 55.1953 13.1094C55.1953 13.8984 55.3203 14.5117 55.5703 14.9492C55.8203 15.3867 56.168 15.6055 56.6133 15.6055C57.168 15.6055 57.7695 15.0938 58.418 14.0703C57.6836 13.1484 57.3164 12.1562 57.3164 11.0938C57.3164 9.84375 57.8594 8.76562 58.9453 7.85938ZM74.3203 14.4102C72.4688 16.332 70.9453 17.293 69.75 17.293C69.2188 17.293 68.7773 17.1133 68.4258 16.7539C68.082 16.3867 67.9102 15.9258 67.9102 15.3711C67.9102 14.4336 68.2695 13.1133 68.9883 11.4102C69.3711 10.4883 69.5625 9.88672 69.5625 9.60547C69.5625 9.28516 69.4102 9.125 69.1055 9.125C68.793 9.125 68.3398 9.33984 67.7461 9.76953C67.1523 10.1914 66.5273 10.7695 65.8711 11.5039C65.5977 12.9414 65.4609 14.668 65.4609 16.6836L62.8477 17.293C62.7461 16.4727 62.6953 15.582 62.6953 14.6211C62.6953 12.293 63.0156 10.125 63.6562 8.11719C64.2969 6.10938 65.3047 3.98047 66.6797 1.73047C67.7031 1.31641 68.5938 0.980469 69.3516 0.722656C70.1172 0.457031 70.5547 0.324219 70.6641 0.324219C70.8672 0.324219 71.0391 0.488281 71.1797 0.816406C71.3203 1.14453 71.3906 1.55469 71.3906 2.04688C71.3906 2.875 71.1367 3.79297 70.6289 4.80078C70.1211 5.80078 69.3242 7.01172 68.2383 8.43359C69.2773 7.83203 69.9688 7.45312 70.3125 7.29688C70.6562 7.14062 71.0078 7.0625 71.3672 7.0625C71.7656 7.0625 72.0859 7.20703 72.3281 7.49609C72.5781 7.77734 72.7031 8.15234 72.7031 8.62109C72.7031 9.32422 72.4219 10.4141 71.8594 11.8906C71.3047 13.3672 71.0273 14.293 71.0273 14.668C71.0273 14.8398 71.0781 14.9922 71.1797 15.125C71.2891 15.2578 71.4141 15.3242 71.5547 15.3242C72.0547 15.3242 72.9766 14.5703 74.3203 13.0625V14.4102ZM66.1992 9.60547C68.9883 6.36328 70.3828 3.97266 70.3828 2.43359C70.3828 1.96484 70.2539 1.73047 69.9961 1.73047C69.5664 1.73047 68.9531 2.5 68.1562 4.03906C67.3594 5.57812 66.707 7.43359 66.1992 9.60547Z" fill="#26474E"/>
</svg>
