<svg width="16" height="16" viewBox="0 0 16 16" fill="none"
    xmlns="http://www.w3.org/2000/svg">
    <path d="M15.1158 0H0.884211C0.39579 0 0 0.39579 0 0.884211V15.1158C0 15.6042 0.39579 16 0.884211 16H8.54737V9.82456H6.45614V7.39088H8.53614V5.61404C8.53614 3.54526 9.79649 2.41965 11.6407 2.41965C12.2667 2.42246 12.8926 2.45614 13.5158 2.52632V4.68491H12.2414C11.2393 4.68491 11.0456 5.1593 11.0456 5.85825V7.40211H13.4456L13.134 9.82456H11.0456V16H15.1158C15.6042 16 16 15.6042 16 15.1158V0.884211C16 0.39579 15.6042 0 15.1158 0Z" fill="#4D4D4D"/>
</svg>
