<svg width="61" height="18" viewBox="0 0 61 18" fill="none" xmlns="http://www.w3.org/2000/svg">
<path d="M53.5 2.00439V13.2544" stroke="#E03A3A" stroke-linecap="round"/>
<path d="M49.75 9.50439L53.5 13.2544L57.25 9.50439" stroke="#E03A3A" stroke-linecap="round"/>
<path d="M8.316 11.3574C8.316 12.1134 8.036 12.7574 7.476 13.2894C6.92533 13.8121 6.12267 14.1294 5.068 14.2414V15.8094H3.92V14.2554C3.22933 14.2087 2.576 14.0827 1.96 13.8774C1.344 13.6721 0.854 13.4107 0.49 13.0934L1.12 11.6794C1.46533 11.9594 1.88533 12.1974 2.38 12.3934C2.87467 12.5801 3.388 12.6967 3.92 12.7434V9.94339C3.25733 9.78473 2.702 9.61206 2.254 9.42539C1.81533 9.22939 1.44667 8.94939 1.148 8.58539C0.849333 8.21206 0.7 7.72206 0.7 7.11539C0.7 6.35939 0.975333 5.71539 1.526 5.18339C2.07667 4.65139 2.87467 4.33406 3.92 4.23139V2.64939H5.068V4.20339C5.59067 4.23139 6.09933 4.32006 6.594 4.46939C7.098 4.61873 7.53667 4.81473 7.91 5.05739L7.336 6.47139C6.62667 6.06073 5.87067 5.80873 5.068 5.71539V8.54339C5.74 8.70206 6.29533 8.87473 6.734 9.06139C7.182 9.24806 7.55533 9.52806 7.854 9.90139C8.162 10.2654 8.316 10.7507 8.316 11.3574ZM2.506 7.03139C2.506 7.33939 2.62733 7.58673 2.87 7.77339C3.11267 7.96006 3.46267 8.11873 3.92 8.24939V5.75739C3.444 5.83206 3.08933 5.98139 2.856 6.20539C2.62267 6.42939 2.506 6.70473 2.506 7.03139ZM5.068 12.7154C5.56267 12.6407 5.92667 12.4961 6.16 12.2814C6.40267 12.0667 6.524 11.8007 6.524 11.4834C6.524 11.1661 6.398 10.9141 6.146 10.7274C5.894 10.5314 5.53467 10.3681 5.068 10.2374V12.7154ZM13.5087 14.2694C12.7247 14.2694 12.0247 14.0734 11.4087 13.6814C10.7927 13.2801 10.3074 12.7014 9.95269 11.9454C9.59802 11.1801 9.42069 10.2747 9.42069 9.22939C9.42069 8.18406 9.59802 7.28339 9.95269 6.52739C10.3074 5.76206 10.7927 5.18339 11.4087 4.79139C12.0247 4.39006 12.7247 4.18939 13.5087 4.18939C14.2927 4.18939 14.9927 4.39006 15.6087 4.79139C16.234 5.18339 16.724 5.76206 17.0787 6.52739C17.4334 7.28339 17.6107 8.18406 17.6107 9.22939C17.6107 10.2747 17.4334 11.1801 17.0787 11.9454C16.724 12.7014 16.234 13.2801 15.6087 13.6814C14.9927 14.0734 14.2927 14.2694 13.5087 14.2694ZM13.5087 12.6874C14.2087 12.6874 14.7594 12.3981 15.1607 11.8194C15.5714 11.2407 15.7767 10.3774 15.7767 9.22939C15.7767 8.08139 15.5714 7.21806 15.1607 6.63939C14.7594 6.06073 14.2087 5.77139 13.5087 5.77139C12.818 5.77139 12.2674 6.06073 11.8567 6.63939C11.4554 7.21806 11.2547 8.08139 11.2547 9.22939C11.2547 10.3774 11.4554 11.2407 11.8567 11.8194C12.2674 12.3981 12.818 12.6874 13.5087 12.6874ZM19.7685 14.2274C19.4512 14.2274 19.1805 14.1201 18.9565 13.9054C18.7325 13.6814 18.6205 13.4014 18.6205 13.0654C18.6205 12.7201 18.7279 12.4401 18.9425 12.2254C19.1665 12.0107 19.4419 11.9034 19.7685 11.9034C20.0952 11.9034 20.3659 12.0107 20.5805 12.2254C20.8045 12.4401 20.9165 12.7201 20.9165 13.0654C20.9165 13.4014 20.8045 13.6814 20.5805 13.9054C20.3565 14.1201 20.0859 14.2274 19.7685 14.2274ZM26.0185 14.2694C25.2345 14.2694 24.5345 14.0734 23.9185 13.6814C23.3025 13.2801 22.8171 12.7014 22.4625 11.9454C22.1078 11.1801 21.9305 10.2747 21.9305 9.22939C21.9305 8.18406 22.1078 7.28339 22.4625 6.52739C22.8171 5.76206 23.3025 5.18339 23.9185 4.79139C24.5345 4.39006 25.2345 4.18939 26.0185 4.18939C26.8025 4.18939 27.5025 4.39006 28.1185 4.79139C28.7438 5.18339 29.2338 5.76206 29.5885 6.52739C29.9431 7.28339 30.1205 8.18406 30.1205 9.22939C30.1205 10.2747 29.9431 11.1801 29.5885 11.9454C29.2338 12.7014 28.7438 13.2801 28.1185 13.6814C27.5025 14.0734 26.8025 14.2694 26.0185 14.2694ZM26.0185 12.6874C26.7185 12.6874 27.2691 12.3981 27.6705 11.8194C28.0811 11.2407 28.2865 10.3774 28.2865 9.22939C28.2865 8.08139 28.0811 7.21806 27.6705 6.63939C27.2691 6.06073 26.7185 5.77139 26.0185 5.77139C25.3278 5.77139 24.7771 6.06073 24.3665 6.63939C23.9651 7.21806 23.7645 8.08139 23.7645 9.22939C23.7645 10.3774 23.9651 11.2407 24.3665 11.8194C24.7771 12.3981 25.3278 12.6874 26.0185 12.6874ZM35.4384 14.2694C34.6544 14.2694 33.9544 14.0734 33.3384 13.6814C32.7224 13.2801 32.237 12.7014 31.8824 11.9454C31.5277 11.1801 31.3504 10.2747 31.3504 9.22939C31.3504 8.18406 31.5277 7.28339 31.8824 6.52739C32.237 5.76206 32.7224 5.18339 33.3384 4.79139C33.9544 4.39006 34.6544 4.18939 35.4384 4.18939C36.2224 4.18939 36.9224 4.39006 37.5384 4.79139C38.1637 5.18339 38.6537 5.76206 39.0084 6.52739C39.363 7.28339 39.5404 8.18406 39.5404 9.22939C39.5404 10.2747 39.363 11.1801 39.0084 11.9454C38.6537 12.7014 38.1637 13.2801 37.5384 13.6814C36.9224 14.0734 36.2224 14.2694 35.4384 14.2694ZM35.4384 12.6874C36.1384 12.6874 36.689 12.3981 37.0904 11.8194C37.501 11.2407 37.7064 10.3774 37.7064 9.22939C37.7064 8.08139 37.501 7.21806 37.0904 6.63939C36.689 6.06073 36.1384 5.77139 35.4384 5.77139C34.7477 5.77139 34.197 6.06073 33.7864 6.63939C33.385 7.21806 33.1844 8.08139 33.1844 9.22939C33.1844 10.3774 33.385 11.2407 33.7864 11.8194C34.197 12.3981 34.7477 12.6874 35.4384 12.6874Z" fill="#848484"/>
</svg>
