<svg width="65" height="65" viewBox="0 0 65 65" fill="none"
    xmlns="http://www.w3.org/2000/svg">
    <g clip-path="url(#clip0)">
        <path d="M32.5 65C50.4493 65 65 50.4493 65 32.5C65 14.5507 50.4493 0 32.5 0C14.5507 0 0 14.5507 0 32.5C0 50.4493 14.5507 65 32.5 65Z" fill="#7CC8FB"/>
        <path d="M65 32.5011C64.9966 37.4104 63.8819 42.2552 61.7395 46.6723C59.5971 51.0894 56.4826 54.9642 52.6295 58.0063C48.7764 61.0484 44.2847 63.1789 39.491 64.2379C34.6974 65.2969 29.7262 65.2571 24.9501 64.1214C23.6838 63.8207 22.4369 63.4434 21.2164 62.9915C8.82832 58.3996 0 46.4863 0 32.5011C0 18.516 8.82832 6.6027 21.2164 2.01715C22.437 1.56608 23.6838 1.18961 24.9501 0.889807C31.2021 -0.593536 37.7528 -0.200072 43.7823 2.02096C45.0609 2.49317 46.308 3.04655 47.516 3.6777C52.7874 6.42395 57.2047 10.5632 60.2874 15.6452C63.3701 20.7272 65.0001 26.5573 65 32.5011Z" fill="#DB1B1B"/>
        <path d="M21.2164 2.01111V62.9854C8.82832 58.3986 0 46.4803 0 32.5002C0 18.5201 8.82832 6.60173 21.2164 2.01111Z" fill="#DB1B1B"/>
        <path d="M43.7827 2.011V62.9853C36.5011 65.6746 28.4984 65.6746 21.2168 62.9853V2.011C22.4373 1.55865 23.6842 1.1809 24.9505 0.87985C31.2025 -0.603492 37.7532 -0.210029 43.7827 2.011Z" fill="white"/>
        <path d="M64.9999 32.5002C64.9996 39.1402 62.9661 45.621 59.173 51.071C55.3798 56.521 50.0088 60.6788 43.7822 62.9854V2.01111C45.0608 2.48332 46.3079 3.0367 47.5159 3.66785C52.7887 6.41479 57.2069 10.5555 60.2896 15.6392C63.3724 20.7229 65.0016 26.5548 64.9999 32.5002Z" fill="#DB1B1B"/>
        <path d="M24.9505 0.879936V64.1115C23.6842 63.8109 22.4373 63.4336 21.2168 62.9816V2.01109C22.4373 1.55873 23.6842 1.18098 24.9505 0.879936Z" fill="#E0E0E0"/>
        <path d="M47.5159 3.66785V61.3287C46.3076 61.9593 45.0606 62.5127 43.7822 62.9854V2.01111C45.0608 2.48332 46.3079 3.0367 47.5159 3.66785Z" fill="#C11616"/>
        <path d="M56.4574 23.1869C57.5989 23.1869 58.5242 22.2616 58.5242 21.1201C58.5242 19.9787 57.5989 19.0533 56.4574 19.0533C55.316 19.0533 54.3906 19.9787 54.3906 21.1201C54.3906 22.2616 55.316 23.1869 56.4574 23.1869Z" fill="#EA3434"/>
        <path d="M56.4579 18.2777C57.2663 18.2777 57.9217 17.6223 57.9217 16.8139C57.9217 16.0055 57.2663 15.3501 56.4579 15.3501C55.6495 15.3501 54.9941 16.0055 54.9941 16.8139C54.9941 17.6223 55.6495 18.2777 56.4579 18.2777Z" fill="#EA3434"/>
        <path d="M7.34678 32.5002C7.3424 37.7288 8.60118 42.8811 11.016 47.5186C13.4308 52.1562 16.9302 56.1417 21.2164 59.1362V62.9854C8.82832 58.3986 0 46.4803 0 32.5002C0 18.5201 8.82832 6.60173 21.2164 2.01111V5.87175C16.9311 8.86533 13.4323 12.8497 11.0175 17.4858C8.60269 22.122 7.34342 27.2728 7.34678 32.5002Z" fill="#C11616"/>
        <path d="M24.9505 61.396C28.4443 63.2017 32.2386 64.3539 36.1465 64.7958C34.9358 64.9313 33.7186 64.9995 32.5004 65.0002C29.9577 65.0001 27.4237 64.7019 24.9505 64.1115C23.6842 63.8109 22.4373 63.4336 21.2168 62.9816V59.1362C22.4089 59.973 23.6563 60.728 24.9505 61.396Z" fill="#E0E0E0"/>
        <path d="M24.9505 3.61197C23.6563 4.27996 22.4089 5.03495 21.2168 5.87173V2.01109C22.4373 1.55873 23.6842 1.18098 24.9505 0.879936C27.4241 0.292564 29.958 -0.00271436 32.5004 0.000150344C33.7377 0.000124312 34.9741 0.069635 36.2036 0.208353C32.2758 0.644017 28.4614 1.79771 24.9505 3.61197Z" fill="#E0E0E0"/>
        <path d="M24.9505 0.879936V3.61197C23.6563 4.27996 22.4089 5.03495 21.2168 5.87173V2.01109C22.4373 1.55873 23.6842 1.18098 24.9505 0.879936Z" fill="#CCCCCC"/>
        <path d="M21.2168 59.1362C22.4089 59.973 23.6563 60.728 24.9505 61.396V64.1115C23.6842 63.8109 22.4373 63.4336 21.2168 62.9816V59.1362Z" fill="#CCCCCC"/>
        <path d="M37.5673 36.8076L41.5828 33.3253C41.6285 33.2859 41.663 33.2351 41.6828 33.1781C41.7026 33.1211 41.707 33.0598 41.6956 33.0006C41.6841 32.9413 41.6572 32.8861 41.6175 32.8406C41.5779 32.7951 41.527 32.7608 41.4698 32.7413L41.1322 32.627C41.0353 32.5934 40.9542 32.5255 40.9039 32.4362C40.8536 32.3469 40.8377 32.2423 40.8592 32.1421L41.4178 29.5561C41.4297 29.5009 41.4278 29.4437 41.4124 29.3894C41.397 29.3352 41.3684 29.2855 41.3293 29.2449C41.2902 29.2043 41.2417 29.1739 41.188 29.1564C41.1344 29.1389 41.0773 29.1349 41.0217 29.1447L38.9739 29.5027C38.8772 29.5199 38.7775 29.5027 38.6921 29.454C38.6068 29.4053 38.5412 29.3282 38.5068 29.2361L38.2643 28.5887C38.2437 28.534 38.2095 28.4855 38.1649 28.4477C38.1204 28.4099 38.067 28.3841 38.0097 28.3727C37.9524 28.3613 37.8932 28.3646 37.8375 28.3824C37.7819 28.4002 37.7317 28.4319 37.6917 28.4744L36.054 30.2149C36.0012 30.271 35.9336 30.311 35.8591 30.3306C35.7846 30.3501 35.7061 30.3483 35.6325 30.3254C35.5339 30.2955 35.4502 30.2295 35.3981 30.1405C35.3461 30.0515 35.3296 29.9461 35.352 29.8455L36.2711 25.5938C36.2837 25.5361 36.2811 25.4761 36.2637 25.4196C36.2463 25.3631 36.2147 25.312 36.1718 25.2713C36.1289 25.2306 36.0763 25.2017 36.019 25.1872C35.9617 25.1728 35.9016 25.1733 35.8446 25.1889L34.6461 25.5177C34.5582 25.5417 34.4648 25.5365 34.3801 25.5029C34.2953 25.4692 34.2238 25.4089 34.1764 25.3311L32.7939 23.0548C32.7632 23.0041 32.72 22.9621 32.6684 22.933C32.6168 22.9039 32.5586 22.8885 32.4993 22.8885C32.4401 22.8885 32.3818 22.9039 32.3302 22.933C32.2786 22.9621 32.2354 23.0041 32.2048 23.0548L30.8223 25.3311C30.7748 25.4089 30.7033 25.4692 30.6186 25.5029C30.5339 25.5365 30.4405 25.5417 30.3526 25.5177L29.1529 25.1901C29.0958 25.1746 29.0357 25.174 28.9784 25.1885C28.9211 25.2029 28.8685 25.2319 28.8256 25.2726C28.7827 25.3133 28.7511 25.3643 28.7337 25.4208C28.7163 25.4773 28.7137 25.5374 28.7263 25.5951L29.6454 29.8468C29.6678 29.9474 29.6513 30.0528 29.5993 30.1417C29.5472 30.2307 29.4635 30.2968 29.3649 30.3267C29.2914 30.3492 29.2131 30.3506 29.1388 30.3309C29.0645 30.3111 28.9973 30.271 28.9446 30.2149L27.307 28.4744C27.2669 28.4319 27.2168 28.4002 27.1611 28.3824C27.1055 28.3646 27.0463 28.3613 26.989 28.3727C26.9317 28.3841 26.8783 28.4099 26.8337 28.4477C26.7892 28.4855 26.755 28.534 26.7344 28.5887L26.4919 29.2361C26.4575 29.3282 26.3919 29.4053 26.3066 29.454C26.2212 29.5027 26.1215 29.5199 26.0247 29.5027L23.9833 29.1396C23.9278 29.1298 23.8707 29.1339 23.817 29.1513C23.7634 29.1688 23.7148 29.1992 23.6757 29.2398C23.6366 29.2804 23.6081 29.3301 23.5926 29.3843C23.5772 29.4386 23.5753 29.4958 23.5872 29.551L24.1458 32.137C24.1673 32.2372 24.1514 32.3418 24.1011 32.4311C24.0509 32.5205 23.9697 32.5883 23.8729 32.622L23.5288 32.7413C23.4717 32.7608 23.4208 32.7951 23.3811 32.8406C23.3415 32.8861 23.3146 32.9413 23.3031 33.0006C23.2917 33.0598 23.296 33.1211 23.3158 33.1781C23.3356 33.2351 23.3701 33.2859 23.4158 33.3253L27.4314 36.8076C27.5218 36.8864 27.5886 36.9888 27.6242 37.1034C27.6599 37.2179 27.663 37.3401 27.6332 37.4563L27.4301 38.2485C27.4159 38.3032 27.4155 38.3606 27.4288 38.4155C27.4421 38.4704 27.4689 38.5212 27.5065 38.5633C27.5442 38.6053 27.5918 38.6375 27.6449 38.6568C27.698 38.6761 27.755 38.6819 27.811 38.6738L31.3339 38.166C31.4137 38.1546 31.4951 38.1611 31.5721 38.1849C31.6491 38.2088 31.7199 38.2495 31.7793 38.304C31.8387 38.3585 31.8852 38.4256 31.9156 38.5003C31.9459 38.575 31.9593 38.6555 31.9547 38.736L31.7376 42.664C31.7234 42.8676 31.789 43.0688 31.9205 43.225C32.052 43.3811 32.2391 43.48 32.4422 43.5006C32.5521 43.5097 32.6627 43.4951 32.7665 43.4577C32.8703 43.4204 32.9649 43.3612 33.0438 43.2842C33.1228 43.2072 33.1843 43.1141 33.2242 43.0112C33.264 42.9084 33.2814 42.7982 33.275 42.6881L33.0503 38.7386C33.0457 38.6581 33.0591 38.5775 33.0894 38.5028C33.1198 38.4281 33.1663 38.3611 33.2257 38.3065C33.2851 38.252 33.3559 38.2113 33.4329 38.1875C33.5099 38.1636 33.5913 38.1571 33.6711 38.1686L37.1941 38.6764C37.25 38.6845 37.307 38.6786 37.3602 38.6593C37.4133 38.64 37.4608 38.6079 37.4985 38.5658C37.5362 38.5237 37.5629 38.4729 37.5762 38.418C37.5896 38.3631 37.5891 38.3058 37.5749 38.2511L37.3718 37.4589C37.3408 37.3429 37.3426 37.2205 37.3772 37.1055C37.4117 36.9905 37.4775 36.8874 37.5673 36.8076Z" fill="#EC2227"/>
    </g>
    <defs>
        <clipPath id="clip0">
            <rect width="65" height="65" fill="white"/>
        </clipPath>
    </defs>
</svg>
