<svg width="20" height="21" viewBox="0 0 20 21" fill="none"
    xmlns="http://www.w3.org/2000/svg">
    <path d="M17.1618 16.4381C15.9354 17.7281 14.3652 18.4387 12.7403 18.4387C10.0773 18.4387 7.77142 16.5685 6.68621 13.8652H14.0834C14.7248 13.8652 15.2449 13.3452 15.2449 12.7037C15.2449 12.0623 14.7248 11.5422 14.0834 11.5422H6.09596C6.05029 11.1625 6.02534 10.7752 6.02534 10.3807C6.02534 9.93578 6.05667 9.49964 6.11511 9.074H14.0834C14.7248 9.074 15.2449 8.55394 15.2449 7.91251C15.2449 7.27108 14.7248 6.75098 14.0834 6.75098H6.748C7.85648 4.12681 10.1255 2.32274 12.7403 2.32274C14.3652 2.32274 15.9354 3.03335 17.1618 4.32322C17.6033 4.78786 18.338 4.80696 18.8037 4.36506C19.2687 3.92296 19.2871 3.18778 18.8457 2.7229C17.1765 0.966995 15.0084 0 12.7406 0C8.86842 0 5.55845 2.81233 4.274 6.75131H1.16149C0.520055 6.75131 0 7.27137 0 7.9128C0 8.55423 0.520055 9.07429 1.16149 9.07429H3.7763C3.72924 9.5029 3.70232 9.93818 3.70232 10.381C3.70232 10.774 3.72285 11.1608 3.76042 11.5425H1.16149C0.520055 11.5425 0 12.0626 0 12.704C0 13.3455 0.520055 13.8655 1.16149 13.8655H4.22789C5.47732 17.8806 8.82074 20.762 12.7403 20.762C15.0083 20.762 17.176 19.7948 18.8451 18.0391C19.2868 17.5741 19.2687 16.839 18.8034 16.397C18.3387 15.9549 17.6033 15.9734 17.1618 16.4381Z" fill="black"/>
</svg>
