<svg width="65" height="65" viewBox="0 0 65 65" fill="none"
    xmlns="http://www.w3.org/2000/svg">
    <g clip-path="url(#clip0)">
        <path d="M5.72368 14.0846C3.62787 17.1266 2.03511 20.5422 1.06934 24.2134H15.853L5.72368 14.0846Z" fill="#29337A"/>
        <path d="M23.3981 1.30081C19.6535 2.39133 16.1856 4.13146 13.1318 6.40113L23.3981 16.6674V1.30081Z" fill="#29337A"/>
        <path d="M13.8945 59.1407C16.7589 61.1451 19.9591 62.6969 23.3973 63.698V49.6395L13.8945 59.1407Z" fill="#29337A"/>
        <path d="M1.44141 42.0961C2.516 45.5769 4.16268 48.8062 6.26714 51.6788L15.8499 42.0961H1.44141Z" fill="#29337A"/>
        <path d="M6.2595 13.3303C6.07782 13.5787 5.89874 13.8306 5.72324 14.0852L15.8525 24.2139H1.06889C0.8293 25.1258 0.633757 26.0552 0.472656 26.9974H19.9276L6.2595 13.3303Z" fill="white"/>
        <path d="M13.1406 58.6045C13.3879 58.7888 13.642 58.9642 13.8944 59.1408L23.3971 49.6392V63.6977C24.3101 63.9646 25.2373 64.195 26.1806 64.3803V45.565L13.1406 58.6045Z" fill="white"/>
        <path d="M0.720703 39.3126C0.922422 40.2557 1.1605 41.1846 1.44222 42.096H15.8508L6.2681 51.6788C7.31031 53.1027 8.46601 54.439 9.72174 55.6747L26.0837 39.3126H0.720703Z" fill="white"/>
        <path d="M23.3975 1.30073V16.6673L13.1311 6.4016C11.7158 7.4541 10.3928 8.62256 9.16699 9.88748L26.1804 26.9009V0.618179C25.2376 0.804529 24.3104 1.03548 23.3975 1.30073Z" fill="white"/>
        <path d="M23.3983 41.9979L23.3008 42.096H23.3983V41.9979Z" fill="#D32030"/>
        <path d="M26.084 39.3126H26.1814V39.2147L26.084 39.3126Z" fill="#D32030"/>
        <path d="M38.5919 26.9968H38.498V27.0912L38.5919 26.9968Z" fill="#D32030"/>
        <path d="M23.4934 24.2141L23.3975 24.1176V24.2141H23.4934Z" fill="#D32030"/>
        <path d="M26.1816 26.9009V26.9969H26.2777L26.1816 26.9009Z" fill="#D32030"/>
        <path d="M41.2793 56.5038V63.7892C44.7622 62.8142 48.0094 61.2773 50.9139 59.2749L43.02 51.381C42.3892 53.5973 42.1584 54.7431 41.2793 56.5038Z" fill="#252F6C"/>
        <path d="M43.0616 14.8848L51.679 6.26727C48.5831 4.00006 45.0711 2.27228 41.2793 1.21004V8.69393C42.2928 10.7235 42.378 12.2656 43.0616 14.8848Z" fill="#252F6C"/>
        <path d="M58.5983 51.8683C60.7685 48.9489 62.4599 45.6534 63.5585 42.0962H48.8262L58.5983 51.8683Z" fill="#252F6C"/>
        <path d="M63.9293 24.214C62.943 20.4654 61.3025 16.9857 59.1405 13.8959L48.8213 24.214H63.9293Z" fill="#252F6C"/>
        <path d="M44.959 39.8634L47.1923 42.0967L57.8824 52.7868C58.1252 52.483 58.3663 52.1803 58.5983 51.8688L48.8262 42.0967H63.5585C63.8393 41.1858 64.0778 40.2566 64.2789 39.3133H45.1678C45.1366 39.7079 44.9964 39.4714 44.959 39.8634Z" fill="#E7E7E7"/>
        <path d="M42.724 16.5146L52.413 6.82453C52.1702 6.63626 51.9271 6.44895 51.6791 6.26727L43.0616 14.8848C43.151 15.2255 42.6409 16.1656 42.724 16.5146Z" fill="#E7E7E7"/>
        <path d="M41.2795 8.09512V1.20952C40.3677 0.954012 39.4394 0.737474 38.4961 0.560867V3.91955C39.5317 5.04231 40.46 6.45256 41.2795 8.09512Z" fill="#E7E7E7"/>
        <path d="M44.7402 26.997H64.5272C64.3665 26.0548 64.1705 25.1259 63.9309 24.2135H48.8229L59.1421 13.8954C58.1276 12.4462 57.0002 11.0833 55.7686 9.82045L44.1455 21.4425C44.4585 23.5506 44.5986 24.7749 44.7402 26.997Z" fill="#E7E7E7"/>
        <path d="M42.5498 50.9103L50.9138 59.2753C52.305 58.3172 53.6151 57.2509 54.8375 56.0932L43.8359 45.0911C43.4847 47.1258 43.0681 49.0912 42.5498 50.9103Z" fill="#E7E7E7"/>
        <path d="M38.4971 60.6941V64.4375C39.4402 64.262 40.3681 64.0444 41.2805 63.7889V56.5035C40.4605 58.1468 39.5321 59.5728 38.4971 60.6941Z" fill="#E7E7E7"/>
        <path d="M44.146 21.4423L55.768 9.82035C54.7217 8.74575 53.5999 7.74567 52.4135 6.82449L43.2812 15.9582C43.6872 17.6547 43.8714 19.5966 44.146 21.4423Z" fill="#D71F28"/>
        <path d="M30.8779 0.0403332C31.4194 0.0139509 31.9593 0 32.4995 0C31.9561 0 31.4153 0.0139509 30.8779 0.0403332Z" fill="#D32030"/>
        <path d="M32.4995 65.0002C31.9591 65.0002 31.4193 64.9853 30.8789 64.9589C31.4163 64.9863 31.9561 65.0002 32.4995 65.0002Z" fill="#D32030"/>
        <path d="M32.5 65C34.5505 65 36.5529 64.8014 38.4978 64.4375V60.6941C36.7906 62.5445 34.7934 65 32.5 65Z" fill="#D32030"/>
        <path d="M64.5265 26.9968H44.9968C45.2554 31.0729 45.2241 35.2644 44.9033 39.3126H64.2793C64.7483 37.1147 64.9997 34.8374 64.9997 32.5004C64.9997 30.6232 64.8324 28.7872 64.5265 26.9968Z" fill="#D71F28"/>
        <path d="M44.9597 39.8633C44.7791 41.7836 44.1499 43.2799 43.8369 45.0914L54.8385 56.093C55.927 55.0615 56.9445 53.9582 57.8826 52.7867L47.1928 42.0961L44.9597 39.8633Z" fill="#D71F28"/>
        <path d="M38.4969 4.16116V0.561381C36.5526 0.198562 34.5502 0 32.499 0C34.7924 0 36.7896 2.31125 38.4969 4.16116Z" fill="#D32030"/>
        <path d="M41.2793 57.9093C42.1583 56.1482 42.9121 54.1207 43.5433 51.9048L41.2793 49.6408V57.9093Z" fill="#29337A"/>
        <path d="M43.8251 14.1211C43.1405 11.5019 42.2928 9.12078 41.2793 7.09125V16.6657L43.8251 14.1211Z" fill="#29337A"/>
        <path d="M45.59 40.4935C45.6269 40.1015 45.6602 39.7079 45.6921 39.3127H44.4092L45.59 40.4935Z" fill="white"/>
        <path d="M41.2795 16.6658V7.09079C40.4595 5.44823 39.5317 4.03702 38.4961 2.91522V20.7414L44.0859 15.1516C44.0018 14.8026 43.9134 14.4608 43.8252 14.1201L41.2795 16.6658Z" fill="white"/>
        <path d="M38.5908 26.9969H45.7853C45.6442 24.775 45.4195 22.5889 45.1069 20.4813L38.5908 26.9969Z" fill="white"/>
        <path d="M38.4971 62.0842C39.5327 60.9615 40.4605 59.5512 41.2805 57.9087V49.6401L43.5446 51.9042C44.0638 50.084 44.4995 48.1396 44.8516 46.105L38.4972 39.751L38.4971 62.0842Z" fill="white"/>
        <path d="M38.4974 62.0843V39.751L44.8513 46.1054C45.1638 44.2934 45.4097 42.4143 45.5897 40.4935L44.4089 39.3127H45.6918C46.0125 35.2644 46.0438 31.0729 45.7853 26.9969H38.5908L45.1064 20.4813C44.8319 18.6349 44.4922 16.8491 44.0863 15.1521L38.4975 20.7419V2.91572C36.79 1.06527 34.7929 0 32.4995 0C31.9591 0 31.4192 0.0138596 30.8779 0.0400692C29.2794 0.120071 27.7117 0.316712 26.1814 0.618466V26.901L9.16762 9.88764C8.12226 10.9663 7.14989 12.1157 6.26 13.3304L17.1436 24.214L19.928 26.9975H0.473146C0.168373 28.7873 0 30.6233 0 32.5005C0 34.838 0.252491 37.1148 0.720423 39.3127H26.084L9.72187 55.6748C10.7933 56.7273 11.934 57.7075 13.1416 58.6044L26.181 45.565V64.3806C27.7112 64.6823 29.2799 64.8788 30.8784 64.959C31.4188 64.9852 31.9587 65 32.499 65C34.7929 65 36.79 63.9347 38.4974 62.0843Z" fill="#E51D35"/>
    </g>
    <defs>
        <clipPath id="clip0">
            <rect width="65" height="65" fill="white"/>
        </clipPath>
    </defs>
</svg>
