<svg width="14" height="20" viewBox="0 0 14 20" fill="none"
    xmlns="http://www.w3.org/2000/svg">
    <path d="M7.10916 13.3093H11.2329C12.2534 13.3093 13.0806 12.5733 13.0806 11.6654C13.0806 10.7575 12.2534 10.0215 11.2329 10.0215H6.7845C6.5443 9.26765 6.18875 8.55004 5.71996 7.89035C4.07183 5.58456 4.66001 4.74883 5.46736 4.03051C6.57896 3.04142 8.3787 3.04127 9.49048 4.03051C10.2122 4.67258 11.3821 4.6725 12.1035 4.03051C12.825 3.38852 12.8251 2.34761 12.1035 1.70562C9.54776 -0.568385 5.41043 -0.568698 2.85429 1.70562C0.195994 4.07083 0.565444 6.80576 2.59931 9.65091C2.68439 9.77068 2.7612 9.895 2.83388 10.0214H1.84792C0.827464 10.0214 0.000228026 10.7574 0.000228026 11.6653C0.000228026 12.5732 0.827464 13.3093 1.84792 13.3093H3.38915C3.17816 14.609 2.35876 16.3459 1.08605 16.8584C0.29269 17.1779 -0.142221 17.9466 0.0420201 18.7038C0.224853 19.4555 0.971759 20 1.85029 20L11.2354 19.9893C12.2558 19.9881 13.0819 19.2512 13.0807 18.3432C13.0794 17.4431 12.2613 16.7014 11.2306 16.7014L6.02325 16.7074C6.61627 15.6575 6.98598 14.4754 7.10916 13.3093Z" fill="#262C31"/>
</svg>
