<svg width="253" height="292" viewBox="0 0 253 292" fill="none"
    xmlns="http://www.w3.org/2000/svg">
    <path d="M35.7122 285.917L35.5195 277.642L20 277.892L20.1541 290.011L21.1175 290.059C25.4044 290.223 42.918 290.608 45.7599 289.693C48.9389 288.691 35.7122 285.917 35.7122 285.917Z" fill="#F27348"/>
    <g opacity="0.4">
        <path opacity="0.4" d="M42.1774 287.516C42.1774 287.516 46.8207 288.768 46.2524 289.539C45.684 290.31 27.9488 290.589 20.1553 290.03V289.684L40.8191 289.539C40.8191 289.539 41.2719 287.564 42.1774 287.516Z" fill="white"/>
    </g>
    <path d="M19.9238 289.674C20.0134 289.686 20.1041 289.686 20.1936 289.674H20.9643L23.7869 289.751C26.1663 289.799 29.4609 289.818 33.0928 289.751C36.7246 289.683 40.0289 289.577 42.4084 289.462L45.2213 289.298L45.992 289.24H46.2521H45.992H45.2213L42.3987 289.346C40.0193 289.433 36.7342 289.529 33.0928 289.587C29.4513 289.645 26.1663 289.635 23.7869 289.587H20.9643H19.9238V289.674Z" fill="#263238"/>
    <path d="M40.8387 289.77C40.9507 289.299 41.1188 288.843 41.3396 288.412C41.6211 288.013 41.9441 287.645 42.3029 287.314C41.836 287.497 41.4477 287.838 41.2048 288.277C40.8975 288.71 40.7666 289.244 40.8387 289.77Z" fill="#263238"/>
    <path d="M36.2241 287.526C36.2241 287.526 36.4842 287.285 36.7058 286.919C36.8625 286.714 36.9712 286.477 37.0237 286.225C37.0237 286.225 36.7636 286.466 36.542 286.823C36.3205 287.179 36.1759 287.497 36.2241 287.526Z" fill="#263238"/>
    <path d="M34.9238 286.88C34.9238 286.88 35.2032 286.755 35.4729 286.505C35.7427 286.254 35.9161 286.033 35.8775 285.994C35.839 285.955 35.6078 286.129 35.3381 286.37C35.0683 286.611 34.9238 286.88 34.9238 286.88Z" fill="#263238"/>
    <path d="M34.1436 285.426C34.1436 285.484 34.5 285.522 34.9528 285.522C35.2263 285.548 35.5022 285.515 35.762 285.426C35.762 285.368 35.3959 285.33 34.9528 285.33C34.6792 285.301 34.4028 285.334 34.1436 285.426Z" fill="#263238"/>
    <path d="M33.8545 284.404C34.1264 284.571 34.4412 284.655 34.76 284.645C35.0872 284.708 35.4259 284.66 35.7234 284.51C35.4209 284.462 35.1141 284.446 34.8082 284.462C34.4935 284.407 34.1736 284.388 33.8545 284.404Z" fill="#263238"/>
    <path d="M36.7236 286.167C37.0427 286.219 37.368 286.219 37.687 286.167C38.0576 286.122 38.4225 286.038 38.7756 285.917C38.9854 285.857 39.1862 285.77 39.3728 285.657C39.4316 285.624 39.4832 285.58 39.5246 285.527C39.566 285.474 39.5963 285.413 39.6137 285.348C39.6294 285.275 39.6232 285.198 39.5958 285.128C39.5684 285.058 39.5211 284.997 39.4596 284.954C39.0765 284.771 38.6415 284.727 38.2299 284.831C37.8183 284.935 37.4559 285.179 37.2053 285.522C37.0559 285.719 36.9507 285.945 36.897 286.187C36.878 286.276 36.878 286.367 36.897 286.456C37.0024 286.151 37.1517 285.862 37.3402 285.599C37.563 285.335 37.8574 285.141 38.1879 285.04C38.3789 284.968 38.5826 284.936 38.7864 284.946C38.9902 284.956 39.1898 285.008 39.3728 285.098C39.5366 285.214 39.4788 285.397 39.2958 285.512C39.1228 285.614 38.9385 285.695 38.7466 285.753C38.4136 285.874 38.0724 285.97 37.7255 286.042C37.109 286.129 36.7236 286.129 36.7236 286.167Z" fill="#263238"/>
    <path d="M36.9853 286.206C37.1065 285.996 37.1444 285.749 37.0912 285.512C37.0516 285.254 36.9563 285.008 36.8119 284.79C36.7282 284.641 36.6065 284.517 36.4593 284.431C36.312 284.344 36.1445 284.299 35.9738 284.299C35.8718 284.319 35.7822 284.38 35.7245 284.466C35.6668 284.553 35.6456 284.659 35.6655 284.761C35.6949 284.92 35.7572 285.071 35.8485 285.204C35.9818 285.424 36.1438 285.625 36.3302 285.801C36.4859 285.976 36.6806 286.111 36.8985 286.196C36.8985 286.196 36.7059 286.023 36.4265 285.705C36.2586 285.528 36.113 285.33 35.993 285.117C35.8581 284.905 35.7522 284.53 35.993 284.482C36.2338 284.433 36.5036 284.694 36.6577 284.896C36.8034 285.085 36.9024 285.306 36.9467 285.541C36.9851 285.761 36.9981 285.984 36.9853 286.206Z" fill="#263238"/>
    <path d="M20.1738 285.426C20.1738 285.426 20.617 285.378 21.3202 285.426C22.2366 285.511 23.1101 285.854 23.8398 286.415C24.5694 286.976 25.1253 287.732 25.4433 288.595C25.6841 289.26 25.7131 289.703 25.7516 289.703C25.7726 289.598 25.7726 289.49 25.7516 289.385C25.7224 289.104 25.6643 288.826 25.5782 288.557C25.2809 287.65 24.721 286.852 23.9694 286.264C23.2119 285.688 22.2992 285.352 21.3491 285.301C21.0643 285.267 20.7766 285.267 20.4917 285.301C20.3797 285.325 20.2722 285.367 20.1738 285.426Z" fill="#263238"/>
    <path d="M21.6874 278.942C21.5893 280.002 21.5603 281.067 21.6006 282.131C21.5713 283.195 21.6067 284.26 21.7067 285.32C21.8351 283.196 21.8351 281.066 21.7067 278.942H21.6874Z" fill="#263238"/>
    <path d="M27.708 288.277C28.4517 288.434 29.2125 288.496 29.9719 288.46C30.7325 288.49 31.4938 288.419 32.2358 288.248C32.2358 288.19 31.2242 288.248 29.9719 288.248C28.7195 288.248 27.708 288.219 27.708 288.277Z" fill="#263238"/>
    <path d="M24.6631 288.316C24.6631 288.316 24.7498 288.528 24.8558 288.759C24.9617 288.99 25.0196 289.202 25.0774 289.192C25.1352 289.183 25.1544 288.952 25.0774 288.682C25.0003 288.412 24.692 288.277 24.6631 288.316Z" fill="#263238"/>
    <path d="M23.499 286.88C23.499 286.88 23.5663 287.073 23.7297 287.236C23.893 287.399 24.0468 287.495 24.0852 287.457C24.1237 287.419 24.018 287.265 23.8546 287.101C23.6912 286.938 23.5375 286.88 23.499 286.88Z" fill="#263238"/>
    <path d="M21.8411 286.283C21.8411 286.341 22.0627 286.331 22.2939 286.408C22.5251 286.485 22.6889 286.601 22.7274 286.572C22.766 286.543 22.6311 286.322 22.3517 286.225C22.0723 286.129 21.8315 286.235 21.8411 286.283Z" fill="#263238"/>
    <path d="M20.6748 285.994C20.6748 286.042 20.742 286.119 20.8766 286.167C21.0111 286.215 21.1265 286.215 21.1361 286.167C21.1457 286.119 21.0688 286.042 20.9439 285.994C20.8189 285.946 20.694 285.917 20.6748 285.994Z" fill="#263238"/>
    <g opacity="0.3">
        <path opacity="0.3" d="M20.1945 285.011L35.685 284.51L35.6369 282.642L20.0596 284.029L20.1945 285.011Z" fill="black"/>
    </g>
    <path d="M50.125 284.222L52.7549 276.361L38.0735 271.342L34.1045 282.786L34.9908 283.162C38.9694 284.771 55.3174 291.071 58.3038 291.177C61.6369 291.302 50.125 284.222 50.125 284.222Z" fill="#F27348"/>
    <g opacity="0.4">
        <path opacity="0.4" d="M55.6738 287.892C55.6738 287.892 59.6139 290.657 58.8239 291.187C58.034 291.717 41.2718 285.975 34.1045 282.786L34.2393 282.468L53.7279 289.337C53.7279 289.337 54.8068 287.642 55.6738 287.892Z" fill="white"/>
    </g>
    <path d="M34.0098 282.382L34.2602 282.497L34.9635 282.786L37.5934 283.817C39.8188 284.674 42.9111 285.811 46.3502 286.996C49.7894 288.181 52.9299 289.183 55.2034 289.886L57.9104 290.686L58.6522 290.888L58.9123 290.955C58.8322 290.915 58.7483 290.883 58.6618 290.859L57.9297 290.618L55.2516 289.77C52.9781 289.038 49.8472 288.017 46.408 286.832C42.9689 285.647 39.8766 284.539 37.6416 283.711L34.9924 282.748L34.2699 282.488C34.1888 282.44 34.1012 282.404 34.0098 282.382Z" fill="#263238"/>
    <path d="M53.6514 289.568C53.9278 289.163 54.2511 288.791 54.6147 288.461C55.0052 288.181 55.4252 287.945 55.8671 287.757C55.3608 287.798 54.8794 287.994 54.4882 288.318C54.097 288.642 53.8149 289.079 53.6802 289.568H53.6514Z" fill="#263238"/>
    <path d="M50.0658 285.917C50.0658 285.917 50.3934 285.773 50.721 285.512C51.0485 285.252 51.299 285.002 51.2604 284.954C51.2219 284.906 50.9329 285.098 50.6054 285.358C50.2778 285.618 50.0369 285.84 50.0658 285.917Z" fill="#263238"/>
    <path d="M49.0928 284.848C49.0928 284.896 49.401 284.848 49.7286 284.684C50.0561 284.52 50.3163 284.385 50.297 284.337C50.2777 284.289 49.9887 284.337 49.6611 284.511C49.3336 284.684 49.0735 284.8 49.0928 284.848Z" fill="#263238"/>
    <path d="M48.8252 283.21C48.8252 283.258 49.1335 283.412 49.5573 283.566C49.8025 283.689 50.0732 283.752 50.3473 283.749C50.3473 283.701 50.039 283.538 49.6151 283.393C49.3694 283.272 49.0991 283.209 48.8252 283.21Z" fill="#263238"/>
    <path d="M48.9014 282.141C48.9014 282.141 49.1807 282.478 49.6624 282.68C49.9555 282.843 50.2933 282.907 50.6257 282.863C50.3531 282.722 50.0696 282.603 49.778 282.507C49.4982 282.357 49.2046 282.234 48.9014 282.141Z" fill="#263238"/>
    <path d="M51.0117 284.771C51.31 284.936 51.6368 285.044 51.9751 285.088C52.3297 285.165 52.6911 285.207 53.054 285.214C53.2715 285.241 53.4916 285.241 53.7091 285.214C53.7764 285.202 53.8409 285.178 53.8988 285.141C53.9566 285.105 54.0067 285.057 54.0462 285.002C54.0865 284.938 54.1079 284.865 54.1079 284.79C54.1079 284.715 54.0865 284.641 54.0462 284.578C53.7472 284.278 53.3533 284.09 52.9317 284.048C52.51 284.006 52.0868 284.112 51.7342 284.347C51.5236 284.478 51.3457 284.656 51.214 284.867C51.1567 284.94 51.1172 285.026 51.0984 285.117C51.2963 284.863 51.5337 284.642 51.8017 284.462C52.0939 284.292 52.427 284.206 52.765 284.212C53.1774 284.217 53.5715 284.383 53.8632 284.674C53.9692 284.838 53.8632 284.992 53.6513 285.04C53.4494 285.059 53.2462 285.059 53.0444 285.04C52.6897 285.042 52.3354 285.016 51.9847 284.963C51.3778 284.867 51.0214 284.742 51.0117 284.771Z" fill="#263238"/>
    <path d="M51.2336 284.954C51.2336 284.954 51.4648 284.78 51.5708 284.337C51.6329 284.081 51.6329 283.813 51.5708 283.557C51.5376 283.389 51.4629 283.233 51.3535 283.101C51.2441 282.97 51.1035 282.868 50.9446 282.806C50.8427 282.794 50.7405 282.824 50.6596 282.886C50.5788 282.949 50.5255 283.041 50.5111 283.143C50.4703 283.301 50.4703 283.466 50.5111 283.624C50.5634 283.875 50.6476 284.118 50.7615 284.347C50.8549 284.565 50.9965 284.76 51.1758 284.915C51.1758 284.915 51.0409 284.674 50.8868 284.289C50.7958 284.062 50.728 283.826 50.6845 283.586C50.6267 283.345 50.6845 282.96 50.9061 282.998C51.1276 283.037 51.3107 283.374 51.3877 283.605C51.4618 283.832 51.4816 284.073 51.4455 284.308C51.3962 284.53 51.3252 284.746 51.2336 284.954Z" fill="#263238"/>
    <path d="M35.6836 278.47C35.6836 278.47 36.1171 278.576 36.7625 278.875C37.5915 279.271 38.2927 279.892 38.7865 280.667C39.2804 281.442 39.547 282.339 39.5563 283.258C39.5563 283.971 39.4406 284.395 39.4695 284.404C39.5237 284.313 39.5598 284.211 39.5756 284.106C39.6405 283.831 39.676 283.55 39.6815 283.268C39.7173 282.311 39.4595 281.366 38.9429 280.561C38.4264 279.755 37.6756 279.126 36.7915 278.759C36.5318 278.644 36.2605 278.557 35.9822 278.499C35.885 278.473 35.7841 278.463 35.6836 278.47Z" fill="#263238"/>
    <path d="M39.3077 272.883C38.8622 273.849 38.4731 274.84 38.1421 275.85C37.7669 276.844 37.4453 277.857 37.1787 278.885C37.6241 277.919 38.0133 276.928 38.3443 275.918C38.7226 274.925 39.0442 273.912 39.3077 272.883Z" fill="#263238"/>
    <path d="M41.8018 283.701C42.4492 284.108 43.145 284.431 43.8729 284.665C44.5805 284.949 45.3221 285.14 46.079 285.233C46.079 285.175 45.1156 284.905 43.9404 284.491C42.7651 284.077 41.8307 283.653 41.8018 283.701Z" fill="#263238"/>
    <path d="M38.9316 282.709C38.9316 282.709 38.9316 282.94 38.9316 283.19C38.9316 283.441 38.9316 283.663 38.9894 283.672C39.0472 283.682 39.1436 283.47 39.1147 283.171C39.0858 282.873 38.9702 282.68 38.9316 282.709Z" fill="#263238"/>
    <path d="M38.3047 280.985C38.3047 280.985 38.3047 281.196 38.4008 281.398C38.4969 281.6 38.6218 281.753 38.6603 281.734C38.6987 281.715 38.6602 281.523 38.5737 281.321C38.4873 281.119 38.3527 280.965 38.3047 280.985Z" fill="#263238"/>
    <path d="M36.9658 279.838C36.9658 279.896 37.158 279.953 37.3406 280.107C37.5232 280.261 37.6482 280.424 37.6962 280.405C37.7443 280.386 37.6962 280.136 37.456 279.963C37.2157 279.79 36.9658 279.79 36.9658 279.838Z" fill="#263238"/>
    <path d="M35.9648 279.174C35.9648 279.174 35.9648 279.318 36.0898 279.404C36.2147 279.491 36.3108 279.529 36.3492 279.491C36.3877 279.452 36.3493 279.347 36.2147 279.26C36.0802 279.174 35.9937 279.174 35.9648 279.174Z" fill="#263238"/>
    <g opacity="0.3">
        <path opacity="0.3" d="M35.8389 278.085L50.5877 282.863L51.1753 281.091L36.0411 277.112L35.8389 278.085Z" fill="black"/>
    </g>
    <path d="M61.1851 130.886L42.8815 131.676L14.877 130.886L18.0753 284.376L40.6368 283.624C40.6368 283.624 40.6368 281.929 40.6368 278.923L52.5534 282.006C52.5534 282.006 75.0091 235.89 79.8451 216.238C83.92 199.842 61.1851 130.886 61.1851 130.886ZM40.5983 255.475C40.2226 220.053 41.8025 159.805 42.3227 152.397C42.3227 152.397 56.1371 205.439 56.2624 209.62C56.3491 212.202 46.6482 236.69 40.5983 255.475Z" fill="#263238"/>
    <path d="M40.4898 245.457C40.5547 245.948 40.5837 246.444 40.5764 246.94C40.5764 247.971 40.5764 249.339 40.6535 251.005C40.7113 254.425 40.7402 259.165 40.7595 264.396C40.7787 269.627 40.7595 274.357 40.7595 277.787C40.7595 279.443 40.7595 280.811 40.7017 281.842C40.7142 282.338 40.6884 282.834 40.6246 283.326C40.5596 282.834 40.5307 282.338 40.5379 281.842C40.5379 280.811 40.5379 279.443 40.4512 277.777C40.403 274.357 40.3645 269.617 40.3549 264.386C40.3452 259.155 40.3549 254.425 40.3549 251.005C40.3549 249.339 40.3549 247.971 40.4127 246.94C40.4001 246.444 40.4259 245.948 40.4898 245.457Z" fill="#455A64"/>
    <path d="M29.6245 132.966C29.6718 133.228 29.6718 133.495 29.6245 133.756C29.5575 134.477 29.4088 135.188 29.1813 135.876C28.4304 138.179 26.8917 140.144 24.8355 141.425C22.7794 142.706 20.3374 143.221 17.9391 142.879C17.2202 142.788 16.5151 142.61 15.839 142.349C15.5871 142.273 15.3495 142.156 15.1357 142.003C16.0671 142.253 17.0129 142.446 17.968 142.581C20.2881 142.829 22.6245 142.293 24.6045 141.059C26.5846 139.824 28.0941 137.962 28.8923 135.77C29.1984 134.853 29.443 133.916 29.6245 132.966Z" fill="#455A64"/>
    <path d="M44.3548 133.198C44.4188 133.459 44.448 133.728 44.4415 133.997C44.4415 134.517 44.4993 135.269 44.5282 136.194C44.5282 138.043 44.6149 140.606 44.6342 143.438V147.426C44.705 148.548 44.4472 149.666 43.8924 150.644C43.6847 150.967 43.4122 151.243 43.0921 151.455C42.7721 151.668 42.4115 151.811 42.0331 151.877C41.484 151.935 41.2142 151.78 41.2239 151.761C41.4853 151.768 41.7467 151.749 42.0042 151.703C42.6756 151.517 43.2466 151.074 43.5937 150.47C44.0716 149.527 44.2815 148.471 44.2007 147.417C44.2007 146.183 44.2007 144.844 44.2007 143.438C44.2007 140.606 44.2007 138.053 44.2007 136.194C44.2007 135.23 44.2006 134.517 44.2488 134.007C44.2482 133.733 44.2838 133.461 44.3548 133.198Z" fill="#455A64"/>
    <path d="M62.8606 142.754C62.6566 142.789 62.4481 142.789 62.2441 142.754C61.6787 142.712 61.1179 142.622 60.5679 142.484C58.7469 142.037 57.0359 141.224 55.5392 140.095C54.0337 138.975 52.7773 137.555 51.8496 135.924C51.5599 135.434 51.3179 134.918 51.1271 134.382C50.9922 134.007 50.9344 133.795 50.9633 133.785C50.9922 133.775 51.3583 134.575 52.1097 135.76C54.0902 138.864 57.1243 141.149 60.6546 142.195C61.9936 142.59 62.8606 142.677 62.8606 142.754Z" fill="#455A64"/>
    <path d="M40.2884 134.729C40.2884 134.797 39.7681 134.883 39.4695 135.567C39.3843 135.75 39.3401 135.949 39.3401 136.15C39.3401 136.352 39.3843 136.551 39.4695 136.733C39.6057 136.923 39.7923 137.071 40.0082 137.16C40.2241 137.249 40.4606 137.277 40.6911 137.238C40.9216 137.2 41.1368 137.099 41.3125 136.945C41.4882 136.791 41.6173 136.591 41.6852 136.367C41.7103 136.168 41.6913 135.965 41.6297 135.774C41.5681 135.582 41.4654 135.407 41.3288 135.259C40.8375 134.71 40.2884 134.806 40.298 134.729C40.3076 134.652 40.404 134.633 40.6448 134.643C40.987 134.662 41.3114 134.802 41.56 135.038C41.7539 135.211 41.9038 135.428 41.9976 135.671C42.0914 135.914 42.1263 136.176 42.0995 136.434C42.024 136.751 41.8562 137.039 41.6174 137.261C41.3785 137.482 41.0793 137.628 40.7576 137.68C40.4358 137.731 40.106 137.686 39.8099 137.55C39.5137 137.414 39.2645 137.194 39.0938 136.916C38.9887 136.679 38.941 136.42 38.9544 136.16C38.9677 135.901 39.0419 135.648 39.1708 135.423C39.3291 135.122 39.5884 134.887 39.903 134.758C40.1535 134.672 40.2884 134.672 40.2884 134.729Z" fill="#455A64"/>
    <path d="M118.502 93.179C117.914 91.068 109 93.0865 108.239 93.2015C107.478 93.3165 107.28 92.2165 107.977 92.1456C108.975 92.0485 119.487 90.777 118.934 88.7043C118.623 87.55 116.605 88.3002 116.605 88.3002C116.605 88.3002 106.858 90.2064 106.627 89.2189C106.397 88.2314 112.081 86.9041 114.028 86.5901C115.975 86.2761 116.589 85.2456 115.746 84.5087C115.174 84.009 109.188 84.8066 107.268 85.1547C105.347 85.5028 100.102 86.5607 102.264 83.9339C104.426 81.3072 105.102 78.479 104.753 77.5838C104.403 76.6886 103.04 76.8558 102.762 77.8769C102.361 78.9517 101.809 79.964 101.123 80.8835C100.607 81.6486 99.9629 82.3187 99.2187 82.8643C98.8394 83.1415 98.4897 83.3795 98.1528 83.613C91.6473 83.936 55.4467 85.7191 51.7414 85.7323C47.644 85.7387 25.4632 66.5146 25.4632 66.5146L13.8106 80.5573C13.8106 80.5573 35.1356 101.027 41.4584 104.55C46.608 107.423 83.5121 100.622 96.9328 98.014C101.504 98.3682 106.091 98.4768 110.674 98.3393C115.732 98.0253 115.721 97.5602 115.591 97.0063C115.266 95.4601 106.684 97.2108 108.299 95.7643C109.915 94.3179 118.953 94.7965 118.502 93.179Z" fill="#FFB28B"/>
    <path d="M11.3084 82.8487L30.2849 101.6L45.0905 82.115C45.0905 82.115 37.6726 74.5799 30.4143 67.9127C25.1575 63.0851 14.9015 60.4491 11.0462 66.4624C5.26681 72.3197 7.55984 78.8857 11.3084 82.8487Z" fill="#455A64"/>
    <path d="M29.0807 100.391C29.8837 99.5049 30.6252 98.565 31.3 97.5779C32.639 95.8168 34.5286 93.4226 36.6907 90.8174C38.8528 88.2122 40.7556 85.835 42.1207 84.0865C42.8988 83.1749 43.5975 82.1985 44.2091 81.1678C43.34 81.9884 42.5326 82.872 41.7934 83.8114C40.354 85.4921 38.3686 87.8189 36.2283 90.4453C34.0881 93.0717 32.2468 95.5212 30.9948 97.3456C30.2563 98.2939 29.615 99.3141 29.0807 100.391Z" fill="#263238"/>
    <path d="M7.75477 77.5688C7.75477 77.5688 7.65878 76.9239 7.55911 75.7534C7.48198 74.1189 7.72346 72.485 8.2701 70.9427C9.0482 68.6501 10.5131 66.6526 12.4659 65.2215C14.8739 63.4922 17.8258 62.6913 20.7776 62.9666C22.297 63.1341 23.7759 63.5635 25.1487 64.2358C26.4376 64.8473 27.6602 65.5896 28.7974 66.451C30.7106 67.9673 32.5139 69.6173 34.1938 71.3885C35.6685 72.8785 36.8673 74.0753 37.724 74.8723C38.1523 75.2708 38.4667 75.5504 38.733 75.7747C38.8429 75.888 38.9711 75.9822 39.1121 76.0533C38.7361 75.578 38.3261 75.1306 37.8853 74.7147L34.4911 71.1039C32.8335 69.2774 31.0358 67.5832 29.1143 66.0368C26.738 64.092 23.874 62.8361 20.8337 62.4056C17.7564 62.1288 14.6838 62.9845 12.1925 64.8121C10.5217 66.0789 9.20215 67.7516 8.35892 69.6714C7.51569 71.5912 7.17678 73.6946 7.37429 75.7821C7.41977 76.234 7.4971 76.682 7.60578 77.1229C7.63705 77.277 7.6871 77.4268 7.75477 77.5688Z" fill="#263238"/>
    <path d="M42.5782 79.6242C42.6997 79.6827 39.1518 83.8127 34.6858 88.7624C30.2197 93.7121 26.5139 97.6593 26.3924 97.6008C26.2709 97.5424 29.8274 93.4165 34.2935 88.4668C38.7596 83.5171 42.482 79.5352 42.5782 79.6242Z" fill="#FAFAFA"/>
    <path d="M40.6788 77.9939C40.7916 78.0482 37.2119 82.0667 32.7223 86.8875C28.2327 91.7083 24.4948 95.5224 24.3986 95.4334C24.3025 95.3444 27.8568 91.3564 32.3551 86.5398C36.8534 81.7232 40.574 77.9007 40.6788 77.9939Z" fill="#FAFAFA"/>
    <path d="M99.5977 83.9584L99.0802 90.4887L111.257 95.191L124.36 73.2836C124.506 73.0411 124.64 72.7591 124.75 72.4647C124.861 72.1704 124.943 71.8737 124.99 71.6034C125.036 71.3331 125.045 71.0983 125.016 70.9217C124.987 70.7452 124.921 70.6328 124.824 70.5955L112.905 65.9927C112.793 65.9496 112.645 66.0076 112.48 66.1594C112.315 66.3113 112.14 66.5501 111.977 66.8456L102.612 83.7764L100.328 82.6789C100.276 82.6555 100.208 82.679 100.131 82.7463C100.054 82.8136 99.9714 82.9219 99.8938 83.0579C99.8163 83.1938 99.7469 83.3515 99.6943 83.5115C99.6416 83.6715 99.6081 83.8268 99.5977 83.9584Z" fill="#455A64"/>
    <path d="M13.7306 135.423C13.0755 129.643 13.9907 107.65 13.9907 107.65C13.1718 97.1781 9.65562 85.7817 9.03908 78.1713C6.92935 52.4307 27.15 53.1821 27.15 53.1821L33.6911 52.4403C40.4345 57.3148 47.4477 60.5517 48.5941 67.7093L62.8613 132.966L13.7306 135.423Z" fill="#455A64"/>
    <path d="M17.5137 54.762C18.4399 54.9731 19.3863 55.083 20.3363 55.0896L27.1471 55.5231C29.806 55.6868 32.2047 55.8602 33.9484 56.024C34.8835 56.1541 35.8269 56.2153 36.771 56.207C35.8768 55.884 34.9439 55.68 33.9965 55.6001C32.2625 55.3304 29.8541 55.0896 27.1857 54.9258C24.5172 54.762 22.0992 54.6946 20.3459 54.6657C19.401 54.6049 18.4523 54.6372 17.5137 54.762Z" fill="#263238"/>
    <g opacity="0.2">
        <path opacity="0.2" d="M15.9658 81.2829L44.7891 103.238L41.6872 87.6795L15.9658 81.2829Z" fill="black"/>
    </g>
    <path d="M52.1628 23.9122C53.2497 23.3426 54.2129 22.5632 54.9968 21.6191C55.7807 20.675 56.3697 19.585 56.7298 18.4119C57.0712 17.233 57.1224 15.989 56.879 14.786C56.6357 13.583 56.1049 12.4567 55.3321 11.5032C54.5338 10.5698 53.486 9.88313 52.3115 9.52368C51.137 9.16422 49.8844 9.14685 48.7003 9.47358C46.6489 10.1037 44.8902 11.8563 42.7372 11.7102C40.7479 11.561 38.8838 9.74544 37.0001 10.407C35.933 10.7821 35.2782 11.8756 34.2701 12.4105C32.9894 13.0984 31.4195 12.7629 29.9746 12.967C28.9556 13.1237 27.9959 13.5461 27.1921 14.1918C26.3883 14.8375 25.7688 15.6835 25.3961 16.6448C24.6259 18.7068 25.0863 20.9852 25.4226 23.1463C25.7589 25.3075 25.8779 27.7038 24.5627 29.4987" fill="#263238"/>
    <path d="M22.4072 54.2333L26.373 19.4142L27.5712 18.8032C35.6602 14.6877 39.583 12.2111 47.0831 17.2461C48.7479 18.5293 50.0544 20.2194 50.8768 22.1538C51.6992 24.0882 52.0097 26.2017 51.7786 28.2909C51.2264 33.3187 50.4378 39.9129 49.6354 43.8832C48.2057 50.929 40.9478 50.7212 40.9478 50.7212L38.3444 61.8292L22.4072 54.2333Z" fill="#FFBE9D"/>
    <path d="M48.7156 32.0924C48.5926 31.9278 48.5211 31.7306 48.5101 31.5255C48.4991 31.3203 48.549 31.1166 48.6536 30.9398C48.7582 30.763 48.9127 30.6211 49.0978 30.5321C49.2829 30.443 49.4902 30.4107 49.6936 30.4392C49.897 30.4678 50.0874 30.5559 50.2409 30.6925C50.3943 30.8291 50.5038 31.008 50.5557 31.2068C50.6076 31.4055 50.5995 31.6152 50.5324 31.8093C50.4653 32.0034 50.3423 32.1734 50.1788 32.2977C49.9571 32.4632 49.679 32.5344 49.405 32.4959C49.131 32.4575 48.8832 32.3125 48.7156 32.0924Z" fill="#263238"/>
    <path d="M50.9656 30.7102C50.8269 30.8125 50.2376 30.1444 49.2611 29.9601C48.2845 29.7758 47.4932 30.1401 47.4039 29.9972C47.3145 29.8543 47.5352 29.7397 47.8684 29.5528C48.3398 29.3327 48.8692 29.2693 49.3793 29.3717C49.8893 29.4742 50.3532 29.7372 50.7031 30.1222C50.9378 30.4041 50.9962 30.6501 50.9656 30.7102Z" fill="#263238"/>
    <path d="M39.8468 29.5285C39.9969 29.6682 40.1024 29.8491 40.1499 30.0485C40.1975 30.2479 40.1851 30.4569 40.1144 30.6493C40.0436 30.8417 39.9175 31.0089 39.752 31.1299C39.5865 31.2509 39.389 31.3203 39.1842 31.3294C38.9794 31.3385 38.7764 31.2869 38.6008 31.1811C38.4253 31.0752 38.2848 30.9199 38.1972 30.7345C38.1097 30.5492 38.0788 30.3421 38.1085 30.1392C38.1382 29.9364 38.2272 29.7468 38.3643 29.5944C38.5522 29.3892 38.814 29.267 39.0919 29.2547C39.3699 29.2423 39.6414 29.3408 39.8468 29.5285Z" fill="#263238"/>
    <path d="M40.5373 29.4907C40.4073 29.5974 39.8093 28.9248 38.8328 28.7405C37.8562 28.5562 37.065 28.9205 36.9756 28.7777C36.8863 28.6348 37.1025 28.5288 37.4357 28.3418C37.9073 28.1192 38.4374 28.0525 38.9494 28.1512C39.4624 28.2569 39.9291 28.5214 40.2834 28.9071C40.5395 29.2106 40.6023 29.4481 40.5373 29.4907Z" fill="#263238"/>
    <path d="M42.656 38.5289C43.1968 38.4318 43.7495 38.4216 44.2935 38.4987C44.5562 38.5137 44.7717 38.4938 44.8072 38.3605C44.8634 38.1058 44.8491 37.8406 44.7659 37.5934C44.6291 36.9072 44.5011 36.204 44.3646 35.4748C43.9468 33.6615 43.713 31.8106 43.667 29.9503C44.2656 31.7064 44.6858 33.5182 44.9213 35.3585L45.2707 37.4939C45.3744 37.8421 45.3593 38.2148 45.228 38.5534C45.1725 38.6437 45.0965 38.7196 45.0063 38.775C44.916 38.8304 44.814 38.8638 44.7084 38.8725C44.5604 38.8905 44.4105 38.8835 44.2649 38.8518C43.7137 38.8405 43.1689 38.7312 42.656 38.5289Z" fill="#263238"/>
    <path d="M40.9831 50.6528C37.7064 50.0392 34.676 48.4942 32.2549 46.2026C32.2549 46.2026 33.3707 51.6916 40.5474 52.377L40.9831 50.6528Z" fill="#EB996E"/>
    <path d="M47.9339 28.1788C48.0577 28.4257 48.2514 28.6306 48.4909 28.7681C48.7304 28.9056 49.0051 28.9695 49.2807 28.952C49.8964 28.9956 50.5224 28.8282 50.7242 28.3688C50.926 27.9093 50.3756 27.2286 49.4068 27.1564C48.438 27.0841 47.7697 27.695 47.9339 28.1788Z" fill="#263238"/>
    <path d="M37.8837 26.7857C38.1344 27.2272 38.8057 27.3315 39.4814 27.4273C40.1571 27.5231 40.8378 27.5241 41.1725 27.1433C41.2819 26.9288 41.3014 26.6359 41.0325 26.315C40.6762 25.9332 40.1946 25.6922 39.6754 25.6359C39.1563 25.5797 38.6341 25.7119 38.2043 26.0084C37.8792 26.2644 37.7821 26.5609 37.8837 26.7857Z" fill="#263238"/>
    <path d="M38.5998 37.7044C38.4448 37.6902 38.4308 38.9266 39.3874 39.9983C40.3441 41.07 41.5449 41.2173 41.5634 41.0537C41.582 40.8901 40.6108 40.568 39.83 39.5968C39.0492 38.6256 38.7856 37.6369 38.5998 37.7044Z" fill="#263238"/>
    <path d="M52.1605 23.9123C49.6451 24.9223 45.893 23.7554 43.7954 22.0371C42.3186 20.8192 41.1053 18.957 39.2026 18.7654C37.2998 18.5738 36.2229 19.6468 35.3704 21.2126C34.875 22.0424 34.0745 22.6453 33.1401 22.8924C32.2058 23.1395 31.2119 23.0111 30.371 22.5348C29.7837 25.9984 29.6508 28.6556 27.8575 31.5367C27.5303 32.0512 26.6409 32.2898 26.1088 32.5699C25.8485 32.7232 25.5447 32.7861 25.245 32.7487C24.9452 32.7112 24.6663 32.5757 24.4517 32.363C24.2969 32.1082 24.1984 31.8232 24.1628 31.5272C24.1272 31.2311 24.1554 30.9309 24.2454 30.6467C24.9056 27.231 25.0991 23.4369 25.7335 20.0081C26.0255 18.7777 26.6362 17.6458 27.5042 16.7262C28.5698 15.6939 29.9142 14.9961 31.3716 14.7187C34.1349 13.7748 37.0028 13.1709 39.912 12.9203C42.8495 12.6835 45.773 13.5209 48.1396 15.277C50.4387 17.1304 52.8964 20.1785 51.9698 22.9501" fill="#32444D"/>
    <path d="M27.0469 28.6135C26.9267 28.5522 22.255 26.538 21.5874 31.4528C21.0198 35.705 25.7539 35.7939 25.7894 35.6607C25.825 35.5274 27.0469 28.6135 27.0469 28.6135Z" fill="#FFBE9D"/>
    <path d="M24.639 33.3553C24.639 33.3553 24.5569 33.3891 24.4231 33.4182C24.2358 33.4528 24.0424 33.4159 23.881 33.3149C23.4824 33.0575 23.316 32.3023 23.4168 31.5319C23.4859 31.177 23.6344 30.8424 23.851 30.553C23.9195 30.434 24.0154 30.3329 24.1305 30.2582C24.2457 30.1834 24.377 30.1371 24.5136 30.123C24.6008 30.1214 24.6859 30.1493 24.7552 30.2023C24.8244 30.2553 24.8736 30.3301 24.8948 30.4147C24.9239 30.5485 24.8759 30.6213 24.893 30.6301C24.9102 30.6388 25.0011 30.5878 25.0068 30.4069C25.0064 30.2991 24.9675 30.1949 24.8971 30.1131C24.8027 30.0054 24.6707 29.9381 24.5281 29.925C24.3508 29.9227 24.1757 29.9646 24.0186 30.0469C23.8616 30.1291 23.7274 30.2491 23.6283 30.3961C23.3636 30.7054 23.1761 31.0731 23.0813 31.4689C22.9283 32.2992 23.1756 33.1714 23.7333 33.4774C23.8354 33.5331 23.9486 33.5655 24.0647 33.5724C24.1809 33.5793 24.2971 33.5604 24.4051 33.5172C24.608 33.4584 24.6518 33.3726 24.639 33.3553Z" fill="#EB996E"/>
    <path d="M99.4179 87.7098L103.043 89.373C105.258 90.1663 108.66 90.9514 110.905 90.6241C112.131 90.437 113.001 90.1316 113.21 89.3941C113.315 89.0324 113.279 88.6443 113.108 88.3084C112.938 87.9725 112.646 87.7139 112.292 87.5852C112.292 87.5852 114.643 88.2794 114.832 86.4483C114.953 85.2128 113.101 84.8103 113.101 84.8103C113.101 84.8103 116.372 85.0946 116.725 83.7276C116.811 83.4568 116.806 83.1655 116.71 82.8981C116.615 82.6306 116.435 82.4018 116.197 82.2464C118.042 82.031 118.35 81.2742 118.203 80.496C118.032 79.4917 116.832 79.0242 115.816 78.8537L112.381 78.2953C110.249 77.9522 108.367 78.2688 111.607 76.3361C114.847 74.4034 116.573 71.663 116.568 70.6222C116.538 70.3773 116.432 70.1482 116.264 69.9671C116.097 69.7861 115.877 69.6624 115.635 69.6135C115.393 69.5647 115.142 69.5931 114.917 69.6949C114.692 69.7966 114.505 69.9666 114.383 70.1805C113.561 71.1546 112.606 72.0088 111.547 72.7184C110.724 73.3267 109.801 73.7875 108.82 74.0804C107.67 74.4236 106.683 74.6609 105.838 74.847L101.17 76.4354L99.4179 87.7098Z" fill="#FFBE9D"/>
    <path d="M116.077 78.9834L111.796 78.365C111.279 78.2485 110.744 78.2354 110.222 78.3263C109.962 78.3716 109.719 78.4904 109.524 78.6688C109.329 78.8472 109.189 79.0778 109.12 79.3332C109.095 79.5997 109.146 79.8679 109.267 80.1066C109.388 80.3454 109.574 80.5449 109.804 80.6821C110.269 80.9442 110.779 81.1141 111.308 81.1826L115.83 82.0758" fill="#FFBE9D"/>
    <path d="M113.797 81.5797L109.254 80.875C108.702 80.7495 108.131 80.7339 107.573 80.8292C107.293 80.8774 107.033 81.0059 106.825 81.1992C106.617 81.3925 106.469 81.6422 106.4 81.9178C106.373 82.2005 106.427 82.4851 106.555 82.7383C106.684 82.9915 106.882 83.2027 107.127 83.3472C107.62 83.6251 108.162 83.8059 108.724 83.8797L113.549 84.8274" fill="#FFBE9D"/>
    <path d="M112.222 84.4637L108.405 83.8716C107.939 83.7686 107.458 83.7559 106.987 83.8344C106.745 83.8601 106.519 83.9638 106.342 84.1298C106.164 84.2957 106.046 84.515 106.004 84.7542C105.963 84.9935 106 85.2398 106.111 85.4559C106.222 85.6719 106.4 85.846 106.619 85.9517C107.035 86.1838 107.49 86.3367 107.962 86.4028L112.016 87.2004" fill="#FFBE9D"/>
    <path d="M112.25 87.2372L108.425 86.6402C107.963 86.5384 107.487 86.5247 107.02 86.5996C106.78 86.6255 106.554 86.7287 106.377 86.8937C106.201 87.0587 106.082 87.2766 106.04 87.5146C105.997 87.7527 106.033 87.9981 106.142 88.214C106.251 88.4299 106.427 88.6047 106.644 88.712C107.059 88.9545 107.518 89.1096 107.995 89.1679L112.049 89.9656" fill="#FFBE9D"/>
    <path d="M116.62 82.1495C115.56 82.2037 114.497 82.0872 113.474 81.8044C112.419 81.6801 111.389 81.394 110.421 80.9559C111.482 80.9017 112.544 81.0182 113.567 81.301C114.623 81.4253 115.652 81.7114 116.62 82.1495Z" fill="#EB996E"/>
    <path d="M113.642 84.8382C112.686 84.9541 111.715 84.8727 110.791 84.5989C109.835 84.4774 108.912 84.1688 108.075 83.6906C109.032 83.689 109.985 83.8288 110.901 84.1053C111.846 84.2119 112.77 84.4589 113.642 84.8382Z" fill="#EB996E"/>
    <path d="M112.554 87.538C112.528 87.6788 111.589 87.5653 110.458 87.3052C109.753 87.2156 109.078 86.9691 108.481 86.5837C108.549 86.4672 109.45 86.5481 110.577 86.8165C111.283 86.9004 111.96 87.1474 112.554 87.538Z" fill="#EB996E"/>
    <path d="M118.503 90.6485C117.915 88.5376 109.001 90.5561 108.24 90.6711C107.479 90.7861 107.281 89.686 107.978 89.6151C108.976 89.5181 119.488 88.2465 118.935 86.1738C118.624 85.0195 116.606 85.7698 116.606 85.7698C116.606 85.7698 106.859 87.676 106.628 86.6885C106.398 85.701 112.082 84.3736 114.029 84.0596C115.976 83.7456 116.59 82.7151 115.747 81.9782C115.175 81.4785 109.189 82.2762 107.269 82.6243C105.348 82.9723 100.103 84.0302 102.265 81.4035C104.427 78.7767 105.103 75.9485 104.754 75.0533C104.404 74.1581 103.041 74.3254 102.763 75.3464C102.362 76.4212 101.81 77.4335 101.124 78.353C100.608 79.1181 99.9639 79.7882 99.2196 80.3338C98.8404 80.611 98.4907 80.849 98.1538 81.0825C91.6483 81.4055 55.4477 83.1886 51.7424 83.2019C47.6449 83.2082 25.4642 63.9841 25.4642 63.9841L13.8116 78.0268C13.8116 78.0268 35.1366 98.4963 41.4594 102.019C46.6089 104.893 83.5131 98.092 96.9338 95.4836C101.505 95.8378 106.092 95.9463 110.675 95.8088C115.733 95.4949 115.722 95.0297 115.592 94.4758C115.267 92.9296 106.685 94.6803 108.3 93.2339C109.916 91.7874 118.954 92.266 118.503 90.6485Z" fill="#FFBE9D"/>
    <path d="M11.3094 80.3183L30.2859 99.0698L45.0915 79.5845C45.0915 79.5845 37.6735 72.0494 30.4153 65.3822C25.1585 60.5546 14.9024 57.9186 11.0471 63.9319C5.26779 69.7892 7.56082 76.3553 11.3094 80.3183Z" fill="#455A64"/>
    <path d="M29.0807 97.8603C29.8837 96.9744 30.6252 96.0346 31.3 95.0475C32.639 93.2864 34.5286 90.8921 36.6907 88.2869C38.8528 85.6817 40.7556 83.3046 42.1207 81.556C42.8988 80.6445 43.5975 79.668 44.2091 78.6374C43.34 79.458 42.5326 80.3416 41.7934 81.2809C40.354 82.9617 38.3686 85.2884 36.2283 87.9148C34.0881 90.5412 32.2468 92.9907 30.9948 94.8151C30.2563 95.7634 29.615 96.7836 29.0807 97.8603Z" fill="#263238"/>
    <path d="M7.7577 75.038C7.7577 75.038 7.66171 74.3932 7.56204 73.2227C7.48491 71.5882 7.72639 69.9543 8.27303 68.412C9.05113 66.1194 10.5161 64.1219 12.4688 62.6908C14.8768 60.9614 17.8287 60.1606 20.7805 60.4358C22.2999 60.6033 23.7788 61.0328 25.1517 61.7051C26.4405 62.3166 27.6632 63.0589 28.8004 63.9202C30.7135 65.4366 32.5168 67.0866 34.1968 68.8578C35.6715 70.3477 36.8703 71.5445 37.7269 72.3415C38.1552 72.74 38.4697 73.0196 38.7359 73.2439C38.8459 73.3573 38.974 73.4515 39.115 73.5226C38.739 73.0473 38.329 72.5999 37.8882 72.184L34.494 68.5732C32.8365 66.7467 31.0387 65.0525 29.1172 63.5061C26.7409 61.5613 23.8769 60.3053 20.8366 59.8748C17.7593 59.5981 14.6867 60.4537 12.1955 62.2813C10.5246 63.5482 9.20508 65.2209 8.36185 67.1407C7.51862 69.0605 7.17971 71.1639 7.37722 73.2514C7.4227 73.7032 7.50002 74.1512 7.60871 74.5922C7.63998 74.7463 7.69003 74.896 7.7577 75.038Z" fill="#263238"/>
    <path d="M125.098 28.6218L248.173 17.7955C249.649 17.6657 250.92 18.826 250.925 20.3075L251.097 72.1657C251.102 73.6721 249.798 74.8492 248.3 74.69L125.052 61.5953C123.766 61.4586 122.79 60.3732 122.79 59.0793L122.79 31.1422C122.79 29.8308 123.792 28.7368 125.098 28.6218Z" fill="white"/>
    <path d="M121.846 63.3876L249.313 75.7627C250.803 75.9074 252.093 74.7328 252.087 73.2352L251.891 19.4375C251.885 17.9349 250.579 16.7682 249.085 16.9316L121.846 30.8576V63.3876ZM250.115 71.3009C250.12 72.7845 248.853 73.9543 247.375 73.8313L121.846 63.3876V30.8576L247.166 18.863C248.648 18.7212 249.932 19.8837 249.937 21.3727L250.115 71.3009Z" fill="#263238"/>
    <path d="M151.273 45.0394C151.262 46.8209 150.733 48.559 149.753 50.0341C148.774 51.5093 147.388 52.6552 145.771 53.3274C144.154 53.9995 142.377 54.1676 140.667 53.8105C138.956 53.4534 137.387 52.5871 136.158 51.321C134.93 50.0549 134.096 48.4457 133.764 46.6968C133.431 44.9478 133.613 43.1374 134.288 41.4943C134.963 39.8511 136.1 38.4489 137.556 37.4647C139.012 36.4804 140.721 35.9583 142.467 35.9642C144.811 35.9881 147.05 36.9548 148.699 38.6541C150.348 40.3535 151.273 42.6481 151.273 45.0394Z" fill="#F27348"/>
    <path d="M143.149 45.1404C143.513 44.977 143.822 44.7085 144.038 44.368C144.254 44.0276 144.368 43.6301 144.365 43.2245C144.365 42.711 144.165 42.2186 143.809 41.8555C143.453 41.4924 142.97 41.2885 142.467 41.2885C141.964 41.2885 141.481 41.4924 141.125 41.8555C140.769 42.2186 140.569 42.711 140.569 43.2245C140.56 43.6341 140.669 44.0373 140.884 44.3836C141.098 44.7299 141.409 45.0037 141.775 45.1706C138.81 45.6143 138.968 48.8712 138.968 48.8712H145.887C145.887 48.8712 146.045 45.6042 143.149 45.1404Z" fill="white"/>
    <g filter="url(#filter0_d)">
        <path d="M236.163 53.1439C236.255 50.0584 233.711 47.5425 230.626 47.6701L211.714 48.453C208.926 48.5684 206.701 50.819 206.618 53.6083L206.51 57.1955C206.427 59.9848 208.513 62.3644 211.289 62.6465L230.121 64.5596C233.192 64.8716 235.882 62.5125 235.975 59.427L236.163 53.1439Z" fill="#26474E"/>
    </g>
    <path d="M214.343 57.9076C214.017 57.8907 213.703 57.831 213.401 57.7286C213.103 57.6226 212.865 57.494 212.688 57.3429L213.05 56.6404C213.22 56.7793 213.425 56.8944 213.664 56.9856C213.904 57.0769 214.145 57.1288 214.389 57.1414C214.66 57.1555 214.863 57.1266 214.997 57.0547C215.131 56.9789 215.201 56.8742 215.208 56.7405C215.213 56.6423 215.178 56.5596 215.103 56.4927C215.031 56.422 214.936 56.3638 214.816 56.3182C214.7 56.2728 214.541 56.2212 214.339 56.1634C214.029 56.0725 213.775 55.9844 213.579 55.8993C213.382 55.8143 213.215 55.6854 213.078 55.5128C212.946 55.3404 212.886 55.1166 212.9 54.8415C212.913 54.6017 212.989 54.3889 213.129 54.203C213.269 54.0132 213.471 53.8681 213.736 53.7675C214.006 53.6672 214.329 53.6268 214.706 53.6464C214.97 53.66 215.225 53.7048 215.474 53.7808C215.722 53.8567 215.937 53.9585 216.12 54.0862L215.788 54.7961C215.418 54.5602 215.042 54.4323 214.661 54.4125C214.393 54.3987 214.193 54.4316 214.058 54.5114C213.928 54.5913 213.859 54.702 213.852 54.8435C213.845 54.985 213.912 55.0949 214.054 55.1732C214.2 55.2478 214.422 55.3263 214.721 55.4088C215.032 55.4998 215.285 55.5878 215.482 55.6729C215.679 55.758 215.844 55.8848 215.977 56.0533C216.114 56.2219 216.175 56.4439 216.161 56.719C216.149 56.9548 216.071 57.1675 215.927 57.3571C215.787 57.543 215.583 57.6861 215.313 57.7864C215.044 57.8868 214.721 57.9271 214.343 57.9076ZM221.887 55.0473L220.573 58.1596L219.688 58.1138L219.077 56.1076L218.238 58.0386L217.354 57.9927L216.374 54.7615L217.241 54.8064L217.878 56.9913L218.768 54.8856L219.546 54.926L220.19 57.1112L221.073 55.0052L221.887 55.0473ZM223.493 55.0833C223.984 55.1088 224.355 55.2463 224.606 55.4958C224.858 55.7413 224.971 56.0999 224.947 56.5716L224.853 58.3816L223.992 58.3369L224.012 57.9419C223.824 58.2277 223.494 58.3584 223.023 58.334C222.779 58.3213 222.569 58.2691 222.392 58.1771C222.22 58.0854 222.09 57.9644 222.003 57.8141C221.916 57.6638 221.878 57.4962 221.887 57.3115C221.903 57.0167 222.025 56.7905 222.254 56.6329C222.486 56.4755 222.835 56.4089 223.298 56.4329L224.03 56.4708C224.04 56.2704 223.987 56.1139 223.871 56.0015C223.754 55.8851 223.575 55.8206 223.331 55.808C223.162 55.7992 222.993 55.8181 222.825 55.8645C222.662 55.9073 222.52 55.9709 222.402 56.0554L222.105 55.3956C222.284 55.2827 222.495 55.1991 222.739 55.1447C222.986 55.0905 223.237 55.0701 223.493 55.0833ZM223.285 57.7268C223.442 57.735 223.583 57.7068 223.709 57.6424C223.834 57.5741 223.926 57.4705 223.985 57.3316L224.002 57.0073L223.371 56.9746C222.994 56.9551 222.798 57.0691 222.786 57.3167C222.779 57.4346 222.82 57.5313 222.907 57.6067C222.997 57.6784 223.123 57.7185 223.285 57.7268ZM227.727 55.3029C228.022 55.3182 228.285 55.4008 228.518 55.5508C228.755 55.6971 228.935 55.8976 229.06 56.1523C229.185 56.4032 229.239 56.6917 229.222 57.0179C229.205 57.3442 229.122 57.6275 228.971 57.868C228.821 58.1046 228.621 58.2853 228.37 58.4102C228.123 58.5314 227.852 58.5844 227.557 58.5691C227.153 58.5481 226.841 58.4039 226.622 58.1364L226.545 59.6162L225.626 59.5685L225.85 55.2528L226.728 55.2984L226.709 55.6639C226.951 55.4006 227.291 55.2803 227.727 55.3029ZM227.437 57.8062C227.673 57.8184 227.87 57.7498 228.027 57.6003C228.189 57.4471 228.277 57.2369 228.291 56.9696C228.305 56.7024 228.239 56.4861 228.094 56.321C227.953 56.1521 227.764 56.0615 227.529 56.0493C227.293 56.037 227.094 56.1075 226.932 56.2607C226.775 56.4102 226.689 56.6186 226.675 56.8859C226.661 57.1531 226.725 57.3712 226.866 57.5401C227.011 57.7053 227.202 57.794 227.437 57.8062Z" fill="white"/>
    <path d="M171.996 40.1096C172.872 40.2105 173.768 40.2361 174.66 40.1856C176.359 40.1342 178.822 40.0597 181.878 40.0769C187.984 39.8921 196.408 39.7313 205.712 39.3558C215.016 38.9804 223.462 38.7249 229.565 38.4463L236.775 38.0873C237.67 38.0832 238.564 37.9982 239.429 37.8348C238.551 37.7482 237.657 37.7279 236.766 37.7744C235.067 37.8258 232.577 37.8072 229.523 37.8683C223.441 38.0523 214.994 38.2295 205.689 38.5893C196.384 38.9491 187.964 39.2195 181.86 39.4981C178.807 39.5904 176.348 39.7588 174.65 39.8571C173.756 39.8758 172.866 39.9605 171.996 40.1096Z" fill="#263238"/>
    <path d="M106.807 29.7826L106.213 32.6256C106.169 32.9134 106.064 33.1886 105.907 33.4336C105.749 33.6786 105.542 33.8878 105.299 34.0478C105.055 34.2077 104.781 34.3149 104.494 34.3623C104.206 34.4097 103.912 34.3963 103.63 34.323C103.348 34.2647 103.081 34.1513 102.843 33.9894C102.605 33.8274 102.401 33.62 102.243 33.3791C102.085 33.1381 101.977 32.8684 101.924 32.5854C101.87 32.3025 101.874 32.0117 101.933 31.73L102.881 27.1793C102.881 27.1793 102.881 27.1792 102.943 27.1063C103.006 27.0335 102.943 27.1064 102.943 27.0022C103.078 26.4427 103.421 25.956 103.904 25.6422C104.386 25.3284 104.97 25.2114 105.536 25.3152C106.837 25.5914 108.194 25.3395 109.309 24.615C110.424 23.8905 111.206 22.7526 111.482 21.4518C111.758 20.1509 111.507 18.7937 110.782 17.6786C110.058 16.5634 108.92 15.7818 107.619 15.5056C106.768 15.3293 105.886 15.3789 105.06 15.6492C104.234 15.9196 103.494 16.4015 102.912 17.0468C102.725 17.2799 102.493 17.4724 102.229 17.6126C101.966 17.7529 101.676 17.8379 101.379 17.8626C101.081 17.8872 100.782 17.8509 100.498 17.756C100.215 17.661 99.9545 17.5093 99.732 17.3101C99.5095 17.111 99.3299 16.8686 99.2042 16.5977C99.0785 16.3269 99.0093 16.0332 99.0009 15.7347C98.9925 15.4362 99.045 15.1392 99.1552 14.8616C99.2655 14.5841 99.4311 14.332 99.642 14.1206C100.678 12.9641 101.984 12.0828 103.444 11.5561C104.905 11.0293 106.473 10.8735 108.008 11.1027C109.544 11.3319 110.998 11.9388 112.241 12.869C113.483 13.7993 114.476 15.0236 115.128 16.4321C115.781 17.8407 116.074 19.3892 115.98 20.9388C115.886 22.4883 115.409 23.9902 114.591 25.3097C113.773 26.6292 112.64 27.7248 111.294 28.4983C109.948 29.2718 108.431 29.6988 106.879 29.741L106.807 29.7826ZM104.818 39.3631L104.651 40.1546C104.598 40.4393 104.488 40.7103 104.327 40.9513C104.167 41.1923 103.959 41.3983 103.717 41.5569C103.475 41.7155 103.203 41.8234 102.918 41.8742C102.633 41.9249 102.34 41.9173 102.058 41.852C101.491 41.7293 100.995 41.3886 100.678 40.9034C100.36 40.4182 100.246 39.8275 100.361 39.259L100.527 38.4676C100.657 37.906 101 37.4169 101.484 37.104C101.968 36.7911 102.555 36.6788 103.12 36.791C103.685 36.9089 104.181 37.2454 104.499 37.7273C104.817 38.2091 104.931 38.7972 104.818 39.3631Z" fill="#76CDCD"/>
    <path d="M118.672 35.0224L117.536 36.7488C117.432 36.9276 117.291 37.0825 117.123 37.2036C116.956 37.3247 116.765 37.4092 116.563 37.4516C116.361 37.4941 116.153 37.4936 115.952 37.4501C115.751 37.4066 115.562 37.3212 115.396 37.1993C115.226 37.0873 115.08 36.9426 114.967 36.7734C114.853 36.6043 114.774 36.414 114.733 36.2135C114.693 36.0131 114.693 35.8064 114.732 35.6053C114.772 35.4042 114.85 35.2127 114.963 35.0417L116.78 32.2776C116.78 32.2776 116.78 32.2776 116.84 32.2457C116.9 32.2137 116.84 32.2457 116.867 32.1768C117.102 31.8416 117.455 31.6091 117.854 31.5271C118.253 31.445 118.667 31.5197 119.012 31.7358C119.793 32.2573 120.749 32.4441 121.671 32.2551C122.593 32.0661 123.405 31.5168 123.928 30.7281C124.451 29.9393 124.642 28.9757 124.459 28.0493C124.276 27.1228 123.735 26.3094 122.954 25.7879C122.442 25.4497 121.85 25.2528 121.237 25.2166C120.624 25.1805 120.011 25.3064 119.46 25.5819C119.276 25.6875 119.073 25.7544 118.864 25.7785C118.654 25.8027 118.442 25.7836 118.24 25.7224C118.038 25.6612 117.851 25.5592 117.69 25.4226C117.529 25.2861 117.398 25.1178 117.304 24.9281C117.21 24.7384 117.156 24.5313 117.145 24.3193C117.133 24.1074 117.165 23.8951 117.238 23.6954C117.311 23.4957 117.423 23.3128 117.569 23.1579C117.714 23.003 117.889 22.8793 118.083 22.7944C119.066 22.2989 120.154 22.056 121.251 22.0878C122.348 22.1195 123.418 22.4248 124.365 22.9762C125.312 23.5277 126.107 24.3079 126.679 25.247C127.25 26.1861 127.58 27.2545 127.638 28.3564C127.697 29.4582 127.482 30.559 127.014 31.5597C126.546 32.5605 125.838 33.4299 124.955 34.09C124.072 34.75 123.041 35.18 121.955 35.3412C120.868 35.5025 119.761 35.39 118.731 35.0138L118.672 35.0224ZM114.852 40.8431L114.535 41.3234C114.425 41.4979 114.282 41.6486 114.113 41.7662C113.945 41.8839 113.754 41.9661 113.554 42.008C113.353 42.0498 113.146 42.0504 112.946 42.0097C112.745 41.969 112.556 41.8879 112.388 41.7712C112.048 41.5425 111.812 41.1879 111.731 40.7842C111.65 40.3805 111.73 39.96 111.954 39.6136L112.271 39.1334C112.504 38.7956 112.858 38.5614 113.257 38.4804C113.657 38.3994 114.072 38.4779 114.413 38.6993C114.753 38.9245 114.99 39.2762 115.072 39.6778C115.154 40.0794 115.075 40.4983 114.852 40.8431Z" fill="#76CDCD"/>
    <path d="M96.262 35.0114L96.4838 37.1566C96.5167 37.3706 96.5066 37.588 96.4539 37.795C96.4013 38.0019 96.3073 38.1937 96.1781 38.3581C96.0489 38.5224 95.8873 38.6555 95.7038 38.7489C95.5203 38.8423 95.3189 38.8938 95.1127 38.9002C94.9096 38.9174 94.7041 38.8923 94.508 38.8266C94.3119 38.7608 94.1291 38.6556 93.9699 38.517C93.8107 38.3784 93.6784 38.2091 93.5806 38.0189C93.4827 37.8287 93.4213 37.6213 93.3997 37.4085L93.043 33.9751C93.043 33.9751 93.043 33.9751 93.0692 33.9102C93.0954 33.8454 93.0692 33.9102 93.0464 33.8362C93.0146 33.4103 93.14 32.9928 93.3968 32.6694C93.6536 32.3461 94.0222 32.1415 94.4268 32.0978C95.365 32.0241 96.2258 31.5631 96.8196 30.8162C97.4135 30.0693 97.6919 29.0977 97.5935 28.1151C97.4951 27.1326 97.028 26.2195 96.295 25.5769C95.562 24.9342 94.6231 24.6146 93.6849 24.6883C93.0722 24.7396 92.4878 24.9581 91.9897 25.3219C91.4917 25.6857 91.0974 26.1822 90.8461 26.762C90.7711 26.9665 90.6565 27.1517 90.5093 27.3062C90.3622 27.4607 90.1854 27.5813 89.99 27.6606C89.7946 27.74 89.5846 27.7764 89.3728 27.7676C89.1609 27.7588 88.9518 27.7051 88.758 27.6097C88.5643 27.5143 88.39 27.3792 88.2459 27.2126C88.1018 27.0461 87.9908 26.8516 87.9198 26.641C87.8488 26.4305 87.8192 26.2083 87.8328 25.988C87.8465 25.7677 87.9031 25.554 87.9991 25.3598C88.4447 24.3222 89.1334 23.4241 90.0035 22.7462C90.8735 22.0683 91.8976 21.6318 92.9838 21.4759C94.07 21.3201 95.1843 21.4497 96.2265 21.8532C97.2687 22.2568 98.2063 22.9215 98.955 23.7878C99.7037 24.654 100.24 25.6947 100.516 26.8162C100.792 27.9378 100.799 29.1052 100.535 30.2135C100.272 31.3218 99.7479 32.3363 99.009 33.1659C98.2701 33.9956 97.3399 34.6143 96.3021 34.9666L96.262 35.0114ZM97.017 42.2385L97.0778 42.836C97.1044 43.0494 97.0894 43.2651 97.0339 43.4698C96.9783 43.6746 96.8833 43.8642 96.7545 44.0273C96.6257 44.1905 96.4659 44.3237 96.2846 44.419C96.1033 44.5142 95.9043 44.5696 95.6997 44.5817C95.2904 44.6122 94.8812 44.4728 94.5607 44.1937C94.2402 43.9146 94.034 43.5181 93.9867 43.09L93.9259 42.4925C93.8905 42.0662 94.015 41.6471 94.2731 41.324C94.5312 41.0009 94.9026 40.7992 95.3086 40.7616C95.7157 40.728 96.1238 40.8645 96.4439 41.1411C96.7639 41.4178 96.9699 41.8123 97.017 42.2385Z" fill="#76CDCD"/>
    <path d="M167.114 152.8V164H165.402L159.226 156.416V164H157.162V152.8H158.874L165.05 160.384V152.8H167.114ZM177.955 159.776C177.955 159.915 177.945 160.112 177.923 160.368H171.219C171.337 160.997 171.641 161.499 172.131 161.872C172.633 162.235 173.251 162.416 173.987 162.416C174.926 162.416 175.699 162.107 176.307 161.488L177.379 162.72C176.995 163.179 176.51 163.525 175.923 163.76C175.337 163.995 174.675 164.112 173.939 164.112C173.001 164.112 172.174 163.925 171.459 163.552C170.745 163.179 170.19 162.661 169.795 162C169.411 161.328 169.219 160.571 169.219 159.728C169.219 158.896 169.406 158.149 169.779 157.488C170.163 156.816 170.691 156.293 171.363 155.92C172.035 155.547 172.793 155.36 173.635 155.36C174.467 155.36 175.209 155.547 175.859 155.92C176.521 156.283 177.033 156.8 177.395 157.472C177.769 158.133 177.955 158.901 177.955 159.776ZM173.635 156.96C172.995 156.96 172.451 157.152 172.003 157.536C171.566 157.909 171.299 158.411 171.203 159.04H176.051C175.966 158.421 175.705 157.92 175.267 157.536C174.83 157.152 174.286 156.96 173.635 156.96ZM187.908 159.776C187.908 159.915 187.898 160.112 187.876 160.368H181.172C181.29 160.997 181.594 161.499 182.084 161.872C182.586 162.235 183.204 162.416 183.94 162.416C184.879 162.416 185.652 162.107 186.26 161.488L187.332 162.72C186.948 163.179 186.463 163.525 185.876 163.76C185.29 163.995 184.628 164.112 183.892 164.112C182.954 164.112 182.127 163.925 181.412 163.552C180.698 163.179 180.143 162.661 179.748 162C179.364 161.328 179.172 160.571 179.172 159.728C179.172 158.896 179.359 158.149 179.732 157.488C180.116 156.816 180.644 156.293 181.316 155.92C181.988 155.547 182.746 155.36 183.588 155.36C184.42 155.36 185.162 155.547 185.812 155.92C186.474 156.283 186.986 156.8 187.348 157.472C187.722 158.133 187.908 158.901 187.908 159.776ZM183.588 156.96C182.948 156.96 182.404 157.152 181.956 157.536C181.519 157.909 181.252 158.411 181.156 159.04H186.004C185.919 158.421 185.658 157.92 185.22 157.536C184.783 157.152 184.239 156.96 183.588 156.96ZM198.198 152.128V164H196.278V162.896C195.947 163.301 195.536 163.605 195.046 163.808C194.566 164.011 194.032 164.112 193.446 164.112C192.624 164.112 191.883 163.931 191.222 163.568C190.571 163.205 190.059 162.693 189.686 162.032C189.312 161.36 189.126 160.592 189.126 159.728C189.126 158.864 189.312 158.101 189.686 157.44C190.059 156.779 190.571 156.267 191.222 155.904C191.883 155.541 192.624 155.36 193.446 155.36C194.011 155.36 194.528 155.456 194.998 155.648C195.467 155.84 195.867 156.128 196.198 156.512V152.128H198.198ZM193.686 162.4C194.166 162.4 194.598 162.293 194.982 162.08C195.366 161.856 195.67 161.541 195.894 161.136C196.118 160.731 196.23 160.261 196.23 159.728C196.23 159.195 196.118 158.725 195.894 158.32C195.67 157.915 195.366 157.605 194.982 157.392C194.598 157.168 194.166 157.056 193.686 157.056C193.206 157.056 192.774 157.168 192.39 157.392C192.006 157.605 191.702 157.915 191.478 158.32C191.254 158.725 191.142 159.195 191.142 159.728C191.142 160.261 191.254 160.731 191.478 161.136C191.702 161.541 192.006 161.856 192.39 162.08C192.774 162.293 193.206 162.4 193.686 162.4ZM215.38 152.8V164H213.3V159.2H207.508V164H205.428V152.8H207.508V157.424H213.3V152.8H215.38ZM226.221 159.776C226.221 159.915 226.21 160.112 226.189 160.368H219.485C219.602 160.997 219.906 161.499 220.397 161.872C220.898 162.235 221.517 162.416 222.253 162.416C223.192 162.416 223.965 162.107 224.573 161.488L225.645 162.72C225.261 163.179 224.776 163.525 224.189 163.76C223.602 163.995 222.941 164.112 222.205 164.112C221.266 164.112 220.44 163.925 219.725 163.552C219.01 163.179 218.456 162.661 218.061 162C217.677 161.328 217.485 160.571 217.485 159.728C217.485 158.896 217.672 158.149 218.045 157.488C218.429 156.816 218.957 156.293 219.629 155.92C220.301 155.547 221.058 155.36 221.901 155.36C222.733 155.36 223.474 155.547 224.125 155.92C224.786 156.283 225.298 156.8 225.661 157.472C226.034 158.133 226.221 158.901 226.221 159.776ZM221.901 156.96C221.261 156.96 220.717 157.152 220.269 157.536C219.832 157.909 219.565 158.411 219.469 159.04H224.317C224.232 158.421 223.97 157.92 223.533 157.536C223.096 157.152 222.552 156.96 221.901 156.96ZM228.142 152.128H230.142V164H228.142V152.128ZM237.503 155.36C238.335 155.36 239.076 155.541 239.727 155.904C240.388 156.267 240.906 156.779 241.279 157.44C241.652 158.101 241.839 158.864 241.839 159.728C241.839 160.592 241.652 161.36 241.279 162.032C240.906 162.693 240.388 163.205 239.727 163.568C239.076 163.931 238.335 164.112 237.503 164.112C236.351 164.112 235.439 163.728 234.767 162.96V167.104H232.767V155.456H234.671V156.576C235.002 156.171 235.407 155.867 235.887 155.664C236.378 155.461 236.916 155.36 237.503 155.36ZM237.279 162.4C238.015 162.4 238.618 162.155 239.087 161.664C239.567 161.173 239.807 160.528 239.807 159.728C239.807 158.928 239.567 158.283 239.087 157.792C238.618 157.301 238.015 157.056 237.279 157.056C236.799 157.056 236.367 157.168 235.983 157.392C235.599 157.605 235.295 157.915 235.071 158.32C234.847 158.725 234.735 159.195 234.735 159.728C234.735 160.261 234.847 160.731 235.071 161.136C235.295 161.541 235.599 161.856 235.983 162.08C236.367 162.293 236.799 162.4 237.279 162.4ZM245.257 160.288C245.257 159.712 245.385 159.237 245.641 158.864C245.908 158.48 246.292 158.064 246.793 157.616C247.177 157.275 247.46 156.981 247.641 156.736C247.833 156.48 247.929 156.192 247.929 155.872C247.929 155.424 247.748 155.061 247.385 154.784C247.022 154.507 246.537 154.368 245.929 154.368C244.777 154.368 243.908 154.779 243.321 155.6L241.769 154.592C242.228 153.963 242.82 153.483 243.545 153.152C244.27 152.811 245.124 152.64 246.105 152.64C247.3 152.64 248.249 152.901 248.953 153.424C249.668 153.936 250.025 154.645 250.025 155.552C250.025 155.989 249.95 156.373 249.801 156.704C249.662 157.035 249.492 157.317 249.289 157.552C249.086 157.776 248.82 158.037 248.489 158.336C248.084 158.699 247.78 159.019 247.577 159.296C247.385 159.573 247.289 159.904 247.289 160.288H245.257ZM246.281 164.112C245.908 164.112 245.598 163.995 245.353 163.76C245.118 163.515 245.001 163.216 245.001 162.864C245.001 162.512 245.118 162.219 245.353 161.984C245.598 161.749 245.908 161.632 246.281 161.632C246.644 161.632 246.942 161.749 247.177 161.984C247.422 162.219 247.545 162.512 247.545 162.864C247.545 163.216 247.422 163.515 247.177 163.76C246.942 163.995 246.644 164.112 246.281 164.112Z" fill="#26474E"/>
    <path d="M139.436 189.2H143.566C144.602 189.2 145.521 189.405 146.324 189.816C147.126 190.227 147.747 190.805 148.186 191.552C148.634 192.289 148.858 193.139 148.858 194.1C148.858 195.061 148.634 195.915 148.186 196.662C147.747 197.399 147.126 197.973 146.324 198.384C145.521 198.795 144.602 199 143.566 199H139.436V189.2ZM143.482 197.782C144.275 197.782 144.97 197.628 145.568 197.32C146.174 197.012 146.641 196.583 146.968 196.032C147.294 195.472 147.458 194.828 147.458 194.1C147.458 193.372 147.294 192.733 146.968 192.182C146.641 191.622 146.174 191.188 145.568 190.88C144.97 190.572 144.275 190.418 143.482 190.418H140.836V197.782H143.482ZM153.704 199.084C152.967 199.084 152.304 198.921 151.716 198.594C151.128 198.267 150.666 197.819 150.33 197.25C150.003 196.671 149.84 196.018 149.84 195.29C149.84 194.562 150.003 193.913 150.33 193.344C150.666 192.765 151.128 192.317 151.716 192C152.304 191.673 152.967 191.51 153.704 191.51C154.441 191.51 155.099 191.673 155.678 192C156.266 192.317 156.723 192.765 157.05 193.344C157.386 193.913 157.554 194.562 157.554 195.29C157.554 196.018 157.386 196.671 157.05 197.25C156.723 197.819 156.266 198.267 155.678 198.594C155.099 198.921 154.441 199.084 153.704 199.084ZM153.704 197.908C154.18 197.908 154.605 197.801 154.978 197.586C155.361 197.362 155.659 197.054 155.874 196.662C156.089 196.261 156.196 195.803 156.196 195.29C156.196 194.777 156.089 194.324 155.874 193.932C155.659 193.531 155.361 193.223 154.978 193.008C154.605 192.793 154.18 192.686 153.704 192.686C153.228 192.686 152.799 192.793 152.416 193.008C152.043 193.223 151.744 193.531 151.52 193.932C151.305 194.324 151.198 194.777 151.198 195.29C151.198 195.803 151.305 196.261 151.52 196.662C151.744 197.054 152.043 197.362 152.416 197.586C152.799 197.801 153.228 197.908 153.704 197.908ZM169.179 191.58L165.581 199.742C165.263 200.498 164.89 201.03 164.461 201.338C164.041 201.646 163.532 201.8 162.935 201.8C162.571 201.8 162.216 201.739 161.871 201.618C161.535 201.506 161.255 201.338 161.031 201.114L161.605 200.106C161.987 200.47 162.431 200.652 162.935 200.652C163.261 200.652 163.532 200.563 163.747 200.386C163.971 200.218 164.171 199.924 164.349 199.504L164.587 198.986L161.311 191.58H162.711L165.301 197.516L167.863 191.58H169.179ZM173.126 199.084C172.388 199.084 171.726 198.921 171.138 198.594C170.55 198.267 170.088 197.819 169.752 197.25C169.425 196.671 169.262 196.018 169.262 195.29C169.262 194.562 169.425 193.913 169.752 193.344C170.088 192.765 170.55 192.317 171.138 192C171.726 191.673 172.388 191.51 173.126 191.51C173.863 191.51 174.521 191.673 175.1 192C175.688 192.317 176.145 192.765 176.472 193.344C176.808 193.913 176.976 194.562 176.976 195.29C176.976 196.018 176.808 196.671 176.472 197.25C176.145 197.819 175.688 198.267 175.1 198.594C174.521 198.921 173.863 199.084 173.126 199.084ZM173.126 197.908C173.602 197.908 174.026 197.801 174.4 197.586C174.782 197.362 175.081 197.054 175.296 196.662C175.51 196.261 175.618 195.803 175.618 195.29C175.618 194.777 175.51 194.324 175.296 193.932C175.081 193.531 174.782 193.223 174.4 193.008C174.026 192.793 173.602 192.686 173.126 192.686C172.65 192.686 172.22 192.793 171.838 193.008C171.464 193.223 171.166 193.531 170.942 193.932C170.727 194.324 170.62 194.777 170.62 195.29C170.62 195.803 170.727 196.261 170.942 196.662C171.166 197.054 171.464 197.362 171.838 197.586C172.22 197.801 172.65 197.908 173.126 197.908ZM185.47 191.58V199H184.196V197.88C183.926 198.263 183.566 198.561 183.118 198.776C182.68 198.981 182.199 199.084 181.676 199.084C180.687 199.084 179.908 198.813 179.338 198.272C178.769 197.721 178.484 196.914 178.484 195.85V191.58H179.828V195.696C179.828 196.415 180.001 196.961 180.346 197.334C180.692 197.698 181.186 197.88 181.83 197.88C182.54 197.88 183.1 197.665 183.51 197.236C183.921 196.807 184.126 196.2 184.126 195.416V191.58H185.47ZM195.191 191.51C196.134 191.51 196.88 191.785 197.431 192.336C197.991 192.877 198.271 193.675 198.271 194.73V199H196.927V194.884C196.927 194.165 196.754 193.624 196.409 193.26C196.064 192.896 195.569 192.714 194.925 192.714C194.197 192.714 193.623 192.929 193.203 193.358C192.783 193.778 192.573 194.385 192.573 195.178V199H191.229V188.612H192.573V192.63C192.853 192.275 193.217 192 193.665 191.804C194.122 191.608 194.631 191.51 195.191 191.51ZM203.18 191.51C204.207 191.51 204.991 191.762 205.532 192.266C206.083 192.77 206.358 193.521 206.358 194.52V199H205.084V198.02C204.86 198.365 204.538 198.631 204.118 198.818C203.707 198.995 203.217 199.084 202.648 199.084C201.817 199.084 201.15 198.883 200.646 198.482C200.151 198.081 199.904 197.553 199.904 196.9C199.904 196.247 200.142 195.724 200.618 195.332C201.094 194.931 201.85 194.73 202.886 194.73H205.014V194.464C205.014 193.885 204.846 193.442 204.51 193.134C204.174 192.826 203.679 192.672 203.026 192.672C202.587 192.672 202.158 192.747 201.738 192.896C201.318 193.036 200.963 193.227 200.674 193.47L200.114 192.462C200.497 192.154 200.954 191.921 201.486 191.762C202.018 191.594 202.583 191.51 203.18 191.51ZM202.872 198.048C203.385 198.048 203.829 197.936 204.202 197.712C204.575 197.479 204.846 197.152 205.014 196.732V195.696H202.942C201.803 195.696 201.234 196.079 201.234 196.844C201.234 197.217 201.379 197.511 201.668 197.726C201.957 197.941 202.359 198.048 202.872 198.048ZM214.995 191.58L211.747 199H210.375L207.127 191.58H208.527L211.075 197.53L213.679 191.58H214.995ZM222.47 195.332C222.47 195.435 222.461 195.57 222.442 195.738H216.422C216.506 196.391 216.791 196.919 217.276 197.32C217.771 197.712 218.382 197.908 219.11 197.908C219.997 197.908 220.711 197.609 221.252 197.012L221.994 197.88C221.658 198.272 221.238 198.571 220.734 198.776C220.239 198.981 219.684 199.084 219.068 199.084C218.284 199.084 217.589 198.925 216.982 198.608C216.375 198.281 215.904 197.829 215.568 197.25C215.241 196.671 215.078 196.018 215.078 195.29C215.078 194.571 215.237 193.923 215.554 193.344C215.881 192.765 216.324 192.317 216.884 192C217.453 191.673 218.093 191.51 218.802 191.51C219.511 191.51 220.141 191.673 220.692 192C221.252 192.317 221.686 192.765 221.994 193.344C222.311 193.923 222.47 194.585 222.47 195.332ZM218.802 192.644C218.158 192.644 217.617 192.84 217.178 193.232C216.749 193.624 216.497 194.137 216.422 194.772H221.182C221.107 194.147 220.851 193.638 220.412 193.246C219.983 192.845 219.446 192.644 218.802 192.644ZM230.238 191.51C231.265 191.51 232.049 191.762 232.59 192.266C233.141 192.77 233.416 193.521 233.416 194.52V199H232.142V198.02C231.918 198.365 231.596 198.631 231.176 198.818C230.765 198.995 230.275 199.084 229.706 199.084C228.875 199.084 228.208 198.883 227.704 198.482C227.209 198.081 226.962 197.553 226.962 196.9C226.962 196.247 227.2 195.724 227.676 195.332C228.152 194.931 228.908 194.73 229.944 194.73H232.072V194.464C232.072 193.885 231.904 193.442 231.568 193.134C231.232 192.826 230.737 192.672 230.084 192.672C229.645 192.672 229.216 192.747 228.796 192.896C228.376 193.036 228.021 193.227 227.732 193.47L227.172 192.462C227.555 192.154 228.012 191.921 228.544 191.762C229.076 191.594 229.641 191.51 230.238 191.51ZM229.93 198.048C230.443 198.048 230.887 197.936 231.26 197.712C231.633 197.479 231.904 197.152 232.072 196.732V195.696H230C228.861 195.696 228.292 196.079 228.292 196.844C228.292 197.217 228.437 197.511 228.726 197.726C229.015 197.941 229.417 198.048 229.93 198.048ZM239.585 191.51C240.528 191.51 241.274 191.785 241.825 192.336C242.385 192.877 242.665 193.675 242.665 194.73V199H241.321V194.884C241.321 194.165 241.148 193.624 240.803 193.26C240.458 192.896 239.963 192.714 239.319 192.714C238.591 192.714 238.017 192.929 237.597 193.358C237.177 193.778 236.967 194.385 236.967 195.178V199H235.623V191.58H236.911V192.7C237.182 192.317 237.546 192.023 238.003 191.818C238.47 191.613 238.997 191.51 239.585 191.51ZM251.302 191.58L247.704 199.742C247.386 200.498 247.013 201.03 246.584 201.338C246.164 201.646 245.655 201.8 245.058 201.8C244.694 201.8 244.339 201.739 243.994 201.618C243.658 201.506 243.378 201.338 243.154 201.114L243.728 200.106C244.11 200.47 244.554 200.652 245.058 200.652C245.384 200.652 245.655 200.563 245.87 200.386C246.094 200.218 246.294 199.924 246.472 199.504L246.71 198.986L243.434 191.58H244.834L247.424 197.516L249.986 191.58H251.302ZM156.47 208.51C157.189 208.51 157.833 208.669 158.402 208.986C158.972 209.303 159.415 209.747 159.732 210.316C160.059 210.885 160.222 211.543 160.222 212.29C160.222 213.037 160.059 213.699 159.732 214.278C159.415 214.847 158.972 215.291 158.402 215.608C157.833 215.925 157.189 216.084 156.47 216.084C155.938 216.084 155.448 215.981 155 215.776C154.562 215.571 154.188 215.272 153.88 214.88V218.716H152.536V208.58H153.824V209.756C154.123 209.345 154.501 209.037 154.958 208.832C155.416 208.617 155.92 208.51 156.47 208.51ZM156.358 214.908C156.834 214.908 157.259 214.801 157.632 214.586C158.015 214.362 158.314 214.054 158.528 213.662C158.752 213.261 158.864 212.803 158.864 212.29C158.864 211.777 158.752 211.324 158.528 210.932C158.314 210.531 158.015 210.223 157.632 210.008C157.259 209.793 156.834 209.686 156.358 209.686C155.892 209.686 155.467 209.798 155.084 210.022C154.711 210.237 154.412 210.54 154.188 210.932C153.974 211.324 153.866 211.777 153.866 212.29C153.866 212.803 153.974 213.261 154.188 213.662C154.403 214.054 154.702 214.362 155.084 214.586C155.467 214.801 155.892 214.908 156.358 214.908ZM163.087 209.826C163.321 209.397 163.666 209.07 164.123 208.846C164.581 208.622 165.136 208.51 165.789 208.51V209.812C165.715 209.803 165.612 209.798 165.481 209.798C164.753 209.798 164.179 210.017 163.759 210.456C163.349 210.885 163.143 211.501 163.143 212.304V216H161.799V208.58H163.087V209.826ZM170.275 216.084C169.538 216.084 168.875 215.921 168.287 215.594C167.699 215.267 167.237 214.819 166.901 214.25C166.575 213.671 166.411 213.018 166.411 212.29C166.411 211.562 166.575 210.913 166.901 210.344C167.237 209.765 167.699 209.317 168.287 209C168.875 208.673 169.538 208.51 170.275 208.51C171.013 208.51 171.671 208.673 172.249 209C172.837 209.317 173.295 209.765 173.621 210.344C173.957 210.913 174.125 211.562 174.125 212.29C174.125 213.018 173.957 213.671 173.621 214.25C173.295 214.819 172.837 215.267 172.249 215.594C171.671 215.921 171.013 216.084 170.275 216.084ZM170.275 214.908C170.751 214.908 171.176 214.801 171.549 214.586C171.932 214.362 172.231 214.054 172.445 213.662C172.66 213.261 172.767 212.803 172.767 212.29C172.767 211.777 172.66 211.324 172.445 210.932C172.231 210.531 171.932 210.223 171.549 210.008C171.176 209.793 170.751 209.686 170.275 209.686C169.799 209.686 169.37 209.793 168.987 210.008C168.614 210.223 168.315 210.531 168.091 210.932C167.877 211.324 167.769 211.777 167.769 212.29C167.769 212.803 167.877 213.261 168.091 213.662C168.315 214.054 168.614 214.362 168.987 214.586C169.37 214.801 169.799 214.908 170.275 214.908ZM179.638 208.51C180.357 208.51 181.001 208.669 181.57 208.986C182.139 209.303 182.583 209.747 182.9 210.316C183.227 210.885 183.39 211.543 183.39 212.29C183.39 213.037 183.227 213.699 182.9 214.278C182.583 214.847 182.139 215.291 181.57 215.608C181.001 215.925 180.357 216.084 179.638 216.084C179.087 216.084 178.583 215.977 178.126 215.762C177.669 215.547 177.291 215.235 176.992 214.824V216H175.704V205.612H177.048V209.7C177.347 209.308 177.72 209.014 178.168 208.818C178.616 208.613 179.106 208.51 179.638 208.51ZM179.526 214.908C180.002 214.908 180.427 214.801 180.8 214.586C181.183 214.362 181.481 214.054 181.696 213.662C181.92 213.261 182.032 212.803 182.032 212.29C182.032 211.777 181.92 211.324 181.696 210.932C181.481 210.531 181.183 210.223 180.8 210.008C180.427 209.793 180.002 209.686 179.526 209.686C179.059 209.686 178.635 209.793 178.252 210.008C177.869 210.223 177.571 210.531 177.356 210.932C177.141 211.324 177.034 211.777 177.034 212.29C177.034 212.803 177.141 213.261 177.356 213.662C177.571 214.054 177.869 214.362 178.252 214.586C178.635 214.801 179.059 214.908 179.526 214.908ZM184.967 205.612H186.311V216H184.967V205.612ZM195.303 212.332C195.303 212.435 195.294 212.57 195.275 212.738H189.255C189.339 213.391 189.624 213.919 190.109 214.32C190.604 214.712 191.215 214.908 191.943 214.908C192.83 214.908 193.544 214.609 194.085 214.012L194.827 214.88C194.491 215.272 194.071 215.571 193.567 215.776C193.073 215.981 192.517 216.084 191.901 216.084C191.117 216.084 190.422 215.925 189.815 215.608C189.209 215.281 188.737 214.829 188.401 214.25C188.075 213.671 187.911 213.018 187.911 212.29C187.911 211.571 188.07 210.923 188.387 210.344C188.714 209.765 189.157 209.317 189.717 209C190.287 208.673 190.926 208.51 191.635 208.51C192.345 208.51 192.975 208.673 193.525 209C194.085 209.317 194.519 209.765 194.827 210.344C195.145 210.923 195.303 211.585 195.303 212.332ZM191.635 209.644C190.991 209.644 190.45 209.84 190.011 210.232C189.582 210.624 189.33 211.137 189.255 211.772H194.015C193.941 211.147 193.684 210.638 193.245 210.246C192.816 209.845 192.279 209.644 191.635 209.644ZM206.172 208.51C207.105 208.51 207.842 208.781 208.384 209.322C208.934 209.863 209.21 210.666 209.21 211.73V216H207.866V211.884C207.866 211.165 207.698 210.624 207.362 210.26C207.035 209.896 206.564 209.714 205.948 209.714C205.266 209.714 204.725 209.929 204.324 210.358C203.922 210.778 203.722 211.385 203.722 212.178V216H202.378V211.884C202.378 211.165 202.21 210.624 201.874 210.26C201.547 209.896 201.076 209.714 200.46 209.714C199.778 209.714 199.237 209.929 198.836 210.358C198.434 210.778 198.234 211.385 198.234 212.178V216H196.89V208.58H198.178V209.686C198.448 209.303 198.803 209.014 199.242 208.818C199.68 208.613 200.18 208.51 200.74 208.51C201.318 208.51 201.832 208.627 202.28 208.86C202.728 209.093 203.073 209.434 203.316 209.882C203.596 209.453 203.983 209.117 204.478 208.874C204.982 208.631 205.546 208.51 206.172 208.51ZM226.39 208.58L223.618 216H222.33L220.188 210.372L218.018 216H216.73L213.972 208.58H215.246L217.402 214.488L219.642 208.58H220.776L222.974 214.516L225.186 208.58H226.39ZM231.436 208.51C232.379 208.51 233.125 208.785 233.676 209.336C234.236 209.877 234.516 210.675 234.516 211.73V216H233.172V211.884C233.172 211.165 232.999 210.624 232.654 210.26C232.309 209.896 231.814 209.714 231.17 209.714C230.442 209.714 229.868 209.929 229.448 210.358C229.028 210.778 228.818 211.385 228.818 212.178V216H227.474V205.612H228.818V209.63C229.098 209.275 229.462 209 229.91 208.804C230.367 208.608 230.876 208.51 231.436 208.51ZM236.723 208.58H238.067V216H236.723V208.58ZM237.395 207.152C237.134 207.152 236.915 207.068 236.737 206.9C236.569 206.732 236.485 206.527 236.485 206.284C236.485 206.041 236.569 205.836 236.737 205.668C236.915 205.491 237.134 205.402 237.395 205.402C237.657 205.402 237.871 205.486 238.039 205.654C238.217 205.813 238.305 206.013 238.305 206.256C238.305 206.508 238.217 206.723 238.039 206.9C237.871 207.068 237.657 207.152 237.395 207.152ZM240.354 205.612H241.698V216H240.354V205.612ZM250.69 212.332C250.69 212.435 250.68 212.57 250.662 212.738H244.642C244.726 213.391 245.01 213.919 245.496 214.32C245.99 214.712 246.602 214.908 247.33 214.908C248.216 214.908 248.93 214.609 249.472 214.012L250.214 214.88C249.878 215.272 249.458 215.571 248.954 215.776C248.459 215.981 247.904 216.084 247.288 216.084C246.504 216.084 245.808 215.925 245.202 215.608C244.595 215.281 244.124 214.829 243.788 214.25C243.461 213.671 243.298 213.018 243.298 212.29C243.298 211.571 243.456 210.923 243.774 210.344C244.1 209.765 244.544 209.317 245.104 209C245.673 208.673 246.312 208.51 247.022 208.51C247.731 208.51 248.361 208.673 248.912 209C249.472 209.317 249.906 209.765 250.214 210.344C250.531 210.923 250.69 211.585 250.69 212.332ZM247.022 209.644C246.378 209.644 245.836 209.84 245.398 210.232C244.968 210.624 244.716 211.137 244.642 211.772H249.402C249.327 211.147 249.07 210.638 248.632 210.246C248.202 209.845 247.666 209.644 247.022 209.644ZM134.514 225.58V233H133.24V231.88C132.969 232.263 132.61 232.561 132.162 232.776C131.723 232.981 131.242 233.084 130.72 233.084C129.73 233.084 128.951 232.813 128.382 232.272C127.812 231.721 127.528 230.914 127.528 229.85V225.58H128.872V229.696C128.872 230.415 129.044 230.961 129.39 231.334C129.735 231.698 130.23 231.88 130.874 231.88C131.583 231.88 132.143 231.665 132.554 231.236C132.964 230.807 133.17 230.2 133.17 229.416V225.58H134.514ZM138.92 233.084C138.314 233.084 137.73 233.005 137.17 232.846C136.61 232.678 136.172 232.468 135.854 232.216L136.414 231.152C136.741 231.385 137.138 231.572 137.604 231.712C138.071 231.852 138.542 231.922 139.018 231.922C140.194 231.922 140.782 231.586 140.782 230.914C140.782 230.69 140.703 230.513 140.544 230.382C140.386 230.251 140.185 230.158 139.942 230.102C139.709 230.037 139.373 229.967 138.934 229.892C138.337 229.799 137.847 229.691 137.464 229.57C137.091 229.449 136.769 229.243 136.498 228.954C136.228 228.665 136.092 228.259 136.092 227.736C136.092 227.064 136.372 226.527 136.932 226.126C137.492 225.715 138.244 225.51 139.186 225.51C139.681 225.51 140.176 225.571 140.67 225.692C141.165 225.813 141.571 225.977 141.888 226.182L141.314 227.246C140.708 226.854 139.994 226.658 139.172 226.658C138.603 226.658 138.169 226.751 137.87 226.938C137.572 227.125 137.422 227.372 137.422 227.68C137.422 227.923 137.506 228.114 137.674 228.254C137.842 228.394 138.048 228.497 138.29 228.562C138.542 228.627 138.892 228.702 139.34 228.786C139.938 228.889 140.418 229.001 140.782 229.122C141.156 229.234 141.473 229.43 141.734 229.71C141.996 229.99 142.126 230.382 142.126 230.886C142.126 231.558 141.837 232.095 141.258 232.496C140.689 232.888 139.91 233.084 138.92 233.084ZM143.526 225.58H144.87V233H143.526V225.58ZM144.198 224.152C143.937 224.152 143.717 224.068 143.54 223.9C143.372 223.732 143.288 223.527 143.288 223.284C143.288 223.041 143.372 222.836 143.54 222.668C143.717 222.491 143.937 222.402 144.198 222.402C144.459 222.402 144.674 222.486 144.842 222.654C145.019 222.813 145.108 223.013 145.108 223.256C145.108 223.508 145.019 223.723 144.842 223.9C144.674 224.068 144.459 224.152 144.198 224.152ZM151.118 225.51C152.061 225.51 152.808 225.785 153.358 226.336C153.918 226.877 154.198 227.675 154.198 228.73V233H152.854V228.884C152.854 228.165 152.682 227.624 152.336 227.26C151.991 226.896 151.496 226.714 150.852 226.714C150.124 226.714 149.55 226.929 149.13 227.358C148.71 227.778 148.5 228.385 148.5 229.178V233H147.156V225.58H148.444V226.7C148.715 226.317 149.079 226.023 149.536 225.818C150.003 225.613 150.53 225.51 151.118 225.51ZM163.545 225.58V231.992C163.545 233.289 163.223 234.246 162.579 234.862C161.935 235.487 160.973 235.8 159.695 235.8C158.995 235.8 158.327 235.702 157.693 235.506C157.058 235.319 156.545 235.049 156.153 234.694L156.797 233.658C157.142 233.957 157.567 234.19 158.071 234.358C158.584 234.535 159.111 234.624 159.653 234.624C160.521 234.624 161.16 234.419 161.571 234.008C161.991 233.597 162.201 232.972 162.201 232.132V231.544C161.883 231.927 161.491 232.216 161.025 232.412C160.567 232.599 160.068 232.692 159.527 232.692C158.817 232.692 158.173 232.543 157.595 232.244C157.025 231.936 156.577 231.511 156.251 230.97C155.924 230.419 155.761 229.794 155.761 229.094C155.761 228.394 155.924 227.773 156.251 227.232C156.577 226.681 157.025 226.257 157.595 225.958C158.173 225.659 158.817 225.51 159.527 225.51C160.087 225.51 160.605 225.613 161.081 225.818C161.566 226.023 161.963 226.327 162.271 226.728V225.58H163.545ZM159.681 231.516C160.166 231.516 160.6 231.413 160.983 231.208C161.375 231.003 161.678 230.718 161.893 230.354C162.117 229.981 162.229 229.561 162.229 229.094C162.229 228.375 161.991 227.797 161.515 227.358C161.039 226.91 160.427 226.686 159.681 226.686C158.925 226.686 158.309 226.91 157.833 227.358C157.357 227.797 157.119 228.375 157.119 229.094C157.119 229.561 157.226 229.981 157.441 230.354C157.665 230.718 157.968 231.003 158.351 231.208C158.743 231.413 159.186 231.516 159.681 231.516ZM172.49 233.084C171.753 233.084 171.09 232.921 170.502 232.594C169.914 232.267 169.452 231.819 169.116 231.25C168.79 230.671 168.626 230.018 168.626 229.29C168.626 228.562 168.79 227.913 169.116 227.344C169.452 226.765 169.914 226.317 170.502 226C171.09 225.673 171.753 225.51 172.49 225.51C173.228 225.51 173.886 225.673 174.464 226C175.052 226.317 175.51 226.765 175.836 227.344C176.172 227.913 176.34 228.562 176.34 229.29C176.34 230.018 176.172 230.671 175.836 231.25C175.51 231.819 175.052 232.267 174.464 232.594C173.886 232.921 173.228 233.084 172.49 233.084ZM172.49 231.908C172.966 231.908 173.391 231.801 173.764 231.586C174.147 231.362 174.446 231.054 174.66 230.662C174.875 230.261 174.982 229.803 174.982 229.29C174.982 228.777 174.875 228.324 174.66 227.932C174.446 227.531 174.147 227.223 173.764 227.008C173.391 226.793 172.966 226.686 172.49 226.686C172.014 226.686 171.585 226.793 171.202 227.008C170.829 227.223 170.53 227.531 170.306 227.932C170.092 228.324 169.984 228.777 169.984 229.29C169.984 229.803 170.092 230.261 170.306 230.662C170.53 231.054 170.829 231.362 171.202 231.586C171.585 231.801 172.014 231.908 172.49 231.908ZM184.835 225.58V233H183.561V231.88C183.29 232.263 182.931 232.561 182.483 232.776C182.044 232.981 181.564 233.084 181.041 233.084C180.052 233.084 179.272 232.813 178.703 232.272C178.134 231.721 177.849 230.914 177.849 229.85V225.58H179.193V229.696C179.193 230.415 179.366 230.961 179.711 231.334C180.056 231.698 180.551 231.88 181.195 231.88C181.904 231.88 182.464 231.665 182.875 231.236C183.286 230.807 183.491 230.2 183.491 229.416V225.58H184.835ZM188.402 226.826C188.635 226.397 188.98 226.07 189.438 225.846C189.895 225.622 190.45 225.51 191.104 225.51V226.812C191.029 226.803 190.926 226.798 190.796 226.798C190.068 226.798 189.494 227.017 189.074 227.456C188.663 227.885 188.458 228.501 188.458 229.304V233H187.114V225.58H188.402V226.826ZM198.184 233.084C197.577 233.084 196.994 233.005 196.434 232.846C195.874 232.678 195.435 232.468 195.118 232.216L195.678 231.152C196.004 231.385 196.401 231.572 196.868 231.712C197.334 231.852 197.806 231.922 198.282 231.922C199.458 231.922 200.046 231.586 200.046 230.914C200.046 230.69 199.966 230.513 199.808 230.382C199.649 230.251 199.448 230.158 199.206 230.102C198.972 230.037 198.636 229.967 198.198 229.892C197.6 229.799 197.11 229.691 196.728 229.57C196.354 229.449 196.032 229.243 195.762 228.954C195.491 228.665 195.356 228.259 195.356 227.736C195.356 227.064 195.636 226.527 196.196 226.126C196.756 225.715 197.507 225.51 198.45 225.51C198.944 225.51 199.439 225.571 199.934 225.692C200.428 225.813 200.834 225.977 201.152 226.182L200.578 227.246C199.971 226.854 199.257 226.658 198.436 226.658C197.866 226.658 197.432 226.751 197.134 226.938C196.835 227.125 196.686 227.372 196.686 227.68C196.686 227.923 196.77 228.114 196.938 228.254C197.106 228.394 197.311 228.497 197.554 228.562C197.806 228.627 198.156 228.702 198.604 228.786C199.201 228.889 199.682 229.001 200.046 229.122C200.419 229.234 200.736 229.43 200.998 229.71C201.259 229.99 201.39 230.382 201.39 230.886C201.39 231.558 201.1 232.095 200.522 232.496C199.952 232.888 199.173 233.084 198.184 233.084ZM209.219 225.58L205.621 233.742C205.303 234.498 204.93 235.03 204.501 235.338C204.081 235.646 203.572 235.8 202.975 235.8C202.611 235.8 202.256 235.739 201.911 235.618C201.575 235.506 201.295 235.338 201.071 235.114L201.645 234.106C202.027 234.47 202.471 234.652 202.975 234.652C203.301 234.652 203.572 234.563 203.787 234.386C204.011 234.218 204.211 233.924 204.389 233.504L204.627 232.986L201.351 225.58H202.751L205.341 231.516L207.903 225.58H209.219ZM212.225 233.084C211.618 233.084 211.035 233.005 210.475 232.846C209.915 232.678 209.476 232.468 209.159 232.216L209.719 231.152C210.046 231.385 210.442 231.572 210.909 231.712C211.376 231.852 211.847 231.922 212.323 231.922C213.499 231.922 214.087 231.586 214.087 230.914C214.087 230.69 214.008 230.513 213.849 230.382C213.69 230.251 213.49 230.158 213.247 230.102C213.014 230.037 212.678 229.967 212.239 229.892C211.642 229.799 211.152 229.691 210.769 229.57C210.396 229.449 210.074 229.243 209.803 228.954C209.532 228.665 209.397 228.259 209.397 227.736C209.397 227.064 209.677 226.527 210.237 226.126C210.797 225.715 211.548 225.51 212.491 225.51C212.986 225.51 213.48 225.571 213.975 225.692C214.47 225.813 214.876 225.977 215.193 226.182L214.619 227.246C214.012 226.854 213.298 226.658 212.477 226.658C211.908 226.658 211.474 226.751 211.175 226.938C210.876 227.125 210.727 227.372 210.727 227.68C210.727 227.923 210.811 228.114 210.979 228.254C211.147 228.394 211.352 228.497 211.595 228.562C211.847 228.627 212.197 228.702 212.645 228.786C213.242 228.889 213.723 229.001 214.087 229.122C214.46 229.234 214.778 229.43 215.039 229.71C215.3 229.99 215.431 230.382 215.431 230.886C215.431 231.558 215.142 232.095 214.563 232.496C213.994 232.888 213.214 233.084 212.225 233.084ZM221.003 232.566C220.807 232.734 220.564 232.865 220.275 232.958C219.985 233.042 219.687 233.084 219.379 233.084C218.632 233.084 218.053 232.883 217.643 232.482C217.232 232.081 217.027 231.507 217.027 230.76V226.686H215.767V225.58H217.027V223.956H218.371V225.58H220.499V226.686H218.371V230.704C218.371 231.105 218.469 231.413 218.665 231.628C218.87 231.843 219.159 231.95 219.533 231.95C219.943 231.95 220.293 231.833 220.583 231.6L221.003 232.566ZM228.808 229.332C228.808 229.435 228.798 229.57 228.78 229.738H222.76C222.844 230.391 223.128 230.919 223.614 231.32C224.108 231.712 224.72 231.908 225.448 231.908C226.334 231.908 227.048 231.609 227.59 231.012L228.332 231.88C227.996 232.272 227.576 232.571 227.072 232.776C226.577 232.981 226.022 233.084 225.406 233.084C224.622 233.084 223.926 232.925 223.32 232.608C222.713 232.281 222.242 231.829 221.906 231.25C221.579 230.671 221.416 230.018 221.416 229.29C221.416 228.571 221.574 227.923 221.892 227.344C222.218 226.765 222.662 226.317 223.222 226C223.791 225.673 224.43 225.51 225.14 225.51C225.849 225.51 226.479 225.673 227.03 226C227.59 226.317 228.024 226.765 228.332 227.344C228.649 227.923 228.808 228.585 228.808 229.332ZM225.14 226.644C224.496 226.644 223.954 226.84 223.516 227.232C223.086 227.624 222.834 228.137 222.76 228.772H227.52C227.445 228.147 227.188 227.638 226.75 227.246C226.32 226.845 225.784 226.644 225.14 226.644ZM239.676 225.51C240.609 225.51 241.347 225.781 241.888 226.322C242.439 226.863 242.714 227.666 242.714 228.73V233H241.37V228.884C241.37 228.165 241.202 227.624 240.866 227.26C240.539 226.896 240.068 226.714 239.452 226.714C238.771 226.714 238.229 226.929 237.828 227.358C237.427 227.778 237.226 228.385 237.226 229.178V233H235.882V228.884C235.882 228.165 235.714 227.624 235.378 227.26C235.051 226.896 234.58 226.714 233.964 226.714C233.283 226.714 232.741 226.929 232.34 227.358C231.939 227.778 231.738 228.385 231.738 229.178V233H230.394V225.58H231.682V226.686C231.953 226.303 232.307 226.014 232.746 225.818C233.185 225.613 233.684 225.51 234.244 225.51C234.823 225.51 235.336 225.627 235.784 225.86C236.232 226.093 236.577 226.434 236.82 226.882C237.1 226.453 237.487 226.117 237.982 225.874C238.486 225.631 239.051 225.51 239.676 225.51ZM246.169 229.906C246.169 229.533 246.229 229.206 246.351 228.926C246.481 228.637 246.635 228.394 246.813 228.198C246.999 228.002 247.242 227.769 247.541 227.498C247.914 227.171 248.189 226.891 248.367 226.658C248.544 226.415 248.633 226.126 248.633 225.79C248.633 225.333 248.455 224.969 248.101 224.698C247.746 224.418 247.256 224.278 246.631 224.278C245.539 224.278 244.703 224.647 244.125 225.384L243.103 224.656C243.495 224.152 243.994 223.765 244.601 223.494C245.217 223.223 245.926 223.088 246.729 223.088C247.746 223.088 248.553 223.312 249.151 223.76C249.748 224.199 250.047 224.805 250.047 225.58C250.047 225.963 249.981 226.303 249.851 226.602C249.729 226.891 249.58 227.134 249.403 227.33C249.225 227.526 248.987 227.759 248.689 228.03C248.306 228.375 248.021 228.679 247.835 228.94C247.657 229.201 247.569 229.523 247.569 229.906H246.169ZM246.883 233.084C246.621 233.084 246.402 233 246.225 232.832C246.057 232.655 245.973 232.44 245.973 232.188C245.973 231.936 246.057 231.726 246.225 231.558C246.402 231.381 246.621 231.292 246.883 231.292C247.144 231.292 247.359 231.381 247.527 231.558C247.695 231.726 247.779 231.936 247.779 232.188C247.779 232.44 247.69 232.655 247.513 232.832C247.345 233 247.135 233.084 246.883 233.084Z" fill="#4D4D4D"/>
    <rect x="139.002" y="261" width="112" height="31" rx="5" fill="#F27348"/>
    <path d="M159.096 281.144C158.24 281.144 157.464 280.96 156.768 280.592C156.08 280.216 155.536 279.7 155.136 279.044C154.744 278.38 154.548 277.632 154.548 276.8C154.548 275.968 154.744 275.224 155.136 274.568C155.536 273.904 156.08 273.388 156.768 273.02C157.464 272.644 158.244 272.456 159.108 272.456C159.836 272.456 160.492 272.584 161.076 272.84C161.668 273.096 162.164 273.464 162.564 273.944L161.316 275.096C160.748 274.44 160.044 274.112 159.204 274.112C158.684 274.112 158.22 274.228 157.812 274.46C157.404 274.684 157.084 275 156.852 275.408C156.628 275.816 156.516 276.28 156.516 276.8C156.516 277.32 156.628 277.784 156.852 278.192C157.084 278.6 157.404 278.92 157.812 279.152C158.22 279.376 158.684 279.488 159.204 279.488C160.044 279.488 160.748 279.156 161.316 278.492L162.564 279.644C162.164 280.132 161.668 280.504 161.076 280.76C160.484 281.016 159.824 281.144 159.096 281.144ZM166.594 281.096C165.914 281.096 165.302 280.956 164.758 280.676C164.222 280.388 163.802 279.992 163.498 279.488C163.194 278.984 163.042 278.412 163.042 277.772C163.042 277.132 163.194 276.56 163.498 276.056C163.802 275.552 164.222 275.16 164.758 274.88C165.302 274.592 165.914 274.448 166.594 274.448C167.274 274.448 167.882 274.592 168.418 274.88C168.954 275.16 169.374 275.552 169.678 276.056C169.982 276.56 170.134 277.132 170.134 277.772C170.134 278.412 169.982 278.984 169.678 279.488C169.374 279.992 168.954 280.388 168.418 280.676C167.882 280.956 167.274 281.096 166.594 281.096ZM166.594 279.56C167.074 279.56 167.466 279.4 167.77 279.08C168.082 278.752 168.238 278.316 168.238 277.772C168.238 277.228 168.082 276.796 167.77 276.476C167.466 276.148 167.074 275.984 166.594 275.984C166.114 275.984 165.718 276.148 165.406 276.476C165.094 276.796 164.938 277.228 164.938 277.772C164.938 278.316 165.094 278.752 165.406 279.08C165.718 279.4 166.114 279.56 166.594 279.56ZM175.309 274.448C176.109 274.448 176.753 274.688 177.241 275.168C177.737 275.648 177.985 276.36 177.985 277.304V281H176.113V277.592C176.113 277.08 176.001 276.7 175.777 276.452C175.553 276.196 175.229 276.068 174.805 276.068C174.333 276.068 173.957 276.216 173.677 276.512C173.397 276.8 173.257 277.232 173.257 277.808V281H171.385V274.544H173.173V275.3C173.421 275.028 173.729 274.82 174.097 274.676C174.465 274.524 174.869 274.448 175.309 274.448ZM183.846 280.688C183.662 280.824 183.434 280.928 183.162 281C182.898 281.064 182.618 281.096 182.322 281.096C181.554 281.096 180.958 280.9 180.534 280.508C180.118 280.116 179.91 279.54 179.91 278.78V276.128H178.914V274.688H179.91V273.116H181.782V274.688H183.39V276.128H181.782V278.756C181.782 279.028 181.85 279.24 181.986 279.392C182.13 279.536 182.33 279.608 182.586 279.608C182.882 279.608 183.134 279.528 183.342 279.368L183.846 280.688ZM187.501 274.448C188.501 274.448 189.269 274.688 189.805 275.168C190.341 275.64 190.609 276.356 190.609 277.316V281H188.857V280.196C188.505 280.796 187.849 281.096 186.889 281.096C186.393 281.096 185.961 281.012 185.593 280.844C185.233 280.676 184.957 280.444 184.765 280.148C184.573 279.852 184.477 279.516 184.477 279.14C184.477 278.54 184.701 278.068 185.149 277.724C185.605 277.38 186.305 277.208 187.249 277.208H188.737C188.737 276.8 188.613 276.488 188.365 276.272C188.117 276.048 187.745 275.936 187.249 275.936C186.905 275.936 186.565 275.992 186.229 276.104C185.901 276.208 185.621 276.352 185.389 276.536L184.717 275.228C185.069 274.98 185.489 274.788 185.977 274.652C186.473 274.516 186.981 274.448 187.501 274.448ZM187.357 279.836C187.677 279.836 187.961 279.764 188.209 279.62C188.457 279.468 188.633 279.248 188.737 278.96V278.3H187.453C186.685 278.3 186.301 278.552 186.301 279.056C186.301 279.296 186.393 279.488 186.577 279.632C186.769 279.768 187.029 279.836 187.357 279.836ZM195.494 281.096C194.806 281.096 194.186 280.956 193.634 280.676C193.09 280.388 192.662 279.992 192.35 279.488C192.046 278.984 191.894 278.412 191.894 277.772C191.894 277.132 192.046 276.56 192.35 276.056C192.662 275.552 193.09 275.16 193.634 274.88C194.186 274.592 194.806 274.448 195.494 274.448C196.174 274.448 196.766 274.592 197.27 274.88C197.782 275.16 198.154 275.564 198.386 276.092L196.934 276.872C196.598 276.28 196.114 275.984 195.482 275.984C194.994 275.984 194.59 276.144 194.27 276.464C193.95 276.784 193.79 277.22 193.79 277.772C193.79 278.324 193.95 278.76 194.27 279.08C194.59 279.4 194.994 279.56 195.482 279.56C196.122 279.56 196.606 279.264 196.934 278.672L198.386 279.464C198.154 279.976 197.782 280.376 197.27 280.664C196.766 280.952 196.174 281.096 195.494 281.096ZM203.721 280.688C203.537 280.824 203.309 280.928 203.037 281C202.773 281.064 202.493 281.096 202.197 281.096C201.429 281.096 200.833 280.9 200.409 280.508C199.993 280.116 199.785 279.54 199.785 278.78V276.128H198.789V274.688H199.785V273.116H201.657V274.688H203.265V276.128H201.657V278.756C201.657 279.028 201.725 279.24 201.861 279.392C202.005 279.536 202.205 279.608 202.461 279.608C202.757 279.608 203.009 279.528 203.217 279.368L203.721 280.688ZM216.007 272.6V281H214.411L210.223 275.9V281H208.303V272.6H209.911L214.087 277.7V272.6H216.007ZM220.934 281.096C220.254 281.096 219.642 280.956 219.098 280.676C218.562 280.388 218.142 279.992 217.838 279.488C217.534 278.984 217.382 278.412 217.382 277.772C217.382 277.132 217.534 276.56 217.838 276.056C218.142 275.552 218.562 275.16 219.098 274.88C219.642 274.592 220.254 274.448 220.934 274.448C221.614 274.448 222.222 274.592 222.758 274.88C223.294 275.16 223.714 275.552 224.018 276.056C224.322 276.56 224.474 277.132 224.474 277.772C224.474 278.412 224.322 278.984 224.018 279.488C223.714 279.992 223.294 280.388 222.758 280.676C222.222 280.956 221.614 281.096 220.934 281.096ZM220.934 279.56C221.414 279.56 221.806 279.4 222.11 279.08C222.422 278.752 222.578 278.316 222.578 277.772C222.578 277.228 222.422 276.796 222.11 276.476C221.806 276.148 221.414 275.984 220.934 275.984C220.454 275.984 220.058 276.148 219.746 276.476C219.434 276.796 219.278 277.228 219.278 277.772C219.278 278.316 219.434 278.752 219.746 279.08C220.058 279.4 220.454 279.56 220.934 279.56ZM235.918 274.544L233.578 281H231.778L230.326 276.992L228.826 281H227.026L224.698 274.544H226.462L227.986 278.912L229.57 274.544H231.154L232.69 278.912L234.262 274.544H235.918Z" fill="white"/>
    <defs>
        <filter id="filter0_d" x="200.125" y="43.4103" width="43.8419" height="31.106" filterUnits="userSpaceOnUse" color-interpolation-filters="sRGB">
            <feFlood flood-opacity="0" result="BackgroundImageFix"/>
            <feColorMatrix in="SourceAlpha" type="matrix" values="0 0 0 0 0 0 0 0 0 0 0 0 0 0 0 0 0 0 127 0"/>
            <feOffset dx="0.709207" dy="2.83683"/>
            <feGaussianBlur stdDeviation="3.54604"/>
            <feColorMatrix type="matrix" values="0 0 0 0 0 0 0 0 0 0 0 0 0 0 0 0 0 0 0.05 0"/>
            <feBlend mode="normal" in2="BackgroundImageFix" result="effect1_dropShadow"/>
            <feBlend mode="normal" in="SourceGraphic" in2="effect1_dropShadow" result="shape"/>
        </filter>
    </defs>
</svg>
