<svg width="65" height="65" viewBox="0 0 65 65" fill="none"
    xmlns="http://www.w3.org/2000/svg">
    <g clip-path="url(#clip0)">
        <path d="M32.5 -1.52588e-05V65C50.4499 65 65.0005 50.4493 65.0005 32.5005C65.0005 14.5502 50.4498 -1.52588e-05 32.5 -1.52588e-05Z" fill="#214391"/>
        <path d="M32.4995 0C14.5507 0 0 14.5502 0 32.5005C0 50.4493 14.5507 65 32.4995 65C50.4493 65 50.4493 0 32.4995 0Z" fill="#2B479D"/>
        <path d="M32.4436 5.63648L33.2364 8.07605H35.8022L33.7266 9.58373L34.5193 12.0233L32.4436 10.5147L30.3684 12.0233L31.1613 9.58373L29.085 8.07605H31.6508L32.4436 5.63648Z" fill="#F8D12E"/>
        <path d="M32.4436 51.6906L33.2364 54.1312H35.8022L33.7266 55.6389L34.5193 58.0784L32.4436 56.5708L30.3684 58.0784L31.1613 55.6389L29.085 54.1312H31.6508L32.4436 51.6906Z" fill="#F8D12E"/>
        <path d="M45.0828 9.71823L45.8751 12.1584H48.4409L46.3651 13.667L47.158 16.1066L45.0828 14.5979L43.0071 16.1066L43.7999 13.667L41.7246 12.1584H44.2904L45.0828 9.71823Z" fill="#F8D12E"/>
        <path d="M53.7073 18.2264L54.4997 20.6659H57.0655L54.9897 22.1742L55.7826 24.6138L53.7073 23.1061L51.6315 24.6138L52.4244 22.1742L50.3486 20.6659H52.9139L53.7073 18.2264Z" fill="#F8D12E"/>
        <path d="M53.9124 39.7227L54.7047 42.1633H57.2704L55.1948 43.6709L55.9881 46.11L53.9124 44.6028L51.8366 46.11L52.6295 43.6709L50.5537 42.1633H53.1195L53.9124 39.7227Z" fill="#F8D12E"/>
        <path d="M11.4919 18.2264L12.2843 20.6659H14.8495L12.7743 22.1742L13.5666 24.6138L11.4919 23.1061L9.41629 24.6138L10.209 22.1742L8.13379 20.6659H10.6996L11.4919 18.2264Z" fill="#F8D12E"/>
        <path d="M55.7053 28.4783L56.4976 30.9179H59.0634L56.9878 32.4256L57.7805 34.8657L55.7053 33.3585L53.6296 34.8657L54.4229 32.4256L52.3467 30.9179H54.912L55.7053 28.4783Z" fill="#F8D12E"/>
        <path d="M9.53239 28.4783L10.3247 30.9179H12.89L10.8143 32.4256L11.6076 34.8657L9.53239 33.3585L7.4566 34.8657L8.24948 32.4256L6.17383 30.9179H8.73951L9.53239 28.4783Z" fill="#F8D12E"/>
        <path d="M11.215 39.7227L12.0073 42.1633H14.5726L12.4975 43.6709L13.2897 46.11L11.215 44.6028L9.13936 46.11L9.9321 43.6709L7.85645 42.1633H10.4223L11.215 39.7227Z" fill="#F8D12E"/>
        <path d="M45.4552 48.5938L46.2476 51.0333H48.8134L46.7372 52.542L47.5305 54.9816L45.4552 53.4739L43.379 54.9816L44.1725 52.542L42.0967 51.0333H44.6625L45.4552 48.5938Z" fill="#F8D12E"/>
        <path d="M20.2126 9.71823L21.0048 12.1584H23.5707L21.495 13.667L22.2883 16.1066L20.2126 14.5979L18.1374 16.1066L18.9301 13.667L16.8545 12.1584H19.4198L20.2126 9.71823Z" fill="#F8D12E"/>
        <path d="M19.2781 48.4377L20.0708 50.8783H22.6366L20.561 52.3855L21.3537 54.8251L19.2781 53.3183L17.2028 54.8251L17.9956 52.3855L15.9199 50.8783H18.4852L19.2781 48.4377Z" fill="#F8D12E"/>
    </g>
    <defs>
        <clipPath id="clip0">
            <rect width="65" height="65" fill="white"/>
        </clipPath>
    </defs>
</svg>
