<svg width="83" height="83" viewBox="0 0 83 83" fill="none" xmlns="http://www.w3.org/2000/svg">
<g clip-path="url(#clip0)">
<path d="M55.3362 2.37183L50.4932 15.7993C54.9634 30.5518 54.9634 52.4477 50.4932 67.2008L55.3362 80.627C71.4515 74.9282 83.0004 59.5665 83.0004 41.4984C83.0004 23.4337 71.4515 8.07065 55.3362 2.37183Z" fill="#518D51"/>
<path d="M55.3358 15.7994V2.37178C51.0078 0.841161 46.3529 0.000488281 41.5 0.000488281C47.8992 0.000488281 39.0264 21.6874 55.3358 15.7994Z" fill="#E4E4E4"/>
<path d="M41.501 82.9992C46.3538 82.9992 51.0088 82.1586 55.3368 80.6279V67.2017C39.1912 65.5898 41.501 82.9992 41.501 82.9992Z" fill="#E4E4E4"/>
<path d="M0 41.499C0 59.6273 11.6269 75.0311 27.8268 80.6828V2.31812C11.6269 7.97099 0 23.3734 0 41.499Z" fill="#589F58"/>
<path d="M55.3359 15.7993V67.2008C59.8066 52.4478 59.8066 30.5516 55.3359 15.7993Z" fill="#589F58"/>
<path d="M55.3371 67.2009V15.7994C52.5115 6.47245 47.9005 0.000488281 41.5013 0.000488281C36.7088 0.000488281 32.1102 0.823408 27.8281 2.31817V80.6828C32.1102 82.1774 36.7088 82.9991 41.5013 82.9991C47.9005 82.9991 52.5115 76.5271 55.3371 67.2009Z" fill="#F3F4F5"/>
</g>
<defs>
<clipPath id="clip0">
<rect width="83" height="83" fill="white"/>
</clipPath>
</defs>
</svg>
