<svg width="228" height="195" viewBox="0 0 228 195" fill="none"
    xmlns="http://www.w3.org/2000/svg">
    <path opacity="0.7" d="M149.252 9.80377C122.015 -1.03654 89.2002 -1.57905 60.9066 6.59846C32.3647 14.8556 2.84694 35.6801 0.150382 63.3384C-1.84749 83.6353 16.6646 96.3022 19.904 115.225C21.873 126.718 15.6657 136.627 14.7072 147.727C13.893 157.183 17.8195 166.197 25.1007 173.205C47.6202 194.985 91.5619 203.401 118.025 181.965C128.419 173.528 137.657 161.926 151.758 157.77C180.104 149.429 223.422 147.318 227.689 114.718C230.287 94.8489 216.1 76.4383 204.182 60.5561C189.256 40.737 175.109 20.1016 149.252 9.80377Z" fill="#76CDCD"/>
    <path d="M120.344 79.2448H55.5987C53.6195 79.2448 52 80.8867 52 82.8937V135.07C52 137.076 53.6195 138.718 55.5987 138.718H67.4136V153.116C67.4136 155.123 68.5591 155.603 69.9582 154.185L85.2159 138.718H134.781C136.759 138.718 138.379 137.076 138.379 135.07V96.93C129.59 94.9184 122.603 88.037 120.344 79.2448Z" fill="white"/>
    <path d="M59.3564 135.07V82.8937C59.3564 80.8867 60.9761 79.2448 62.9551 79.2448H55.5987C53.6195 79.2448 52 80.8867 52 82.8937V135.07C52 137.076 53.6195 138.718 55.5987 138.718H62.9551C60.9761 138.718 59.3564 137.076 59.3564 135.07Z" fill="#446C75"/>
    <path d="M120.219 100.154H70.1611C69.2219 100.154 68.4609 99.3836 68.4609 98.4328C68.4609 97.4819 69.2219 96.7115 70.1611 96.7115H120.218C121.158 96.7115 121.919 97.4819 121.919 98.4328C121.919 99.3836 121.158 100.154 120.219 100.154Z" fill="#26474E"/>
    <path d="M120.219 110.837H70.1611C69.2219 110.837 68.4609 110.066 68.4609 109.115C68.4609 108.165 69.2219 107.394 70.1611 107.394H120.218C121.158 107.394 121.919 108.165 121.919 109.115C121.919 110.066 121.158 110.837 120.219 110.837Z" fill="#26474E"/>
    <path d="M96.5831 121.52H70.1611C69.2219 121.52 68.4609 120.75 68.4609 119.799C68.4609 118.848 69.2219 118.078 70.1611 118.078H96.5831C97.5223 118.078 98.2833 118.848 98.2833 119.799C98.2833 120.75 97.522 121.52 96.5831 121.52Z" fill="#26474E"/>
    <path d="M159.451 61.8027C156.701 61.8027 154.464 63.893 154.464 66.4623C154.464 67.2138 155.109 67.8227 155.906 67.8227C156.703 67.8227 157.348 67.2138 157.348 66.4623C157.348 65.3931 158.292 64.5236 159.451 64.5236C160.611 64.5236 161.554 65.3931 161.554 66.4623C161.554 67.2138 162.2 67.8227 162.996 67.8227C163.793 67.8227 164.438 67.2138 164.438 66.4623C164.438 63.893 162.201 61.8027 159.451 61.8027Z" fill="#26474E"/>
    <path d="M134.969 61.8027C132.219 61.8027 129.981 63.893 129.981 66.4623C129.981 67.2138 130.627 67.8227 131.424 67.8227C132.22 67.8227 132.866 67.2138 132.866 66.4623C132.866 65.3931 133.809 64.5236 134.969 64.5236C136.128 64.5236 137.072 65.3931 137.072 66.4623C137.072 67.2138 137.717 67.8227 138.514 67.8227C139.31 67.8227 139.956 67.2138 139.956 66.4623C139.956 63.893 137.719 61.8027 134.969 61.8027Z" fill="#26474E"/>
    <path d="M146.983 40C130.977 40 117.967 53.1716 117.967 69.3762C117.967 85.5809 130.977 98.7525 146.983 98.7525C162.989 98.7525 176 85.5809 176 69.3762C176 53.1716 162.989 40 146.983 40ZM130.056 62.2048C130.056 59.4875 132.232 57.3099 134.891 57.3099C137.549 57.3099 139.726 59.4875 139.726 62.2048C139.726 64.8964 137.549 67.0996 134.891 67.0996C132.232 67.0996 130.056 64.8964 130.056 62.2048ZM160.784 85.882C160.313 86.3594 159.692 86.5981 159.076 86.5981C158.456 86.5981 157.839 86.3594 157.368 85.882C154.593 83.0729 150.904 81.5307 146.983 81.5307C143.062 81.5307 139.374 83.0766 136.603 85.8857C135.66 86.8404 134.129 86.8404 133.182 85.8857C132.239 84.931 132.239 83.3814 133.182 82.423C136.867 78.6922 141.771 76.6358 146.983 76.6358C152.195 76.6358 157.095 78.6922 160.784 82.423C161.727 83.3777 161.727 84.9273 160.784 85.882ZM159.072 67.0996C156.414 67.0996 154.237 64.8964 154.237 62.2048C154.237 59.4875 156.414 57.3099 159.072 57.3099C161.731 57.3099 163.907 59.4875 163.907 62.2048C163.911 64.8964 161.734 67.0996 159.072 67.0996Z" fill="#446C75"/>
    <path d="M164.918 59.8771C164.728 59.7043 164.602 59.4581 164.585 59.1788C164.392 55.8996 161.597 53.3675 158.357 53.5346C157.802 53.5634 157.329 53.131 157.301 52.5692C157.273 52.0074 157.699 51.5287 158.254 51.5002C162.594 51.2764 166.335 54.6665 166.594 59.0576C166.627 59.6189 166.204 60.1014 165.649 60.1349C165.371 60.1516 165.111 60.0519 164.918 59.8771Z" fill="#446C75"/>
    <path d="M128.875 59.9476C129.065 59.7748 129.191 59.5286 129.208 59.2494C129.401 55.9701 132.196 53.4381 135.436 53.6052C135.991 53.6339 136.464 53.2015 136.492 52.6398C136.52 52.078 136.094 51.5992 135.539 51.5707C131.199 51.3469 127.458 54.737 127.199 59.1281C127.166 59.6895 127.589 60.1719 128.143 60.2055C128.422 60.2222 128.682 60.1224 128.875 59.9476Z" fill="#446C75"/>
    <path d="M122.769 69.3811C122.769 54.6447 133.619 42.4426 147.766 40.3259C146.336 40.1118 144.872 40 143.382 40C127.154 40 114 53.1544 114 69.3814C114 85.608 127.154 98.763 143.382 98.763C144.872 98.763 146.336 98.6512 147.766 98.4371C133.619 96.3199 122.769 84.1174 122.769 69.3811Z" fill="#26474E"/>
</svg>
