<svg width="198" height="171" viewBox="0 0 198 171" fill="none"
    xmlns="http://www.w3.org/2000/svg">
    <path d="M7.04492 77.1175H59.7877C59.7877 77.1175 55.1264 68.6359 41.5558 69.8689C28.5982 71.0521 27.9354 65.6994 21.3425 65.0365C14.7496 64.3737 9.24016 69.4341 7.04492 77.1175Z" fill="#F0F0F0" fill-opacity="0.8"/>
    <path d="M14.2012 74.0005H66.944C66.944 74.0005 62.2827 65.5189 48.7121 66.7519C35.7544 67.9351 35.0916 62.5824 28.4988 61.9195C21.9059 61.2567 16.3964 66.3171 14.2012 74.0005Z" fill="#F5F5F5" fill-opacity="0.5"/>
    <path d="M41.5762 47.6642C48.2877 40.9527 48.2877 30.0713 41.5762 23.3598C34.8648 16.6483 23.9833 16.6483 17.2718 23.3598C10.5604 30.0713 10.5604 40.9527 17.2718 47.6642C23.9833 54.3757 34.8648 54.3757 41.5762 47.6642Z" fill="#F5F5F5" fill-opacity="0.5"/>
    <path d="M41.5764 47.6642C48.2878 40.9527 48.2878 30.0713 41.5764 23.3598C41.5764 23.3598 42.6673 37.2488 35.9559 43.9603C29.2444 50.6718 17.272 47.6642 17.272 47.6642C23.9834 54.3757 34.8649 54.3757 41.5764 47.6642Z" fill="#F0F0F0" fill-opacity="0.5"/>
    <path d="M64.9559 0H0V99.6006H64.9559V0Z" fill="#EBEBEB" fill-opacity="0.5"/>
    <path d="M30.9724 3.98859H3.54053V48.2917H30.9724V3.98859Z" fill="#FDFDFD" fill-opacity="0.5"/>
    <path d="M61.422 3.98859H33.9951V48.2917H61.422V3.98859Z" fill="#FDFDFD" fill-opacity="0.5"/>
    <path d="M30.9724 51.309H3.54053V95.6121H30.9724V51.309Z" fill="#FDFDFD" fill-opacity="0.5"/>
    <path d="M61.422 51.309H33.9951V95.6121H61.422V51.309Z" fill="#FDFDFD" fill-opacity="0.5"/>
    <path d="M20.1505 3.98859L3.54053 20.5986V10.7972L10.3541 3.98859H20.1505Z" fill="#EBEBEB" fill-opacity="0.5"/>
    <path d="M3.54053 93.9753L30.9724 66.5435V76.3349L11.7001 95.6121H3.54053V93.9753Z" fill="#EBEBEB" fill-opacity="0.5"/>
    <path d="M56.0028 51.309L33.9893 73.3225V63.5261L46.2064 51.309H56.0028Z" fill="#EBEBEB" fill-opacity="0.5"/>
    <path d="M61.4201 36.0992V45.8907L59.019 48.2917H49.2227L61.4201 36.0992Z" fill="#EBEBEB" fill-opacity="0.5"/>
    <path d="M61.4219 85.3474V95.1437L60.9536 95.6121H51.1621L61.4219 85.3474Z" fill="#EBEBEB" fill-opacity="0.5"/>
    <path d="M5.11327 51.309H10.009L3.54053 57.7775V52.8768L5.11327 51.309Z" fill="#EBEBEB" fill-opacity="0.5"/>
    <path d="M8.13037 48.2917L30.9722 25.445V30.3407L13.0261 48.2917H8.13037Z" fill="#EBEBEB" fill-opacity="0.5"/>
    <path d="M57.329 3.98859L33.9893 27.3234V22.4277L52.4333 3.98859H57.329Z" fill="#EBEBEB" fill-opacity="0.5"/>
    <path d="M28.2016 3.98859L3.54053 28.6496V27.422L26.9739 3.98859H28.2016Z" fill="#EBEBEB" fill-opacity="0.5"/>
    <path d="M18.8726 95.6121L30.9714 83.5084V84.736L20.1002 95.6121H18.8726Z" fill="#EBEBEB" fill-opacity="0.5"/>
    <path d="M61.4211 53.0691V54.2869L33.9893 81.7187V80.4911L61.4211 53.0691Z" fill="#EBEBEB" fill-opacity="0.5"/>
    <path d="M144.505 6.10352e-05H79.5488V99.6007H144.505V6.10352e-05Z" fill="#EBEBEB" fill-opacity="0.5"/>
    <path d="M110.522 3.98859H83.0898V48.2917H110.522V3.98859Z" fill="#FDFDFD" fill-opacity="0.5"/>
    <path d="M140.965 3.98859H113.538V48.2917H140.965V3.98859Z" fill="#FDFDFD" fill-opacity="0.5"/>
    <path d="M110.522 51.309H83.0898V95.6121H110.522V51.309Z" fill="#FDFDFD" fill-opacity="0.5"/>
    <path d="M140.965 51.309H113.538V95.6121H140.965V51.309Z" fill="#FDFDFD" fill-opacity="0.5"/>
    <path d="M83.0898 51.309H85.6733L83.0898 53.8924V51.309Z" fill="#EBEBEB" fill-opacity="0.5"/>
    <path d="M83.0898 44.0961L110.522 16.6593V26.4606L88.6906 48.2917H83.0898V44.0961Z" fill="#EBEBEB" fill-opacity="0.5"/>
    <path d="M132.993 3.98859L113.538 23.4433V13.642L123.191 3.98859H132.993Z" fill="#EBEBEB" fill-opacity="0.5"/>
    <path d="M140.965 65.6954V75.4918L120.85 95.6121H113.538V93.1223L140.965 65.6954Z" fill="#EBEBEB" fill-opacity="0.5"/>
    <path d="M110.522 3.98859V4.89575L83.0898 32.3276V27.4269L106.523 3.98859H110.522Z" fill="#EBEBEB" fill-opacity="0.5"/>
    <path d="M99.6348 95.6121L110.521 84.7261V89.6219L104.53 95.6121H99.6348Z" fill="#EBEBEB" fill-opacity="0.5"/>
    <path d="M140.965 54.277V59.1776L113.538 86.6045V81.7088L140.965 54.277Z" fill="#EBEBEB" fill-opacity="0.5"/>
    <path d="M89.0061 51.309H90.2338L83.0898 58.4529V57.2302L89.0061 51.309Z" fill="#EBEBEB" fill-opacity="0.5"/>
    <path d="M92.0225 48.2917L110.521 29.7935V31.0211L93.2501 48.2917H92.0225Z" fill="#EBEBEB" fill-opacity="0.5"/>
    <path d="M137.553 3.98859L113.538 28.0038V26.7761L136.326 3.98859H137.553Z" fill="#EBEBEB" fill-opacity="0.5"/>
    <path d="M83.0898 94.6902L110.522 67.2584V68.4811L83.3906 95.6121H83.0898V94.6902Z" fill="#EBEBEB" fill-opacity="0.5"/>
    <path d="M127.693 51.309L113.538 65.4637V64.241L126.465 51.309H127.693Z" fill="#EBEBEB" fill-opacity="0.5"/>
    <path d="M140.966 36.8092V38.0368L130.711 48.2917H129.483L140.966 36.8092Z" fill="#EBEBEB" fill-opacity="0.5"/>
    <path d="M123.551 169.628L69.6127 169.376C68.0691 169.37 66.5418 169.054 65.1179 168.445C63.6941 167.837 62.4017 166.949 61.3145 165.831C60.2273 164.713 59.3666 163.387 58.7817 161.93C58.1968 160.472 57.899 158.912 57.9054 157.337L58.4757 19.3889C58.4933 16.2111 59.7471 13.1706 61.9616 10.9358C64.1762 8.70106 67.17 7.45508 70.2847 7.47188L124.223 7.72898C127.338 7.74331 130.32 9.01911 132.513 11.2759C134.706 13.5326 135.93 16.5855 135.918 19.7633L135.352 157.675C135.348 159.251 135.04 160.811 134.445 162.265C133.849 163.719 132.979 165.039 131.883 166.15C130.786 167.26 129.486 168.139 128.057 168.736C126.627 169.333 125.096 169.636 123.551 169.628Z" fill="#455A64"/>
    <path d="M124.152 12.4696L113.695 12.4335C113.354 12.44 113.016 12.5152 112.703 12.6547C112.39 12.7943 112.107 12.9955 111.87 13.2469C111.633 13.4983 111.447 13.7949 111.322 14.1197C111.198 14.4445 111.137 14.7912 111.144 15.1399V17.075C111.151 17.4237 111.091 17.7703 110.966 18.0952C110.842 18.42 110.656 18.7166 110.419 18.968C110.182 19.2193 109.899 19.4206 109.586 19.5601C109.272 19.6997 108.935 19.7749 108.593 19.7813L88.2027 19.6505C87.5163 19.6316 86.8651 19.3364 86.3913 18.8293C85.9175 18.3223 85.6595 17.6446 85.6738 16.9442V15.0091C85.688 14.3087 85.4301 13.631 84.9563 13.1239C84.4825 12.6169 83.8313 12.3217 83.1449 12.3027H79.4708L70.3189 12.2621C69.2379 12.2562 68.1663 12.4678 67.1655 12.8848C66.1647 13.3018 65.2543 13.916 64.4864 14.6923C63.7185 15.4686 63.1082 16.3918 62.6903 17.4089C62.2725 18.4261 62.0553 19.5174 62.0513 20.6203L61.4942 155.266C61.4848 157.492 62.3421 159.63 63.8775 161.211C65.4129 162.792 67.5009 163.686 69.6823 163.697L123.51 163.949C124.591 163.955 125.662 163.743 126.663 163.325C127.663 162.908 128.573 162.294 129.34 161.518C130.108 160.741 130.717 159.818 131.135 158.802C131.553 157.785 131.77 156.694 131.774 155.591L132.335 20.9451C132.346 19.8397 132.142 18.7431 131.736 17.7182C131.33 16.6933 130.73 15.7604 129.969 14.9729C129.209 14.1854 128.303 13.5588 127.305 13.1293C126.307 12.6997 125.235 12.4755 124.152 12.4696Z" fill="#FAFAFA"/>
    <path d="M111.699 27.1065C111.885 27.0235 112.044 26.8866 112.154 26.7126C112.265 26.5386 112.324 26.3352 112.322 26.1277C112.331 25.9915 112.313 25.8548 112.268 25.7262C112.223 25.5975 112.152 25.4797 112.061 25.3799C111.97 25.2802 111.859 25.2007 111.736 25.1463C111.614 25.0919 111.481 25.0639 111.347 25.0639C111.213 25.0639 111.081 25.0919 110.958 25.1463C110.835 25.2007 110.725 25.2802 110.634 25.3799C110.542 25.4797 110.472 25.5975 110.427 25.7262C110.382 25.8548 110.363 25.9915 110.372 26.1277C110.367 26.3371 110.424 26.5433 110.534 26.72C110.644 26.8967 110.803 27.036 110.991 27.1201C110.684 27.1563 110.393 27.2849 110.157 27.4897C109.921 27.6945 109.75 27.9661 109.665 28.2703C110.014 28.6771 110.494 28.9428 111.018 29.019H111.615C112.147 28.9479 112.637 28.6837 112.994 28.2748C112.919 27.9695 112.755 27.6945 112.524 27.486C112.293 27.2775 112.005 27.1453 111.699 27.1065Z" fill="#455A64"/>
    <path d="M111.327 29.0281C111.327 29.0281 111.522 29.0281 111.858 28.9288C112.332 28.7957 112.749 28.5053 113.043 28.1034C113.258 27.8109 113.397 27.4684 113.45 27.107C113.502 26.7456 113.466 26.3765 113.344 26.033C113.202 25.6258 112.943 25.2719 112.601 25.0181C112.236 24.7427 111.794 24.5941 111.341 24.5941C110.887 24.5941 110.445 24.7427 110.081 25.0181C109.736 25.268 109.474 25.6188 109.329 26.024C109.204 26.3669 109.164 26.7363 109.215 27.0987C109.265 27.461 109.403 27.8048 109.616 28.0989C109.907 28.5025 110.321 28.7961 110.793 28.9334C111.129 29.0281 111.327 29.0191 111.327 29.0371C111.279 29.044 111.23 29.044 111.182 29.0371C111.045 29.0383 110.908 29.0216 110.775 28.9875C110.352 28.8859 109.968 28.6613 109.668 28.341C109.368 28.0207 109.166 27.6185 109.086 27.1832C108.954 26.5938 109.051 25.975 109.357 25.457C109.662 24.939 110.153 24.5621 110.726 24.4055C111.298 24.249 111.908 24.325 112.427 24.6176C112.945 24.9102 113.333 25.3965 113.507 25.9744C113.634 26.3422 113.667 26.7364 113.606 27.121C113.544 27.5056 113.388 27.8682 113.153 28.1756C112.837 28.5877 112.39 28.8748 111.889 28.9875C111.756 29.0206 111.619 29.0358 111.482 29.0326C111.431 29.0392 111.379 29.0377 111.327 29.0281Z" fill="#455A64"/>
    <path d="M123.34 26.1683L114.993 26.1371L114.99 27.0437L123.336 27.0749L123.34 26.1683Z" fill="#455A64"/>
    <path d="M126.592 25.1083C126.592 25.1602 126.582 25.2116 126.563 25.2595C126.543 25.3075 126.514 25.3509 126.478 25.3874C126.442 25.4239 126.399 25.4527 126.352 25.4722C126.305 25.4916 126.254 25.5013 126.203 25.5007C126.108 25.4903 126.019 25.4442 125.955 25.3714C125.891 25.2985 125.855 25.204 125.855 25.1061C125.855 25.0081 125.891 24.9136 125.955 24.8408C126.019 24.7679 126.108 24.7218 126.203 24.7114C126.254 24.7108 126.305 24.7206 126.353 24.7404C126.4 24.7601 126.443 24.7893 126.48 24.8263C126.516 24.8633 126.544 24.9073 126.564 24.9557C126.583 25.0041 126.593 25.056 126.592 25.1083Z" fill="#455A64"/>
    <path d="M126.589 26.5247C126.589 26.6034 126.566 26.6803 126.523 26.7457C126.48 26.811 126.419 26.8619 126.347 26.8918C126.276 26.9217 126.198 26.9293 126.122 26.9136C126.046 26.8979 125.977 26.8597 125.923 26.8037C125.869 26.7478 125.832 26.6766 125.817 26.5993C125.803 26.522 125.811 26.4421 125.841 26.3696C125.872 26.2972 125.922 26.2355 125.987 26.1924C126.051 26.1494 126.127 26.1268 126.204 26.1277C126.306 26.1289 126.404 26.1713 126.476 26.2456C126.548 26.3199 126.589 26.4202 126.589 26.5247Z" fill="#455A64"/>
    <path d="M126.583 27.941C126.583 28.0197 126.56 28.0966 126.517 28.162C126.474 28.2274 126.413 28.2782 126.342 28.3082C126.27 28.3381 126.192 28.3457 126.116 28.33C126.041 28.3143 125.971 28.276 125.917 28.2201C125.863 28.1641 125.826 28.093 125.812 28.0157C125.797 27.9384 125.805 27.8584 125.836 27.786C125.866 27.7135 125.916 27.6519 125.981 27.6088C126.045 27.5657 126.121 27.5432 126.198 27.5441C126.301 27.5453 126.398 27.5876 126.47 27.6619C126.542 27.7362 126.583 27.8365 126.583 27.941Z" fill="#455A64"/>
    <path d="M94.6002 157.436C94.6336 157.668 94.5967 157.904 94.4946 158.113C94.3924 158.323 94.2298 158.495 94.0286 158.608C93.8275 158.72 93.5974 158.767 93.3694 158.742C93.1414 158.717 92.9263 158.621 92.7531 158.468C92.5799 158.315 92.4569 158.111 92.4006 157.884C92.3443 157.657 92.3574 157.418 92.4382 157.199C92.519 156.98 92.6635 156.792 92.8525 156.659C93.0414 156.527 93.2656 156.456 93.4949 156.457C93.7682 156.44 94.0372 156.533 94.244 156.716C94.4508 156.899 94.5787 157.158 94.6002 157.436Z" fill="#455A64"/>
    <path d="M98.0319 157.454C98.0653 157.686 98.0284 157.922 97.9262 158.131C97.824 158.341 97.6614 158.513 97.4603 158.626C97.2591 158.738 97.0291 158.785 96.801 158.76C96.573 158.735 96.3579 158.64 96.1847 158.486C96.0115 158.333 95.8885 158.129 95.8322 157.902C95.7759 157.675 95.789 157.436 95.8698 157.217C95.9506 156.998 96.0952 156.81 96.2841 156.677C96.473 156.545 96.6972 156.474 96.9266 156.475C97.0621 156.465 97.1983 156.483 97.3272 156.527C97.4561 156.571 97.5754 156.64 97.678 156.731C97.7806 156.822 97.8647 156.933 97.9254 157.057C97.9862 157.181 98.0223 157.316 98.0319 157.454Z" fill="#455A64"/>
    <path d="M101.475 157.468C101.509 157.699 101.472 157.935 101.37 158.144C101.268 158.354 101.105 158.526 100.905 158.639C100.704 158.751 100.474 158.798 100.246 158.774C100.018 158.749 99.8031 158.654 99.6298 158.501C99.4564 158.348 99.333 158.145 99.2762 157.918C99.2195 157.692 99.2319 157.453 99.312 157.234C99.3921 157.015 99.536 156.826 99.7243 156.693C99.9126 156.56 100.136 156.489 100.365 156.489C100.639 156.47 100.91 156.562 101.117 156.746C101.325 156.929 101.454 157.188 101.475 157.468Z" fill="#455A64"/>
    <path d="M120.243 64.3054H67.6309V64.7564H120.243V64.3054Z" fill="#263238"/>
    <path d="M67.6301 35.4375H68.0723V64.3054H67.6301V35.4375Z" fill="#263238"/>
    <path d="M86.897 50.0706H81.3369V64.3016H86.897V50.0706Z" fill="#F9968B"/>
    <path d="M76.0308 56.3691H70.2832V64.4882H76.0308V56.3691Z" fill="#F9968B"/>
    <path d="M97.2525 53.931H91.5049V64.3054H97.2525V53.931Z" fill="#F9968B"/>
    <path d="M107.863 47.6161H102.558V64.3054H107.863V47.6161Z" fill="#F9968B"/>
    <path d="M118.916 38.5949H113.356V64.3016H118.916V38.5949Z" fill="#F9968B"/>
    <path d="M196.109 48.5984L122.43 48.5984C121.696 48.5984 121.1 49.1923 121.097 49.9263L120.993 78.1058C120.99 78.8429 121.587 79.4416 122.324 79.4416L196.107 79.4416C196.843 79.4416 197.44 78.8448 197.44 78.1089L197.44 49.9293C197.44 49.1941 196.844 48.5984 196.109 48.5984Z" fill="white"/>
    <path d="M198 79.0823L121.751 80.128C121.006 80.1382 120.398 79.5357 120.401 78.791L120.52 49.4265C120.522 48.693 121.118 48.1 121.851 48.1H198V79.0823ZM121.576 77.7452C121.573 78.4828 122.171 79.0823 122.908 79.0823H198V48.1L122.997 49.1461C122.271 49.1562 121.686 49.7463 121.683 50.4725L121.576 77.7452Z" fill="#263238"/>
    <path d="M141.687 62.389C141.677 63.9421 141.216 65.4573 140.362 66.7433C139.508 68.0292 138.3 69.0283 136.89 69.6142C135.48 70.2001 133.932 70.3467 132.44 70.0354C130.949 69.7241 129.581 68.9689 128.51 67.8651C127.439 66.7614 126.713 65.3586 126.422 63.8339C126.132 62.3092 126.291 60.731 126.88 59.2985C127.468 57.8661 128.46 56.6437 129.729 55.7857C130.998 54.9276 132.487 54.4725 134.01 54.4776C136.053 54.4985 138.006 55.3412 139.443 56.8226C140.881 58.304 141.687 60.3044 141.687 62.389Z" fill="#F27348"/>
    <path d="M134.605 62.477C134.922 62.3346 135.191 62.1006 135.38 61.8038C135.568 61.507 135.667 61.1604 135.665 60.8069C135.665 60.3592 135.49 59.93 135.18 59.6134C134.87 59.2969 134.449 59.1191 134.01 59.1191C133.572 59.1191 133.151 59.2969 132.841 59.6134C132.53 59.93 132.356 60.3592 132.356 60.8069C132.348 61.1639 132.443 61.5155 132.63 61.8173C132.817 62.1192 133.088 62.3579 133.407 62.5034C130.822 62.8902 130.96 65.7295 130.96 65.7295H136.992C136.992 65.7295 137.129 62.8814 134.605 62.477Z" fill="white"/>
    <g filter="url(#filter0_d)">
        <path d="M174.682 67.1364C174.635 65.5638 175.892 64.2612 177.465 64.2528L190.673 64.1828C192.232 64.1746 193.498 65.4415 193.488 67.0006L193.464 70.721C193.454 72.2544 192.212 73.4946 190.679 73.5027L177.606 73.572C176.087 73.5801 174.838 72.3748 174.793 70.856L174.682 67.1364Z" fill="#26474E"/>
    </g>
    <path d="M180.56 69.858C180.388 69.8631 180.221 69.8453 180.058 69.8046C179.897 69.7618 179.767 69.7045 179.667 69.6329L179.827 69.2488C179.922 69.3144 180.035 69.3659 180.164 69.4035C180.294 69.4411 180.423 69.4579 180.551 69.4541C180.694 69.4498 180.799 69.4259 180.866 69.3825C180.933 69.3369 180.966 69.279 180.964 69.2086C180.962 69.1568 180.94 69.115 180.898 69.0831C180.857 69.0491 180.805 69.0226 180.74 69.0039C180.677 68.985 180.592 68.9648 180.483 68.9432C180.316 68.9088 180.179 68.8735 180.073 68.8373C179.966 68.8011 179.873 68.7407 179.794 68.656C179.717 68.5713 179.676 68.4564 179.671 68.3115C179.668 68.1852 179.698 68.0702 179.764 67.9667C179.829 67.8611 179.929 67.7763 180.064 67.7121C180.201 67.6479 180.369 67.6128 180.567 67.6069C180.706 67.6027 180.842 67.6152 180.976 67.6444C181.109 67.6736 181.227 67.7177 181.328 67.7769L181.184 68.1636C180.98 68.0557 180.777 68.0048 180.576 68.0108C180.436 68.015 180.332 68.0409 180.265 68.0885C180.2 68.1361 180.169 68.1971 180.171 68.2717C180.173 68.3462 180.213 68.401 180.291 68.4359C180.37 68.4688 180.491 68.5004 180.651 68.5309C180.818 68.5652 180.955 68.6005 181.062 68.6367C181.168 68.6729 181.26 68.7323 181.337 68.815C181.417 68.8976 181.458 69.0114 181.463 69.1563C181.466 69.2806 181.435 69.3955 181.367 69.5012C181.302 69.6047 181.201 69.6885 181.064 69.7527C180.927 69.8169 180.759 69.852 180.56 69.858ZM184.395 68.0332L183.839 69.7225L183.373 69.7364L182.966 68.7102L182.609 69.7593L182.143 69.7733L181.49 68.1202L181.947 68.1065L182.375 69.2254L182.752 68.0824L183.162 68.0702L183.593 69.1889L183.966 68.0461L184.395 68.0332ZM185.239 67.9831C185.498 67.9754 185.698 68.0315 185.841 68.1516C185.983 68.2696 186.058 68.4529 186.065 68.7014L186.094 69.655L185.64 69.6686L185.634 69.4604C185.548 69.6185 185.38 69.7012 185.132 69.7087C185.003 69.7125 184.891 69.6941 184.794 69.6535C184.7 69.6128 184.627 69.5549 184.575 69.4797C184.523 69.4046 184.495 69.3184 184.492 69.221C184.488 69.0657 184.542 68.9418 184.655 68.8493C184.771 68.7567 184.95 68.7068 185.195 68.6995L185.58 68.6879C185.577 68.5823 185.542 68.5025 185.476 68.4485C185.411 68.3925 185.313 68.3664 185.185 68.3702C185.096 68.3729 185.008 68.39 184.922 68.4216C184.838 68.4511 184.767 68.4905 184.708 68.5399L184.524 68.2066C184.613 68.1397 184.721 68.0867 184.846 68.0477C184.973 68.0087 185.104 67.9871 185.239 67.9831ZM185.243 69.3789C185.326 69.3764 185.399 69.3556 185.462 69.3164C185.525 69.2751 185.569 69.2168 185.594 69.1414L185.588 68.9706L185.256 68.9806C185.057 68.9865 184.96 69.0547 184.964 69.1852C184.966 69.2473 184.991 69.2963 185.04 69.3321C185.09 69.3658 185.158 69.3814 185.243 69.3789ZM187.469 67.9163C187.625 67.9117 187.767 67.9437 187.895 68.0124C188.026 68.0789 188.129 68.1764 188.205 68.3046C188.282 68.4309 188.323 68.5799 188.328 68.7518C188.333 68.9237 188.301 69.0759 188.233 69.2085C188.164 69.3391 188.066 69.4425 187.94 69.5189C187.816 69.593 187.676 69.6325 187.521 69.6371C187.308 69.6435 187.138 69.5812 187.012 69.4503L187.035 70.2299L186.551 70.2444L186.482 67.9707L186.945 67.9569L186.951 68.1495C187.067 68.0009 187.24 67.9232 187.469 67.9163ZM187.425 69.242C187.549 69.2383 187.65 69.1939 187.726 69.1087C187.804 69.0214 187.841 68.9073 187.837 68.7665C187.833 68.6257 187.789 68.5151 187.706 68.4346C187.624 68.3521 187.522 68.3127 187.398 68.3164C187.273 68.3201 187.172 68.3656 187.094 68.453C187.018 68.5381 186.982 68.6511 186.986 68.792C186.99 68.9328 187.033 69.0445 187.114 69.127C187.197 69.2074 187.301 69.2458 187.425 69.242Z" fill="white"/>
    <path d="M181.284 57.8722C180.819 57.9513 180.341 57.9906 179.863 57.989C178.953 58.0099 177.636 58.0402 176.003 58.1366C172.735 58.2118 168.229 58.3658 163.247 58.43C158.265 58.4941 153.745 58.5981 150.476 58.6228L146.613 58.636C146.135 58.6593 145.655 58.6392 145.188 58.5763C145.655 58.5048 146.132 58.4684 146.61 58.4679C147.519 58.447 148.849 58.366 150.482 58.3116C153.737 58.2368 158.256 58.0908 163.238 58.0182C168.22 57.9457 172.727 57.8504 175.996 57.8257C177.63 57.7881 178.949 57.8082 179.859 57.8125C180.337 57.797 180.815 57.817 181.284 57.8722Z" fill="#263238"/>
    <path d="M171.489 63.1669C171.175 63.2426 170.851 63.2783 170.527 63.2731C169.911 63.2873 169.018 63.3078 167.913 63.3921C165.699 63.443 162.647 63.5637 159.272 63.5909C155.896 63.618 152.834 63.6885 150.619 63.689L148.002 63.6735C147.678 63.6933 147.353 63.6696 147.036 63.6033C147.352 63.5352 147.675 63.5024 147.998 63.5054C148.614 63.4913 149.515 63.4201 150.621 63.3779C152.826 63.3272 155.887 63.2147 159.262 63.1791C162.638 63.1435 165.691 63.0817 167.906 63.0812C169.013 63.0558 169.907 63.0856 170.523 63.0967C170.847 63.0847 171.171 63.1083 171.489 63.1669Z" fill="#263238"/>
    <path d="M118.218 78.4703L68.4347 78.4703C67.9388 78.4703 67.536 78.8715 67.5342 79.3675L67.4642 98.4077C67.4623 98.9057 67.8654 99.3102 68.3634 99.3102L118.217 99.3102C118.714 99.3102 119.117 98.9069 119.117 98.4097L119.117 79.3695C119.117 78.8728 118.715 78.4703 118.218 78.4703Z" fill="white"/>
    <path d="M119.497 99.0674L67.9774 99.774C67.4742 99.7809 67.0632 99.3738 67.0652 98.8706L67.1453 79.0298C67.1473 78.5342 67.5496 78.1335 68.0452 78.1335H119.497V99.0674ZM67.8593 98.164C67.8574 98.6624 68.2608 99.0674 68.7592 99.0674H119.497V78.1335L68.8191 78.8403C68.3284 78.8472 67.9337 79.2459 67.9318 79.7366L67.8593 98.164Z" fill="#263238"/>
    <path d="M81.4482 87.7883C81.4413 88.8377 81.1297 89.8614 80.5529 90.7303C79.9761 91.5992 79.1598 92.2742 78.2072 92.6701C77.2545 93.066 76.2083 93.165 75.2005 92.9547C74.1928 92.7444 73.2687 92.2341 72.545 91.4883C71.8213 90.7425 71.3305 89.7947 71.1345 88.7645C70.9384 87.7343 71.046 86.668 71.4436 85.7001C71.8412 84.7322 72.511 83.9063 73.3684 83.3265C74.2258 82.7468 75.2324 82.4393 76.261 82.4427C77.6416 82.4568 78.9608 83.0262 79.9321 84.0272C80.9034 85.0281 81.4483 86.3797 81.4482 87.7883Z" fill="#F27348"/>
    <path d="M76.6646 87.8478C76.8789 87.7515 77.0609 87.5934 77.1882 87.3928C77.3154 87.1923 77.3824 86.9581 77.3807 86.7193C77.3807 86.4168 77.2629 86.1268 77.0533 85.9129C76.8437 85.699 76.5594 85.5789 76.263 85.5789C75.9665 85.5789 75.6822 85.699 75.4726 85.9129C75.2629 86.1268 75.1452 86.4168 75.1452 86.7193C75.1396 86.9605 75.204 87.198 75.3304 87.402C75.4568 87.606 75.6394 87.7672 75.8554 87.8656C74.1089 88.1269 74.202 90.0453 74.202 90.0453H78.2772C78.2772 90.0453 78.3704 88.121 76.6646 87.8478Z" fill="white"/>
    <g filter="url(#filter1_d)">
        <path d="M103.742 90.638C103.71 89.5754 104.559 88.6953 105.623 88.6896L114.547 88.6424C115.6 88.6368 116.455 89.4928 116.449 90.5463L116.432 93.06C116.426 94.0961 115.587 94.9341 114.551 94.9396L105.718 94.9864C104.691 94.9918 103.848 94.1774 103.817 93.1513L103.742 90.638Z" fill="#26474E"/>
    </g>
    <path d="M107.713 92.4499C107.597 92.4534 107.484 92.4414 107.374 92.4139C107.265 92.3849 107.177 92.3462 107.11 92.2978L107.218 92.0383C107.282 92.0826 107.358 92.1174 107.446 92.1428C107.533 92.1682 107.62 92.1796 107.707 92.177C107.804 92.1741 107.875 92.158 107.92 92.1286C107.965 92.0979 107.987 92.0587 107.986 92.0111C107.985 91.9761 107.97 91.9479 107.941 91.9263C107.914 91.9033 107.878 91.8855 107.835 91.8728C107.792 91.8601 107.734 91.8464 107.661 91.8318C107.548 91.8085 107.456 91.7847 107.384 91.7603C107.312 91.7358 107.249 91.695 107.195 91.6378C107.143 91.5805 107.116 91.5029 107.113 91.405C107.11 91.3196 107.131 91.242 107.175 91.172C107.219 91.1007 107.287 91.0434 107.378 91C107.47 90.9566 107.584 90.9329 107.718 90.9289C107.812 90.9261 107.904 90.9345 107.994 90.9543C108.084 90.974 108.164 91.0038 108.232 91.0438L108.135 91.305C107.997 91.2322 107.86 91.1977 107.724 91.2018C107.629 91.2047 107.559 91.2222 107.514 91.2543C107.47 91.2864 107.449 91.3277 107.45 91.3781C107.452 91.4284 107.479 91.4654 107.531 91.4891C107.585 91.5113 107.666 91.5326 107.775 91.5532C107.887 91.5764 107.98 91.6003 108.052 91.6247C108.124 91.6492 108.186 91.6893 108.238 91.7452C108.292 91.801 108.32 91.8779 108.323 91.9758C108.325 92.0598 108.304 92.1374 108.258 92.2088C108.214 92.2788 108.146 92.3354 108.053 92.3788C107.961 92.4222 107.848 92.4459 107.713 92.4499ZM110.304 91.217L109.929 92.3584L109.614 92.3678L109.339 91.6744L109.097 92.3832L108.783 92.3927L108.342 91.2757L108.65 91.2665L108.94 92.0225L109.194 91.2502L109.471 91.2419L109.762 91.9978L110.014 91.2257L110.304 91.217ZM110.874 91.1831C111.049 91.1779 111.185 91.2158 111.281 91.297C111.377 91.3767 111.428 91.5005 111.433 91.6684L111.452 92.3127L111.146 92.3219L111.142 92.1813C111.083 92.2881 110.97 92.344 110.802 92.349C110.715 92.3516 110.639 92.3392 110.574 92.3117C110.51 92.2842 110.461 92.2451 110.426 92.1943C110.39 92.1436 110.372 92.0853 110.37 92.0195C110.367 91.9146 110.403 91.8309 110.48 91.7684C110.558 91.7058 110.68 91.6721 110.845 91.6671L111.105 91.6593C111.103 91.588 111.079 91.5341 111.035 91.4976C110.99 91.4597 110.925 91.4421 110.838 91.4447C110.778 91.4465 110.719 91.458 110.66 91.4794C110.604 91.4993 110.555 91.5259 110.516 91.5593L110.391 91.3341C110.452 91.2889 110.524 91.2531 110.609 91.2268C110.695 91.2004 110.783 91.1858 110.874 91.1831ZM110.877 92.1262C110.933 92.1245 110.983 92.1104 111.025 92.084C111.068 92.0561 111.097 92.0167 111.114 91.9658L111.111 91.8503L110.886 91.857C110.752 91.8611 110.686 91.9072 110.689 91.9953C110.69 92.0373 110.707 92.0704 110.74 92.0946C110.774 92.1174 110.82 92.1279 110.877 92.1262ZM112.382 91.138C112.486 91.1348 112.582 91.1565 112.669 91.2029C112.757 91.2478 112.827 91.3137 112.879 91.4004C112.93 91.4856 112.958 91.5863 112.961 91.7025C112.965 91.8186 112.943 91.9215 112.897 92.0111C112.851 92.0993 112.785 92.1692 112.7 92.2208C112.616 92.2709 112.521 92.2975 112.416 92.3007C112.272 92.305 112.158 92.2629 112.072 92.1744L112.088 92.7012L111.761 92.711L111.715 91.1747L112.027 91.1654L112.031 91.2955C112.109 91.1951 112.226 91.1426 112.382 91.138ZM112.352 92.0337C112.436 92.0312 112.503 92.0012 112.555 91.9436C112.608 91.8846 112.633 91.8075 112.63 91.7124C112.627 91.6173 112.597 91.5425 112.541 91.4882C112.486 91.4324 112.417 91.4058 112.333 91.4083C112.249 91.4108 112.181 91.4416 112.128 91.5006C112.076 91.5581 112.052 91.6345 112.055 91.7296C112.058 91.8248 112.086 91.9002 112.141 91.956C112.198 92.0103 112.268 92.0362 112.352 92.0337Z" fill="white"/>
    <path d="M108.201 84.7364C107.887 84.7898 107.564 84.8164 107.241 84.8153C106.626 84.8294 105.736 84.8499 104.633 84.915C102.425 84.9658 99.3803 85.0699 96.014 85.1132C92.6476 85.1566 89.5937 85.2268 87.3848 85.2436L84.775 85.2525C84.4516 85.2682 84.1274 85.2546 83.812 85.2121C84.1274 85.1638 84.4497 85.1392 84.7725 85.1389C85.3868 85.1248 86.2853 85.07 87.3891 85.0333C89.5883 84.9827 92.6416 84.8841 96.0078 84.8351C99.374 84.786 102.419 84.7217 104.628 84.705C105.732 84.6796 106.623 84.6931 107.238 84.6961C107.561 84.6856 107.884 84.6991 108.201 84.7364Z" fill="#263238"/>
    <path d="M101.584 88.3139C101.371 88.365 101.152 88.3891 100.933 88.3856C100.517 88.3952 99.914 88.4091 99.167 88.466C97.6711 88.5004 95.6091 88.5819 93.3284 88.6003C91.0477 88.6187 88.9788 88.6663 87.4822 88.6666L85.7138 88.6561C85.4948 88.6695 85.275 88.6535 85.061 88.6087C85.2744 88.5627 85.4926 88.5405 85.7113 88.5426C86.1275 88.533 86.7359 88.4849 87.4836 88.4564C88.9734 88.4221 91.0416 88.3462 93.3222 88.3221C95.6028 88.2981 97.6657 88.2563 99.1623 88.2559C99.9103 88.2387 100.514 88.2589 100.931 88.2664C101.15 88.2583 101.369 88.2742 101.584 88.3139Z" fill="#263238"/>
    <path d="M68.3407 102.246L118.124 102.246C118.62 102.246 119.023 102.647 119.024 103.143L119.094 122.183C119.096 122.681 118.693 123.086 118.195 123.086L68.3418 123.086C67.8446 123.086 67.4414 122.683 67.4414 122.186L67.4415 103.145C67.4415 102.649 67.844 102.246 68.3407 102.246Z" fill="white"/>
    <path d="M67.0617 122.843L118.581 123.55C119.084 123.557 119.495 123.15 119.493 122.646L119.413 102.806C119.411 102.31 119.009 101.909 118.513 101.909H67.0617V122.843ZM118.699 121.94C118.701 122.438 118.298 122.843 117.799 122.843H67.0617V101.909L117.74 102.616C118.23 102.623 118.625 103.022 118.627 103.512L118.699 121.94Z" fill="#263238"/>
    <path d="M81.4472 111.564C81.4403 112.613 81.1288 113.637 80.5519 114.506C79.9751 115.375 79.1588 116.05 78.2062 116.446C77.2536 116.842 76.2073 116.941 75.1996 116.731C74.1918 116.52 73.2677 116.01 72.544 115.264C71.8203 114.518 71.3295 113.571 71.1335 112.54C70.9374 111.51 71.045 110.444 71.4426 109.476C71.8402 108.508 72.51 107.682 73.3674 107.102C74.2249 106.523 75.2314 106.215 76.2601 106.219C77.6406 106.233 78.9599 106.802 79.9312 107.803C80.9025 108.804 81.4473 110.156 81.4472 111.564Z" fill="#F27348"/>
    <path d="M76.6636 111.624C76.8779 111.527 77.06 111.369 77.1872 111.169C77.3145 110.968 77.3814 110.734 77.3797 110.495C77.3797 110.193 77.262 109.903 77.0523 109.689C76.8427 109.475 76.5584 109.355 76.262 109.355C75.9655 109.355 75.6812 109.475 75.4716 109.689C75.262 109.903 75.1442 110.193 75.1442 110.495C75.1386 110.736 75.203 110.974 75.3294 111.178C75.4558 111.382 75.6385 111.543 75.8544 111.641C74.1079 111.903 74.2011 113.821 74.2011 113.821H78.2763C78.2763 113.821 78.3694 111.897 76.6636 111.624Z" fill="white"/>
    <g filter="url(#filter2_d)">
        <path d="M103.742 113.943C103.71 112.88 104.559 112 105.623 111.994L114.547 111.947C115.6 111.941 116.455 112.797 116.449 113.851L116.432 116.365C116.426 117.401 115.587 118.239 114.551 118.244L105.718 118.291C104.691 118.296 103.848 117.482 103.817 116.456L103.742 113.943Z" fill="#26474E"/>
    </g>
    <path d="M107.713 115.754C107.597 115.758 107.484 115.746 107.374 115.718C107.265 115.689 107.177 115.651 107.11 115.602L107.218 115.343C107.282 115.387 107.358 115.422 107.446 115.447C107.533 115.473 107.62 115.484 107.707 115.482C107.804 115.479 107.875 115.463 107.92 115.433C107.965 115.402 107.987 115.363 107.986 115.316C107.985 115.281 107.97 115.252 107.941 115.231C107.914 115.208 107.878 115.19 107.835 115.177C107.792 115.165 107.734 115.151 107.661 115.136C107.548 115.113 107.456 115.089 107.384 115.065C107.312 115.04 107.249 115 107.195 114.942C107.143 114.885 107.116 114.807 107.113 114.71C107.11 114.624 107.131 114.547 107.175 114.477C107.219 114.405 107.287 114.348 107.378 114.305C107.47 114.261 107.584 114.237 107.718 114.233C107.812 114.231 107.904 114.239 107.994 114.259C108.084 114.278 108.164 114.308 108.232 114.348L108.135 114.61C107.997 114.537 107.86 114.502 107.724 114.506C107.629 114.509 107.559 114.527 107.514 114.559C107.47 114.591 107.449 114.632 107.45 114.683C107.452 114.733 107.479 114.77 107.531 114.794C107.585 114.816 107.666 114.837 107.775 114.858C107.887 114.881 107.98 114.905 108.052 114.929C108.124 114.954 108.186 114.994 108.238 115.05C108.292 115.106 108.32 115.182 108.323 115.28C108.325 115.364 108.304 115.442 108.258 115.513C108.214 115.583 108.146 115.64 108.053 115.683C107.961 115.727 107.848 115.75 107.713 115.754ZM110.304 114.522L109.929 115.663L109.614 115.672L109.339 114.979L109.097 115.688L108.783 115.697L108.342 114.58L108.65 114.571L108.94 115.327L109.194 114.555L109.471 114.546L109.762 115.302L110.014 114.53L110.304 114.522ZM110.874 114.488C111.049 114.482 111.185 114.52 111.281 114.601C111.377 114.681 111.428 114.805 111.433 114.973L111.452 115.617L111.146 115.626L111.142 115.486C111.083 115.593 110.97 115.649 110.802 115.654C110.715 115.656 110.639 115.644 110.574 115.616C110.51 115.589 110.461 115.55 110.426 115.499C110.39 115.448 110.372 115.39 110.37 115.324C110.367 115.219 110.403 115.135 110.48 115.073C110.558 115.01 110.68 114.977 110.845 114.972L111.105 114.964C111.103 114.893 111.079 114.839 111.035 114.802C110.99 114.764 110.925 114.747 110.838 114.749C110.778 114.751 110.719 114.763 110.66 114.784C110.604 114.804 110.555 114.83 110.516 114.864L110.391 114.639C110.452 114.593 110.524 114.558 110.609 114.531C110.695 114.505 110.783 114.49 110.874 114.488ZM110.877 115.431C110.933 115.429 110.983 115.415 111.025 115.388C111.068 115.361 111.097 115.321 111.114 115.27L111.111 115.155L110.886 115.162C110.752 115.166 110.686 115.212 110.689 115.3C110.69 115.342 110.707 115.375 110.74 115.399C110.774 115.422 110.82 115.432 110.877 115.431ZM112.382 114.443C112.486 114.439 112.582 114.461 112.669 114.507C112.757 114.552 112.827 114.618 112.879 114.705C112.93 114.79 112.958 114.891 112.961 115.007C112.965 115.123 112.943 115.226 112.897 115.316C112.851 115.404 112.785 115.474 112.7 115.525C112.616 115.575 112.521 115.602 112.416 115.605C112.272 115.61 112.158 115.567 112.072 115.479L112.088 116.006L111.761 116.016L111.715 114.479L112.027 114.47L112.031 114.6C112.109 114.5 112.226 114.447 112.382 114.443ZM112.352 115.338C112.436 115.336 112.503 115.306 112.555 115.248C112.608 115.189 112.633 115.112 112.63 115.017C112.627 114.922 112.597 114.847 112.541 114.793C112.486 114.737 112.417 114.71 112.333 114.713C112.249 114.715 112.181 114.746 112.128 114.805C112.076 114.863 112.052 114.939 112.055 115.034C112.058 115.129 112.086 115.205 112.141 115.261C112.198 115.315 112.268 115.341 112.352 115.338Z" fill="white"/>
    <path d="M108.201 108.512C107.887 108.566 107.564 108.592 107.241 108.591C106.626 108.605 105.736 108.626 104.633 108.691C102.425 108.742 99.3803 108.846 96.014 108.889C92.6476 108.932 89.5937 109.003 87.3848 109.019L84.775 109.028C84.4516 109.044 84.1274 109.03 83.812 108.988C84.1274 108.94 84.4497 108.915 84.7725 108.915C85.3868 108.901 86.2853 108.846 87.3891 108.809C89.5883 108.759 92.6416 108.66 96.0078 108.611C99.374 108.562 102.419 108.498 104.628 108.481C105.732 108.455 106.623 108.469 107.238 108.472C107.561 108.461 107.884 108.475 108.201 108.512Z" fill="#263238"/>
    <path d="M101.584 112.09C101.371 112.141 101.152 112.165 100.933 112.161C100.517 112.171 99.914 112.185 99.167 112.242C97.6711 112.276 95.6091 112.358 93.3284 112.376C91.0477 112.394 88.9788 112.442 87.4822 112.442L85.7138 112.432C85.4948 112.445 85.275 112.429 85.061 112.384C85.2744 112.339 85.4926 112.316 85.7113 112.318C86.1275 112.309 86.7359 112.261 87.4836 112.232C88.9734 112.198 91.0416 112.122 93.3222 112.098C95.6028 112.074 97.6657 112.032 99.1623 112.032C99.9103 112.015 100.514 112.035 100.931 112.042C101.15 112.034 101.369 112.05 101.584 112.09Z" fill="#263238"/>
    <path d="M118.218 126.022L68.4347 126.022C67.9388 126.022 67.536 126.423 67.5342 126.919L67.4642 145.959C67.4623 146.457 67.8654 146.862 68.3634 146.862L118.217 146.862C118.714 146.862 119.117 146.459 119.117 145.961L119.117 126.921C119.117 126.424 118.715 126.022 118.218 126.022Z" fill="white"/>
    <path d="M119.497 146.619L67.9774 147.326C67.4742 147.333 67.0632 146.926 67.0652 146.422L67.1453 126.581C67.1473 126.086 67.5496 125.685 68.0452 125.685H119.497V146.619ZM67.8593 145.716C67.8574 146.214 68.2608 146.619 68.7592 146.619H119.497V125.685L68.8191 126.392C68.3284 126.399 67.9337 126.798 67.9318 127.288L67.8593 145.716Z" fill="#263238"/>
    <path d="M81.4482 135.34C81.4413 136.389 81.1297 137.413 80.5529 138.282C79.9761 139.151 79.1598 139.826 78.2072 140.222C77.2545 140.618 76.2083 140.717 75.2005 140.506C74.1928 140.296 73.2687 139.786 72.545 139.04C71.8213 138.294 71.3305 137.346 71.1345 136.316C70.9384 135.286 71.046 134.22 71.4436 133.252C71.8412 132.284 72.511 131.458 73.3684 130.878C74.2258 130.298 75.2324 129.991 76.261 129.994C77.6416 130.009 78.9608 130.578 79.9321 131.579C80.9034 132.58 81.4483 133.931 81.4482 135.34Z" fill="#F27348"/>
    <path d="M76.6646 135.399C76.8789 135.303 77.0609 135.145 77.1882 134.945C77.3154 134.744 77.3824 134.51 77.3807 134.271C77.3807 133.969 77.2629 133.678 77.0533 133.465C76.8437 133.251 76.5594 133.131 76.263 133.131C75.9665 133.131 75.6822 133.251 75.4726 133.465C75.2629 133.678 75.1452 133.969 75.1452 134.271C75.1396 134.512 75.204 134.75 75.3304 134.954C75.4568 135.158 75.6394 135.319 75.8554 135.417C74.1089 135.679 74.202 137.597 74.202 137.597H78.2772C78.2772 137.597 78.3704 135.673 76.6646 135.399Z" fill="white"/>
    <g filter="url(#filter3_d)">
        <path d="M103.742 137.247C103.71 136.185 104.559 135.304 105.623 135.299L114.547 135.252C115.6 135.246 116.455 136.102 116.449 137.155L116.432 139.669C116.426 140.705 115.587 141.543 114.551 141.549L105.718 141.596C104.691 141.601 103.848 140.787 103.817 139.76L103.742 137.247Z" fill="#26474E"/>
    </g>
    <path d="M107.713 139.059C107.597 139.063 107.484 139.051 107.374 139.023C107.265 138.994 107.177 138.955 107.11 138.907L107.218 138.648C107.282 138.692 107.358 138.727 107.446 138.752C107.533 138.777 107.62 138.789 107.707 138.786C107.804 138.783 107.875 138.767 107.92 138.738C107.965 138.707 107.987 138.668 107.986 138.62C107.985 138.585 107.97 138.557 107.941 138.536C107.914 138.513 107.878 138.495 107.835 138.482C107.792 138.469 107.734 138.456 107.661 138.441C107.548 138.418 107.456 138.394 107.384 138.369C107.312 138.345 107.249 138.304 107.195 138.247C107.143 138.19 107.116 138.112 107.113 138.014C107.11 137.929 107.131 137.851 107.175 137.781C107.219 137.71 107.287 137.653 107.378 137.609C107.47 137.566 107.584 137.542 107.718 137.538C107.812 137.535 107.904 137.544 107.994 137.563C108.084 137.583 108.164 137.613 108.232 137.653L108.135 137.914C107.997 137.841 107.86 137.807 107.724 137.811C107.629 137.814 107.559 137.831 107.514 137.864C107.47 137.896 107.449 137.937 107.45 137.987C107.452 138.038 107.479 138.075 107.531 138.098C107.585 138.12 107.666 138.142 107.775 138.162C107.887 138.186 107.98 138.209 108.052 138.234C108.124 138.258 108.186 138.299 108.238 138.354C108.292 138.41 108.32 138.487 108.323 138.585C108.325 138.669 108.304 138.747 108.258 138.818C108.214 138.888 108.146 138.945 108.053 138.988C107.961 139.031 107.848 139.055 107.713 139.059ZM110.304 137.826L109.929 138.968L109.614 138.977L109.339 138.284L109.097 138.992L108.783 139.002L108.342 137.885L108.65 137.876L108.94 138.632L109.194 137.859L109.471 137.851L109.762 138.607L110.014 137.835L110.304 137.826ZM110.874 137.792C111.049 137.787 111.185 137.825 111.281 137.906C111.377 137.986 111.428 138.11 111.433 138.278L111.452 138.922L111.146 138.931L111.142 138.79C111.083 138.897 110.97 138.953 110.802 138.958C110.715 138.961 110.639 138.948 110.574 138.921C110.51 138.893 110.461 138.854 110.426 138.804C110.39 138.753 110.372 138.694 110.37 138.629C110.367 138.524 110.403 138.44 110.48 138.378C110.558 138.315 110.68 138.281 110.845 138.276L111.105 138.269C111.103 138.197 111.079 138.143 111.035 138.107C110.99 138.069 110.925 138.051 110.838 138.054C110.778 138.056 110.719 138.067 110.66 138.089C110.604 138.108 110.555 138.135 110.516 138.169L110.391 137.943C110.452 137.898 110.524 137.862 110.609 137.836C110.695 137.81 110.783 137.795 110.874 137.792ZM110.877 138.735C110.933 138.734 110.983 138.72 111.025 138.693C111.068 138.665 111.097 138.626 111.114 138.575L111.111 138.46L110.886 138.466C110.752 138.47 110.686 138.516 110.689 138.604C110.69 138.646 110.707 138.68 110.74 138.704C110.774 138.727 110.82 138.737 110.877 138.735ZM112.382 137.747C112.486 137.744 112.582 137.766 112.669 137.812C112.757 137.857 112.827 137.923 112.879 138.01C112.93 138.095 112.958 138.196 112.961 138.312C112.965 138.428 112.943 138.531 112.897 138.62C112.851 138.708 112.785 138.778 112.7 138.83C112.616 138.88 112.521 138.907 112.416 138.91C112.272 138.914 112.158 138.872 112.072 138.784L112.088 139.31L111.761 139.32L111.715 137.784L112.027 137.775L112.031 137.905C112.109 137.804 112.226 137.752 112.382 137.747ZM112.352 138.643C112.436 138.64 112.503 138.61 112.555 138.553C112.608 138.494 112.633 138.417 112.63 138.322C112.627 138.226 112.597 138.152 112.541 138.097C112.486 138.042 112.417 138.015 112.333 138.017C112.249 138.02 112.181 138.051 112.128 138.11C112.076 138.167 112.052 138.244 112.055 138.339C112.058 138.434 112.086 138.509 112.141 138.565C112.198 138.62 112.268 138.645 112.352 138.643Z" fill="white"/>
    <path d="M108.201 132.288C107.887 132.342 107.564 132.368 107.241 132.367C106.626 132.381 105.736 132.402 104.633 132.467C102.425 132.518 99.3803 132.622 96.014 132.665C92.6476 132.708 89.5937 132.779 87.3848 132.795L84.775 132.804C84.4516 132.82 84.1274 132.806 83.812 132.764C84.1274 132.716 84.4497 132.691 84.7725 132.691C85.3868 132.676 86.2853 132.622 87.3891 132.585C89.5883 132.534 92.6416 132.436 96.0078 132.387C99.374 132.338 102.419 132.273 104.628 132.257C105.732 132.231 106.623 132.245 107.238 132.248C107.561 132.237 107.884 132.251 108.201 132.288Z" fill="#263238"/>
    <path d="M101.584 135.866C101.371 135.917 101.152 135.941 100.933 135.937C100.517 135.947 99.914 135.961 99.167 136.018C97.6711 136.052 95.6091 136.134 93.3284 136.152C91.0477 136.17 88.9788 136.218 87.4822 136.218L85.7138 136.208C85.4948 136.221 85.275 136.205 85.061 136.16C85.2744 136.114 85.4926 136.092 85.7113 136.094C86.1275 136.085 86.7359 136.037 87.4836 136.008C88.9734 135.974 91.0416 135.898 93.3222 135.874C95.6028 135.85 97.6657 135.808 99.1623 135.808C99.9103 135.79 100.514 135.811 100.931 135.818C101.15 135.81 101.369 135.826 101.584 135.866Z" fill="#263238"/>
    <defs>
        <filter id="filter0_d" x="171.321" y="61.9429" width="26.2738" height="16.8554" filterUnits="userSpaceOnUse" color-interpolation-filters="sRGB">
            <feFlood flood-opacity="0" result="BackgroundImageFix"/>
            <feColorMatrix in="SourceAlpha" type="matrix" values="0 0 0 0 0 0 0 0 0 0 0 0 0 0 0 0 0 0 127 0"/>
            <feOffset dx="0.373309" dy="1.49324"/>
            <feGaussianBlur stdDeviation="1.86655"/>
            <feColorMatrix type="matrix" values="0 0 0 0 0 0 0 0 0 0 0 0 0 0 0 0 0 0 0.05 0"/>
            <feBlend mode="normal" in2="BackgroundImageFix" result="effect1_dropShadow"/>
            <feBlend mode="normal" in="SourceGraphic" in2="effect1_dropShadow" result="shape"/>
        </filter>
        <filter id="filter1_d" x="101.471" y="87.1289" width="17.7525" height="11.3888" filterUnits="userSpaceOnUse" color-interpolation-filters="sRGB">
            <feFlood flood-opacity="0" result="BackgroundImageFix"/>
            <feColorMatrix in="SourceAlpha" type="matrix" values="0 0 0 0 0 0 0 0 0 0 0 0 0 0 0 0 0 0 127 0"/>
            <feOffset dx="0.252235" dy="1.00894"/>
            <feGaussianBlur stdDeviation="1.26117"/>
            <feColorMatrix type="matrix" values="0 0 0 0 0 0 0 0 0 0 0 0 0 0 0 0 0 0 0.05 0"/>
            <feBlend mode="normal" in2="BackgroundImageFix" result="effect1_dropShadow"/>
            <feBlend mode="normal" in="SourceGraphic" in2="effect1_dropShadow" result="shape"/>
        </filter>
        <filter id="filter2_d" x="101.471" y="110.433" width="17.7525" height="11.3888" filterUnits="userSpaceOnUse" color-interpolation-filters="sRGB">
            <feFlood flood-opacity="0" result="BackgroundImageFix"/>
            <feColorMatrix in="SourceAlpha" type="matrix" values="0 0 0 0 0 0 0 0 0 0 0 0 0 0 0 0 0 0 127 0"/>
            <feOffset dx="0.252235" dy="1.00894"/>
            <feGaussianBlur stdDeviation="1.26117"/>
            <feColorMatrix type="matrix" values="0 0 0 0 0 0 0 0 0 0 0 0 0 0 0 0 0 0 0.05 0"/>
            <feBlend mode="normal" in2="BackgroundImageFix" result="effect1_dropShadow"/>
            <feBlend mode="normal" in="SourceGraphic" in2="effect1_dropShadow" result="shape"/>
        </filter>
        <filter id="filter3_d" x="101.471" y="133.738" width="17.7525" height="11.3888" filterUnits="userSpaceOnUse" color-interpolation-filters="sRGB">
            <feFlood flood-opacity="0" result="BackgroundImageFix"/>
            <feColorMatrix in="SourceAlpha" type="matrix" values="0 0 0 0 0 0 0 0 0 0 0 0 0 0 0 0 0 0 127 0"/>
            <feOffset dx="0.252235" dy="1.00894"/>
            <feGaussianBlur stdDeviation="1.26117"/>
            <feColorMatrix type="matrix" values="0 0 0 0 0 0 0 0 0 0 0 0 0 0 0 0 0 0 0.05 0"/>
            <feBlend mode="normal" in2="BackgroundImageFix" result="effect1_dropShadow"/>
            <feBlend mode="normal" in="SourceGraphic" in2="effect1_dropShadow" result="shape"/>
        </filter>
    </defs>
</svg>
