<svg width="272" height="302" viewBox="0 0 272 302" fill="none" xmlns="http://www.w3.org/2000/svg">
<path d="M9.58301 104.883H81.3352C81.3352 104.883 74.9939 93.3477 56.5322 95.0247C38.9044 96.6338 38.0027 89.3539 29.0337 88.4524C20.0646 87.5509 12.5695 94.4334 9.58301 104.883Z" fill="#F0F0F0" fill-opacity="0.8"/>
<path d="M19.3193 100.644H91.0715C91.0715 100.644 84.7302 89.1084 66.2685 90.7854C48.6408 92.3946 47.739 85.1147 38.77 84.2132C29.801 83.3117 22.3058 90.1941 19.3193 100.644Z" fill="#F5F5F5" fill-opacity="0.5"/>
<path d="M56.561 64.8253C65.6914 55.6974 65.6914 40.8982 56.561 31.7703C47.4306 22.6424 32.6273 22.6424 23.4969 31.7703C14.3665 40.8982 14.3665 55.6974 23.4969 64.8253C32.6273 73.9532 47.4306 73.9532 56.561 64.8253Z" fill="#F5F5F5" fill-opacity="0.5"/>
<path d="M56.5612 64.8253C65.6916 55.6974 65.6916 40.8982 56.5612 31.7703C56.5612 31.7703 58.0454 50.66 48.915 59.7878C39.7846 68.9157 23.4971 64.8253 23.4971 64.8253C32.6275 73.9532 47.4308 73.9532 56.5612 64.8253Z" fill="#F0F0F0" fill-opacity="0.5"/>
<path d="M88.367 0H0V135.461H88.367V0Z" fill="#26474E" fill-opacity="0.5"/>
<path d="M42.1342 5.42462H4.81543V65.6787H42.1342V5.42462Z" fill="#FDFDFD" fill-opacity="0.5"/>
<path d="M83.5581 5.42462H46.2461V65.6787H83.5581V5.42462Z" fill="#FDFDFD" fill-opacity="0.5"/>
<path d="M42.1342 69.7824H4.81543V130.036H42.1342V69.7824Z" fill="#FDFDFD" fill-opacity="0.5"/>
<path d="M83.5581 69.7824H46.2461V130.036H83.5581V69.7824Z" fill="#FDFDFD" fill-opacity="0.5"/>
<path d="M27.4119 5.42462L4.81543 28.0149V14.6847L14.0847 5.42462H27.4119Z" fill="#EBEBEB" fill-opacity="0.5"/>
<path d="M4.81543 127.81L42.1342 90.5019V103.819L15.9158 130.037H4.81543V127.81Z" fill="#EBEBEB" fill-opacity="0.5"/>
<path d="M76.1868 69.7824L46.2393 99.7217V86.3982L62.8596 69.7824H76.1868Z" fill="#EBEBEB" fill-opacity="0.5"/>
<path d="M83.5574 49.0965V62.4133L80.291 65.6788H66.9639L83.5574 49.0965Z" fill="#EBEBEB" fill-opacity="0.5"/>
<path d="M83.5572 116.076V129.4L82.9201 130.037H69.5996L83.5572 116.076Z" fill="#EBEBEB" fill-opacity="0.5"/>
<path d="M6.95502 69.7824H13.6152L4.81543 78.5798V71.9147L6.95502 69.7824Z" fill="#EBEBEB" fill-opacity="0.5"/>
<path d="M11.0596 65.6787L42.1339 34.6062V41.2646L17.7198 65.6787H11.0596Z" fill="#EBEBEB" fill-opacity="0.5"/>
<path d="M77.991 5.42462L46.2393 37.161V30.5026L71.3308 5.42462H77.991Z" fill="#EBEBEB" fill-opacity="0.5"/>
<path d="M38.3647 5.42462L4.81543 38.9647V37.2951L36.6946 5.42462H38.3647Z" fill="#EBEBEB" fill-opacity="0.5"/>
<path d="M25.6748 130.037L42.1342 113.575V115.245L27.3449 130.037H25.6748Z" fill="#EBEBEB" fill-opacity="0.5"/>
<path d="M83.558 72.1762V73.8325L46.2393 111.141V109.471L83.558 72.1762Z" fill="#EBEBEB" fill-opacity="0.5"/>
<path d="M196.588 6.10352e-05H108.221V135.461H196.588V6.10352e-05Z" fill="#26474E" fill-opacity="0.5"/>
<path d="M150.355 5.42462H113.036V65.6787H150.355V5.42462Z" fill="#FDFDFD" fill-opacity="0.5"/>
<path d="M191.771 5.42462H154.459V65.6787H191.771V5.42462Z" fill="#FDFDFD" fill-opacity="0.5"/>
<path d="M150.355 69.7824H113.036V130.036H150.355V69.7824Z" fill="#FDFDFD" fill-opacity="0.5"/>
<path d="M191.771 69.7824H154.459V130.036H191.771V69.7824Z" fill="#FDFDFD" fill-opacity="0.5"/>
<path d="M113.036 69.7824H116.551L113.036 73.296V69.7824Z" fill="#EBEBEB" fill-opacity="0.5"/>
<path d="M113.036 59.9726L150.355 22.6574V35.9876L120.655 65.6788H113.036V59.9726Z" fill="#EBEBEB" fill-opacity="0.5"/>
<path d="M180.926 5.42462L154.459 31.8839V18.5537L167.592 5.42462H180.926Z" fill="#EBEBEB" fill-opacity="0.5"/>
<path d="M191.771 89.3486V102.672L164.406 130.037H154.459V126.65L191.771 89.3486Z" fill="#EBEBEB" fill-opacity="0.5"/>
<path d="M150.355 5.42462V6.6584L113.036 43.9669V37.3018L144.915 5.42462H150.355Z" fill="#EBEBEB" fill-opacity="0.5"/>
<path d="M135.546 130.037L150.355 115.231V121.89L142.206 130.037H135.546Z" fill="#EBEBEB" fill-opacity="0.5"/>
<path d="M191.771 73.819V80.4841L154.459 117.786V111.127L191.771 73.819Z" fill="#EBEBEB" fill-opacity="0.5"/>
<path d="M121.085 69.7824H122.755L113.036 79.4984V77.8355L121.085 69.7824Z" fill="#EBEBEB" fill-opacity="0.5"/>
<path d="M125.189 65.6788L150.355 40.5204V42.19L126.86 65.6788H125.189Z" fill="#EBEBEB" fill-opacity="0.5"/>
<path d="M187.13 5.42462L154.459 38.0863V36.4167L185.46 5.42462H187.13Z" fill="#EBEBEB" fill-opacity="0.5"/>
<path d="M113.036 128.783L150.355 91.4742V93.1371L113.445 130.037H113.036V128.783Z" fill="#EBEBEB" fill-opacity="0.5"/>
<path d="M173.715 69.7824L154.459 89.0334V87.3705L172.045 69.7824H173.715Z" fill="#EBEBEB" fill-opacity="0.5"/>
<path d="M191.771 50.0621V51.7317L177.82 65.6788H176.15L191.771 50.0621Z" fill="#EBEBEB" fill-opacity="0.5"/>
<path d="M168.082 302L94.7024 301.656C92.6025 301.648 90.5246 301.218 88.5876 300.391C86.6506 299.564 84.8923 298.355 83.4133 296.835C81.9343 295.314 80.7635 293.512 79.9677 291.529C79.1719 289.547 78.7668 287.425 78.7755 285.283L79.5514 97.6678C79.5753 93.3459 81.2811 89.2106 84.2938 86.1712C87.3064 83.1319 91.3792 81.4373 95.6166 81.4601L168.996 81.8098C173.233 81.8293 177.289 83.5644 180.273 86.6337C183.256 89.703 184.922 93.8551 184.905 98.177L184.135 285.743C184.13 287.886 183.711 290.008 182.901 291.985C182.091 293.963 180.907 295.759 179.415 297.269C177.924 298.779 176.155 299.974 174.211 300.786C172.266 301.598 170.183 302.01 168.082 302Z" fill="#455A64"/>
<path d="M168.899 88.2573L154.675 88.2082C154.21 88.217 153.751 88.3192 153.325 88.509C152.899 88.6988 152.513 88.9725 152.191 89.3144C151.869 89.6563 151.615 90.0597 151.446 90.5015C151.277 90.9433 151.195 91.4148 151.204 91.889V94.5207C151.214 94.995 151.132 95.4665 150.962 95.9082C150.793 96.35 150.54 96.7534 150.217 97.0953C149.895 97.4372 149.51 97.7109 149.084 97.9007C148.657 98.0905 148.199 98.1927 147.734 98.2015L119.994 98.0236C119.06 97.9979 118.174 97.5964 117.53 96.9068C116.885 96.2171 116.534 95.2954 116.554 94.3428V91.7111C116.573 90.7585 116.222 89.8368 115.577 89.1472C114.933 88.4575 114.047 88.056 113.113 88.0303H108.115L95.6646 87.9751C94.1939 87.967 92.7362 88.2548 91.3746 88.8219C90.0131 89.389 88.7746 90.2244 87.7299 91.2802C86.6853 92.336 85.855 93.5915 85.2865 94.975C84.7181 96.3584 84.4227 97.8426 84.4171 99.3425L83.6593 282.467C83.6465 285.494 84.8127 288.402 86.9016 290.552C88.9904 292.702 91.8309 293.918 94.7985 293.933L168.027 294.276C169.497 294.284 170.955 293.995 172.315 293.428C173.676 292.86 174.914 292.025 175.958 290.969C177.002 289.913 177.832 288.658 178.4 287.275C178.968 285.892 179.263 284.408 179.269 282.909L180.033 99.7842C180.047 98.2809 179.77 96.7895 179.217 95.3956C178.665 94.0017 177.848 92.7328 176.814 91.6618C175.779 90.5907 174.548 89.7386 173.189 89.1544C171.831 88.5702 170.373 88.2653 168.899 88.2573Z" fill="#FAFAFA"/>
<path d="M151.957 108.164C152.211 108.051 152.426 107.865 152.577 107.628C152.728 107.392 152.807 107.115 152.805 106.833C152.817 106.648 152.792 106.462 152.731 106.287C152.67 106.112 152.574 105.952 152.45 105.816C152.326 105.68 152.175 105.572 152.008 105.498C151.841 105.424 151.661 105.386 151.479 105.386C151.297 105.386 151.117 105.424 150.95 105.498C150.783 105.572 150.632 105.68 150.508 105.816C150.384 105.952 150.288 106.112 150.227 106.287C150.166 106.462 150.141 106.648 150.153 106.833C150.146 107.118 150.222 107.398 150.372 107.638C150.522 107.879 150.739 108.068 150.995 108.183C150.576 108.232 150.181 108.407 149.86 108.685C149.538 108.964 149.306 109.333 149.19 109.747C149.665 110.3 150.318 110.662 151.031 110.765H151.843C152.567 110.668 153.233 110.309 153.719 109.753C153.617 109.338 153.394 108.964 153.08 108.68C152.765 108.397 152.374 108.217 151.957 108.164Z" fill="#455A64"/>
<path d="M151.452 110.777C151.452 110.777 151.717 110.777 152.174 110.643C152.819 110.462 153.386 110.066 153.786 109.52C154.078 109.122 154.268 108.656 154.339 108.165C154.411 107.673 154.361 107.171 154.195 106.704C154.003 106.15 153.65 105.669 153.184 105.324C152.688 104.949 152.087 104.747 151.47 104.747C150.853 104.747 150.252 104.949 149.756 105.324C149.287 105.664 148.931 106.141 148.733 106.692C148.563 107.158 148.509 107.661 148.578 108.153C148.646 108.646 148.834 109.114 149.124 109.514C149.519 110.063 150.082 110.462 150.724 110.649C151.181 110.777 151.452 110.765 151.452 110.79C151.386 110.799 151.319 110.799 151.254 110.79C151.067 110.791 150.881 110.769 150.7 110.722C150.125 110.584 149.602 110.279 149.194 109.843C148.787 109.407 148.512 108.86 148.403 108.268C148.223 107.467 148.355 106.625 148.771 105.921C149.187 105.216 149.854 104.704 150.633 104.491C151.412 104.278 152.242 104.381 152.947 104.779C153.653 105.177 154.18 105.838 154.417 106.624C154.589 107.125 154.635 107.661 154.551 108.184C154.467 108.707 154.256 109.2 153.936 109.618C153.506 110.179 152.898 110.569 152.216 110.722C152.035 110.767 151.849 110.788 151.663 110.784C151.593 110.793 151.521 110.791 151.452 110.777Z" fill="#455A64"/>
<path d="M167.793 106.888L156.438 106.846L156.434 108.079L167.789 108.121L167.793 106.888Z" fill="#455A64"/>
<path d="M172.22 105.446C172.22 105.517 172.206 105.587 172.18 105.652C172.153 105.717 172.114 105.776 172.065 105.826C172.015 105.876 171.957 105.915 171.893 105.941C171.829 105.968 171.76 105.981 171.691 105.98C171.561 105.966 171.441 105.903 171.353 105.804C171.266 105.705 171.218 105.577 171.218 105.443C171.218 105.31 171.266 105.182 171.353 105.083C171.441 104.983 171.561 104.921 171.691 104.907C171.76 104.906 171.83 104.919 171.894 104.946C171.959 104.973 172.017 105.013 172.067 105.063C172.116 105.113 172.155 105.173 172.181 105.239C172.208 105.305 172.221 105.375 172.22 105.446Z" fill="#455A64"/>
<path d="M172.214 107.373C172.214 107.48 172.183 107.584 172.124 107.673C172.066 107.762 171.983 107.831 171.886 107.872C171.789 107.913 171.682 107.923 171.579 107.902C171.476 107.88 171.382 107.828 171.308 107.752C171.234 107.676 171.184 107.579 171.165 107.474C171.145 107.369 171.156 107.26 171.197 107.162C171.238 107.063 171.307 106.979 171.395 106.921C171.483 106.862 171.586 106.832 171.691 106.833C171.83 106.835 171.963 106.892 172.061 106.993C172.159 107.094 172.214 107.231 172.214 107.373Z" fill="#455A64"/>
<path d="M172.207 109.299C172.207 109.406 172.176 109.511 172.117 109.6C172.059 109.688 171.976 109.758 171.879 109.798C171.782 109.839 171.675 109.849 171.572 109.828C171.469 109.807 171.375 109.755 171.301 109.679C171.228 109.602 171.178 109.506 171.158 109.401C171.138 109.295 171.149 109.187 171.19 109.088C171.231 108.99 171.3 108.906 171.388 108.847C171.476 108.789 171.579 108.758 171.684 108.759C171.823 108.761 171.956 108.818 172.054 108.919C172.152 109.021 172.207 109.157 172.207 109.299Z" fill="#455A64"/>
<path d="M128.696 285.418C128.742 285.733 128.692 286.054 128.553 286.339C128.414 286.624 128.192 286.859 127.919 287.011C127.645 287.164 127.332 287.228 127.022 287.194C126.712 287.16 126.419 287.03 126.184 286.822C125.948 286.613 125.781 286.336 125.704 286.027C125.627 285.719 125.645 285.394 125.755 285.096C125.865 284.798 126.062 284.542 126.319 284.361C126.576 284.181 126.881 284.085 127.193 284.087C127.564 284.063 127.93 284.189 128.212 284.438C128.493 284.687 128.667 285.039 128.696 285.418Z" fill="#455A64"/>
<path d="M133.365 285.442C133.411 285.757 133.361 286.079 133.222 286.364C133.083 286.649 132.861 286.883 132.588 287.036C132.314 287.189 132.001 287.253 131.691 287.219C131.381 287.185 131.088 287.055 130.852 286.846C130.617 286.638 130.449 286.36 130.373 286.052C130.296 285.743 130.314 285.418 130.424 285.12C130.534 284.823 130.731 284.566 130.988 284.386C131.245 284.205 131.55 284.11 131.862 284.111C132.046 284.098 132.231 284.122 132.407 284.181C132.582 284.241 132.744 284.335 132.884 284.459C133.024 284.583 133.138 284.733 133.221 284.902C133.303 285.071 133.352 285.254 133.365 285.442Z" fill="#455A64"/>
<path d="M138.05 285.461C138.095 285.775 138.045 286.097 137.907 286.381C137.768 286.666 137.547 286.901 137.274 287.054C137 287.207 136.688 287.271 136.378 287.237C136.068 287.204 135.775 287.074 135.539 286.867C135.303 286.659 135.136 286.382 135.058 286.074C134.981 285.766 134.998 285.441 135.107 285.143C135.216 284.845 135.412 284.589 135.668 284.407C135.924 284.226 136.228 284.129 136.54 284.13C136.913 284.104 137.281 284.23 137.563 284.479C137.846 284.728 138.021 285.081 138.05 285.461Z" fill="#455A64"/>
<path d="M163.582 158.756H92.0068V159.37H163.582V158.756Z" fill="#263238"/>
<path d="M92.0069 119.495H92.6084V158.756H92.0069V119.495Z" fill="#263238"/>
<path d="M118.216 139.396H110.652V158.751H118.216V139.396Z" fill="#F9968B"/>
<path d="M103.435 147.962H95.6162V159.005H103.435V147.962Z" fill="#F9968B"/>
<path d="M132.305 144.647H124.486V158.756H132.305V144.647Z" fill="#F9968B"/>
<path d="M146.74 136.058H139.522V158.756H146.74V136.058Z" fill="#F9968B"/>
<path d="M161.777 123.789H154.213V158.751H161.777V123.789Z" fill="#F9968B"/>
<path d="M160.821 176.419L93.1023 176.419C92.4256 176.419 91.8761 176.966 91.8736 177.643L91.7784 203.531C91.7759 204.21 92.3258 204.762 93.0053 204.762L160.819 204.762C161.498 204.762 162.048 204.212 162.048 203.533L162.048 177.646C162.048 176.968 161.499 176.419 160.821 176.419Z" fill="white"/>
<path d="M162.564 204.432L92.4802 205.393C91.7936 205.402 91.2327 204.847 91.2355 204.16L91.3444 177.184C91.3472 176.508 91.8961 175.961 92.5723 175.961H162.564V204.432ZM92.3159 203.199C92.3132 203.879 92.8637 204.432 93.5437 204.432H162.564V175.961L93.6251 176.922C92.9556 176.931 92.417 177.475 92.4144 178.145L92.3159 203.199Z" fill="#263238"/>
<path d="M110.8 189.092C110.791 190.519 110.367 191.911 109.582 193.093C108.798 194.275 107.687 195.193 106.391 195.731C105.095 196.27 103.672 196.404 102.301 196.118C100.93 195.832 99.6729 195.138 98.6884 194.124C97.7039 193.11 97.0361 191.82 96.7694 190.419C96.5027 189.018 96.6491 187.568 97.19 186.252C97.7309 184.935 98.6421 183.812 99.8085 183.024C100.975 182.235 102.344 181.817 103.744 181.822C105.622 181.841 107.417 182.615 108.738 183.976C110.059 185.338 110.8 187.176 110.8 189.092Z" fill="#F27348"/>
<path d="M104.29 189.173C104.581 189.042 104.829 188.827 105.002 188.554C105.175 188.281 105.266 187.963 105.264 187.638C105.264 187.226 105.104 186.832 104.819 186.541C104.533 186.25 104.147 186.087 103.743 186.087C103.34 186.087 102.953 186.25 102.668 186.541C102.383 186.832 102.223 187.226 102.223 187.638C102.215 187.966 102.303 188.289 102.475 188.566C102.647 188.844 102.895 189.063 103.189 189.197C100.813 189.552 100.94 192.161 100.94 192.161H106.484C106.484 192.161 106.61 189.544 104.29 189.173Z" fill="white"/>
<g filter="url(#filter0_d)">
<path d="M141.55 193.594C141.506 192.144 142.666 190.943 144.116 190.936L156.293 190.871C157.731 190.863 158.897 192.031 158.888 193.469L158.866 196.899C158.857 198.312 157.712 199.456 156.298 199.463L144.246 199.527C142.846 199.535 141.695 198.423 141.653 197.023L141.55 193.594Z" fill="#26474E"/>
</g>
<path d="M146.976 196.337C146.817 196.342 146.663 196.326 146.513 196.288C146.365 196.249 146.245 196.196 146.153 196.13L146.3 195.776C146.388 195.836 146.491 195.884 146.611 195.918C146.73 195.953 146.849 195.968 146.968 195.965C147.099 195.961 147.196 195.939 147.258 195.899C147.32 195.857 147.35 195.803 147.348 195.739C147.346 195.691 147.326 195.652 147.287 195.623C147.25 195.591 147.201 195.567 147.141 195.55C147.084 195.532 147.005 195.514 146.905 195.494C146.751 195.462 146.625 195.43 146.526 195.396C146.428 195.363 146.342 195.307 146.269 195.229C146.198 195.151 146.16 195.045 146.156 194.911C146.153 194.795 146.181 194.689 146.241 194.594C146.302 194.496 146.394 194.418 146.518 194.359C146.644 194.3 146.799 194.267 146.982 194.262C147.11 194.258 147.236 194.27 147.359 194.296C147.482 194.323 147.59 194.364 147.684 194.419L147.551 194.775C147.363 194.676 147.176 194.629 146.991 194.634C146.861 194.638 146.765 194.662 146.703 194.706C146.644 194.75 146.615 194.806 146.617 194.875C146.619 194.943 146.656 194.994 146.727 195.026C146.801 195.057 146.912 195.086 147.06 195.114C147.213 195.145 147.34 195.178 147.438 195.211C147.536 195.245 147.621 195.299 147.692 195.376C147.765 195.452 147.804 195.557 147.808 195.69C147.811 195.805 147.782 195.911 147.72 196.008C147.66 196.104 147.566 196.181 147.44 196.24C147.314 196.299 147.159 196.332 146.976 196.337ZM150.511 194.655L149.999 196.212L149.569 196.225L149.194 195.279L148.865 196.246L148.435 196.259L147.833 194.735L148.254 194.723L148.649 195.754L148.996 194.7L149.374 194.689L149.772 195.72L150.116 194.667L150.511 194.655ZM151.289 194.609C151.528 194.602 151.713 194.653 151.844 194.764C151.975 194.873 152.044 195.042 152.051 195.271L152.077 196.15L151.659 196.163L151.654 195.971C151.574 196.116 151.42 196.193 151.19 196.2C151.072 196.203 150.968 196.186 150.879 196.149C150.792 196.111 150.725 196.058 150.677 195.989C150.629 195.919 150.604 195.84 150.601 195.75C150.597 195.607 150.647 195.493 150.751 195.407C150.857 195.322 151.023 195.276 151.249 195.269L151.604 195.259C151.601 195.161 151.569 195.088 151.508 195.038C151.447 194.986 151.358 194.962 151.239 194.966C151.157 194.968 151.077 194.984 150.997 195.013C150.92 195.04 150.854 195.077 150.8 195.122L150.63 194.815C150.712 194.753 150.811 194.704 150.927 194.668C151.044 194.632 151.165 194.612 151.289 194.609ZM151.293 195.896C151.369 195.893 151.437 195.874 151.495 195.838C151.553 195.8 151.593 195.746 151.616 195.677L151.611 195.519L151.305 195.528C151.122 195.534 151.032 195.597 151.036 195.717C151.037 195.774 151.061 195.819 151.105 195.852C151.152 195.884 151.215 195.898 151.293 195.896ZM153.346 194.547C153.489 194.543 153.62 194.572 153.738 194.636C153.858 194.697 153.954 194.787 154.024 194.905C154.095 195.022 154.132 195.159 154.137 195.317C154.142 195.476 154.112 195.616 154.049 195.738C153.986 195.859 153.896 195.954 153.78 196.025C153.665 196.093 153.536 196.129 153.393 196.134C153.196 196.14 153.04 196.082 152.924 195.961L152.945 196.68L152.498 196.694L152.436 194.597L152.862 194.585L152.868 194.762C152.974 194.625 153.134 194.553 153.346 194.547ZM153.305 195.769C153.419 195.766 153.512 195.725 153.582 195.646C153.654 195.566 153.688 195.461 153.684 195.331C153.68 195.201 153.64 195.099 153.563 195.025C153.489 194.949 153.394 194.913 153.279 194.916C153.165 194.919 153.071 194.961 152.999 195.042C152.929 195.12 152.896 195.225 152.9 195.354C152.904 195.484 152.943 195.587 153.018 195.663C153.095 195.737 153.19 195.773 153.305 195.769Z" fill="white"/>
<path d="M147.197 184.941C146.77 185.014 146.33 185.05 145.891 185.048C145.055 185.067 143.843 185.095 142.343 185.184C139.339 185.253 135.197 185.395 130.618 185.454C126.038 185.512 121.883 185.608 118.879 185.631L115.328 185.643C114.888 185.664 114.447 185.646 114.018 185.588C114.447 185.522 114.886 185.489 115.325 185.488C116.16 185.469 117.383 185.395 118.884 185.345C121.876 185.276 126.03 185.142 130.609 185.075C135.189 185.008 139.331 184.921 142.336 184.898C143.838 184.864 145.051 184.882 145.887 184.886C146.327 184.872 146.766 184.89 147.197 184.941Z" fill="#263238"/>
<path d="M138.195 189.807C137.906 189.876 137.608 189.909 137.31 189.904C136.744 189.917 135.923 189.936 134.907 190.013C132.872 190.06 130.067 190.171 126.964 190.196C123.861 190.221 121.047 190.286 119.011 190.286L116.605 190.272C116.307 190.29 116.008 190.268 115.717 190.207C116.007 190.145 116.304 190.115 116.602 190.118C117.168 190.105 117.996 190.039 119.013 190C121.04 189.954 123.853 189.85 126.956 189.818C130.058 189.785 132.865 189.728 134.901 189.728C135.918 189.704 136.74 189.732 137.307 189.742C137.604 189.731 137.902 189.753 138.195 189.807Z" fill="#263238"/>
<path d="M160.821 241.091L93.1023 241.091C92.4256 241.091 91.8761 241.639 91.8736 242.315L91.7784 268.203C91.7759 268.882 92.3258 269.434 93.0053 269.434L160.819 269.434C161.498 269.434 162.048 268.884 162.048 268.206L162.048 242.318C162.048 241.64 161.499 241.091 160.821 241.091Z" fill="white"/>
<path d="M162.564 269.104L92.4802 270.065C91.7936 270.074 91.2327 269.519 91.2355 268.832L91.3444 241.856C91.3472 241.18 91.8961 240.633 92.5723 240.633H162.564V269.104ZM92.3159 267.871C92.3132 268.551 92.8637 269.104 93.5437 269.104H162.564V240.633L93.6251 241.594C92.9556 241.604 92.417 242.148 92.4144 242.817L92.3159 267.871Z" fill="#263238"/>
<path d="M110.8 253.764C110.791 255.191 110.367 256.584 109.582 257.765C108.798 258.947 107.687 259.865 106.391 260.403C105.095 260.942 103.672 261.077 102.301 260.791C100.93 260.504 99.6729 259.81 98.6884 258.796C97.7039 257.782 97.0361 256.493 96.7694 255.092C96.5027 253.691 96.6491 252.24 97.19 250.924C97.7309 249.608 98.6421 248.484 99.8085 247.696C100.975 246.907 102.344 246.489 103.744 246.494C105.622 246.513 107.417 247.287 108.738 248.649C110.059 250.01 110.8 251.848 110.8 253.764Z" fill="#F27348"/>
<path d="M104.29 253.845C104.581 253.714 104.829 253.499 105.002 253.226C105.175 252.953 105.266 252.635 105.264 252.31C105.264 251.899 105.104 251.504 104.819 251.213C104.533 250.923 104.147 250.759 103.743 250.759C103.34 250.759 102.953 250.923 102.668 251.213C102.383 251.504 102.223 251.899 102.223 252.31C102.215 252.638 102.303 252.961 102.475 253.239C102.647 253.516 102.895 253.735 103.189 253.869C100.813 254.225 100.94 256.834 100.94 256.834H106.484C106.484 256.834 106.61 254.216 104.29 253.845Z" fill="white"/>
<g filter="url(#filter1_d)">
<path d="M141.55 257.19C141.506 255.74 142.666 254.54 144.116 254.532L156.293 254.467C157.731 254.46 158.897 255.628 158.888 257.065L158.866 260.495C158.857 261.909 157.712 263.052 156.298 263.06L144.246 263.123C142.846 263.131 141.695 262.02 141.653 260.62L141.55 257.19Z" fill="#26474E"/>
</g>
<path d="M146.976 259.934C146.817 259.938 146.663 259.922 146.513 259.884C146.365 259.845 146.245 259.792 146.153 259.726L146.3 259.372C146.388 259.432 146.491 259.48 146.611 259.515C146.73 259.549 146.849 259.565 146.968 259.561C147.099 259.557 147.196 259.535 147.258 259.495C147.32 259.453 147.35 259.4 147.348 259.335C147.346 259.287 147.326 259.249 147.287 259.219C147.25 259.188 147.201 259.163 147.141 259.146C147.084 259.129 147.005 259.11 146.905 259.09C146.751 259.058 146.625 259.026 146.526 258.993C146.428 258.959 146.342 258.904 146.269 258.825C146.198 258.747 146.16 258.641 146.156 258.508C146.153 258.391 146.181 258.285 146.241 258.19C146.302 258.093 146.394 258.014 146.518 257.955C146.644 257.896 146.799 257.864 146.982 257.858C147.11 257.854 147.236 257.866 147.359 257.893C147.482 257.92 147.59 257.96 147.684 258.015L147.551 258.371C147.363 258.272 147.176 258.225 146.991 258.231C146.861 258.234 146.765 258.258 146.703 258.302C146.644 258.346 146.615 258.402 146.617 258.471C146.619 258.54 146.656 258.59 146.727 258.623C146.801 258.653 146.912 258.682 147.06 258.71C147.213 258.742 147.34 258.774 147.438 258.808C147.536 258.841 147.621 258.896 147.692 258.972C147.765 259.048 147.804 259.153 147.808 259.287C147.811 259.401 147.782 259.507 147.72 259.605C147.66 259.7 147.566 259.777 147.44 259.837C147.314 259.896 147.159 259.928 146.976 259.934ZM150.511 258.251L149.999 259.809L149.569 259.822L149.194 258.875L148.865 259.843L148.435 259.855L147.833 258.331L148.254 258.319L148.649 259.35L148.996 258.297L149.374 258.285L149.772 259.317L150.116 258.263L150.511 258.251ZM151.289 258.205C151.528 258.198 151.713 258.25 151.844 258.36C151.975 258.469 152.044 258.638 152.051 258.867L152.077 259.746L151.659 259.759L151.654 259.567C151.574 259.713 151.42 259.789 151.19 259.796C151.072 259.799 150.968 259.782 150.879 259.745C150.792 259.707 150.725 259.654 150.677 259.585C150.629 259.516 150.604 259.436 150.601 259.346C150.597 259.203 150.647 259.089 150.751 259.004C150.857 258.918 151.023 258.872 151.249 258.865L151.604 258.855C151.601 258.758 151.569 258.684 151.508 258.634C151.447 258.582 151.358 258.558 151.239 258.562C151.157 258.564 151.077 258.58 150.997 258.609C150.92 258.636 150.854 258.673 150.8 258.718L150.63 258.411C150.712 258.349 150.811 258.301 150.927 258.265C151.044 258.229 151.165 258.209 151.289 258.205ZM151.293 259.492C151.369 259.49 151.437 259.47 151.495 259.434C151.553 259.396 151.593 259.342 151.616 259.273L151.611 259.115L151.305 259.125C151.122 259.13 151.032 259.193 151.036 259.313C151.037 259.371 151.061 259.416 151.105 259.449C151.152 259.48 151.215 259.494 151.293 259.492ZM153.346 258.143C153.489 258.139 153.62 258.169 153.738 258.232C153.858 258.293 153.954 258.383 154.024 258.501C154.095 258.618 154.132 258.755 154.137 258.914C154.142 259.072 154.112 259.213 154.049 259.335C153.986 259.455 153.896 259.551 153.78 259.621C153.665 259.689 153.536 259.726 153.393 259.73C153.196 259.736 153.04 259.678 152.924 259.558L152.945 260.276L152.498 260.29L152.436 258.194L152.862 258.181L152.868 258.358C152.974 258.221 153.134 258.15 153.346 258.143ZM153.305 259.366C153.419 259.362 153.512 259.321 153.582 259.243C153.654 259.162 153.688 259.057 153.684 258.927C153.68 258.797 153.64 258.695 153.563 258.621C153.489 258.545 153.394 258.509 153.279 258.512C153.165 258.516 153.071 258.558 152.999 258.638C152.929 258.717 152.896 258.821 152.9 258.951C152.904 259.081 152.943 259.184 153.018 259.26C153.095 259.334 153.19 259.369 153.305 259.366Z" fill="white"/>
<path d="M147.197 249.613C146.77 249.686 146.33 249.722 145.891 249.721C145.055 249.74 143.843 249.768 142.343 249.856C139.339 249.925 135.197 250.067 130.618 250.126C126.038 250.185 121.883 250.28 118.879 250.303L115.328 250.315C114.888 250.337 114.447 250.318 114.018 250.26C114.447 250.195 114.886 250.161 115.325 250.161C116.16 250.142 117.383 250.067 118.884 250.017C121.876 249.948 126.03 249.814 130.609 249.748C135.189 249.681 139.331 249.593 142.336 249.571C143.838 249.536 145.051 249.555 145.887 249.558C146.327 249.544 146.766 249.563 147.197 249.613Z" fill="#263238"/>
<path d="M138.195 254.479C137.906 254.548 137.608 254.581 137.31 254.576C136.744 254.589 135.923 254.608 134.907 254.686C132.872 254.733 130.067 254.843 126.964 254.868C123.861 254.893 121.047 254.958 119.011 254.959L116.605 254.944C116.307 254.962 116.008 254.941 115.717 254.88C116.007 254.817 116.304 254.787 116.602 254.79C117.168 254.777 117.996 254.711 119.013 254.673C121.04 254.626 123.853 254.523 126.956 254.49C130.058 254.457 132.865 254.4 134.901 254.4C135.918 254.377 136.74 254.404 137.307 254.414C137.604 254.403 137.902 254.425 138.195 254.479Z" fill="#263238"/>
<path d="M92.975 209.556L160.694 209.556C161.37 209.556 161.92 210.104 161.922 210.78L162.018 236.668C162.02 237.347 161.47 237.899 160.791 237.899L92.9765 237.899C92.2981 237.899 91.7478 237.349 91.7478 236.671L91.748 210.783C91.748 210.105 92.2972 209.556 92.975 209.556Z" fill="white"/>
<path d="M91.2315 237.569L161.316 238.53C162.002 238.539 162.563 237.984 162.56 237.297L162.451 210.321C162.449 209.645 161.9 209.098 161.224 209.098H91.2315V237.569ZM161.48 236.336C161.483 237.016 160.932 237.569 160.252 237.569H91.2315V209.098L160.171 210.059C160.84 210.069 161.379 210.613 161.382 211.282L161.48 236.336Z" fill="#263238"/>
<path d="M110.801 222.229C110.792 223.656 110.368 225.049 109.583 226.23C108.799 227.412 107.688 228.33 106.392 228.868C105.096 229.407 103.673 229.542 102.302 229.255C100.931 228.969 99.6739 228.275 98.6893 227.261C97.7048 226.247 97.0371 224.958 96.7704 223.557C96.5037 222.156 96.65 220.705 97.191 219.389C97.7319 218.073 98.6431 216.949 99.8095 216.161C100.976 215.372 102.345 214.954 103.745 214.959C105.623 214.978 107.418 215.752 108.739 217.114C110.06 218.475 110.801 220.313 110.801 222.229Z" fill="#F27348"/>
<path d="M104.291 222.31C104.582 222.179 104.83 221.964 105.003 221.691C105.176 221.418 105.267 221.1 105.265 220.775C105.265 220.364 105.105 219.969 104.82 219.678C104.534 219.387 104.148 219.224 103.744 219.224C103.341 219.224 102.954 219.387 102.669 219.678C102.384 219.969 102.224 220.364 102.224 220.775C102.216 221.103 102.304 221.426 102.476 221.704C102.648 221.981 102.896 222.2 103.19 222.334C100.814 222.689 100.941 225.299 100.941 225.299H106.485C106.485 225.299 106.611 222.681 104.291 222.31Z" fill="white"/>
<g filter="url(#filter2_d)">
<path d="M141.55 226.196C141.506 224.746 142.666 223.545 144.116 223.537L156.293 223.473C157.731 223.465 158.897 224.633 158.888 226.071L158.866 229.501C158.857 230.914 157.712 232.058 156.298 232.065L144.246 232.129C142.846 232.136 141.695 231.025 141.653 229.625L141.55 226.196Z" fill="#26474E"/>
</g>
<path d="M146.976 228.939C146.817 228.944 146.663 228.927 146.513 228.89C146.365 228.85 146.245 228.798 146.153 228.732L146.3 228.378C146.388 228.438 146.491 228.485 146.611 228.52C146.73 228.555 146.849 228.57 146.968 228.567C147.099 228.563 147.196 228.541 147.258 228.501C147.32 228.459 147.35 228.405 147.348 228.34C147.346 228.293 147.326 228.254 147.287 228.225C147.25 228.193 147.201 228.169 147.141 228.152C147.084 228.134 147.005 228.116 146.905 228.096C146.751 228.064 146.625 228.031 146.526 227.998C146.428 227.965 146.342 227.909 146.269 227.831C146.198 227.753 146.16 227.647 146.156 227.513C146.153 227.397 146.181 227.291 146.241 227.196C146.302 227.098 146.394 227.02 146.518 226.961C146.644 226.902 146.799 226.869 146.982 226.864C147.11 226.86 147.236 226.871 147.359 226.898C147.482 226.925 147.59 226.966 147.684 227.02L147.551 227.377C147.363 227.278 147.176 227.231 146.991 227.236C146.861 227.24 146.765 227.264 146.703 227.308C146.644 227.352 146.615 227.408 146.617 227.477C146.619 227.545 146.656 227.596 146.727 227.628C146.801 227.658 146.912 227.688 147.06 227.716C147.213 227.747 147.34 227.78 147.438 227.813C147.536 227.847 147.621 227.901 147.692 227.978C147.765 228.054 147.804 228.159 147.808 228.292C147.811 228.407 147.782 228.513 147.72 228.61C147.66 228.706 147.566 228.783 147.44 228.842C147.314 228.901 147.159 228.934 146.976 228.939ZM150.511 227.257L149.999 228.814L149.569 228.827L149.194 227.881L148.865 228.848L148.435 228.861L147.833 227.337L148.254 227.324L148.649 228.356L148.996 227.302L149.374 227.291L149.772 228.322L150.116 227.269L150.511 227.257ZM151.289 227.211C151.528 227.203 151.713 227.255 151.844 227.366C151.975 227.475 152.044 227.644 152.051 227.873L152.077 228.752L151.659 228.764L151.654 228.573C151.574 228.718 151.42 228.795 151.19 228.801C151.072 228.805 150.968 228.788 150.879 228.751C150.792 228.713 150.725 228.66 150.677 228.59C150.629 228.521 150.604 228.442 150.601 228.352C150.597 228.209 150.647 228.094 150.751 228.009C150.857 227.924 151.023 227.878 151.249 227.871L151.604 227.86C151.601 227.763 151.569 227.689 151.508 227.64C151.447 227.588 151.358 227.564 151.239 227.567C151.157 227.57 151.077 227.586 150.997 227.615C150.92 227.642 150.854 227.678 150.8 227.724L150.63 227.417C150.712 227.355 150.811 227.306 150.927 227.27C151.044 227.234 151.165 227.214 151.289 227.211ZM151.293 228.497C151.369 228.495 151.437 228.476 151.495 228.44C151.553 228.402 151.593 228.348 151.616 228.279L151.611 228.121L151.305 228.13C151.122 228.136 151.032 228.199 151.036 228.319C151.037 228.376 151.061 228.421 151.105 228.454C151.152 228.485 151.215 228.5 151.293 228.497ZM153.346 227.149C153.489 227.145 153.62 227.174 153.738 227.238C153.858 227.299 153.954 227.389 154.024 227.507C154.095 227.623 154.132 227.761 154.137 227.919C154.142 228.078 154.112 228.218 154.049 228.34C153.986 228.461 153.896 228.556 153.78 228.626C153.665 228.695 153.536 228.731 153.393 228.735C153.196 228.741 153.04 228.684 152.924 228.563L152.945 229.282L152.498 229.295L152.436 227.199L152.862 227.186L152.868 227.364C152.974 227.227 153.134 227.155 153.346 227.149ZM153.305 228.371C153.419 228.368 153.512 228.327 153.582 228.248C153.654 228.168 153.688 228.063 153.684 227.933C153.68 227.803 153.64 227.701 153.563 227.627C153.489 227.551 153.394 227.514 153.279 227.518C153.165 227.521 153.071 227.563 152.999 227.644C152.929 227.722 152.896 227.826 152.9 227.956C152.904 228.086 152.943 228.189 153.018 228.265C153.095 228.339 153.19 228.375 153.305 228.371Z" fill="white"/>
<path d="M147.199 218.078C146.772 218.151 146.332 218.187 145.892 218.186C145.057 218.205 143.845 218.233 142.345 218.321C139.341 218.39 135.199 218.532 130.62 218.591C126.04 218.65 121.885 218.745 118.88 218.768L115.33 218.78C114.89 218.802 114.449 218.783 114.02 218.725C114.449 218.66 114.887 218.626 115.327 218.626C116.162 218.606 117.385 218.532 118.886 218.482C121.878 218.413 126.032 218.279 130.611 218.212C135.191 218.146 139.333 218.058 142.338 218.035C143.84 218.001 145.053 218.019 145.889 218.023C146.329 218.009 146.768 218.028 147.199 218.078Z" fill="#263238"/>
<path d="M138.195 222.944C137.906 223.013 137.608 223.046 137.31 223.041C136.744 223.054 135.923 223.073 134.907 223.151C132.872 223.197 130.067 223.308 126.964 223.333C123.861 223.358 121.047 223.423 119.011 223.423L116.605 223.409C116.307 223.427 116.008 223.406 115.717 223.345C116.007 223.282 116.304 223.252 116.602 223.255C117.168 223.242 117.996 223.176 119.013 223.138C121.04 223.091 123.853 222.988 126.956 222.955C130.058 222.922 132.865 222.865 134.901 222.865C135.918 222.842 136.74 222.869 137.307 222.879C137.604 222.868 137.902 222.89 138.195 222.944Z" fill="#263238"/>
<path d="M253.264 124.263L200.914 124.263C200.39 124.263 199.966 124.686 199.964 125.209L199.89 145.221C199.888 145.747 200.313 146.173 200.839 146.173L253.262 146.173C253.787 146.173 254.212 145.748 254.212 145.223L254.212 125.211C254.212 124.687 253.787 124.263 253.264 124.263Z" fill="white"/>
<path d="M254.612 145.918L200.433 146.661C199.902 146.668 199.469 146.239 199.471 145.708L199.555 124.854C199.557 124.331 199.981 123.909 200.504 123.909H254.612V145.918ZM200.306 144.965C200.304 145.491 200.729 145.918 201.255 145.918H254.612V123.909L201.318 124.652C200.8 124.659 200.384 125.079 200.382 125.597L200.306 144.965Z" fill="#263238"/>
<path d="M214.595 134.059C214.588 135.163 214.261 136.239 213.654 137.153C213.047 138.066 212.189 138.776 211.187 139.192C210.185 139.608 209.085 139.712 208.025 139.491C206.965 139.27 205.993 138.734 205.232 137.949C204.471 137.165 203.955 136.169 203.749 135.086C203.543 134.003 203.656 132.881 204.074 131.864C204.492 130.846 205.196 129.978 206.098 129.368C207 128.759 208.058 128.435 209.14 128.439C210.592 128.454 211.98 129.053 213.001 130.105C214.023 131.157 214.596 132.578 214.595 134.059Z" fill="#F27348"/>
<path d="M209.563 134.122C209.789 134.021 209.98 133.854 210.114 133.644C210.248 133.433 210.318 133.187 210.316 132.935C210.316 132.617 210.193 132.312 209.972 132.088C209.752 131.863 209.453 131.736 209.141 131.736C208.829 131.736 208.53 131.863 208.31 132.088C208.089 132.312 207.965 132.617 207.965 132.935C207.96 133.189 208.027 133.439 208.16 133.653C208.293 133.868 208.485 134.037 208.712 134.141C206.876 134.415 206.974 136.432 206.974 136.432H211.259C211.259 136.432 211.357 134.409 209.563 134.122Z" fill="white"/>
<g filter="url(#filter3_d)">
<path d="M238.749 137.878C238.715 136.757 239.611 135.829 240.733 135.823L250.146 135.773C251.257 135.767 252.159 136.67 252.152 137.781L252.135 140.433C252.128 141.526 251.243 142.41 250.15 142.415L240.833 142.465C239.75 142.47 238.861 141.611 238.828 140.529L238.749 137.878Z" fill="#26474E"/>
</g>
<path d="M242.934 139.68C242.812 139.683 242.692 139.671 242.576 139.642C242.462 139.611 242.369 139.57 242.298 139.519L242.412 139.246C242.479 139.292 242.56 139.329 242.652 139.356C242.744 139.383 242.836 139.395 242.928 139.392C243.03 139.389 243.104 139.372 243.152 139.341C243.2 139.308 243.223 139.267 243.222 139.217C243.221 139.18 243.205 139.15 243.175 139.127C243.146 139.103 243.108 139.084 243.062 139.071C243.017 139.058 242.956 139.043 242.879 139.028C242.76 139.003 242.663 138.978 242.587 138.952C242.511 138.926 242.444 138.883 242.388 138.823C242.333 138.763 242.304 138.681 242.301 138.577C242.298 138.487 242.32 138.406 242.366 138.332C242.413 138.257 242.484 138.196 242.58 138.15C242.678 138.105 242.798 138.08 242.939 138.075C243.038 138.072 243.135 138.081 243.23 138.102C243.326 138.123 243.409 138.154 243.481 138.196L243.379 138.472C243.233 138.395 243.089 138.359 242.946 138.363C242.845 138.366 242.771 138.385 242.724 138.419C242.677 138.452 242.655 138.496 242.657 138.549C242.658 138.602 242.687 138.641 242.742 138.666C242.799 138.69 242.885 138.712 242.999 138.734C243.118 138.758 243.215 138.783 243.291 138.809C243.368 138.835 243.433 138.877 243.488 138.936C243.544 138.995 243.574 139.076 243.577 139.18C243.58 139.268 243.557 139.35 243.509 139.425C243.463 139.499 243.391 139.559 243.293 139.605C243.195 139.65 243.076 139.675 242.934 139.68ZM245.667 138.379L245.271 139.583L244.939 139.593L244.649 138.862L244.394 139.609L244.062 139.619L243.597 138.441L243.923 138.431L244.228 139.229L244.496 138.414L244.788 138.406L245.096 139.203L245.361 138.388L245.667 138.379ZM246.268 138.343C246.453 138.338 246.596 138.378 246.697 138.464C246.799 138.548 246.852 138.678 246.858 138.855L246.878 139.535L246.555 139.545L246.55 139.396C246.489 139.509 246.369 139.568 246.192 139.573C246.101 139.576 246.021 139.563 245.952 139.534C245.884 139.505 245.832 139.464 245.795 139.41C245.758 139.357 245.739 139.295 245.736 139.226C245.733 139.115 245.772 139.027 245.853 138.961C245.935 138.895 246.063 138.859 246.237 138.854L246.512 138.846C246.509 138.771 246.485 138.714 246.438 138.675C246.391 138.635 246.322 138.617 246.23 138.619C246.167 138.621 246.104 138.633 246.043 138.656C245.983 138.677 245.932 138.705 245.89 138.74L245.759 138.503C245.823 138.455 245.899 138.417 245.988 138.39C246.079 138.362 246.173 138.346 246.268 138.343ZM246.272 139.338C246.331 139.336 246.383 139.322 246.428 139.294C246.473 139.264 246.504 139.223 246.521 139.169L246.518 139.047L246.281 139.054C246.139 139.059 246.07 139.107 246.073 139.2C246.074 139.244 246.092 139.279 246.127 139.305C246.163 139.329 246.211 139.34 246.272 139.338ZM247.858 138.296C247.969 138.293 248.07 138.315 248.162 138.364C248.255 138.412 248.328 138.481 248.383 138.573C248.437 138.663 248.466 138.769 248.47 138.891C248.474 139.014 248.451 139.122 248.402 139.217C248.353 139.31 248.284 139.384 248.194 139.438C248.105 139.491 248.006 139.519 247.895 139.522C247.743 139.527 247.622 139.482 247.532 139.389L247.549 139.945L247.203 139.955L247.155 138.335L247.485 138.325L247.489 138.462C247.571 138.356 247.694 138.301 247.858 138.296ZM247.827 139.241C247.915 139.238 247.987 139.206 248.041 139.146C248.097 139.083 248.123 139.002 248.12 138.902C248.117 138.801 248.086 138.723 248.027 138.665C247.969 138.606 247.896 138.578 247.807 138.581C247.718 138.584 247.646 138.616 247.591 138.678C247.536 138.739 247.511 138.82 247.514 138.92C247.517 139.02 247.547 139.1 247.605 139.159C247.664 139.216 247.738 139.243 247.827 139.241Z" fill="white"/>
<path d="M242.733 130.851C242.402 130.907 242.063 130.935 241.723 130.934C241.077 130.948 240.14 130.97 238.98 131.038C236.658 131.092 233.456 131.201 229.916 131.247C226.376 131.292 223.164 131.366 220.841 131.384L218.096 131.393C217.756 131.41 217.415 131.396 217.084 131.351C217.415 131.3 217.754 131.274 218.094 131.274C218.74 131.259 219.685 131.201 220.846 131.163C223.158 131.11 226.369 131.006 229.91 130.954C233.45 130.903 236.652 130.835 238.975 130.818C240.136 130.791 241.073 130.805 241.72 130.808C242.06 130.797 242.4 130.811 242.733 130.851Z" fill="#263238"/>
<path d="M235.772 134.612C235.549 134.666 235.319 134.691 235.089 134.687C234.651 134.697 234.017 134.712 233.231 134.772C231.658 134.808 229.489 134.894 227.091 134.913C224.692 134.932 222.516 134.982 220.942 134.983L219.083 134.972C218.852 134.986 218.621 134.969 218.396 134.922C218.62 134.874 218.85 134.85 219.08 134.852C219.518 134.842 220.158 134.792 220.944 134.762C222.511 134.726 224.686 134.646 227.084 134.621C229.483 134.595 231.652 134.551 233.226 134.551C234.013 134.533 234.648 134.554 235.086 134.562C235.316 134.554 235.546 134.57 235.772 134.612Z" fill="#263238"/>
<path d="M250.883 134.926C253.003 131.272 253.615 126.383 254.15 122.191C254.401 120.219 254.846 117.387 253.505 116.145C252.036 114.831 251.901 112.774 250.213 111.749C249.379 111.218 248.414 110.942 247.431 110.952C246.448 110.963 245.489 111.26 244.666 111.808" fill="#263238"/>
<path d="M245.007 147.871C244.236 147.934 243.461 147.837 242.727 147.587C241.994 147.336 241.318 146.937 240.739 146.414C240.16 145.891 239.691 145.253 239.359 144.541C239.028 143.828 238.841 143.054 238.809 142.266C238.68 139.079 238.565 135.846 238.565 135.846C238.565 135.846 233.816 135.412 233.462 130.622C233.107 125.831 233.23 114.785 233.23 114.785C235.821 113.443 238.717 112.829 241.618 113.007C244.519 113.185 247.321 114.148 249.736 115.797L249.492 132.652V141.714C249.524 144.776 247.977 147.628 245.007 147.871Z" fill="#B78876"/>
<path d="M238.139 124.767C238.485 124.251 239.011 123.889 239.609 123.755C240.208 123.621 240.834 123.724 241.36 124.044C241.892 124.418 242.277 124.973 242.446 125.61C242.614 126.246 242.556 126.923 242.282 127.52C242.04 127.963 241.711 128.35 241.315 128.656C240.919 128.963 240.465 129.182 239.982 129.301C239.551 129.396 239.169 129.649 238.91 130.013C238.651 130.377 238.532 130.825 238.577 131.272C238.712 132.475 240.677 132.915 241.56 133.901C242.945 135.445 245.967 136.089 248.003 136.332C250.039 136.575 249.762 136.588 250.921 134.906C251.701 133.768 252.099 132.404 252.055 131.016C252.111 127.485 252.171 123.956 252.236 120.43C252.313 119.156 252.23 117.877 251.991 116.625C251.744 115.362 251.037 114.242 250.013 113.49C248.873 112.728 247.436 112.669 246.147 112.242C244.524 111.71 243.139 110.612 241.637 109.824C240.136 109.035 238.248 108.569 236.722 109.357C235.626 109.916 234.892 111.039 233.829 111.657C232.315 112.544 230.247 112.347 229.518 114.627C229.271 115.422 229.283 116.277 229.551 117.065C230.588 120.154 234.351 121.396 237.057 120.049C237.115 120.574 236.612 121.737 237.153 123.393C237.334 123.926 237.392 124.708 238.203 124.747" fill="#263238"/>
<path d="M238.971 127.75C238.971 127.75 238.97 127.842 239.035 127.96C239.099 128.04 239.18 128.105 239.271 128.15C239.362 128.196 239.462 128.22 239.563 128.223C239.891 128.203 240.2 128.056 240.425 127.811C240.65 127.567 240.775 127.244 240.774 126.909C240.793 126.538 240.668 126.175 240.427 125.897C240.23 125.682 239.974 125.533 239.692 125.47C239.209 125.365 238.925 125.549 238.951 125.582C238.977 125.614 239.235 125.582 239.595 125.7C239.84 125.782 240.051 125.944 240.197 126.159C240.344 126.375 240.418 126.634 240.407 126.896C240.408 127.155 240.32 127.406 240.159 127.606C239.998 127.806 239.774 127.943 239.525 127.993C239.318 127.981 239.121 127.895 238.971 127.75Z" fill="#AA6550"/>
<path d="M252.487 121.586C252.88 120.784 253.446 120.084 254.142 119.536C254.838 118.989 255.647 118.609 256.507 118.425C257.37 118.261 258.259 118.336 259.084 118.641C259.909 118.946 260.639 119.471 261.197 120.16C261.733 120.868 262.042 121.728 262.082 122.621C262.123 123.515 261.892 124.399 261.423 125.154C260.289 126.843 258.118 127.375 256.133 127.645C256.862 128.492 257.752 129.179 258.749 129.664C259.745 130.15 260.828 130.424 261.932 130.471C261.144 131.004 260.23 131.311 259.286 131.36C258.341 131.408 257.401 131.196 256.565 130.747L259.786 133.546C258.16 133.961 256.444 133.784 254.931 133.047C253.419 132.31 252.207 131.057 251.502 129.506C250.798 127.955 250.646 126.202 251.073 124.549C251.499 122.896 252.478 121.446 253.84 120.449" fill="#263238"/>
<path d="M255.47 127.441C254.933 127.481 254.396 127.386 253.904 127.165C253.335 126.858 252.848 126.416 252.482 125.876C252.117 125.336 251.884 124.715 251.804 124.064C251.711 123.412 251.762 122.747 251.953 122.118C252.145 121.49 252.473 120.913 252.912 120.43C253.296 120.038 253.717 119.686 254.168 119.378C254.168 119.378 254.001 119.378 253.743 119.529C253.375 119.718 253.038 119.964 252.744 120.259C252.241 120.747 251.861 121.352 251.637 122.023C251.413 122.693 251.35 123.409 251.456 124.11C251.537 124.815 251.794 125.487 252.203 126.062C252.611 126.637 253.157 127.096 253.788 127.395C254.176 127.565 254.599 127.632 255.019 127.592C255.328 127.54 255.476 127.461 255.47 127.441Z" fill="#254750"/>
<path d="M262.254 122.611C262.293 122.611 262.01 121.954 261.024 121.474C259.747 120.983 258.353 120.9 257.029 121.238C255.701 121.513 254.453 122.097 253.383 122.946C253.061 123.2 252.761 123.481 252.487 123.788C252.3 124.011 252.21 124.142 252.223 124.156C252.236 124.169 252.693 123.722 253.512 123.144C254.586 122.381 255.8 121.847 257.081 121.573C258.356 121.251 259.694 121.294 260.947 121.698C261.44 121.907 261.885 122.218 262.254 122.611Z" fill="#455A64"/>
<path d="M260.843 125.825C260.843 125.772 260.398 125.877 259.696 125.89C258.779 125.915 257.868 125.723 257.035 125.331C256.201 124.939 255.467 124.357 254.89 123.63C254.445 123.071 254.245 122.67 254.194 122.69C254.271 123.09 254.446 123.463 254.703 123.774C255.256 124.58 256.008 125.222 256.882 125.635C257.757 126.048 258.723 126.218 259.683 126.127C260.089 126.13 260.488 126.026 260.843 125.825Z" fill="#455A64"/>
<path d="M253.711 132.271C253.711 132.225 253.273 131.929 252.674 131.285C251.882 130.459 251.315 129.437 251.03 128.319C250.744 127.201 250.749 126.027 251.044 124.911C251.263 124.05 251.533 123.564 251.482 123.531C251.17 123.913 250.95 124.362 250.837 124.846C250.466 125.997 250.428 127.234 250.727 128.407C251.027 129.581 251.651 130.641 252.525 131.463C252.856 131.819 253.262 132.095 253.711 132.271Z" fill="#455A64"/>
<path d="M243.816 113.3C244.376 112.878 245.04 112.623 245.733 112.563C246.427 112.503 247.124 112.639 247.746 112.958C248.533 113.37 249.2 113.986 249.679 114.746C250.511 116.174 251.028 117.771 251.193 119.424C251.257 120.12 251.382 120.808 251.566 121.481C251.575 120.782 251.53 120.083 251.431 119.392C251.324 117.683 250.818 116.024 249.956 114.555C249.449 113.743 248.73 113.09 247.881 112.669C247.18 112.342 246.403 112.224 245.639 112.327C245.126 112.396 244.637 112.592 244.215 112.899C243.938 113.116 243.803 113.293 243.816 113.3Z" fill="#455A64"/>
<path d="M230.608 118.235C230.409 118.14 230.22 118.028 230.041 117.9C229.814 117.719 229.643 117.475 229.547 117.198C229.451 116.921 229.434 116.622 229.499 116.336C229.594 115.954 229.824 115.622 230.144 115.403C230.555 115.198 231.017 115.12 231.471 115.179C231.761 115.199 232.053 115.185 232.341 115.14C232.634 115.08 232.91 114.952 233.146 114.765C233.583 114.367 233.982 113.927 234.338 113.451C235.079 112.645 236.032 112.073 237.083 111.802C237.941 111.562 238.839 111.513 239.718 111.657C240.518 111.822 241.289 112.11 242.005 112.511C241.85 112.34 241.666 112.198 241.464 112.091C240.927 111.771 240.341 111.549 239.731 111.434C238.82 111.246 237.88 111.271 236.98 111.506C235.863 111.777 234.85 112.378 234.067 113.234C233.72 113.688 233.336 114.112 232.921 114.502C232.508 114.797 232.004 114.928 231.503 114.87C230.991 114.818 230.475 114.923 230.021 115.173C229.83 115.299 229.665 115.463 229.535 115.655C229.406 115.846 229.315 116.062 229.267 116.29C229.183 116.664 229.236 117.057 229.416 117.394C229.54 117.655 229.726 117.881 229.957 118.051C230.098 118.152 230.258 118.224 230.427 118.261C230.55 118.248 230.608 118.248 230.608 118.235Z" fill="#455A64"/>
<path d="M243.208 131.522C243.452 131.481 243.685 131.39 243.891 131.253C244.64 130.822 245.22 130.141 245.533 129.324C245.845 128.507 245.871 127.605 245.605 126.771C245.428 126.178 245.115 125.637 244.69 125.194C244.232 124.74 243.713 124.353 243.15 124.044C242.59 123.715 242.042 123.387 241.546 123.084C241.076 122.769 240.658 122.379 240.309 121.928C239.719 121.151 239.335 120.232 239.195 119.26C239.087 118.354 239.15 117.435 239.381 116.553C239.381 116.553 239.336 116.605 239.285 116.724C239.208 116.892 239.148 117.068 239.104 117.249C238.923 117.914 238.872 118.608 238.956 119.293C239.072 120.319 239.454 121.294 240.064 122.119C240.423 122.603 240.859 123.022 241.353 123.36C241.862 123.715 242.422 124.018 242.97 124.34C243.507 124.635 244.003 125.002 244.445 125.43C244.836 125.836 245.129 126.329 245.302 126.87C245.451 127.329 245.509 127.815 245.472 128.298C245.436 128.78 245.306 129.251 245.09 129.682C244.788 130.271 244.344 130.773 243.801 131.141C243.44 131.404 243.196 131.489 243.208 131.522Z" fill="#455A64"/>
<path d="M251.328 124.471C251.328 124.399 250.445 124.576 249.054 124.425C247.238 124.24 245.496 123.599 243.983 122.559C242.438 121.573 241.244 120.108 240.575 118.379C240.348 117.649 240.324 116.869 240.504 116.125C240.385 116.303 240.306 116.505 240.272 116.717C240.16 117.293 240.187 117.888 240.35 118.452C240.717 119.891 241.98 121.593 243.796 122.841C245.349 123.92 247.159 124.549 249.034 124.662C249.598 124.699 250.163 124.682 250.723 124.609C250.93 124.594 251.134 124.548 251.328 124.471Z" fill="#455A64"/>
<path d="M197.709 151.939L200.524 155.119L214.46 171.883C215.33 172.929 216.452 173.725 217.715 174.194C218.979 174.662 220.341 174.786 221.666 174.554C222.991 174.322 224.234 173.741 225.272 172.869C226.31 171.998 227.107 170.865 227.584 169.583L232.436 158.977L224.169 154.232C223.776 154.541 219.473 163.097 219.473 163.097C218.216 162.689 204.01 148.134 204.01 148.134L203.83 147.214C203.759 146.84 203.681 146.419 203.611 145.939C203.528 145.383 203.539 144.816 203.643 144.264C203.744 143.572 203.937 142.898 204.216 142.259C204.525 141.701 204.029 141.044 203.52 141.28C203.011 141.517 202.116 143.028 201.916 145.085C201.716 147.142 200.067 145.032 199.429 144.06C198.585 142.746 196.916 143.541 197.529 145.098C197.375 145.123 197.228 145.181 197.098 145.268C196.968 145.356 196.858 145.47 196.775 145.604C196.664 145.836 196.6 146.088 196.587 146.345C196.573 146.603 196.611 146.86 196.697 147.102C196.531 147.745 196.49 148.415 196.575 149.074C196.755 150.099 197.141 151.074 197.709 151.939Z" fill="#B78876"/>
<path d="M238.029 231.773L224.59 295.002L214.449 294.765L223.282 234.297L238.029 231.773Z" fill="#B78876"/>
<path d="M213.063 295.85L213.108 294.693L224.589 295.028L224.492 298.846H223.777C220.62 298.925 207.709 299.043 205.615 298.38C203.289 297.63 213.063 295.85 213.063 295.85Z" fill="#254750"/>
<g opacity="0.6">
<path opacity="0.6" d="M220.351 298.616C220.558 297.689 221.104 296.878 221.878 296.349C222.665 295.794 223.619 295.54 224.571 295.633L224.488 298.662L220.351 298.616Z" fill="white"/>
</g>
<g opacity="0.6">
<path opacity="0.6" d="M208.283 296.868C208.283 296.868 204.849 297.703 205.255 298.248C205.661 298.793 218.72 299.142 224.493 298.82V298.577L209.262 298.287C209.262 298.287 208.947 296.908 208.283 296.868Z" fill="white"/>
</g>
<path d="M224.661 298.57H224.461H223.894L221.82 298.603C220.061 298.603 217.632 298.603 214.952 298.531C212.272 298.458 209.849 298.347 208.097 298.241L206.022 298.103L205.455 298.057H205.262H205.455H206.022L208.103 298.149C209.856 298.228 212.278 298.327 214.958 298.399C217.638 298.471 220.061 298.498 221.82 298.511H223.894H224.461L224.661 298.57Z" fill="#263238"/>
<path d="M209.248 298.478C209.162 298.148 209.041 297.829 208.888 297.525C208.689 297.244 208.46 296.986 208.205 296.756C208.547 296.886 208.832 297.135 209.01 297.46C209.216 297.755 209.301 298.12 209.248 298.478Z" fill="#263238"/>
<path d="M212.67 296.927C212.638 296.927 212.483 296.756 212.322 296.5C212.161 296.244 212.058 296.027 212.09 296.007C212.123 295.987 212.284 296.178 212.438 296.434C212.593 296.691 212.702 296.907 212.67 296.927Z" fill="#263238"/>
<path d="M213.611 296.507C213.611 296.507 213.405 296.415 213.212 296.237C213.019 296.06 212.89 295.909 212.915 295.882C212.941 295.856 213.115 295.974 213.308 296.145C213.502 296.316 213.656 296.461 213.611 296.507Z" fill="#263238"/>
<path d="M214.224 295.482C214.029 295.54 213.826 295.558 213.624 295.535C213.424 295.55 213.223 295.525 213.032 295.462C213.424 295.37 213.831 295.37 214.224 295.462V295.482Z" fill="#263238"/>
<path d="M214.448 294.765C214.251 294.877 214.029 294.934 213.804 294.93C213.569 294.963 213.33 294.926 213.115 294.825C213.342 294.805 213.57 294.805 213.798 294.825C214.012 294.786 214.23 294.766 214.448 294.765Z" fill="#263238"/>
<path d="M212.311 295.968C212.067 296.006 211.819 296.006 211.576 295.968C211.314 295.928 211.055 295.867 210.803 295.784C210.649 295.736 210.5 295.672 210.358 295.593C210.316 295.57 210.279 295.538 210.249 295.5C210.219 295.461 210.197 295.417 210.184 295.37C210.174 295.317 210.179 295.263 210.2 295.213C210.221 295.164 210.256 295.122 210.3 295.094C210.584 294.971 210.899 294.946 211.197 295.022C211.496 295.098 211.762 295.271 211.956 295.515C212.067 295.652 212.144 295.814 212.182 295.988C212.197 296.05 212.197 296.116 212.182 296.178C212.115 295.958 212.008 295.753 211.866 295.574C211.696 295.375 211.472 295.233 211.222 295.166C210.935 295.068 210.624 295.08 210.345 295.199C210.23 295.278 210.268 295.409 210.397 295.488C210.526 295.561 210.662 295.62 210.803 295.666C211.049 295.753 211.301 295.823 211.557 295.876C212.034 295.942 212.311 295.948 212.311 295.968Z" fill="#263238"/>
<path d="M212.116 296.001C212.037 295.852 212.014 295.679 212.052 295.514C212.077 295.33 212.15 295.155 212.264 295.009C212.335 294.901 212.431 294.814 212.543 294.755C212.656 294.697 212.782 294.668 212.908 294.673C212.943 294.68 212.977 294.693 213.007 294.713C213.036 294.733 213.062 294.758 213.082 294.788C213.102 294.818 213.115 294.852 213.122 294.888C213.129 294.923 213.129 294.96 213.121 294.995C213.103 295.109 213.057 295.215 212.986 295.304C212.886 295.458 212.767 295.597 212.631 295.718C212.512 295.843 212.363 295.936 212.2 295.988C212.2 295.988 212.348 295.869 212.561 295.652C212.682 295.529 212.79 295.392 212.883 295.245C212.986 295.1 213.063 294.838 212.883 294.798C212.786 294.808 212.693 294.838 212.608 294.886C212.524 294.935 212.451 295.001 212.393 295.081C212.287 295.211 212.212 295.363 212.174 295.528C212.142 295.684 212.123 295.842 212.116 296.001Z" fill="#263238"/>
<path d="M224.513 295.6C224.513 295.6 224.191 295.561 223.669 295.6C223.002 295.649 222.36 295.875 221.807 296.257C221.277 296.637 220.862 297.161 220.608 297.768C220.421 298.228 220.396 298.544 220.37 298.537C220.344 298.531 220.37 298.458 220.37 298.32C220.394 298.121 220.442 297.924 220.512 297.736C220.745 297.094 221.165 296.541 221.717 296.152C222.288 295.752 222.957 295.525 223.649 295.495C223.865 295.482 224.081 295.493 224.294 295.528C224.371 295.537 224.445 295.562 224.513 295.6Z" fill="#263238"/>
<path d="M218.939 297.525C217.831 297.695 216.704 297.675 215.602 297.466C215.602 297.427 216.349 297.466 217.271 297.506C218.192 297.545 218.939 297.486 218.939 297.525Z" fill="#263238"/>
<path d="M221.181 297.578C221.181 297.578 221.116 297.729 221.032 297.887C220.949 298.044 220.91 298.189 220.865 298.189C220.82 298.189 220.813 298.018 220.91 297.834C221.007 297.65 221.155 297.552 221.181 297.578Z" fill="#263238"/>
<path d="M222.032 296.605C222.032 296.605 221.981 296.743 221.858 296.855C221.736 296.967 221.613 297.032 221.588 297.006C221.562 296.98 221.639 296.868 221.762 296.756C221.884 296.645 222.032 296.579 222.032 296.605Z" fill="#263238"/>
<path d="M223.276 296.185C223.276 296.218 223.115 296.218 222.947 296.264C222.78 296.31 222.657 296.402 222.625 296.376C222.593 296.35 222.696 296.205 222.908 296.139C223.121 296.073 223.289 296.152 223.276 296.185Z" fill="#263238"/>
<path d="M224.146 295.994C224.146 295.994 224.088 296.08 223.997 296.113C223.907 296.146 223.81 296.146 223.798 296.113C223.785 296.08 223.849 296.027 223.946 295.994C224.042 295.961 224.133 295.955 224.146 295.994Z" fill="#263238"/>
<path d="M262.848 229.638L266.114 291.381L256.134 293.839L248.648 230.939L262.848 229.638Z" fill="#B78876"/>
<path d="M266.41 291.145L268.111 298.767H256.624L256.134 293.806L266.41 291.145Z" fill="#254750"/>
<path d="M256.391 297.663C256.942 297.751 257.501 297.784 258.059 297.762C259.097 297.762 260.527 297.762 262.099 297.683L266.132 297.506C266.691 297.513 267.25 297.469 267.801 297.374C267.247 297.283 266.686 297.252 266.126 297.282C265.088 297.282 263.665 297.282 262.086 297.361L258.059 297.532C257.5 297.524 256.942 297.568 256.391 297.663Z" fill="#263238"/>
<path d="M261.256 292.63C261.15 293.45 261.15 294.28 261.256 295.101C261.261 295.926 261.367 296.747 261.572 297.545C261.68 296.725 261.68 295.894 261.572 295.074C261.573 294.249 261.467 293.427 261.256 292.63Z" fill="#263238"/>
<g opacity="0.6">
<path opacity="0.6" d="M268.111 298.767H256.624L256.514 297.663L267.905 297.374L268.111 298.636" fill="white"/>
</g>
<path d="M267.891 162.749L271.757 172.106C272.173 173.445 272.052 174.898 271.42 176.147C270.789 177.395 269.698 178.338 268.388 178.769C267.087 179.197 265.674 179.086 264.453 178.46C263.232 177.835 262.301 176.744 261.861 175.424L258.756 166.192L267.891 162.749Z" fill="#B78876"/>
<path d="M257.384 182.673C257.384 182.673 264.387 194.613 264.387 201.729L269.148 278.521L250.168 280.736L245.555 205.521C245.555 205.521 230.034 281.853 229.377 281.853C228.72 281.853 212.091 280.736 212.091 280.736L230.034 183.054L257.384 182.673Z" fill="#263238"/>
<path d="M237.83 207.466C237.83 207.558 241.541 206.717 246.07 205.587C250.599 204.456 254.246 203.471 254.246 203.379C254.246 203.287 250.541 204.128 246.012 205.258C241.483 206.388 237.811 207.374 237.83 207.466Z" fill="#455A64"/>
<path d="M257.384 182.673L254.111 172.967L256.385 161.218L258.163 166.396L269.148 162.282C269.148 162.282 262.061 147.773 261.675 147.01C258.453 140.045 249.762 140.045 249.762 140.045L238.732 140.341C236.98 140.224 235.225 140.499 233.588 141.145C231.951 141.792 230.472 142.796 229.255 144.086C226.098 147.332 219.333 162.269 219.333 162.269L229.255 167.592L232.798 160.836L232.154 170.076L229.867 184.151L257.384 182.673Z" fill="#254750"/>
<path d="M234.35 143.396C234.35 143.429 234.66 143.442 235.162 143.653C235.862 143.977 236.448 144.511 236.844 145.184C237.436 146.178 237.677 147.349 237.527 148.502C237.322 149.92 236.886 151.292 236.238 152.563C234.95 155.356 233.829 157.906 233.017 159.752L232.076 161.947C231.951 162.211 231.849 162.486 231.773 162.768C231.942 162.528 232.084 162.271 232.198 162L233.229 159.851C234.099 158.03 235.259 155.507 236.541 152.708C237.2 151.402 237.636 149.991 237.829 148.535C237.971 147.317 237.691 146.088 237.037 145.059C236.603 144.359 235.959 143.822 235.201 143.528C234.993 143.451 234.777 143.405 234.557 143.39C234.428 143.396 234.35 143.396 234.35 143.396Z" fill="#263238"/>
<path d="M254.002 173.519C254.098 173.519 255.419 167.441 256.959 159.903C258.499 152.366 259.671 146.235 259.581 146.215C259.491 146.196 258.17 152.294 256.63 159.831C255.09 167.368 253.911 173.499 254.002 173.519Z" fill="#263238"/>
<g opacity="0.2">
<path opacity="0.2" d="M253.19 172.763C251.122 174.347 248.036 173.815 245.517 173.388C242.931 172.994 240.565 171.681 238.836 169.681C238.029 168.813 237.585 167.658 237.599 166.461C237.696 165.279 238.72 164.142 239.873 164.28C241.162 164.444 241.806 165.955 242.45 167.145C243.49 169.028 245.077 170.537 246.993 171.462C248.908 172.387 251.058 172.683 253.145 172.31C253.145 172.31 253.558 172.481 253.19 172.763Z" fill="black"/>
</g>
<path d="M237.43 164.372C237.391 164.64 237.391 164.912 237.43 165.18C237.507 165.919 237.687 166.642 237.965 167.329C238.908 169.609 240.616 171.473 242.784 172.586C244.946 173.65 247.339 174.136 249.736 173.999C250.457 173.972 251.176 173.898 251.888 173.775C252.149 173.744 252.406 173.682 252.654 173.591C252.654 173.526 251.54 173.736 249.729 173.756C247.38 173.819 245.05 173.31 242.932 172.27C240.833 171.189 239.156 169.412 238.177 167.23C237.812 166.313 237.561 165.353 237.43 164.372Z" fill="#263238"/>
<g opacity="0.2">
<path opacity="0.2" d="M237.43 149.856C236.785 155.159 235.941 159.516 234.853 164.746C234.318 167.316 233.674 170.003 231.928 171.942L232.933 160.179L237.43 149.856Z" fill="black"/>
</g>
<defs>
<filter id="filter0_d" x="138.451" y="188.806" width="24.2226" height="15.5395" filterUnits="userSpaceOnUse" color-interpolation-filters="sRGB">
<feFlood flood-opacity="0" result="BackgroundImageFix"/>
<feColorMatrix in="SourceAlpha" type="matrix" values="0 0 0 0 0 0 0 0 0 0 0 0 0 0 0 0 0 0 127 0"/>
<feOffset dx="0.344164" dy="1.37666"/>
<feGaussianBlur stdDeviation="1.72082"/>
<feColorMatrix type="matrix" values="0 0 0 0 0 0 0 0 0 0 0 0 0 0 0 0 0 0 0.05 0"/>
<feBlend mode="normal" in2="BackgroundImageFix" result="effect1_dropShadow"/>
<feBlend mode="normal" in="SourceGraphic" in2="effect1_dropShadow" result="shape"/>
</filter>
<filter id="filter1_d" x="138.451" y="252.402" width="24.2226" height="15.5395" filterUnits="userSpaceOnUse" color-interpolation-filters="sRGB">
<feFlood flood-opacity="0" result="BackgroundImageFix"/>
<feColorMatrix in="SourceAlpha" type="matrix" values="0 0 0 0 0 0 0 0 0 0 0 0 0 0 0 0 0 0 127 0"/>
<feOffset dx="0.344164" dy="1.37666"/>
<feGaussianBlur stdDeviation="1.72082"/>
<feColorMatrix type="matrix" values="0 0 0 0 0 0 0 0 0 0 0 0 0 0 0 0 0 0 0.05 0"/>
<feBlend mode="normal" in2="BackgroundImageFix" result="effect1_dropShadow"/>
<feBlend mode="normal" in="SourceGraphic" in2="effect1_dropShadow" result="shape"/>
</filter>
<filter id="filter2_d" x="138.451" y="221.408" width="24.2226" height="15.5395" filterUnits="userSpaceOnUse" color-interpolation-filters="sRGB">
<feFlood flood-opacity="0" result="BackgroundImageFix"/>
<feColorMatrix in="SourceAlpha" type="matrix" values="0 0 0 0 0 0 0 0 0 0 0 0 0 0 0 0 0 0 127 0"/>
<feOffset dx="0.344164" dy="1.37666"/>
<feGaussianBlur stdDeviation="1.72082"/>
<feColorMatrix type="matrix" values="0 0 0 0 0 0 0 0 0 0 0 0 0 0 0 0 0 0 0.05 0"/>
<feBlend mode="normal" in2="BackgroundImageFix" result="effect1_dropShadow"/>
<feBlend mode="normal" in="SourceGraphic" in2="effect1_dropShadow" result="shape"/>
</filter>
<filter id="filter3_d" x="236.354" y="134.177" width="18.7253" height="12.0128" filterUnits="userSpaceOnUse" color-interpolation-filters="sRGB">
<feFlood flood-opacity="0" result="BackgroundImageFix"/>
<feColorMatrix in="SourceAlpha" type="matrix" values="0 0 0 0 0 0 0 0 0 0 0 0 0 0 0 0 0 0 127 0"/>
<feOffset dx="0.266057" dy="1.06423"/>
<feGaussianBlur stdDeviation="1.33028"/>
<feColorMatrix type="matrix" values="0 0 0 0 0 0 0 0 0 0 0 0 0 0 0 0 0 0 0.05 0"/>
<feBlend mode="normal" in2="BackgroundImageFix" result="effect1_dropShadow"/>
<feBlend mode="normal" in="SourceGraphic" in2="effect1_dropShadow" result="shape"/>
</filter>
</defs>
</svg>
