<svg width="351" height="603" viewBox="0 0 351 603" fill="none"
    xmlns="http://www.w3.org/2000/svg">
    <g filter="url(#filter0_d)">
        <rect x="13" y="7" width="321" height="573" rx="5" fill="#76CDCD"/>
    </g>
    <path d="M47.583 233.883H119.335C119.335 233.883 112.994 222.348 94.5322 224.025C76.9044 225.634 76.0027 218.354 67.0337 217.452C58.0646 216.551 50.5695 223.433 47.583 233.883Z" fill="#F0F0F0" fill-opacity="0.8"/>
    <path d="M57.3193 229.644H129.072C129.072 229.644 122.73 218.108 104.269 219.785C86.6408 221.395 85.739 214.115 76.77 213.213C67.801 212.312 60.3058 219.194 57.3193 229.644Z" fill="#F5F5F5" fill-opacity="0.5"/>
    <path d="M94.561 193.825C103.691 184.697 103.691 169.898 94.561 160.77C85.4306 151.642 70.6273 151.642 61.4969 160.77C52.3665 169.898 52.3665 184.697 61.4969 193.825C70.6273 202.953 85.4306 202.953 94.561 193.825Z" fill="#F5F5F5" fill-opacity="0.5"/>
    <path d="M94.5612 193.825C103.692 184.697 103.692 169.898 94.5612 160.77C94.5612 160.77 96.0454 179.66 86.915 188.788C77.7846 197.916 61.4971 193.825 61.4971 193.825C70.6275 202.953 85.4308 202.953 94.5612 193.825Z" fill="#F0F0F0" fill-opacity="0.5"/>
    <path d="M126.367 129H38V264.461H126.367V129Z" fill="#26474E" fill-opacity="0.5"/>
    <path d="M80.1342 134.425H42.8154V194.679H80.1342V134.425Z" fill="#FDFDFD" fill-opacity="0.5"/>
    <path d="M121.558 134.425H84.2461V194.679H121.558V134.425Z" fill="#FDFDFD" fill-opacity="0.5"/>
    <path d="M80.1342 198.782H42.8154V259.036H80.1342V198.782Z" fill="#FDFDFD" fill-opacity="0.5"/>
    <path d="M121.558 198.782H84.2461V259.036H121.558V198.782Z" fill="#FDFDFD" fill-opacity="0.5"/>
    <path d="M65.4119 134.425L42.8154 157.015V143.685L52.0847 134.425H65.4119Z" fill="#EBEBEB" fill-opacity="0.5"/>
    <path d="M42.8154 256.81L80.1342 219.502V232.819L53.9158 259.037H42.8154V256.81Z" fill="#EBEBEB" fill-opacity="0.5"/>
    <path d="M114.187 198.782L84.2393 228.722V215.398L100.86 198.782H114.187Z" fill="#EBEBEB" fill-opacity="0.5"/>
    <path d="M121.557 178.096V191.413L118.291 194.679H104.964L121.557 178.096Z" fill="#EBEBEB" fill-opacity="0.5"/>
    <path d="M121.557 245.076V258.4L120.92 259.037H107.6L121.557 245.076Z" fill="#EBEBEB" fill-opacity="0.5"/>
    <path d="M44.955 198.782H51.6152L42.8154 207.58V200.915L44.955 198.782Z" fill="#EBEBEB" fill-opacity="0.5"/>
    <path d="M49.0596 194.679L80.1339 163.606V170.265L55.7198 194.679H49.0596Z" fill="#EBEBEB" fill-opacity="0.5"/>
    <path d="M115.991 134.425L84.2393 166.161V159.503L109.331 134.425H115.991Z" fill="#EBEBEB" fill-opacity="0.5"/>
    <path d="M76.3647 134.425L42.8154 167.965V166.295L74.6946 134.425H76.3647Z" fill="#EBEBEB" fill-opacity="0.5"/>
    <path d="M63.6748 259.037L80.1342 242.575V244.245L65.3449 259.037H63.6748Z" fill="#EBEBEB" fill-opacity="0.5"/>
    <path d="M121.558 201.176V202.832L84.2393 240.141V238.471L121.558 201.176Z" fill="#EBEBEB" fill-opacity="0.5"/>
    <path d="M234.588 129H146.221V264.461H234.588V129Z" fill="#26474E" fill-opacity="0.5"/>
    <path d="M188.355 134.425H151.036V194.679H188.355V134.425Z" fill="#FDFDFD" fill-opacity="0.5"/>
    <path d="M229.771 134.425H192.459V194.679H229.771V134.425Z" fill="#FDFDFD" fill-opacity="0.5"/>
    <path d="M188.355 198.782H151.036V259.036H188.355V198.782Z" fill="#FDFDFD" fill-opacity="0.5"/>
    <path d="M229.771 198.782H192.459V259.036H229.771V198.782Z" fill="#FDFDFD" fill-opacity="0.5"/>
    <path d="M151.036 198.782H154.551L151.036 202.296V198.782Z" fill="#EBEBEB" fill-opacity="0.5"/>
    <path d="M151.036 188.973L188.355 151.657V164.988L158.655 194.679H151.036V188.973Z" fill="#EBEBEB" fill-opacity="0.5"/>
    <path d="M218.926 134.425L192.459 160.884V147.554L205.592 134.425H218.926Z" fill="#EBEBEB" fill-opacity="0.5"/>
    <path d="M229.771 218.349V231.672L202.406 259.037H192.459V255.65L229.771 218.349Z" fill="#EBEBEB" fill-opacity="0.5"/>
    <path d="M188.355 134.425V135.658L151.036 172.967V166.302L182.915 134.425H188.355Z" fill="#EBEBEB" fill-opacity="0.5"/>
    <path d="M173.546 259.037L188.355 244.231V250.89L180.206 259.037H173.546Z" fill="#EBEBEB" fill-opacity="0.5"/>
    <path d="M229.771 202.819V209.484L192.459 246.786V240.127L229.771 202.819Z" fill="#EBEBEB" fill-opacity="0.5"/>
    <path d="M159.085 198.782H160.755L151.036 208.498V206.835L159.085 198.782Z" fill="#EBEBEB" fill-opacity="0.5"/>
    <path d="M163.189 194.679L188.355 169.52V171.19L164.86 194.679H163.189Z" fill="#EBEBEB" fill-opacity="0.5"/>
    <path d="M225.13 134.425L192.459 167.086V165.417L223.46 134.425H225.13Z" fill="#EBEBEB" fill-opacity="0.5"/>
    <path d="M151.036 257.783L188.355 220.474V222.137L151.445 259.037H151.036V257.783Z" fill="#EBEBEB" fill-opacity="0.5"/>
    <path d="M211.715 198.782L192.459 218.033V216.37L210.045 198.782H211.715Z" fill="#EBEBEB" fill-opacity="0.5"/>
    <path d="M229.771 179.062V180.732L215.82 194.679H214.15L229.771 179.062Z" fill="#EBEBEB" fill-opacity="0.5"/>
    <path d="M206.082 431L132.702 430.656C130.602 430.648 128.525 430.218 126.588 429.391C124.651 428.564 122.892 427.355 121.413 425.835C119.934 424.314 118.763 422.512 117.968 420.529C117.172 418.547 116.767 416.425 116.776 414.283L117.551 226.668C117.575 222.346 119.281 218.211 122.294 215.171C125.306 212.132 129.379 210.437 133.617 210.46L206.996 210.81C211.233 210.829 215.289 212.564 218.273 215.634C221.256 218.703 222.922 222.855 222.905 227.177L222.135 414.743C222.13 416.886 221.711 419.008 220.901 420.985C220.091 422.963 218.907 424.759 217.415 426.269C215.924 427.779 214.155 428.974 212.211 429.786C210.266 430.598 208.183 431.01 206.082 431Z" fill="#455A64"/>
    <path d="M206.899 217.257L192.675 217.208C192.21 217.217 191.751 217.319 191.325 217.509C190.899 217.699 190.513 217.973 190.191 218.314C189.869 218.656 189.615 219.06 189.446 219.501C189.277 219.943 189.195 220.415 189.204 220.889V223.521C189.214 223.995 189.132 224.466 188.962 224.908C188.793 225.35 188.54 225.753 188.217 226.095C187.895 226.437 187.51 226.711 187.084 226.901C186.657 227.091 186.199 227.193 185.734 227.202L157.994 227.024C157.06 226.998 156.174 226.596 155.53 225.907C154.885 225.217 154.534 224.295 154.554 223.343V220.711C154.573 219.758 154.222 218.837 153.577 218.147C152.933 217.458 152.047 217.056 151.113 217.03H146.115L133.665 216.975C132.194 216.967 130.736 217.255 129.375 217.822C128.013 218.389 126.775 219.224 125.73 220.28C124.685 221.336 123.855 222.592 123.287 223.975C122.718 225.358 122.423 226.843 122.417 228.343L121.659 411.467C121.646 414.494 122.813 417.402 124.902 419.552C126.99 421.702 129.831 422.918 132.798 422.933L206.027 423.276C207.497 423.284 208.955 422.995 210.315 422.428C211.676 421.86 212.914 421.025 213.958 419.969C215.002 418.913 215.832 417.658 216.4 416.275C216.968 414.892 217.263 413.408 217.269 411.909L218.033 228.784C218.047 227.281 217.77 225.789 217.217 224.396C216.665 223.002 215.848 221.733 214.814 220.662C213.779 219.591 212.548 218.739 211.189 218.154C209.831 217.57 208.373 217.265 206.899 217.257Z" fill="#FAFAFA"/>
    <path d="M189.957 237.164C190.211 237.051 190.426 236.865 190.577 236.628C190.728 236.392 190.807 236.115 190.805 235.833C190.817 235.648 190.792 235.462 190.731 235.287C190.67 235.112 190.574 234.952 190.45 234.816C190.326 234.68 190.175 234.572 190.008 234.498C189.841 234.424 189.661 234.386 189.479 234.386C189.297 234.386 189.117 234.424 188.95 234.498C188.783 234.572 188.632 234.68 188.508 234.816C188.384 234.952 188.288 235.112 188.227 235.287C188.166 235.462 188.141 235.648 188.153 235.833C188.146 236.118 188.222 236.398 188.372 236.638C188.522 236.879 188.739 237.068 188.995 237.183C188.576 237.232 188.181 237.407 187.86 237.685C187.538 237.964 187.306 238.333 187.19 238.747C187.665 239.3 188.318 239.662 189.031 239.765H189.843C190.567 239.668 191.233 239.309 191.719 238.753C191.617 238.338 191.394 237.964 191.08 237.68C190.765 237.397 190.374 237.217 189.957 237.164Z" fill="#455A64"/>
    <path d="M189.452 239.777C189.452 239.777 189.717 239.777 190.174 239.643C190.819 239.462 191.386 239.066 191.786 238.52C192.078 238.122 192.268 237.656 192.339 237.165C192.411 236.673 192.361 236.171 192.195 235.704C192.003 235.15 191.65 234.669 191.184 234.324C190.688 233.949 190.087 233.747 189.47 233.747C188.853 233.747 188.252 233.949 187.756 234.324C187.287 234.664 186.931 235.141 186.733 235.692C186.563 236.158 186.509 236.661 186.578 237.153C186.646 237.646 186.834 238.114 187.124 238.514C187.519 239.063 188.082 239.462 188.724 239.649C189.181 239.777 189.452 239.765 189.452 239.79C189.386 239.799 189.319 239.799 189.254 239.79C189.067 239.791 188.881 239.769 188.7 239.722C188.125 239.584 187.602 239.279 187.194 238.843C186.787 238.407 186.512 237.86 186.403 237.268C186.223 236.467 186.355 235.625 186.771 234.921C187.187 234.216 187.854 233.704 188.633 233.491C189.412 233.278 190.242 233.381 190.947 233.779C191.653 234.177 192.18 234.838 192.417 235.624C192.589 236.125 192.635 236.661 192.551 237.184C192.467 237.707 192.256 238.2 191.936 238.618C191.506 239.179 190.898 239.569 190.216 239.722C190.035 239.767 189.849 239.788 189.663 239.784C189.593 239.793 189.521 239.791 189.452 239.777Z" fill="#455A64"/>
    <path d="M205.793 235.888L194.438 235.846L194.434 237.079L205.789 237.121L205.793 235.888Z" fill="#455A64"/>
    <path d="M210.22 234.446C210.22 234.517 210.206 234.587 210.18 234.652C210.153 234.717 210.114 234.776 210.065 234.826C210.015 234.876 209.957 234.915 209.893 234.941C209.829 234.968 209.76 234.981 209.691 234.98C209.561 234.966 209.441 234.903 209.353 234.804C209.266 234.705 209.218 234.577 209.218 234.443C209.218 234.31 209.266 234.182 209.353 234.083C209.441 233.983 209.561 233.921 209.691 233.907C209.76 233.906 209.83 233.919 209.894 233.946C209.959 233.973 210.017 234.013 210.067 234.063C210.116 234.113 210.155 234.173 210.181 234.239C210.208 234.305 210.221 234.375 210.22 234.446Z" fill="#455A64"/>
    <path d="M210.214 236.373C210.214 236.48 210.183 236.584 210.124 236.673C210.066 236.762 209.983 236.831 209.886 236.872C209.789 236.913 209.682 236.923 209.579 236.902C209.476 236.88 209.382 236.828 209.308 236.752C209.234 236.676 209.184 236.579 209.165 236.474C209.145 236.369 209.156 236.26 209.197 236.162C209.238 236.063 209.307 235.979 209.395 235.921C209.483 235.862 209.586 235.832 209.691 235.833C209.83 235.835 209.963 235.892 210.061 235.993C210.159 236.094 210.214 236.231 210.214 236.373Z" fill="#455A64"/>
    <path d="M210.207 238.299C210.207 238.406 210.176 238.511 210.117 238.6C210.059 238.688 209.976 238.758 209.879 238.798C209.782 238.839 209.675 238.849 209.572 238.828C209.469 238.807 209.375 238.755 209.301 238.679C209.228 238.602 209.178 238.506 209.158 238.401C209.138 238.295 209.149 238.187 209.19 238.088C209.231 237.99 209.3 237.906 209.388 237.847C209.476 237.789 209.579 237.758 209.684 237.759C209.823 237.761 209.956 237.818 210.054 237.919C210.152 238.021 210.207 238.157 210.207 238.299Z" fill="#455A64"/>
    <path d="M166.696 414.418C166.742 414.733 166.692 415.054 166.553 415.339C166.414 415.624 166.192 415.859 165.919 416.011C165.645 416.164 165.332 416.228 165.022 416.194C164.712 416.16 164.419 416.03 164.184 415.822C163.948 415.613 163.781 415.336 163.704 415.027C163.627 414.719 163.645 414.394 163.755 414.096C163.865 413.798 164.062 413.542 164.319 413.361C164.576 413.181 164.881 413.085 165.193 413.087C165.564 413.063 165.93 413.189 166.212 413.438C166.493 413.687 166.667 414.039 166.696 414.418Z" fill="#455A64"/>
    <path d="M171.365 414.442C171.411 414.757 171.361 415.079 171.222 415.364C171.083 415.649 170.861 415.883 170.588 416.036C170.314 416.189 170.001 416.253 169.691 416.219C169.381 416.185 169.088 416.055 168.852 415.846C168.617 415.638 168.449 415.36 168.373 415.052C168.296 414.743 168.314 414.418 168.424 414.12C168.534 413.823 168.731 413.566 168.988 413.386C169.245 413.205 169.55 413.11 169.862 413.111C170.046 413.098 170.231 413.122 170.407 413.181C170.582 413.241 170.744 413.335 170.884 413.459C171.024 413.583 171.138 413.733 171.221 413.902C171.303 414.071 171.352 414.254 171.365 414.442Z" fill="#455A64"/>
    <path d="M176.05 414.461C176.095 414.775 176.045 415.097 175.907 415.381C175.768 415.666 175.547 415.901 175.274 416.054C175 416.207 174.688 416.271 174.378 416.237C174.068 416.204 173.775 416.074 173.539 415.867C173.303 415.659 173.136 415.382 173.058 415.074C172.981 414.766 172.998 414.441 173.107 414.143C173.216 413.845 173.412 413.589 173.668 413.407C173.924 413.226 174.228 413.129 174.54 413.13C174.913 413.104 175.281 413.23 175.563 413.479C175.846 413.728 176.021 414.081 176.05 414.461Z" fill="#455A64"/>
    <path d="M201.582 287.756H130.007V288.37H201.582V287.756Z" fill="#263238"/>
    <path d="M130.007 248.495H130.608V287.756H130.007V248.495Z" fill="#263238"/>
    <path d="M156.216 268.396H148.652V287.751H156.216V268.396Z" fill="#F9968B"/>
    <path d="M141.435 276.962H133.616V288.005H141.435V276.962Z" fill="#F9968B"/>
    <path d="M170.305 273.647H162.486V287.756H170.305V273.647Z" fill="#F9968B"/>
    <path d="M184.74 265.058H177.522V287.756H184.74V265.058Z" fill="#F9968B"/>
    <path d="M199.777 252.789H192.213V287.751H199.777V252.789Z" fill="#F9968B"/>
    <path d="M198.821 305.419L131.102 305.419C130.426 305.419 129.876 305.966 129.874 306.643L129.778 332.531C129.776 333.21 130.326 333.762 131.005 333.762L198.819 333.762C199.498 333.762 200.048 333.212 200.048 332.533L200.048 306.646C200.048 305.968 199.499 305.419 198.821 305.419Z" fill="white"/>
    <path d="M200.564 333.432L130.48 334.393C129.794 334.402 129.233 333.847 129.236 333.16L129.344 306.184C129.347 305.508 129.896 304.961 130.572 304.961H200.564V333.432ZM130.316 332.199C130.313 332.879 130.864 333.432 131.544 333.432H200.564V304.961L131.625 305.922C130.956 305.931 130.417 306.475 130.414 307.145L130.316 332.199Z" fill="#263238"/>
    <path d="M148.8 318.092C148.791 319.519 148.367 320.911 147.582 322.093C146.798 323.275 145.687 324.193 144.391 324.731C143.095 325.27 141.672 325.404 140.301 325.118C138.93 324.832 137.673 324.138 136.688 323.124C135.704 322.11 135.036 320.82 134.769 319.419C134.503 318.018 134.649 316.568 135.19 315.252C135.731 313.935 136.642 312.812 137.809 312.024C138.975 311.235 140.344 310.817 141.744 310.822C143.622 310.841 145.417 311.615 146.738 312.976C148.059 314.338 148.8 316.176 148.8 318.092Z" fill="#F27348"/>
    <path d="M142.29 318.173C142.581 318.042 142.829 317.827 143.002 317.554C143.175 317.281 143.266 316.963 143.264 316.638C143.264 316.226 143.104 315.832 142.819 315.541C142.533 315.25 142.147 315.087 141.743 315.087C141.34 315.087 140.953 315.25 140.668 315.541C140.383 315.832 140.223 316.226 140.223 316.638C140.215 316.966 140.303 317.289 140.475 317.566C140.647 317.844 140.895 318.063 141.189 318.197C138.813 318.552 138.94 321.161 138.94 321.161H144.484C144.484 321.161 144.61 318.544 142.29 318.173Z" fill="white"/>
    <g filter="url(#filter1_d)">
        <path d="M179.55 322.594C179.506 321.144 180.666 319.943 182.116 319.936L194.293 319.871C195.731 319.863 196.897 321.031 196.888 322.469L196.866 325.899C196.857 327.312 195.712 328.456 194.298 328.463L182.246 328.527C180.846 328.535 179.695 327.423 179.653 326.023L179.55 322.594Z" fill="#26474E"/>
    </g>
    <path d="M184.976 325.337C184.817 325.342 184.663 325.326 184.513 325.288C184.365 325.249 184.245 325.196 184.153 325.13L184.3 324.776C184.388 324.836 184.491 324.884 184.611 324.918C184.73 324.953 184.849 324.968 184.968 324.965C185.099 324.961 185.196 324.939 185.258 324.899C185.32 324.857 185.35 324.803 185.348 324.739C185.346 324.691 185.326 324.652 185.287 324.623C185.25 324.591 185.201 324.567 185.141 324.55C185.084 324.532 185.005 324.514 184.905 324.494C184.751 324.462 184.625 324.43 184.526 324.396C184.428 324.363 184.342 324.307 184.269 324.229C184.198 324.151 184.16 324.045 184.156 323.911C184.153 323.795 184.181 323.689 184.241 323.594C184.302 323.496 184.394 323.418 184.518 323.359C184.644 323.3 184.799 323.267 184.982 323.262C185.11 323.258 185.236 323.27 185.359 323.296C185.482 323.323 185.59 323.364 185.684 323.419L185.551 323.775C185.363 323.676 185.176 323.629 184.991 323.634C184.861 323.638 184.765 323.662 184.703 323.706C184.644 323.75 184.615 323.806 184.617 323.875C184.619 323.943 184.656 323.994 184.727 324.026C184.801 324.057 184.912 324.086 185.06 324.114C185.213 324.145 185.34 324.178 185.438 324.211C185.536 324.245 185.621 324.299 185.692 324.376C185.765 324.452 185.804 324.557 185.808 324.69C185.811 324.805 185.782 324.911 185.72 325.008C185.66 325.104 185.566 325.181 185.44 325.24C185.314 325.299 185.159 325.332 184.976 325.337ZM188.511 323.655L187.999 325.212L187.569 325.225L187.194 324.279L186.865 325.246L186.435 325.259L185.833 323.735L186.254 323.723L186.649 324.754L186.996 323.7L187.374 323.689L187.772 324.72L188.116 323.667L188.511 323.655ZM189.289 323.609C189.528 323.602 189.713 323.653 189.844 323.764C189.975 323.873 190.044 324.042 190.051 324.271L190.077 325.15L189.659 325.163L189.654 324.971C189.574 325.116 189.42 325.193 189.19 325.2C189.072 325.203 188.968 325.186 188.879 325.149C188.792 325.111 188.725 325.058 188.677 324.989C188.629 324.919 188.604 324.84 188.601 324.75C188.597 324.607 188.647 324.493 188.751 324.407C188.857 324.322 189.023 324.276 189.249 324.269L189.604 324.259C189.601 324.161 189.569 324.088 189.508 324.038C189.447 323.986 189.358 323.962 189.239 323.966C189.157 323.968 189.077 323.984 188.997 324.013C188.92 324.04 188.854 324.077 188.8 324.122L188.63 323.815C188.712 323.753 188.811 323.704 188.927 323.668C189.044 323.632 189.165 323.612 189.289 323.609ZM189.293 324.896C189.369 324.893 189.437 324.874 189.495 324.838C189.553 324.8 189.593 324.746 189.616 324.677L189.611 324.519L189.305 324.528C189.122 324.534 189.032 324.597 189.036 324.717C189.037 324.774 189.061 324.819 189.105 324.852C189.152 324.884 189.215 324.898 189.293 324.896ZM191.346 323.547C191.489 323.543 191.62 323.572 191.738 323.636C191.858 323.697 191.954 323.787 192.024 323.905C192.095 324.022 192.132 324.159 192.137 324.317C192.142 324.476 192.112 324.616 192.049 324.738C191.986 324.859 191.896 324.954 191.78 325.025C191.665 325.093 191.536 325.129 191.393 325.134C191.196 325.14 191.04 325.082 190.924 324.961L190.945 325.68L190.498 325.694L190.436 323.597L190.862 323.585L190.868 323.762C190.974 323.625 191.134 323.553 191.346 323.547ZM191.305 324.769C191.419 324.766 191.512 324.725 191.582 324.646C191.654 324.566 191.688 324.461 191.684 324.331C191.68 324.201 191.64 324.099 191.563 324.025C191.489 323.949 191.394 323.913 191.279 323.916C191.165 323.919 191.071 323.961 190.999 324.042C190.929 324.12 190.896 324.225 190.9 324.354C190.904 324.484 190.943 324.587 191.018 324.663C191.095 324.737 191.19 324.773 191.305 324.769Z" fill="white"/>
    <path d="M185.197 313.941C184.77 314.014 184.33 314.05 183.891 314.048C183.055 314.067 181.843 314.095 180.343 314.184C177.339 314.253 173.197 314.395 168.618 314.454C164.038 314.512 159.883 314.608 156.879 314.631L153.328 314.643C152.888 314.664 152.447 314.646 152.018 314.588C152.447 314.522 152.886 314.489 153.325 314.488C154.16 314.469 155.383 314.395 156.884 314.345C159.876 314.276 164.03 314.142 168.609 314.075C173.189 314.008 177.331 313.921 180.336 313.898C181.838 313.864 183.051 313.882 183.887 313.886C184.327 313.872 184.766 313.89 185.197 313.941Z" fill="#263238"/>
    <path d="M176.195 318.807C175.906 318.876 175.608 318.909 175.31 318.904C174.744 318.917 173.923 318.936 172.907 319.013C170.872 319.06 168.067 319.171 164.964 319.196C161.861 319.221 159.047 319.286 157.011 319.286L154.605 319.272C154.307 319.29 154.008 319.268 153.717 319.207C154.007 319.145 154.304 319.115 154.602 319.118C155.168 319.105 155.996 319.039 157.013 319C159.04 318.954 161.853 318.85 164.956 318.818C168.058 318.785 170.865 318.728 172.901 318.728C173.918 318.704 174.74 318.732 175.307 318.742C175.604 318.731 175.902 318.753 176.195 318.807Z" fill="#263238"/>
    <path d="M198.821 370.091L131.102 370.091C130.426 370.091 129.876 370.639 129.874 371.315L129.778 397.203C129.776 397.882 130.326 398.434 131.005 398.434L198.819 398.434C199.498 398.434 200.048 397.884 200.048 397.206L200.048 371.318C200.048 370.64 199.499 370.091 198.821 370.091Z" fill="white"/>
    <path d="M200.564 398.104L130.48 399.065C129.794 399.074 129.233 398.519 129.236 397.832L129.344 370.856C129.347 370.18 129.896 369.633 130.572 369.633H200.564V398.104ZM130.316 396.871C130.313 397.551 130.864 398.104 131.544 398.104H200.564V369.633L131.625 370.594C130.956 370.604 130.417 371.148 130.414 371.817L130.316 396.871Z" fill="#263238"/>
    <path d="M148.8 382.764C148.791 384.191 148.367 385.584 147.582 386.765C146.798 387.947 145.687 388.865 144.391 389.403C143.095 389.942 141.672 390.077 140.301 389.791C138.93 389.504 137.673 388.81 136.688 387.796C135.704 386.782 135.036 385.493 134.769 384.092C134.503 382.691 134.649 381.24 135.19 379.924C135.731 378.608 136.642 377.484 137.809 376.696C138.975 375.907 140.344 375.489 141.744 375.494C143.622 375.513 145.417 376.287 146.738 377.649C148.059 379.01 148.8 380.848 148.8 382.764Z" fill="#F27348"/>
    <path d="M142.29 382.845C142.581 382.714 142.829 382.499 143.002 382.226C143.175 381.953 143.266 381.635 143.264 381.31C143.264 380.899 143.104 380.504 142.819 380.213C142.533 379.923 142.147 379.759 141.743 379.759C141.34 379.759 140.953 379.923 140.668 380.213C140.383 380.504 140.223 380.899 140.223 381.31C140.215 381.638 140.303 381.961 140.475 382.239C140.647 382.516 140.895 382.735 141.189 382.869C138.813 383.225 138.94 385.834 138.94 385.834H144.484C144.484 385.834 144.61 383.216 142.29 382.845Z" fill="white"/>
    <g filter="url(#filter2_d)">
        <path d="M179.55 386.19C179.506 384.74 180.666 383.54 182.116 383.532L194.293 383.467C195.731 383.46 196.897 384.628 196.888 386.065L196.866 389.495C196.857 390.909 195.712 392.052 194.298 392.06L182.246 392.123C180.846 392.131 179.695 391.02 179.653 389.62L179.55 386.19Z" fill="#26474E"/>
    </g>
    <path d="M184.976 388.934C184.817 388.938 184.663 388.922 184.513 388.884C184.365 388.845 184.245 388.792 184.153 388.726L184.3 388.372C184.388 388.432 184.491 388.48 184.611 388.515C184.73 388.549 184.849 388.565 184.968 388.561C185.099 388.557 185.196 388.535 185.258 388.495C185.32 388.453 185.35 388.4 185.348 388.335C185.346 388.287 185.326 388.249 185.287 388.219C185.25 388.188 185.201 388.163 185.141 388.146C185.084 388.129 185.005 388.11 184.905 388.09C184.751 388.058 184.625 388.026 184.526 387.993C184.428 387.959 184.342 387.904 184.269 387.825C184.198 387.747 184.16 387.641 184.156 387.508C184.153 387.391 184.181 387.285 184.241 387.19C184.302 387.093 184.394 387.014 184.518 386.955C184.644 386.896 184.799 386.864 184.982 386.858C185.11 386.854 185.236 386.866 185.359 386.893C185.482 386.92 185.59 386.96 185.684 387.015L185.551 387.371C185.363 387.272 185.176 387.225 184.991 387.231C184.861 387.234 184.765 387.258 184.703 387.302C184.644 387.346 184.615 387.402 184.617 387.471C184.619 387.54 184.656 387.59 184.727 387.623C184.801 387.653 184.912 387.682 185.06 387.71C185.213 387.742 185.34 387.774 185.438 387.808C185.536 387.841 185.621 387.896 185.692 387.972C185.765 388.048 185.804 388.153 185.808 388.287C185.811 388.401 185.782 388.507 185.72 388.605C185.66 388.7 185.566 388.777 185.44 388.837C185.314 388.896 185.159 388.928 184.976 388.934ZM188.511 387.251L187.999 388.809L187.569 388.822L187.194 387.875L186.865 388.843L186.435 388.855L185.833 387.331L186.254 387.319L186.649 388.35L186.996 387.297L187.374 387.285L187.772 388.317L188.116 387.263L188.511 387.251ZM189.289 387.205C189.528 387.198 189.713 387.25 189.844 387.36C189.975 387.469 190.044 387.638 190.051 387.867L190.077 388.746L189.659 388.759L189.654 388.567C189.574 388.713 189.42 388.789 189.19 388.796C189.072 388.799 188.968 388.782 188.879 388.745C188.792 388.707 188.725 388.654 188.677 388.585C188.629 388.516 188.604 388.436 188.601 388.346C188.597 388.203 188.647 388.089 188.751 388.004C188.857 387.918 189.023 387.872 189.249 387.865L189.604 387.855C189.601 387.758 189.569 387.684 189.508 387.634C189.447 387.582 189.358 387.558 189.239 387.562C189.157 387.564 189.077 387.58 188.997 387.609C188.92 387.636 188.854 387.673 188.8 387.718L188.63 387.411C188.712 387.349 188.811 387.301 188.927 387.265C189.044 387.229 189.165 387.209 189.289 387.205ZM189.293 388.492C189.369 388.49 189.437 388.47 189.495 388.434C189.553 388.396 189.593 388.342 189.616 388.273L189.611 388.115L189.305 388.125C189.122 388.13 189.032 388.193 189.036 388.313C189.037 388.371 189.061 388.416 189.105 388.449C189.152 388.48 189.215 388.494 189.293 388.492ZM191.346 387.143C191.489 387.139 191.62 387.169 191.738 387.232C191.858 387.293 191.954 387.383 192.024 387.501C192.095 387.618 192.132 387.755 192.137 387.914C192.142 388.072 192.112 388.213 192.049 388.335C191.986 388.455 191.896 388.551 191.78 388.621C191.665 388.689 191.536 388.726 191.393 388.73C191.196 388.736 191.04 388.678 190.924 388.558L190.945 389.276L190.498 389.29L190.436 387.194L190.862 387.181L190.868 387.358C190.974 387.221 191.134 387.15 191.346 387.143ZM191.305 388.366C191.419 388.362 191.512 388.321 191.582 388.243C191.654 388.162 191.688 388.057 191.684 387.927C191.68 387.797 191.64 387.695 191.563 387.621C191.489 387.545 191.394 387.509 191.279 387.512C191.165 387.516 191.071 387.558 190.999 387.638C190.929 387.717 190.896 387.821 190.9 387.951C190.904 388.081 190.943 388.184 191.018 388.26C191.095 388.334 191.19 388.369 191.305 388.366Z" fill="white"/>
    <path d="M185.197 378.613C184.77 378.686 184.33 378.722 183.891 378.721C183.055 378.74 181.843 378.768 180.343 378.856C177.339 378.925 173.197 379.067 168.618 379.126C164.038 379.185 159.883 379.28 156.879 379.303L153.328 379.315C152.888 379.337 152.447 379.318 152.018 379.26C152.447 379.195 152.886 379.161 153.325 379.161C154.16 379.142 155.383 379.067 156.884 379.017C159.876 378.948 164.03 378.814 168.609 378.748C173.189 378.681 177.331 378.593 180.336 378.571C181.838 378.536 183.051 378.555 183.887 378.558C184.327 378.544 184.766 378.563 185.197 378.613Z" fill="#263238"/>
    <path d="M176.195 383.479C175.906 383.548 175.608 383.581 175.31 383.576C174.744 383.589 173.923 383.608 172.907 383.686C170.872 383.733 168.067 383.843 164.964 383.868C161.861 383.893 159.047 383.958 157.011 383.959L154.605 383.944C154.307 383.962 154.008 383.941 153.717 383.88C154.007 383.817 154.304 383.787 154.602 383.79C155.168 383.777 155.996 383.711 157.013 383.673C159.04 383.626 161.853 383.523 164.956 383.49C168.058 383.457 170.865 383.4 172.901 383.4C173.918 383.377 174.74 383.404 175.307 383.414C175.604 383.403 175.902 383.425 176.195 383.479Z" fill="#263238"/>
    <path d="M130.975 338.556L198.694 338.556C199.37 338.556 199.92 339.104 199.922 339.78L200.018 365.668C200.02 366.347 199.47 366.899 198.791 366.899L130.977 366.899C130.298 366.899 129.748 366.349 129.748 365.671L129.748 339.783C129.748 339.105 130.297 338.556 130.975 338.556Z" fill="white"/>
    <path d="M129.232 366.569L199.316 367.53C200.002 367.539 200.563 366.984 200.56 366.297L200.451 339.321C200.449 338.645 199.9 338.098 199.224 338.098H129.232V366.569ZM199.48 365.336C199.483 366.016 198.932 366.569 198.252 366.569H129.232V338.098L198.171 339.059C198.84 339.069 199.379 339.613 199.382 340.282L199.48 365.336Z" fill="#263238"/>
    <path d="M148.801 351.229C148.792 352.656 148.368 354.049 147.583 355.23C146.799 356.412 145.688 357.33 144.392 357.868C143.096 358.407 141.673 358.542 140.302 358.255C138.931 357.969 137.674 357.275 136.689 356.261C135.705 355.247 135.037 353.958 134.77 352.557C134.504 351.156 134.65 349.705 135.191 348.389C135.732 347.073 136.643 345.949 137.81 345.161C138.976 344.372 140.345 343.954 141.745 343.959C143.623 343.978 145.418 344.752 146.739 346.114C148.06 347.475 148.801 349.313 148.801 351.229Z" fill="#F27348"/>
    <path d="M142.291 351.31C142.582 351.179 142.83 350.964 143.003 350.691C143.176 350.418 143.267 350.1 143.265 349.775C143.265 349.364 143.105 348.969 142.82 348.678C142.534 348.387 142.148 348.224 141.744 348.224C141.341 348.224 140.954 348.387 140.669 348.678C140.384 348.969 140.224 349.364 140.224 349.775C140.216 350.103 140.304 350.426 140.476 350.704C140.648 350.981 140.896 351.2 141.19 351.334C138.814 351.689 138.941 354.299 138.941 354.299H144.485C144.485 354.299 144.611 351.681 142.291 351.31Z" fill="white"/>
    <g filter="url(#filter3_d)">
        <path d="M179.55 355.196C179.506 353.746 180.666 352.545 182.116 352.537L194.293 352.473C195.731 352.465 196.897 353.633 196.888 355.071L196.866 358.501C196.857 359.914 195.712 361.058 194.298 361.065L182.246 361.129C180.846 361.136 179.695 360.025 179.653 358.625L179.55 355.196Z" fill="#26474E"/>
    </g>
    <path d="M184.976 357.939C184.817 357.944 184.663 357.927 184.513 357.89C184.365 357.85 184.245 357.798 184.153 357.732L184.3 357.378C184.388 357.438 184.491 357.485 184.611 357.52C184.73 357.555 184.849 357.57 184.968 357.567C185.099 357.563 185.196 357.541 185.258 357.501C185.32 357.459 185.35 357.405 185.348 357.34C185.346 357.293 185.326 357.254 185.287 357.225C185.25 357.193 185.201 357.169 185.141 357.152C185.084 357.134 185.005 357.116 184.905 357.096C184.751 357.064 184.625 357.031 184.526 356.998C184.428 356.965 184.342 356.909 184.269 356.831C184.198 356.753 184.16 356.647 184.156 356.513C184.153 356.397 184.181 356.291 184.241 356.196C184.302 356.098 184.394 356.02 184.518 355.961C184.644 355.902 184.799 355.869 184.982 355.864C185.11 355.86 185.236 355.871 185.359 355.898C185.482 355.925 185.59 355.966 185.684 356.02L185.551 356.377C185.363 356.278 185.176 356.231 184.991 356.236C184.861 356.24 184.765 356.264 184.703 356.308C184.644 356.352 184.615 356.408 184.617 356.477C184.619 356.545 184.656 356.596 184.727 356.628C184.801 356.658 184.912 356.688 185.06 356.716C185.213 356.747 185.34 356.78 185.438 356.813C185.536 356.847 185.621 356.901 185.692 356.978C185.765 357.054 185.804 357.159 185.808 357.292C185.811 357.407 185.782 357.513 185.72 357.61C185.66 357.706 185.566 357.783 185.44 357.842C185.314 357.901 185.159 357.934 184.976 357.939ZM188.511 356.257L187.999 357.814L187.569 357.827L187.194 356.881L186.865 357.848L186.435 357.861L185.833 356.337L186.254 356.324L186.649 357.356L186.996 356.302L187.374 356.291L187.772 357.322L188.116 356.269L188.511 356.257ZM189.289 356.211C189.528 356.203 189.713 356.255 189.844 356.366C189.975 356.475 190.044 356.644 190.051 356.873L190.077 357.752L189.659 357.764L189.654 357.573C189.574 357.718 189.42 357.795 189.19 357.801C189.072 357.805 188.968 357.788 188.879 357.751C188.792 357.713 188.725 357.66 188.677 357.59C188.629 357.521 188.604 357.442 188.601 357.352C188.597 357.209 188.647 357.094 188.751 357.009C188.857 356.924 189.023 356.878 189.249 356.871L189.604 356.86C189.601 356.763 189.569 356.689 189.508 356.64C189.447 356.588 189.358 356.564 189.239 356.567C189.157 356.57 189.077 356.586 188.997 356.615C188.92 356.642 188.854 356.678 188.8 356.724L188.63 356.417C188.712 356.355 188.811 356.306 188.927 356.27C189.044 356.234 189.165 356.214 189.289 356.211ZM189.293 357.497C189.369 357.495 189.437 357.476 189.495 357.44C189.553 357.402 189.593 357.348 189.616 357.279L189.611 357.121L189.305 357.13C189.122 357.136 189.032 357.199 189.036 357.319C189.037 357.376 189.061 357.421 189.105 357.454C189.152 357.485 189.215 357.5 189.293 357.497ZM191.346 356.149C191.489 356.145 191.62 356.174 191.738 356.238C191.858 356.299 191.954 356.389 192.024 356.507C192.095 356.623 192.132 356.761 192.137 356.919C192.142 357.078 192.112 357.218 192.049 357.34C191.986 357.461 191.896 357.556 191.78 357.626C191.665 357.695 191.536 357.731 191.393 357.735C191.196 357.741 191.04 357.684 190.924 357.563L190.945 358.282L190.498 358.295L190.436 356.199L190.862 356.186L190.868 356.364C190.974 356.227 191.134 356.155 191.346 356.149ZM191.305 357.371C191.419 357.368 191.512 357.327 191.582 357.248C191.654 357.168 191.688 357.063 191.684 356.933C191.68 356.803 191.64 356.701 191.563 356.627C191.489 356.551 191.394 356.514 191.279 356.518C191.165 356.521 191.071 356.563 190.999 356.644C190.929 356.722 190.896 356.826 190.9 356.956C190.904 357.086 190.943 357.189 191.018 357.265C191.095 357.339 191.19 357.375 191.305 357.371Z" fill="white"/>
    <path d="M185.199 347.078C184.772 347.151 184.332 347.187 183.892 347.186C183.057 347.205 181.845 347.233 180.345 347.321C177.341 347.39 173.199 347.532 168.62 347.591C164.04 347.65 159.885 347.745 156.88 347.768L153.33 347.78C152.89 347.802 152.449 347.783 152.02 347.725C152.449 347.66 152.887 347.626 153.327 347.626C154.162 347.606 155.385 347.532 156.886 347.482C159.878 347.413 164.032 347.279 168.611 347.212C173.191 347.146 177.333 347.058 180.338 347.035C181.84 347.001 183.053 347.019 183.889 347.023C184.329 347.009 184.768 347.028 185.199 347.078Z" fill="#263238"/>
    <path d="M176.195 351.944C175.906 352.013 175.608 352.046 175.31 352.041C174.744 352.054 173.923 352.073 172.907 352.151C170.872 352.197 168.067 352.308 164.964 352.333C161.861 352.358 159.047 352.423 157.011 352.423L154.605 352.409C154.307 352.427 154.008 352.406 153.717 352.345C154.007 352.282 154.304 352.252 154.602 352.255C155.168 352.242 155.996 352.176 157.013 352.138C159.04 352.091 161.853 351.988 164.956 351.955C168.058 351.922 170.865 351.865 172.901 351.865C173.918 351.842 174.74 351.869 175.307 351.879C175.604 351.868 175.902 351.89 176.195 351.944Z" fill="#263238"/>
    <path d="M291.264 253.263L238.914 253.263C238.39 253.263 237.966 253.686 237.964 254.209L237.89 274.221C237.888 274.747 238.313 275.173 238.839 275.173L291.262 275.173C291.787 275.173 292.212 274.748 292.212 274.223L292.212 254.211C292.212 253.687 291.787 253.263 291.264 253.263Z" fill="white"/>
    <path d="M292.612 274.918L238.433 275.661C237.902 275.668 237.469 275.239 237.471 274.708L237.555 253.854C237.557 253.331 237.981 252.909 238.504 252.909H292.612V274.918ZM238.306 273.965C238.304 274.491 238.729 274.918 239.255 274.918H292.612V252.909L239.318 253.652C238.8 253.659 238.384 254.079 238.382 254.597L238.306 273.965Z" fill="#263238"/>
    <path d="M252.595 263.059C252.588 264.163 252.261 265.239 251.654 266.153C251.047 267.066 250.189 267.776 249.187 268.192C248.185 268.608 247.085 268.712 246.025 268.491C244.965 268.27 243.993 267.734 243.232 266.949C242.471 266.165 241.955 265.169 241.749 264.086C241.543 263.003 241.656 261.881 242.074 260.864C242.492 259.846 243.196 258.978 244.098 258.368C245 257.759 246.058 257.435 247.14 257.439C248.592 257.454 249.98 258.053 251.001 259.105C252.023 260.157 252.596 261.578 252.595 263.059Z" fill="#F27348"/>
    <path d="M247.563 263.122C247.789 263.021 247.98 262.854 248.114 262.644C248.248 262.433 248.318 262.187 248.316 261.935C248.316 261.617 248.193 261.312 247.972 261.088C247.752 260.863 247.453 260.736 247.141 260.736C246.829 260.736 246.53 260.863 246.31 261.088C246.089 261.312 245.965 261.617 245.965 261.935C245.96 262.189 246.027 262.439 246.16 262.653C246.293 262.868 246.485 263.037 246.712 263.141C244.876 263.415 244.974 265.432 244.974 265.432H249.259C249.259 265.432 249.357 263.409 247.563 263.122Z" fill="white"/>
    <g filter="url(#filter4_d)">
        <path d="M276.749 266.878C276.715 265.757 277.611 264.829 278.733 264.823L288.146 264.773C289.257 264.767 290.159 265.67 290.152 266.781L290.135 269.433C290.128 270.526 289.243 271.41 288.15 271.415L278.833 271.465C277.75 271.47 276.861 270.611 276.828 269.529L276.749 266.878Z" fill="#26474E"/>
    </g>
    <path d="M280.934 268.68C280.812 268.683 280.692 268.671 280.576 268.642C280.462 268.611 280.369 268.57 280.298 268.519L280.412 268.246C280.479 268.292 280.56 268.329 280.652 268.356C280.744 268.383 280.836 268.395 280.928 268.392C281.03 268.389 281.104 268.372 281.152 268.341C281.2 268.308 281.223 268.267 281.222 268.217C281.221 268.18 281.205 268.15 281.175 268.127C281.146 268.103 281.108 268.084 281.062 268.071C281.017 268.058 280.956 268.043 280.879 268.028C280.76 268.003 280.663 267.978 280.587 267.952C280.511 267.926 280.444 267.883 280.388 267.823C280.333 267.763 280.304 267.681 280.301 267.577C280.298 267.487 280.32 267.406 280.366 267.332C280.413 267.257 280.484 267.196 280.58 267.15C280.678 267.105 280.798 267.08 280.939 267.075C281.038 267.072 281.135 267.081 281.23 267.102C281.326 267.123 281.409 267.154 281.481 267.196L281.379 267.472C281.233 267.395 281.089 267.359 280.946 267.363C280.845 267.366 280.771 267.385 280.724 267.419C280.677 267.452 280.655 267.496 280.657 267.549C280.658 267.602 280.687 267.641 280.742 267.666C280.799 267.69 280.885 267.712 280.999 267.734C281.118 267.758 281.215 267.783 281.291 267.809C281.368 267.835 281.433 267.877 281.488 267.936C281.544 267.995 281.574 268.076 281.577 268.18C281.58 268.268 281.557 268.35 281.509 268.425C281.463 268.499 281.391 268.559 281.293 268.605C281.195 268.65 281.076 268.675 280.934 268.68ZM283.667 267.379L283.271 268.583L282.939 268.593L282.649 267.862L282.394 268.609L282.062 268.619L281.597 267.441L281.923 267.431L282.228 268.229L282.496 267.414L282.788 267.406L283.096 268.203L283.361 267.388L283.667 267.379ZM284.268 267.343C284.453 267.338 284.596 267.378 284.697 267.464C284.799 267.548 284.852 267.678 284.858 267.855L284.878 268.535L284.555 268.545L284.55 268.396C284.489 268.509 284.369 268.568 284.192 268.573C284.101 268.576 284.021 268.563 283.952 268.534C283.884 268.505 283.832 268.464 283.795 268.41C283.758 268.357 283.739 268.295 283.736 268.226C283.733 268.115 283.772 268.027 283.853 267.961C283.935 267.895 284.063 267.859 284.237 267.854L284.512 267.846C284.509 267.771 284.485 267.714 284.438 267.675C284.391 267.635 284.322 267.617 284.23 267.619C284.167 267.621 284.104 267.633 284.043 267.656C283.983 267.677 283.932 267.705 283.89 267.74L283.759 267.503C283.823 267.455 283.899 267.417 283.988 267.39C284.079 267.362 284.173 267.346 284.268 267.343ZM284.272 268.338C284.331 268.336 284.383 268.322 284.428 268.294C284.473 268.264 284.504 268.223 284.521 268.169L284.518 268.047L284.281 268.054C284.139 268.059 284.07 268.107 284.073 268.2C284.074 268.244 284.092 268.279 284.127 268.305C284.163 268.329 284.211 268.34 284.272 268.338ZM285.858 267.296C285.969 267.293 286.07 267.315 286.162 267.364C286.255 267.412 286.328 267.481 286.383 267.573C286.437 267.663 286.466 267.769 286.47 267.891C286.474 268.014 286.451 268.122 286.402 268.217C286.353 268.31 286.284 268.384 286.194 268.438C286.105 268.491 286.006 268.519 285.895 268.522C285.743 268.527 285.622 268.482 285.532 268.389L285.549 268.945L285.203 268.955L285.155 267.335L285.485 267.325L285.489 267.462C285.571 267.356 285.694 267.301 285.858 267.296ZM285.827 268.241C285.915 268.238 285.987 268.206 286.041 268.146C286.097 268.083 286.123 268.002 286.12 267.902C286.117 267.801 286.086 267.723 286.027 267.665C285.969 267.606 285.896 267.578 285.807 267.581C285.718 267.584 285.646 267.616 285.591 267.678C285.536 267.739 285.511 267.82 285.514 267.92C285.517 268.02 285.547 268.1 285.605 268.159C285.664 268.216 285.738 268.243 285.827 268.241Z" fill="white"/>
    <path d="M280.733 259.851C280.402 259.907 280.063 259.935 279.723 259.934C279.077 259.948 278.14 259.97 276.98 260.038C274.658 260.092 271.456 260.201 267.916 260.247C264.376 260.292 261.164 260.366 258.841 260.384L256.096 260.393C255.756 260.41 255.415 260.396 255.084 260.351C255.415 260.3 255.754 260.274 256.094 260.274C256.74 260.259 257.685 260.201 258.846 260.163C261.158 260.11 264.369 260.006 267.91 259.954C271.45 259.903 274.652 259.835 276.975 259.818C278.136 259.791 279.073 259.805 279.72 259.808C280.06 259.797 280.4 259.811 280.733 259.851Z" fill="#263238"/>
    <path d="M273.772 263.612C273.549 263.666 273.319 263.691 273.089 263.687C272.651 263.697 272.017 263.712 271.231 263.772C269.658 263.808 267.489 263.894 265.091 263.913C262.692 263.932 260.516 263.982 258.942 263.983L257.083 263.972C256.852 263.986 256.621 263.969 256.396 263.922C256.62 263.874 256.85 263.85 257.08 263.852C257.518 263.842 258.158 263.792 258.944 263.762C260.511 263.726 262.686 263.646 265.084 263.621C267.483 263.595 269.652 263.551 271.226 263.551C272.013 263.533 272.648 263.554 273.086 263.562C273.316 263.554 273.546 263.57 273.772 263.612Z" fill="#263238"/>
    <path d="M288.883 263.926C291.003 260.272 291.615 255.383 292.15 251.191C292.401 249.219 292.846 246.387 291.505 245.145C290.036 243.831 289.901 241.774 288.213 240.749C287.379 240.218 286.414 239.942 285.431 239.952C284.448 239.963 283.489 240.26 282.666 240.808" fill="#263238"/>
    <path d="M283.007 276.871C282.236 276.934 281.461 276.837 280.727 276.587C279.994 276.336 279.318 275.937 278.739 275.414C278.16 274.891 277.691 274.253 277.359 273.541C277.028 272.828 276.841 272.054 276.809 271.266C276.68 268.079 276.565 264.846 276.565 264.846C276.565 264.846 271.816 264.412 271.462 259.622C271.107 254.831 271.23 243.785 271.23 243.785C273.821 242.443 276.717 241.829 279.618 242.007C282.519 242.185 285.321 243.148 287.736 244.797L287.492 261.652V270.714C287.524 273.776 285.977 276.628 283.007 276.871Z" fill="#B78876"/>
    <path d="M276.139 253.767C276.485 253.251 277.011 252.889 277.609 252.755C278.208 252.621 278.834 252.724 279.36 253.044C279.892 253.418 280.277 253.973 280.446 254.61C280.614 255.246 280.556 255.923 280.282 256.52C280.04 256.963 279.711 257.35 279.315 257.656C278.919 257.963 278.465 258.182 277.982 258.301C277.551 258.396 277.169 258.649 276.91 259.013C276.651 259.377 276.532 259.825 276.577 260.272C276.712 261.475 278.677 261.915 279.56 262.901C280.945 264.445 283.967 265.089 286.003 265.332C288.039 265.575 287.762 265.588 288.921 263.906C289.701 262.768 290.099 261.404 290.055 260.016C290.111 256.485 290.171 252.956 290.236 249.43C290.313 248.156 290.23 246.877 289.991 245.625C289.744 244.362 289.037 243.242 288.013 242.49C286.873 241.728 285.436 241.669 284.147 241.242C282.524 240.71 281.139 239.612 279.637 238.824C278.136 238.035 276.248 237.569 274.722 238.357C273.626 238.916 272.892 240.039 271.829 240.657C270.315 241.544 268.247 241.347 267.518 243.627C267.271 244.422 267.283 245.277 267.551 246.065C268.588 249.154 272.351 250.396 275.057 249.049C275.115 249.574 274.612 250.737 275.153 252.393C275.334 252.926 275.392 253.708 276.203 253.747" fill="#263238"/>
    <path d="M276.971 256.75C276.971 256.75 276.97 256.842 277.035 256.96C277.099 257.04 277.18 257.105 277.271 257.15C277.362 257.196 277.462 257.22 277.563 257.223C277.891 257.203 278.2 257.056 278.425 256.811C278.65 256.567 278.775 256.244 278.774 255.909C278.793 255.538 278.668 255.175 278.427 254.897C278.23 254.682 277.974 254.533 277.692 254.47C277.209 254.365 276.925 254.549 276.951 254.582C276.977 254.614 277.235 254.582 277.595 254.7C277.84 254.782 278.051 254.944 278.197 255.159C278.344 255.375 278.418 255.634 278.407 255.896C278.408 256.155 278.32 256.406 278.159 256.606C277.998 256.806 277.774 256.943 277.525 256.993C277.318 256.981 277.121 256.895 276.971 256.75Z" fill="#AA6550"/>
    <path d="M290.487 250.586C290.88 249.784 291.446 249.084 292.142 248.536C292.838 247.989 293.647 247.609 294.507 247.425C295.37 247.261 296.259 247.336 297.084 247.641C297.909 247.946 298.639 248.471 299.197 249.16C299.733 249.868 300.042 250.728 300.082 251.621C300.123 252.515 299.892 253.399 299.423 254.154C298.289 255.843 296.118 256.375 294.133 256.645C294.862 257.492 295.752 258.179 296.749 258.664C297.745 259.15 298.828 259.424 299.932 259.471C299.144 260.004 298.23 260.311 297.286 260.36C296.341 260.408 295.401 260.196 294.565 259.747L297.786 262.546C296.16 262.961 294.444 262.784 292.931 262.047C291.419 261.31 290.207 260.057 289.502 258.506C288.798 256.955 288.646 255.202 289.073 253.549C289.499 251.896 290.478 250.446 291.84 249.449" fill="#263238"/>
    <path d="M293.47 256.441C292.933 256.481 292.396 256.386 291.904 256.165C291.335 255.858 290.848 255.416 290.482 254.876C290.117 254.336 289.884 253.715 289.804 253.064C289.711 252.412 289.762 251.747 289.953 251.118C290.145 250.49 290.473 249.913 290.912 249.43C291.296 249.038 291.717 248.686 292.168 248.378C292.168 248.378 292.001 248.378 291.743 248.529C291.375 248.718 291.038 248.964 290.744 249.259C290.241 249.747 289.861 250.352 289.637 251.023C289.413 251.693 289.35 252.409 289.456 253.11C289.537 253.815 289.794 254.487 290.203 255.062C290.611 255.637 291.157 256.096 291.788 256.395C292.176 256.565 292.599 256.632 293.019 256.592C293.328 256.54 293.476 256.461 293.47 256.441Z" fill="#254750"/>
    <path d="M300.254 251.611C300.293 251.611 300.01 250.954 299.024 250.474C297.747 249.983 296.353 249.9 295.029 250.238C293.701 250.513 292.453 251.097 291.383 251.946C291.061 252.2 290.761 252.481 290.487 252.788C290.3 253.011 290.21 253.142 290.223 253.156C290.236 253.169 290.693 252.722 291.512 252.144C292.586 251.381 293.8 250.847 295.081 250.573C296.356 250.251 297.694 250.294 298.947 250.698C299.44 250.907 299.885 251.218 300.254 251.611Z" fill="#455A64"/>
    <path d="M298.843 254.825C298.843 254.772 298.398 254.877 297.696 254.89C296.779 254.915 295.868 254.723 295.035 254.331C294.201 253.939 293.467 253.357 292.89 252.63C292.445 252.071 292.245 251.67 292.194 251.69C292.271 252.09 292.446 252.463 292.703 252.774C293.256 253.58 294.008 254.222 294.882 254.635C295.757 255.048 296.723 255.218 297.683 255.127C298.089 255.13 298.488 255.026 298.843 254.825Z" fill="#455A64"/>
    <path d="M291.711 261.271C291.711 261.225 291.273 260.929 290.674 260.285C289.882 259.459 289.315 258.437 289.03 257.319C288.744 256.201 288.749 255.027 289.044 253.911C289.263 253.05 289.533 252.564 289.482 252.531C289.17 252.913 288.95 253.362 288.837 253.846C288.466 254.997 288.428 256.234 288.727 257.407C289.027 258.581 289.651 259.641 290.525 260.463C290.856 260.819 291.262 261.095 291.711 261.271Z" fill="#455A64"/>
    <path d="M281.816 242.3C282.376 241.878 283.04 241.623 283.733 241.563C284.427 241.503 285.124 241.639 285.746 241.958C286.533 242.37 287.2 242.986 287.679 243.746C288.511 245.174 289.028 246.771 289.193 248.424C289.257 249.12 289.382 249.808 289.566 250.481C289.575 249.782 289.53 249.083 289.431 248.392C289.324 246.683 288.818 245.024 287.956 243.555C287.449 242.743 286.73 242.09 285.881 241.669C285.18 241.342 284.403 241.224 283.639 241.327C283.126 241.396 282.637 241.592 282.215 241.899C281.938 242.116 281.803 242.293 281.816 242.3Z" fill="#455A64"/>
    <path d="M268.608 247.235C268.409 247.14 268.22 247.028 268.041 246.9C267.814 246.719 267.643 246.475 267.547 246.198C267.451 245.921 267.434 245.622 267.499 245.336C267.594 244.954 267.824 244.622 268.144 244.403C268.555 244.198 269.017 244.12 269.471 244.179C269.761 244.199 270.053 244.185 270.341 244.14C270.634 244.08 270.91 243.952 271.146 243.765C271.583 243.367 271.982 242.927 272.338 242.451C273.079 241.645 274.032 241.073 275.083 240.802C275.941 240.562 276.839 240.513 277.718 240.657C278.518 240.822 279.289 241.11 280.005 241.511C279.85 241.34 279.666 241.198 279.464 241.091C278.927 240.771 278.341 240.549 277.731 240.434C276.82 240.246 275.88 240.271 274.98 240.506C273.863 240.777 272.85 241.378 272.067 242.234C271.72 242.688 271.336 243.112 270.921 243.502C270.508 243.797 270.004 243.928 269.503 243.87C268.991 243.818 268.475 243.923 268.021 244.173C267.83 244.299 267.665 244.463 267.535 244.655C267.406 244.846 267.315 245.062 267.267 245.29C267.183 245.664 267.236 246.057 267.416 246.394C267.54 246.655 267.726 246.881 267.957 247.051C268.098 247.152 268.258 247.224 268.427 247.261C268.55 247.248 268.608 247.248 268.608 247.235Z" fill="#455A64"/>
    <path d="M281.208 260.522C281.452 260.481 281.685 260.39 281.891 260.253C282.64 259.822 283.22 259.141 283.533 258.324C283.845 257.507 283.871 256.605 283.605 255.771C283.428 255.178 283.115 254.637 282.69 254.194C282.232 253.74 281.713 253.353 281.15 253.044C280.59 252.715 280.042 252.387 279.546 252.084C279.076 251.769 278.658 251.379 278.309 250.928C277.719 250.151 277.335 249.232 277.195 248.26C277.087 247.354 277.15 246.435 277.381 245.553C277.381 245.553 277.336 245.605 277.285 245.724C277.208 245.892 277.148 246.068 277.104 246.249C276.923 246.914 276.872 247.608 276.956 248.293C277.072 249.319 277.454 250.294 278.064 251.119C278.423 251.603 278.859 252.022 279.353 252.36C279.862 252.715 280.422 253.018 280.97 253.34C281.507 253.635 282.003 254.002 282.445 254.43C282.836 254.836 283.129 255.329 283.302 255.87C283.451 256.329 283.509 256.815 283.472 257.298C283.436 257.78 283.306 258.251 283.09 258.682C282.788 259.271 282.344 259.773 281.801 260.141C281.44 260.404 281.196 260.489 281.208 260.522Z" fill="#455A64"/>
    <path d="M289.328 253.471C289.328 253.399 288.445 253.576 287.054 253.425C285.238 253.24 283.496 252.599 281.983 251.559C280.438 250.573 279.244 249.108 278.575 247.379C278.348 246.649 278.324 245.869 278.504 245.125C278.385 245.303 278.306 245.505 278.272 245.717C278.16 246.293 278.187 246.888 278.35 247.452C278.717 248.891 279.98 250.593 281.796 251.841C283.349 252.92 285.159 253.549 287.034 253.662C287.598 253.699 288.163 253.682 288.723 253.609C288.93 253.594 289.134 253.548 289.328 253.471Z" fill="#455A64"/>
    <path d="M235.709 280.939L238.524 284.119L252.46 300.883C253.33 301.929 254.452 302.725 255.715 303.194C256.979 303.662 258.341 303.786 259.666 303.554C260.991 303.322 262.234 302.741 263.272 301.869C264.31 300.998 265.107 299.865 265.584 298.583L270.436 287.977L262.169 283.232C261.776 283.541 257.473 292.097 257.473 292.097C256.216 291.689 242.01 277.134 242.01 277.134L241.83 276.214C241.759 275.84 241.681 275.419 241.611 274.939C241.528 274.383 241.539 273.816 241.643 273.264C241.744 272.572 241.937 271.898 242.216 271.259C242.525 270.701 242.029 270.044 241.52 270.28C241.011 270.517 240.116 272.028 239.916 274.085C239.716 276.142 238.067 274.032 237.429 273.06C236.585 271.746 234.916 272.541 235.529 274.098C235.375 274.123 235.228 274.181 235.098 274.268C234.968 274.356 234.858 274.47 234.775 274.604C234.664 274.836 234.6 275.088 234.587 275.345C234.573 275.603 234.611 275.86 234.697 276.102C234.531 276.745 234.49 277.415 234.575 278.074C234.755 279.099 235.141 280.074 235.709 280.939Z" fill="#B78876"/>
    <path d="M276.029 360.773L262.59 424.002L252.449 423.765L261.282 363.297L276.029 360.773Z" fill="#B78876"/>
    <path d="M251.063 424.85L251.108 423.693L262.589 424.028L262.492 427.846H261.777C258.62 427.925 245.709 428.043 243.615 427.38C241.289 426.63 251.063 424.85 251.063 424.85Z" fill="#254750"/>
    <g opacity="0.6">
        <path opacity="0.6" d="M258.351 427.616C258.558 426.689 259.104 425.878 259.878 425.349C260.665 424.794 261.619 424.54 262.571 424.633L262.488 427.662L258.351 427.616Z" fill="white"/>
    </g>
    <g opacity="0.6">
        <path opacity="0.6" d="M246.283 425.868C246.283 425.868 242.849 426.703 243.255 427.248C243.661 427.793 256.72 428.142 262.493 427.82V427.577L247.262 427.287C247.262 427.287 246.947 425.908 246.283 425.868Z" fill="white"/>
    </g>
    <path d="M262.661 427.57H262.461H261.894L259.82 427.603C258.061 427.603 255.632 427.603 252.952 427.531C250.272 427.458 247.849 427.347 246.097 427.241L244.022 427.103L243.455 427.057H243.262H243.455H244.022L246.103 427.149C247.856 427.228 250.278 427.327 252.958 427.399C255.638 427.471 258.061 427.498 259.82 427.511H261.894H262.461L262.661 427.57Z" fill="#263238"/>
    <path d="M247.248 427.478C247.162 427.148 247.041 426.829 246.888 426.525C246.689 426.244 246.46 425.986 246.205 425.756C246.547 425.886 246.832 426.135 247.01 426.46C247.216 426.755 247.301 427.12 247.248 427.478Z" fill="#263238"/>
    <path d="M250.67 425.927C250.638 425.927 250.483 425.756 250.322 425.5C250.161 425.244 250.058 425.027 250.09 425.007C250.123 424.987 250.284 425.178 250.438 425.434C250.593 425.691 250.702 425.907 250.67 425.927Z" fill="#263238"/>
    <path d="M251.611 425.507C251.611 425.507 251.405 425.415 251.212 425.237C251.019 425.06 250.89 424.909 250.915 424.882C250.941 424.856 251.115 424.974 251.308 425.145C251.502 425.316 251.656 425.461 251.611 425.507Z" fill="#263238"/>
    <path d="M252.224 424.482C252.029 424.54 251.826 424.558 251.624 424.535C251.424 424.55 251.223 424.525 251.032 424.462C251.424 424.37 251.831 424.37 252.224 424.462V424.482Z" fill="#263238"/>
    <path d="M252.448 423.765C252.251 423.877 252.029 423.934 251.804 423.93C251.569 423.963 251.33 423.926 251.115 423.825C251.342 423.805 251.57 423.805 251.798 423.825C252.012 423.786 252.23 423.766 252.448 423.765Z" fill="#263238"/>
    <path d="M250.311 424.968C250.067 425.006 249.819 425.006 249.576 424.968C249.314 424.928 249.055 424.867 248.803 424.784C248.649 424.736 248.5 424.672 248.358 424.593C248.316 424.57 248.279 424.538 248.249 424.5C248.219 424.461 248.197 424.417 248.184 424.37C248.174 424.317 248.179 424.263 248.2 424.213C248.221 424.164 248.256 424.122 248.3 424.094C248.584 423.971 248.899 423.946 249.197 424.022C249.496 424.098 249.762 424.271 249.956 424.515C250.067 424.652 250.144 424.814 250.182 424.988C250.197 425.05 250.197 425.116 250.182 425.178C250.115 424.958 250.008 424.753 249.866 424.574C249.696 424.375 249.472 424.233 249.222 424.166C248.935 424.068 248.624 424.08 248.345 424.199C248.23 424.278 248.268 424.409 248.397 424.488C248.526 424.561 248.662 424.62 248.803 424.666C249.049 424.753 249.301 424.823 249.557 424.876C250.034 424.942 250.311 424.948 250.311 424.968Z" fill="#263238"/>
    <path d="M250.116 425.001C250.037 424.852 250.014 424.679 250.052 424.514C250.077 424.33 250.15 424.155 250.264 424.009C250.335 423.901 250.431 423.814 250.543 423.755C250.656 423.697 250.782 423.668 250.908 423.673C250.943 423.68 250.977 423.693 251.007 423.713C251.036 423.733 251.062 423.758 251.082 423.788C251.102 423.818 251.115 423.852 251.122 423.888C251.129 423.923 251.129 423.96 251.121 423.995C251.103 424.109 251.057 424.215 250.986 424.304C250.886 424.458 250.767 424.597 250.631 424.718C250.512 424.843 250.363 424.936 250.2 424.988C250.2 424.988 250.348 424.869 250.561 424.652C250.682 424.529 250.79 424.392 250.883 424.245C250.986 424.1 251.063 423.838 250.883 423.798C250.786 423.808 250.693 423.838 250.608 423.886C250.524 423.935 250.451 424.001 250.393 424.081C250.287 424.211 250.212 424.363 250.174 424.528C250.142 424.684 250.123 424.842 250.116 425.001Z" fill="#263238"/>
    <path d="M262.513 424.6C262.513 424.6 262.191 424.561 261.669 424.6C261.002 424.649 260.36 424.875 259.807 425.257C259.277 425.637 258.862 426.161 258.608 426.768C258.421 427.228 258.396 427.544 258.37 427.537C258.344 427.531 258.37 427.458 258.37 427.32C258.394 427.121 258.442 426.924 258.512 426.736C258.745 426.094 259.165 425.541 259.717 425.152C260.288 424.752 260.957 424.525 261.649 424.495C261.865 424.482 262.081 424.493 262.294 424.528C262.371 424.537 262.445 424.562 262.513 424.6Z" fill="#263238"/>
    <path d="M256.939 426.525C255.831 426.695 254.704 426.675 253.602 426.466C253.602 426.427 254.349 426.466 255.271 426.506C256.192 426.545 256.939 426.486 256.939 426.525Z" fill="#263238"/>
    <path d="M259.181 426.578C259.181 426.578 259.116 426.729 259.032 426.887C258.949 427.044 258.91 427.189 258.865 427.189C258.82 427.189 258.813 427.018 258.91 426.834C259.007 426.65 259.155 426.552 259.181 426.578Z" fill="#263238"/>
    <path d="M260.032 425.605C260.032 425.605 259.981 425.743 259.858 425.855C259.736 425.967 259.613 426.032 259.588 426.006C259.562 425.98 259.639 425.868 259.762 425.756C259.884 425.645 260.032 425.579 260.032 425.605Z" fill="#263238"/>
    <path d="M261.276 425.185C261.276 425.218 261.115 425.218 260.947 425.264C260.78 425.31 260.657 425.402 260.625 425.376C260.593 425.35 260.696 425.205 260.908 425.139C261.121 425.073 261.289 425.152 261.276 425.185Z" fill="#263238"/>
    <path d="M262.146 424.994C262.146 424.994 262.088 425.08 261.997 425.113C261.907 425.146 261.81 425.146 261.798 425.113C261.785 425.08 261.849 425.027 261.946 424.994C262.042 424.961 262.133 424.955 262.146 424.994Z" fill="#263238"/>
    <path d="M300.848 358.638L304.114 420.381L294.134 422.839L286.648 359.939L300.848 358.638Z" fill="#B78876"/>
    <path d="M304.41 420.145L306.111 427.767H294.624L294.134 422.806L304.41 420.145Z" fill="#254750"/>
    <path d="M294.391 426.663C294.942 426.751 295.501 426.784 296.059 426.762C297.097 426.762 298.527 426.762 300.099 426.683L304.132 426.506C304.691 426.513 305.25 426.469 305.801 426.374C305.247 426.283 304.686 426.252 304.126 426.282C303.088 426.282 301.665 426.282 300.086 426.361L296.059 426.532C295.5 426.524 294.942 426.568 294.391 426.663Z" fill="#263238"/>
    <path d="M299.256 421.63C299.15 422.45 299.15 423.28 299.256 424.101C299.261 424.926 299.367 425.747 299.572 426.545C299.68 425.725 299.68 424.894 299.572 424.074C299.573 423.249 299.467 422.427 299.256 421.63Z" fill="#263238"/>
    <g opacity="0.6">
        <path opacity="0.6" d="M306.111 427.767H294.624L294.514 426.663L305.905 426.374L306.111 427.636" fill="white"/>
    </g>
    <path d="M305.891 291.749L309.757 301.106C310.173 302.445 310.052 303.898 309.42 305.147C308.789 306.395 307.698 307.338 306.388 307.769C305.087 308.197 303.674 308.086 302.453 307.46C301.232 306.835 300.301 305.744 299.861 304.424L296.756 295.192L305.891 291.749Z" fill="#B78876"/>
    <path d="M295.384 311.673C295.384 311.673 302.387 323.613 302.387 330.729L307.148 407.521L288.168 409.736L283.555 334.521C283.555 334.521 268.034 410.853 267.377 410.853C266.72 410.853 250.091 409.736 250.091 409.736L268.034 312.054L295.384 311.673Z" fill="#263238"/>
    <path d="M275.83 336.466C275.83 336.558 279.541 335.717 284.07 334.587C288.599 333.456 292.246 332.471 292.246 332.379C292.246 332.287 288.541 333.128 284.012 334.258C279.483 335.388 275.811 336.374 275.83 336.466Z" fill="#455A64"/>
    <path d="M295.384 311.673L292.111 301.967L294.385 290.218L296.163 295.396L307.148 291.282C307.148 291.282 300.061 276.773 299.675 276.01C296.453 269.045 287.762 269.045 287.762 269.045L276.732 269.341C274.98 269.224 273.225 269.499 271.588 270.145C269.951 270.792 268.472 271.796 267.255 273.086C264.098 276.332 257.333 291.269 257.333 291.269L267.255 296.592L270.798 289.836L270.154 299.076L267.867 313.151L295.384 311.673Z" fill="#254750"/>
    <path d="M272.35 272.396C272.35 272.429 272.66 272.442 273.162 272.653C273.862 272.977 274.448 273.511 274.844 274.184C275.436 275.178 275.677 276.349 275.527 277.502C275.322 278.92 274.886 280.292 274.238 281.563C272.95 284.356 271.829 286.906 271.017 288.752L270.076 290.947C269.951 291.211 269.849 291.486 269.773 291.768C269.942 291.528 270.084 291.271 270.198 291L271.229 288.851C272.099 287.03 273.259 284.507 274.541 281.708C275.2 280.402 275.636 278.991 275.829 277.535C275.971 276.317 275.691 275.088 275.037 274.059C274.603 273.359 273.959 272.822 273.201 272.528C272.993 272.451 272.777 272.405 272.557 272.39C272.428 272.396 272.35 272.396 272.35 272.396Z" fill="#263238"/>
    <path d="M292.002 302.519C292.098 302.519 293.419 296.441 294.959 288.903C296.499 281.366 297.671 275.235 297.581 275.215C297.491 275.196 296.17 281.294 294.63 288.831C293.09 296.368 291.911 302.499 292.002 302.519Z" fill="#263238"/>
    <g opacity="0.2">
        <path opacity="0.2" d="M291.19 301.763C289.122 303.347 286.036 302.815 283.517 302.388C280.931 301.994 278.565 300.681 276.836 298.681C276.029 297.813 275.585 296.658 275.599 295.461C275.696 294.279 276.72 293.142 277.873 293.28C279.162 293.444 279.806 294.955 280.45 296.145C281.49 298.028 283.077 299.537 284.993 300.462C286.908 301.387 289.058 301.683 291.145 301.31C291.145 301.31 291.558 301.481 291.19 301.763Z" fill="black"/>
    </g>
    <path d="M275.43 293.372C275.391 293.64 275.391 293.912 275.43 294.18C275.507 294.919 275.687 295.642 275.965 296.329C276.908 298.609 278.616 300.473 280.784 301.586C282.946 302.65 285.339 303.136 287.736 302.999C288.457 302.972 289.176 302.898 289.888 302.775C290.149 302.744 290.406 302.682 290.654 302.591C290.654 302.526 289.54 302.736 287.729 302.756C285.38 302.819 283.05 302.31 280.932 301.27C278.833 300.189 277.156 298.412 276.177 296.23C275.812 295.313 275.561 294.353 275.43 293.372Z" fill="#263238"/>
    <g opacity="0.2">
        <path opacity="0.2" d="M275.43 278.856C274.785 284.159 273.941 288.516 272.853 293.746C272.318 296.316 271.674 299.003 269.928 300.942L270.933 289.179L275.43 278.856Z" fill="black"/>
    </g>
    <defs>
        <filter id="filter0_d" x="0" y="0" width="351" height="603" filterUnits="userSpaceOnUse" color-interpolation-filters="sRGB">
            <feFlood flood-opacity="0" result="BackgroundImageFix"/>
            <feColorMatrix in="SourceAlpha" type="matrix" values="0 0 0 0 0 0 0 0 0 0 0 0 0 0 0 0 0 0 127 0"/>
            <feOffset dx="2" dy="8"/>
            <feGaussianBlur stdDeviation="7.5"/>
            <feColorMatrix type="matrix" values="0 0 0 0 0.304271 0 0 0 0 0.575 0 0 0 0 0.575 0 0 0 0.1 0"/>
            <feBlend mode="normal" in2="BackgroundImageFix" result="effect1_dropShadow"/>
            <feBlend mode="normal" in="SourceGraphic" in2="effect1_dropShadow" result="shape"/>
        </filter>
        <filter id="filter1_d" x="176.451" y="317.806" width="24.2226" height="15.5395" filterUnits="userSpaceOnUse" color-interpolation-filters="sRGB">
            <feFlood flood-opacity="0" result="BackgroundImageFix"/>
            <feColorMatrix in="SourceAlpha" type="matrix" values="0 0 0 0 0 0 0 0 0 0 0 0 0 0 0 0 0 0 127 0"/>
            <feOffset dx="0.344164" dy="1.37666"/>
            <feGaussianBlur stdDeviation="1.72082"/>
            <feColorMatrix type="matrix" values="0 0 0 0 0 0 0 0 0 0 0 0 0 0 0 0 0 0 0.05 0"/>
            <feBlend mode="normal" in2="BackgroundImageFix" result="effect1_dropShadow"/>
            <feBlend mode="normal" in="SourceGraphic" in2="effect1_dropShadow" result="shape"/>
        </filter>
        <filter id="filter2_d" x="176.451" y="381.402" width="24.2226" height="15.5395" filterUnits="userSpaceOnUse" color-interpolation-filters="sRGB">
            <feFlood flood-opacity="0" result="BackgroundImageFix"/>
            <feColorMatrix in="SourceAlpha" type="matrix" values="0 0 0 0 0 0 0 0 0 0 0 0 0 0 0 0 0 0 127 0"/>
            <feOffset dx="0.344164" dy="1.37666"/>
            <feGaussianBlur stdDeviation="1.72082"/>
            <feColorMatrix type="matrix" values="0 0 0 0 0 0 0 0 0 0 0 0 0 0 0 0 0 0 0.05 0"/>
            <feBlend mode="normal" in2="BackgroundImageFix" result="effect1_dropShadow"/>
            <feBlend mode="normal" in="SourceGraphic" in2="effect1_dropShadow" result="shape"/>
        </filter>
        <filter id="filter3_d" x="176.451" y="350.408" width="24.2226" height="15.5395" filterUnits="userSpaceOnUse" color-interpolation-filters="sRGB">
            <feFlood flood-opacity="0" result="BackgroundImageFix"/>
            <feColorMatrix in="SourceAlpha" type="matrix" values="0 0 0 0 0 0 0 0 0 0 0 0 0 0 0 0 0 0 127 0"/>
            <feOffset dx="0.344164" dy="1.37666"/>
            <feGaussianBlur stdDeviation="1.72082"/>
            <feColorMatrix type="matrix" values="0 0 0 0 0 0 0 0 0 0 0 0 0 0 0 0 0 0 0.05 0"/>
            <feBlend mode="normal" in2="BackgroundImageFix" result="effect1_dropShadow"/>
            <feBlend mode="normal" in="SourceGraphic" in2="effect1_dropShadow" result="shape"/>
        </filter>
        <filter id="filter4_d" x="274.354" y="263.177" width="18.7253" height="12.0128" filterUnits="userSpaceOnUse" color-interpolation-filters="sRGB">
            <feFlood flood-opacity="0" result="BackgroundImageFix"/>
            <feColorMatrix in="SourceAlpha" type="matrix" values="0 0 0 0 0 0 0 0 0 0 0 0 0 0 0 0 0 0 127 0"/>
            <feOffset dx="0.266057" dy="1.06423"/>
            <feGaussianBlur stdDeviation="1.33028"/>
            <feColorMatrix type="matrix" values="0 0 0 0 0 0 0 0 0 0 0 0 0 0 0 0 0 0 0.05 0"/>
            <feBlend mode="normal" in2="BackgroundImageFix" result="effect1_dropShadow"/>
            <feBlend mode="normal" in="SourceGraphic" in2="effect1_dropShadow" result="shape"/>
        </filter>
    </defs>
</svg>
