<svg width="228" height="195" viewBox="0 0 228 195" fill="none"
    xmlns="http://www.w3.org/2000/svg">
    <path opacity="0.7" d="M149.252 9.80377C122.015 -1.03654 89.2002 -1.57905 60.9066 6.59846C32.3647 14.8556 2.84694 35.6801 0.150382 63.3384C-1.84749 83.6353 16.6646 96.3022 19.904 115.225C21.873 126.718 15.6657 136.627 14.7072 147.727C13.893 157.183 17.8195 166.197 25.1007 173.205C47.6202 194.985 91.5619 203.401 118.025 181.965C128.419 173.528 137.657 161.926 151.758 157.77C180.104 149.429 223.422 147.318 227.689 114.718C230.287 94.8489 216.1 76.4383 204.182 60.5561C189.256 40.737 175.109 20.1016 149.252 9.80377Z" fill="#76CDCD"/>
    <g clip-path="url(#clip0)">
        <g clip-path="url(#clip1)">
            <path d="M79.7772 149.509C78.5566 149.509 77.5675 148.52 77.5675 147.3C77.5675 146.079 76.5791 145.09 75.3577 145.09C74.1364 145.09 73.148 146.079 73.148 147.3C73.148 148.52 72.1585 149.509 70.9383 149.509C69.7169 149.509 68.7285 150.499 68.7285 151.719C68.7285 152.939 69.7169 153.929 70.9383 153.929C72.1588 153.929 73.148 154.918 73.148 156.138C73.148 157.359 74.1364 158.348 75.3577 158.348C76.5791 158.348 77.5675 157.359 77.5675 156.138C77.5675 154.918 78.5569 153.929 79.7772 153.929C80.9985 153.929 81.9869 152.939 81.9869 151.719C81.9869 150.499 80.9985 149.509 79.7772 149.509Z" fill="#FF8086"/>
            <path d="M62.2353 118.281L56.2335 114.607L52.135 117.08L51.2525 120.255C50.7242 122.156 51.5203 124.177 53.203 125.208L62.1203 130.667L64.1861 123.234C64.7144 121.333 63.9183 119.311 62.2353 118.281Z" fill="#F27348"/>
            <path d="M93.7326 45.3861L98.3369 48.2049L103.833 46.587L104.715 43.4117C105.244 41.5106 104.448 39.4895 102.765 38.4591L93.8476 33L91.7818 40.4335C91.2535 42.3346 92.0496 44.3557 93.7326 45.3861Z" fill="#F27348"/>
            <path d="M69.7698 65.5935L89.7424 77.8207L95.5506 76.3943L96.433 73.2188C96.9613 71.3177 96.1653 69.2966 94.4823 68.2662L73.6713 55.5258L68.7012 57.4656L67.8188 60.6409C67.2908 62.542 68.0868 64.5631 69.7698 65.5935Z" fill="#F27348"/>
            <path d="M97.5414 57.2566L68.7012 57.4656L70.7669 50.0321C71.2953 48.1311 73.02 46.8104 74.993 46.796L103.833 46.587L101.768 54.0205C101.239 55.9216 99.5145 57.2423 97.5414 57.2566Z" fill="#F9968B"/>
            <path d="M61.4857 95.4006L81.7048 107.779L87.2664 106.201L88.1488 103.026C88.6772 101.125 87.8811 99.1035 86.1981 98.0731L64.2444 84.633L60.417 87.2725L59.5346 90.4481C59.0066 92.3494 59.8027 94.3705 61.4857 95.4006Z" fill="#F27348"/>
            <path d="M89.2582 87.0637L60.418 87.2728L62.4837 79.8393C63.0121 77.9382 64.7368 76.6175 66.7098 76.6032L95.5501 76.3941L93.4843 83.8276C92.956 85.729 91.2315 87.0494 89.2582 87.0637Z" fill="#F9968B"/>
            <path d="M80.975 116.871L52.1348 117.08L54.2005 109.647C54.7289 107.746 56.4536 106.425 58.4266 106.411L87.2669 106.201L85.2011 113.635C84.6728 115.536 82.9481 116.857 80.975 116.871Z" fill="#F9968B"/>
            <path d="M126.334 78.7778L132.739 79.2116L135.841 75.1626L135.152 71.9398C134.739 70.0103 133.097 68.5879 131.129 68.4545L120.697 67.748L122.311 75.2925C122.723 77.222 124.365 78.6445 126.334 78.7778Z" fill="#76CDCD"/>
            <path d="M114.458 107.788L137.705 109.362L142.309 105.415L141.62 102.192C141.208 100.263 139.566 98.8402 137.597 98.7068L114.684 97.1548L109.746 101.08L110.435 104.302C110.848 106.232 112.49 107.654 114.458 107.788Z" fill="#76CDCD"/>
            <path d="M135.208 87.5331L109.746 101.08L108.133 93.5354C107.721 91.6059 108.637 89.6366 110.379 88.7095L135.841 75.1627L137.454 82.7072C137.866 84.6367 136.95 86.606 135.208 87.5331Z" fill="#2CCED2"/>
            <path d="M120.928 138.041L143.963 139.601L148.779 135.668L148.09 132.445C147.678 130.516 146.036 129.093 144.067 128.96L120.858 127.388L116.216 131.333L116.905 134.556C117.318 136.485 118.959 137.907 120.928 138.041Z" fill="#76CDCD"/>
            <path d="M141.677 117.786L116.215 131.333L114.602 123.788C114.189 121.859 115.106 119.889 116.848 118.962L142.309 105.415L143.922 112.96C144.335 114.89 143.419 116.859 141.677 117.786Z" fill="#2CCED2"/>
            <path d="M148.145 148.039L122.684 161.586L121.071 154.041C120.658 152.112 121.575 150.142 123.317 149.215L148.778 135.668L150.391 143.213C150.804 145.142 149.888 147.112 148.145 148.039Z" fill="#2CCED2"/>
        </g>
        <path d="M103.233 151C102.23 151 101.417 150.187 101.417 149.184V126.262C101.417 125.258 102.23 124.445 103.233 124.445C104.237 124.445 105.05 125.258 105.05 126.262V149.184C105.05 150.187 104.237 151 103.233 151Z" fill="#D1EDF9"/>
        <path d="M104.358 130.873H102.11C100.391 130.873 99.1756 129.192 99.7137 127.561L101.663 121.651H104.805L106.754 127.561C107.292 129.192 106.076 130.873 104.358 130.873Z" fill="#26474E"/>
        <path d="M124.743 91.6357C124.743 106.256 115.113 122.995 103.233 122.995C91.3537 122.995 81.7236 106.256 81.7236 91.6357C81.7236 77.0156 91.3537 70.0508 103.233 70.0508C115.113 70.0508 124.743 77.0156 124.743 91.6357Z" fill="#446C75"/>
        <path d="M103.233 70.0508C101.568 70.0508 99.9464 70.1879 98.3896 70.4637C107.936 72.1547 115.056 79.0657 115.056 91.636C115.056 104.206 107.936 118.343 98.3896 122.06C99.9464 122.666 101.568 122.995 103.233 122.995C115.113 122.995 124.743 106.256 124.743 91.636C124.743 77.0156 115.113 70.0508 103.233 70.0508Z" fill="#26474E"/>
        <path d="M71.2854 151C70.2823 151 69.469 150.187 69.469 149.184C69.469 147.685 68.9413 146.332 68.3828 144.899C67.4245 142.441 66.3388 139.655 67.9433 136.018C68.5274 134.694 69.2954 133.621 69.973 132.673C71.0229 131.206 71.8592 130.037 71.9108 128.249C71.9052 128.191 71.9021 128.132 71.9021 128.072C71.9021 126.183 71.0457 124.986 69.9619 123.471C69.2842 122.524 68.5163 121.45 67.9321 120.126C66.3276 116.489 67.4133 113.703 68.3717 111.245C68.9304 109.812 69.4579 108.459 69.4579 106.961V96.0234C69.4579 95.0203 70.2712 94.207 71.2743 94.207C72.2774 94.207 73.0907 95.0203 73.0907 96.0234V106.961C73.0907 109.142 72.3818 110.961 71.7563 112.565C70.8878 114.793 70.26 116.403 71.2557 118.66C71.6887 119.642 72.285 120.475 72.9161 121.357C74.1135 123.031 75.4668 124.922 75.5322 127.851C75.5412 127.923 75.5458 127.997 75.5458 128.072C75.5458 131.128 74.1546 133.072 72.927 134.787C72.2958 135.67 71.6996 136.503 71.2666 137.485C70.2709 139.742 70.8984 141.351 71.7672 143.58C72.3927 145.184 73.1016 147.003 73.1016 149.184C73.1019 150.187 72.2886 151 71.2854 151ZM75.5349 128.072H75.5373H75.5349Z" fill="#D1EDF9"/>
        <path d="M72.4505 99.2738H70.2025C68.4839 99.2738 67.2684 97.5935 67.8065 95.9619L69.7554 90.0521H72.8978L74.8467 95.9619C75.3846 97.5935 74.169 99.2738 72.4505 99.2738Z" fill="#76CDCD"/>
        <path d="M92.8357 60.038C92.8357 74.6582 83.2056 91.3974 71.326 91.3974C59.4465 91.3974 49.8164 74.6582 49.8164 60.038C49.8164 45.4179 59.4465 38.4531 71.326 38.4531C83.2056 38.4531 92.8357 45.4179 92.8357 60.038Z" fill="#25CDEC"/>
        <path d="M71.3262 38.4521C69.6606 38.4521 68.0392 38.5892 66.4824 38.865C76.0292 40.556 83.1483 47.467 83.1483 60.0373C83.1483 72.6076 76.0292 86.744 66.4824 90.4611C68.0392 91.0673 69.6606 91.3967 71.3262 91.3967C83.2057 91.3967 92.8358 74.6574 92.8358 60.0373C92.8358 45.4172 83.2057 38.4521 71.3262 38.4521Z" fill="#0BC5E8"/>
        <path d="M148.674 151C147.671 151 146.858 150.187 146.858 149.184V142.087C146.858 140.589 146.33 139.235 145.771 137.802C144.813 135.345 143.727 132.559 145.332 128.922C145.916 127.597 146.684 126.524 147.362 125.577C148.446 124.061 149.302 122.865 149.302 120.976C149.302 119.093 148.424 117.851 147.313 116.279C146.544 115.191 145.672 113.959 145.093 112.418C143.902 109.252 144.73 107.203 145.53 105.221C146.183 103.604 146.858 101.931 146.858 99.0568V85.3672C146.858 84.364 147.671 83.5508 148.674 83.5508C149.677 83.5508 150.49 84.364 150.49 85.3672V99.0571C150.49 102.637 149.608 104.824 148.898 106.581C148.168 108.391 147.801 109.299 148.493 111.139C148.908 112.243 149.574 113.185 150.279 114.182C151.524 115.943 152.935 117.938 152.935 120.976C152.935 124.031 151.543 125.975 150.316 127.691C149.684 128.573 149.088 129.407 148.655 130.388C147.659 132.645 148.287 134.255 149.156 136.483C149.781 138.088 150.49 139.906 150.49 142.087V149.184C150.49 150.187 149.677 151 148.674 151Z" fill="#D1EDF9"/>
        <path d="M149.839 89.1737H147.591C145.873 89.1737 144.657 87.4934 145.195 85.8618L147.144 79.9519H150.286L152.235 85.8618C152.773 87.4936 151.557 89.1737 149.839 89.1737Z" fill="#F35847"/>
        <path d="M170.183 50.4014C170.183 65.0215 160.553 81.7608 148.674 81.7608C136.794 81.7608 127.164 65.0215 127.164 50.4014C127.164 35.7812 136.794 28.8164 148.674 28.8164C160.553 28.8164 170.183 35.7812 170.183 50.4014Z" fill="#F06131"/>
        <path d="M148.674 28.8164C147.008 28.8164 145.387 28.9535 143.83 29.2293C153.377 30.9203 160.496 37.8314 160.496 50.4016C160.496 62.9719 153.377 77.1083 143.83 80.8254C145.387 81.4316 147.008 81.761 148.674 81.761C160.553 81.761 170.183 65.0217 170.183 50.4016C170.183 35.7812 160.553 28.8164 148.674 28.8164Z" fill="#DE4C1B"/>
        <path d="M114.715 79.4246C112.998 77.8511 110.822 76.7412 108.246 76.1251C107.27 75.8914 106.29 76.4934 106.057 77.4692C105.824 78.445 106.426 79.4249 107.401 79.6583C109.369 80.1289 111.004 80.9511 112.259 82.1022C113.499 83.2391 114.405 84.7588 114.951 86.6195C115.183 87.4115 115.907 87.9249 116.693 87.9249C116.862 87.9249 117.034 87.9009 117.205 87.8511C118.167 87.5684 118.719 86.5592 118.436 85.5965C117.702 83.0921 116.45 81.0153 114.715 79.4246Z" fill="#12434E"/>
        <path d="M82.8073 47.826C81.0914 46.2527 78.9151 45.1425 76.3389 44.5266C75.3632 44.2932 74.3833 44.8953 74.1498 45.8708C73.9166 46.8466 74.5184 47.8265 75.4939 48.0599C77.4622 48.5305 79.0967 49.3527 80.3522 50.5038C81.592 51.6404 82.4975 53.1604 83.0437 55.0211C83.2759 55.8131 84.0003 56.3265 84.7857 56.3265C84.955 56.3265 85.1274 56.3025 85.2979 56.2524C86.2606 55.9698 86.8118 54.9606 86.5292 53.9981C85.7942 51.4929 84.5418 49.4164 82.8073 47.826Z" fill="#00A9CE"/>
        <path d="M163.878 44.3624C163.143 41.8577 161.891 39.781 160.156 38.1903C158.44 36.617 156.263 35.5068 153.688 34.8909C152.711 34.658 151.732 35.2593 151.498 36.2351C151.265 37.2109 151.867 38.1908 152.843 38.4242C154.811 38.8948 156.445 39.717 157.701 40.8679C158.941 42.005 159.846 43.5247 160.392 45.3854C160.625 46.1774 161.349 46.6908 162.134 46.6908C162.304 46.6908 162.476 46.6668 162.647 46.6169C163.609 46.3343 164.16 45.3251 163.878 44.3624Z" fill="#D5400E"/>
        <path d="M80.6951 30.6328C83.0327 30.6328 83.0365 27 80.6951 27C78.3575 27 78.3536 30.6328 80.6951 30.6328Z" fill="#FDBC00"/>
        <path d="M119.899 34.1445C122.237 34.1445 122.241 30.5117 119.899 30.5117C117.562 30.5117 117.558 34.1445 119.899 34.1445Z" fill="#FDBC00"/>
        <path d="M112.259 61.7539C114.596 61.7539 114.6 58.1211 112.259 58.1211C109.921 58.1211 109.917 61.7539 112.259 61.7539Z" fill="#FDBC00"/>
        <path d="M134.461 101.09C136.798 101.09 136.802 97.4574 134.461 97.4574C132.123 97.4574 132.119 101.09 134.461 101.09Z" fill="#FDBC00"/>
        <path d="M49.7546 94.2416C52.0922 94.2416 52.0961 90.6088 49.7546 90.6088C47.4171 90.6088 47.4132 94.2416 49.7546 94.2416Z" fill="#FDBC00"/>
        <path d="M49.8162 151C52.1538 151 52.1576 147.367 49.8162 147.367C47.4786 147.367 47.4747 151 49.8162 151Z" fill="#FDBC00"/>
        <path d="M58.2927 111.645C60.6303 111.645 60.6342 108.012 58.2927 108.012C55.9551 108.012 55.9513 111.645 58.2927 111.645Z" fill="#FDBC00"/>
        <path d="M165.437 129.427C167.775 129.427 167.779 125.794 165.437 125.794C163.1 125.794 163.096 129.427 165.437 129.427Z" fill="#FDBC00"/>
        <path d="M160.691 112.129C163.029 112.129 163.033 108.496 160.691 108.496C158.354 108.496 158.35 112.129 160.691 112.129Z" fill="#FDBC00"/>
        <path d="M85.5388 144.266C87.8764 144.266 87.8803 140.633 85.5388 140.633C83.2012 140.633 83.1974 144.266 85.5388 144.266Z" fill="#FDBC00"/>
        <path d="M55.8471 27.5323C55.1377 26.8229 53.9875 26.8229 53.2784 27.5323L48.532 32.2787C47.8227 32.988 47.8227 34.1382 48.532 34.8473C48.8866 35.2019 49.3516 35.3794 49.8163 35.3794C50.2811 35.3794 50.7461 35.2021 51.1007 34.8473L55.8471 30.1009C56.5564 29.3918 56.5564 28.2416 55.8471 27.5323Z" fill="#50D9B2"/>
        <path d="M103.598 38.0883C102.888 37.3789 101.738 37.3789 101.029 38.0883C100.32 38.7977 100.32 39.9478 101.029 40.6569L105.775 45.4033C106.13 45.7579 106.595 45.9354 107.06 45.9354C107.525 45.9354 107.99 45.7581 108.344 45.4033C109.053 44.694 109.053 43.5438 108.344 42.8347L103.598 38.0883Z" fill="#FF6381"/>
        <path d="M130.958 120.73L126.212 125.476C125.502 126.186 125.502 127.336 126.212 128.045C126.566 128.4 127.031 128.577 127.496 128.577C127.961 128.577 128.426 128.4 128.78 128.045L133.527 123.299C134.236 122.589 134.236 121.439 133.527 120.73C132.817 120.021 131.667 120.021 130.958 120.73Z" fill="#50D9B2"/>
        <path d="M55.8468 126.326C55.1374 125.617 53.9872 125.617 53.2781 126.326C52.5688 127.036 52.5688 128.186 53.2781 128.895L58.0245 133.641C58.3791 133.996 58.8441 134.173 59.3088 134.173C59.7736 134.173 60.2386 133.996 60.5931 133.641C61.3025 132.932 61.3025 131.782 60.5931 131.073L55.8468 126.326Z" fill="#50D9B2"/>
        <path d="M161.975 143.153C161.265 142.444 160.115 142.444 159.406 143.153C158.697 143.862 158.697 145.012 159.406 145.722L164.152 150.468C164.507 150.822 164.972 151 165.437 151C165.902 151 166.367 150.823 166.721 150.468C167.43 149.759 167.43 148.608 166.721 147.899L161.975 143.153Z" fill="#50D9B2"/>
        <path d="M171.467 87.0172C170.758 86.3078 169.608 86.3078 168.899 87.0172L164.152 91.7636C163.443 92.473 163.443 93.6231 164.152 94.3322C164.507 94.6868 164.972 94.8643 165.436 94.8643C165.901 94.8643 166.366 94.687 166.721 94.3322L171.467 89.5858C172.177 88.8767 172.177 87.7266 171.467 87.0172Z" fill="#FF6381"/>
        <path d="M118.81 143.153C118.1 142.444 116.95 142.444 116.241 143.153C115.532 143.862 115.532 145.012 116.241 145.722L120.987 150.468C121.342 150.822 121.807 151 122.272 151C122.736 151 123.201 150.823 123.556 150.468C124.265 149.759 124.265 148.608 123.556 147.899L118.81 143.153Z" fill="#FF6381"/>
    </g>
    <defs>
        <clipPath id="clip0">
            <rect width="124" height="124" fill="white" transform="translate(48 27)"/>
        </clipPath>
        <clipPath id="clip1">
            <rect width="136" height="136" fill="white" transform="translate(35 33)"/>
        </clipPath>
    </defs>
</svg>
