<svg width="63" height="65" viewBox="0 0 63 65" fill="none"
    xmlns="http://www.w3.org/2000/svg">
    <g clip-path="url(#clip0)">
        <path d="M62.861 35.5395H0.142578V35.5405H62.861V35.5395Z" fill="#C42126"/>
        <path d="M59.5909 17.7978H3.4082V17.7988H59.5909V17.7978Z" fill="#C42126"/>
        <path d="M61.8237 23.7108H1.1748V23.7118H61.8237V23.7108Z" fill="#C42126"/>
        <path d="M13.5391 59.1929H49.4623L49.4642 59.1908H13.5371L13.5391 59.1929Z" fill="#C42126"/>
        <path d="M31.5 -0.000236511C30.8813 -0.000236511 30.2675 0.0237489 29.6582 0.0611548H33.3422C32.7324 0.0237489 32.1187 -0.000236511 31.5 -0.000236511Z" fill="#C42126"/>
        <path d="M62.8683 29.6252H0.129883V29.6262H62.8683V29.6252Z" fill="#C42126"/>
        <path d="M40.8103 11.8847H55.8518C54.0652 9.64069 51.9888 7.65423 49.6884 5.97255H38.3936C39.3282 7.66905 40.1319 9.67088 40.8103 11.8847Z" fill="#E7E7E7"/>
        <path d="M38.3942 5.97493H49.689C45.0197 2.56093 39.4138 0.422972 33.3429 0.0612488H32.373C35.2305 0.432303 36.5429 2.61417 38.3942 5.97493Z" fill="#DC3027"/>
        <path d="M61.8259 23.7114C61.2658 21.6506 60.5148 19.6733 59.5917 17.7992H42.2871C42.6377 19.6975 42.9143 21.6802 43.1192 23.7114H61.8259Z" fill="#E7E7E7"/>
        <path d="M41.3137 17.7983H59.5911C58.5495 15.6846 57.2982 13.7012 55.8518 11.8851H39.8857C40.4487 13.7238 40.9268 15.7072 41.3137 17.7983Z" fill="#DC3027"/>
        <path d="M43.7812 35.5382H62.8579C62.9484 34.5382 62.9996 33.5246 62.9996 32.5004C62.9996 31.531 62.9504 30.574 62.8698 29.6257H43.7858C43.8479 31.5921 43.8468 33.5729 43.7812 35.5382Z" fill="#E7E7E7"/>
        <path d="M62.8708 29.6247C62.6981 27.594 62.3435 25.6184 61.8258 23.7125H42.3154C42.5113 25.6486 42.6408 27.6294 42.7039 29.6247H62.8708Z" fill="#DC3027"/>
        <path d="M41.958 47.3651H59.5092C60.4453 45.4931 61.2082 43.5143 61.7802 41.4519H42.8066C42.5976 43.4862 42.3141 45.4685 41.958 47.3651Z" fill="#E7E7E7"/>
        <path d="M61.7798 41.4515C62.3084 39.5462 62.6755 37.5705 62.858 35.5393H43.1865C43.1193 37.5361 42.986 39.5164 42.7861 41.4515H61.7798Z" fill="#DC3027"/>
        <path d="M49.464 59.1909C51.7976 57.5159 53.9035 55.5274 55.7184 53.2787H40.9391C40.2483 55.5017 39.4281 57.5004 38.4766 59.1909H49.464Z" fill="#E7E7E7"/>
        <path d="M40.3828 53.2784H55.7182C57.1815 51.4644 58.4518 49.481 59.5086 47.3652H41.8287C41.4363 49.4578 40.9534 51.4422 40.3828 53.2784Z" fill="#DC3027"/>
        <path d="M30.358 64.9772C30.2943 64.9751 30.2307 64.9719 30.167 64.9698C30.2307 64.9718 30.2944 64.9751 30.358 64.9772Z" fill="#DC3027"/>
        <path d="M31.5 65C38.1782 65 44.366 62.8492 49.4621 59.193H38.0618C36.0384 62.7897 34.7035 65 31.5 65Z" fill="#DC3027"/>
        <path d="M31.4998 65.0008C31.1173 65.0008 30.7373 64.9913 30.3584 64.9768C30.7413 64.9907 31.1217 65.0008 31.4998 65.0008Z" fill="#C42126"/>
        <path d="M39.4372 5.97255H13.3134C11.0126 7.65423 8.93656 9.64055 7.14941 11.8847H41.8535C41.1751 9.67088 40.3719 7.66905 39.4372 5.97255Z" fill="#F3F4F5"/>
        <path d="M13.3125 5.97493H39.4364C37.5847 2.61417 35.2296 0.432303 32.3722 0.0612488H29.658C23.5872 0.422972 17.9813 2.56093 13.3125 5.97493Z" fill="#E73625"/>
        <path d="M1.1748 23.7114H44.1119C43.9069 21.6798 43.6304 19.6975 43.2798 17.7992H3.40897C2.48581 19.6734 1.73488 21.6506 1.1748 23.7114Z" fill="#F3F4F5"/>
        <path d="M7.14787 11.8847C5.70253 13.7007 4.45019 15.684 3.40918 17.7978H43.2795C42.893 15.7072 42.4151 13.7239 41.8519 11.8847C41.8519 11.8847 7.14787 11.8847 7.14787 11.8847Z" fill="#E73625"/>
        <path d="M0 32.5004C0 33.5246 0.0517378 34.5382 0.14178 35.5383H44.4968C44.5625 33.5728 44.5634 31.5925 44.5013 29.6261H0.12981C0.0492108 30.574 0 31.531 0 32.5004Z" fill="#F3F4F5"/>
        <path d="M0.129883 29.6247H44.5008C44.4376 27.629 44.3078 25.6487 44.1123 23.7125H1.17435C0.656571 25.6188 0.301987 27.594 0.129883 29.6247Z" fill="#E73625"/>
        <path d="M44.0971 41.4515H1.2207C1.79274 43.5144 2.55618 45.4926 3.49171 47.3646H43.2485C43.6047 45.4685 43.8876 43.4861 44.0971 41.4515Z" fill="#F3F4F5"/>
        <path d="M1.22083 41.4515H44.0972C44.2967 39.5164 44.4304 37.5355 44.4976 35.5393H0.142578C0.325057 37.571 0.692675 39.5462 1.22083 41.4515Z" fill="#E73625"/>
        <path d="M13.5366 59.1909H39.3402C40.2917 57.5 41.1124 55.5017 41.8028 53.2787H7.28223C9.09717 55.5274 11.2025 57.5159 13.5366 59.1909Z" fill="#F3F4F5"/>
        <path d="M3.49121 47.365C4.54818 49.4807 5.81835 51.4642 7.28164 53.2781H41.8022C42.3722 51.4421 42.8552 49.4577 43.2475 47.365H3.49121Z" fill="#E73625"/>
        <path d="M30.1667 64.9694C30.2304 64.9715 30.2939 64.9745 30.3577 64.9765C30.7367 64.9904 31.1167 64.9996 31.4991 64.9996C34.7027 64.9996 37.3149 62.7894 39.3386 59.1927H13.5381C18.2925 62.6043 23.9994 64.7041 30.1667 64.9694Z" fill="#E73625"/>
        <path d="M30.8493 0.0174332C14.7073 0.35624 1.55071 13.2154 0.134766 29.5724H30.8499V0.0174332H30.8493Z" fill="#283991"/>
        <path d="M6.30335 18.4137L6.78322 19.9383H8.33802L7.08022 20.881L7.56062 22.4067L6.30335 21.4634L5.04648 22.4067L5.52596 20.881L4.26855 19.9383H5.82335L6.30335 18.4137Z" fill="#EFEFEF"/>
        <path d="M6.30335 23.7999L6.78322 25.3254H8.33802L7.08022 26.2682L7.56062 27.7938L6.30335 26.8505L5.04648 27.7938L5.52596 26.2682L4.26855 25.3254H5.82335L6.30335 23.7999Z" fill="#EFEFEF"/>
        <path d="M11.5246 10.3325L12.0046 11.8576H13.5589L12.3015 12.8009L12.7815 14.3254L11.5246 13.3832L10.2672 14.3254L10.7472 12.8009L9.48926 11.8576H11.0441L11.5246 10.3325Z" fill="#EFEFEF"/>
        <path d="M11.5246 15.7196L12.0046 17.2447H13.5589L12.3015 18.1869L12.7815 19.7125L11.5246 18.7704L10.2672 19.7125L10.7472 18.1869L9.48926 17.2447H11.0441L11.5246 15.7196Z" fill="#EFEFEF"/>
        <path d="M11.5246 21.1068L12.0046 22.6324H13.5589L12.3015 23.5741L12.7815 25.0997L11.5246 24.1566L10.2672 25.0997L10.7472 23.5741L9.48926 22.6324H11.0441L11.5246 21.1068Z" fill="#EFEFEF"/>
        <path d="M2.33923 25.0997L1.85882 23.5741L3.11623 22.6319H1.56236L1.52752 22.5206C1.35688 23.0651 1.20273 23.6162 1.06055 24.1735L1.08249 24.1566L2.33923 25.0997Z" fill="#EFEFEF"/>
        <path d="M5.04683 17.0196L6.3037 16.0764L7.5611 17.0196L7.08069 15.4939L8.3381 14.5508H6.7833L6.3033 13.0262L5.82329 14.5508H5.25032C5.14392 14.7171 5.04098 14.8844 4.9375 15.0531L5.52643 15.4939L5.04683 17.0196Z" fill="#EFEFEF"/>
        <path d="M11.5251 7.99609L12.7819 8.93827L12.3019 7.41371L13.5588 6.47057H12.661C11.8985 7.05871 11.1629 7.68116 10.4561 8.33791L10.2666 8.93827L11.5251 7.99609Z" fill="#EFEFEF"/>
        <path d="M15.4893 6.24526L16.7467 5.30212L18.0035 6.24526L17.5235 4.71961L18.7804 3.77742H17.2261L17.161 3.57214C16.6343 3.84974 16.113 4.1386 15.6036 4.44598L15.9687 4.71947L15.4893 6.24526Z" fill="#EFEFEF"/>
        <path d="M16.7471 7.63943L17.2271 9.16358H18.7814L17.524 10.1067L18.004 11.6324L16.7471 10.6891L15.4897 11.6324L15.9697 10.1067L14.7119 9.16358H16.2666L16.7471 7.63943Z" fill="#EFEFEF"/>
        <path d="M16.7471 13.0266L17.2271 14.5508H18.7814L17.524 15.4939L18.004 17.0196L16.7471 16.0763L15.4897 17.0196L15.9697 15.4939L14.7119 14.5508H16.2666L16.7471 13.0266Z" fill="#EFEFEF"/>
        <path d="M16.7471 18.4137L17.2271 19.9383H18.7814L17.524 20.881L18.004 22.4067L16.7471 21.4634L15.4897 22.4067L15.9697 20.881L14.7119 19.9383H16.2666L16.7471 18.4137Z" fill="#EFEFEF"/>
        <path d="M16.7471 23.7999L17.2271 25.3254H18.7814L17.524 26.2682L18.004 27.7938L16.7471 26.8505L15.4897 27.7938L15.9697 26.2682L14.7119 25.3254H16.2666L16.7471 23.7999Z" fill="#EFEFEF"/>
        <path d="M21.9678 4.94527L22.4478 6.47039H24.0021L22.7452 7.41367L23.2247 8.93823L21.9678 7.99605L20.71 8.93823L21.1904 7.41367L19.9326 6.47039H21.4873L21.9678 4.94527Z" fill="#EFEFEF"/>
        <path d="M21.9678 10.3325L22.4478 11.8576H24.0021L22.7452 12.8009L23.2247 14.3254L21.9678 13.3832L20.71 14.3254L21.1904 12.8009L19.9326 11.8576H21.4873L21.9678 10.3325Z" fill="#EFEFEF"/>
        <path d="M21.9678 15.7196L22.4478 17.2447H24.0021L22.7452 18.1869L23.2247 19.7125L21.9678 18.7704L20.71 19.7125L21.1904 18.1869L19.9326 17.2447H21.4873L21.9678 15.7196Z" fill="#EFEFEF"/>
        <path d="M21.9678 21.1068L22.4478 22.6324H24.0021L22.7452 23.5741L23.2247 25.0997L21.9678 24.1566L20.71 25.0997L21.1904 23.5741L19.9326 22.6324H21.4873L21.9678 21.1068Z" fill="#EFEFEF"/>
        <path d="M27.1895 2.25232L27.6695 3.77743H29.2238L27.9664 4.71961L28.4464 6.24527L27.1895 5.30199L25.9317 6.24527L26.4121 4.71961L25.1543 3.77743H26.7086L27.1895 2.25232Z" fill="#EFEFEF"/>
        <path d="M27.1895 7.63943L27.6695 9.16358H29.2238L27.9664 10.1067L28.4464 11.6324L27.1895 10.6891L25.9317 11.6324L26.4121 10.1067L25.1543 9.16358H26.7086L27.1895 7.63943Z" fill="#EFEFEF"/>
        <path d="M27.1895 13.0266L27.6695 14.5508H29.2238L27.9664 15.4939L28.4464 17.0196L27.1895 16.0763L25.9317 17.0196L26.4121 15.4939L25.1543 14.5508H26.7086L27.1895 13.0266Z" fill="#EFEFEF"/>
        <path d="M27.1895 18.4137L27.6695 19.9383H29.2238L27.9664 20.881L28.4464 22.4067L27.1895 21.4634L25.9317 22.4067L26.4121 20.881L25.1543 19.9383H26.7086L27.1895 18.4137Z" fill="#EFEFEF"/>
        <path d="M27.1895 23.7999L27.6695 25.3254H29.2238L27.9664 26.2682L28.4464 27.7938L27.1895 26.8505L25.9317 27.7938L26.4121 26.2682L25.1543 25.3254H26.7086L27.1895 23.7999Z" fill="#EFEFEF"/>
    </g>
    <defs>
        <clipPath id="clip0">
            <rect width="63" height="65" fill="white"/>
        </clipPath>
    </defs>
</svg>
