<svg width="216" height="50" viewBox="0 0 216 50" fill="none"
    xmlns="http://www.w3.org/2000/svg">
    <path d="M47.1592 41.4463C41.9183 47.0518 37.1104 49.8545 32.7354 49.8545C30.32 49.8545 28.4059 49 26.9932 47.291C25.5804 45.582 24.7943 43.1439 24.6348 39.9766C21.8776 43.3262 19.4281 45.8099 17.2861 47.4277C15.167 49.0456 12.8997 49.8545 10.4844 49.8545C7.38542 49.8545 4.8903 48.5215 2.99902 45.8555C1.13053 43.1667 0.196289 39.5892 0.196289 35.123C0.196289 29.791 1.42676 24.2995 3.8877 18.6484C6.34863 12.9746 9.99447 8.49707 14.8252 5.21582C19.6559 1.93457 25.512 0.293945 32.3936 0.293945C37.5433 0.293945 42.2031 0.988932 46.373 2.37891V4.63477C42.9779 8.59961 40.1296 14.1481 37.8281 21.2803C35.5495 28.4124 34.4102 33.847 34.4102 37.584C34.4102 39.4069 34.7747 40.8197 35.5039 41.8223C36.2559 42.8249 37.2926 43.3262 38.6143 43.3262C40.984 43.3262 43.8324 41.3893 47.1592 37.5156V41.4463ZM37.2129 4.63477C35.1165 3.49544 32.8607 2.92578 30.4453 2.92578C26.64 2.92578 23.2106 4.52083 20.1572 7.71094C17.1038 10.8783 14.6885 15.0824 12.9111 20.3232C11.1566 25.5641 10.2793 30.11 10.2793 33.9609C10.2793 36.5358 10.7692 38.6322 11.749 40.25C12.7516 41.8451 14.0277 42.6426 15.5771 42.6426C18.266 42.6426 21.3535 40.193 24.8398 35.2939C26.2754 22.4424 30.3997 12.2227 37.2129 4.63477ZM80.6895 41.4463C75.4258 47.0062 70.9141 49.7861 67.1543 49.7861C65.6276 49.7861 64.3971 49.2507 63.4629 48.1797C62.5286 47.1087 62.0615 45.6732 62.0615 43.873C62.0615 41.4349 63.0641 37.7093 65.0693 32.6963C66.1403 30.0075 66.6758 28.2985 66.6758 27.5693C66.6758 26.8402 66.391 26.4756 65.8213 26.4756C65.5023 26.4756 65.0807 26.6351 64.5566 26.9541C64.0781 27.2731 63.5199 27.7174 62.8818 28.2871C62.3122 28.8112 61.6742 29.4492 60.9678 30.2012C60.3525 30.8392 59.6917 31.5684 58.9854 32.3887L57.0713 34.6104C56.2282 35.6357 55.7041 36.7181 55.499 37.8574C55.1572 39.7943 54.9294 41.5716 54.8154 43.1895C54.7471 44.3971 54.7129 46.0264 54.7129 48.0771L47.1592 49.8545C46.9085 46.7783 46.7832 44.4883 46.7832 42.9844C46.7832 39.3158 47.2048 35.8408 48.0479 32.5596C48.9137 29.2783 50.2923 25.5869 52.1836 21.4854L60.5234 19.8789C58.7689 24.5957 57.6182 28.3099 57.0713 31.0215C60.8083 26.8516 63.7705 23.9691 65.958 22.374C68.1683 20.7562 70.1279 19.9473 71.8369 19.9473C72.999 19.9473 73.9674 20.3916 74.7422 21.2803C75.5169 22.1462 75.9043 23.2399 75.9043 24.5615C75.9043 26.749 74.9245 30.3493 72.9648 35.3623C71.6204 38.8031 70.9482 41.0361 70.9482 42.0615C70.9482 43.4287 71.5065 44.1123 72.623 44.1123C74.2865 44.1123 76.9753 41.9134 80.6895 37.5156V41.4463ZM106.256 41.4463C103.362 44.2946 100.764 46.4023 98.4629 47.7695C96.1615 49.1139 93.6208 49.7861 90.8408 49.7861C87.7419 49.7861 85.2354 48.7949 83.3213 46.8125C81.43 44.8301 80.4844 42.221 80.4844 38.9854C80.4844 34.1546 82.1592 29.791 85.5088 25.8945C88.8584 21.9753 92.5726 20.0156 96.6514 20.0156C98.7705 20.0156 100.468 20.5625 101.744 21.6562C103.02 22.75 103.658 24.1855 103.658 25.9629C103.658 30.6797 98.6452 34.5078 88.6191 37.4473C89.5306 41.8906 91.9118 44.1123 95.7627 44.1123C97.2666 44.1123 98.7021 43.7135 100.069 42.916C101.437 42.0957 103.499 40.2956 106.256 37.5156V41.4463ZM88.3457 35.123C94.179 33.4824 97.0957 30.4518 97.0957 26.0312C97.0957 23.8438 96.2982 22.75 94.7031 22.75C93.1992 22.75 91.7637 23.9007 90.3965 26.2021C89.0293 28.4808 88.3457 31.4544 88.3457 35.123ZM128.883 41.4463C125.784 44.2946 123.061 46.4023 120.714 47.7695C118.39 49.1139 116.168 49.7861 114.049 49.7861C111.611 49.7861 109.64 48.8405 108.136 46.9492C106.655 45.0579 105.914 42.5173 105.914 39.3271C105.914 34.542 106.951 28.7998 109.024 22.1006C111.098 15.4014 113.616 9.22624 116.578 3.5752L125.26 0.362305C125.533 0.271159 125.738 0.225586 125.875 0.225586C126.536 0.225586 127.071 0.715495 127.481 1.69531C127.914 2.65234 128.131 3.95117 128.131 5.5918C128.131 10.2402 127.06 14.7406 124.918 19.0928C122.776 23.445 119.426 28.0934 114.869 33.0381C114.687 35.4079 114.596 37.0371 114.596 37.9258C114.596 39.9082 114.96 41.4805 115.689 42.6426C116.419 43.8047 117.387 44.3857 118.595 44.3857C119.825 44.3857 121.135 43.9414 122.525 43.0527C123.915 42.1641 126.035 40.3184 128.883 37.5156V41.4463ZM115.792 28.082C118.686 24.8691 121.033 21.2689 122.833 17.2812C124.633 13.2936 125.533 9.86426 125.533 6.99316C125.533 6.15007 125.408 5.47786 125.157 4.97656C124.907 4.45247 124.588 4.19043 124.2 4.19043C123.357 4.19043 122.127 6.28678 120.509 10.4795C118.914 14.6722 117.341 20.5397 115.792 28.082ZM151.51 41.4463C148.411 44.2946 145.688 46.4023 143.341 47.7695C141.017 49.1139 138.795 49.7861 136.676 49.7861C134.238 49.7861 132.267 48.8405 130.763 46.9492C129.282 45.0579 128.541 42.5173 128.541 39.3271C128.541 34.542 129.578 28.7998 131.651 22.1006C133.725 15.4014 136.243 9.22624 139.205 3.5752L147.887 0.362305C148.16 0.271159 148.365 0.225586 148.502 0.225586C149.163 0.225586 149.698 0.715495 150.108 1.69531C150.541 2.65234 150.758 3.95117 150.758 5.5918C150.758 10.2402 149.687 14.7406 147.545 19.0928C145.403 23.445 142.053 28.0934 137.496 33.0381C137.314 35.4079 137.223 37.0371 137.223 37.9258C137.223 39.9082 137.587 41.4805 138.316 42.6426C139.046 43.8047 140.014 44.3857 141.222 44.3857C142.452 44.3857 143.762 43.9414 145.152 43.0527C146.542 42.1641 148.661 40.3184 151.51 37.5156V41.4463ZM138.419 28.082C141.313 24.8691 143.66 21.2689 145.46 17.2812C147.26 13.2936 148.16 9.86426 148.16 6.99316C148.16 6.15007 148.035 5.47786 147.784 4.97656C147.534 4.45247 147.215 4.19043 146.827 4.19043C145.984 4.19043 144.754 6.28678 143.136 10.4795C141.541 14.6722 139.968 20.5397 138.419 28.082ZM182.203 41.4463C181.041 42.4717 179.913 43.2008 178.819 43.6338C177.726 44.0439 176.86 44.249 176.222 44.249C174.581 44.249 172.952 43.611 171.334 42.335C168.053 47.3024 164.293 49.7861 160.055 49.7861C157.411 49.7861 155.27 48.7949 153.629 46.8125C151.988 44.8301 151.168 42.1982 151.168 38.917C151.168 33.7217 153.014 29.2669 156.705 25.5527C160.396 21.8158 164.806 19.9473 169.933 19.9473C171.869 19.9473 173.282 20.1637 174.171 20.5967C175.082 21.0068 175.641 21.4967 175.846 22.0664C176.051 22.6361 176.153 23.3538 176.153 24.2197C176.153 28.4808 174.991 33.7103 172.667 39.9082C173.829 40.9792 175.048 41.5146 176.324 41.5146C177.851 41.5146 179.811 40.1816 182.203 37.5156V41.4463ZM170.924 22.3398C170.582 22.2031 170.092 22.1348 169.454 22.1348C166.492 22.1348 164.168 23.6842 162.481 26.7832C160.818 29.8822 159.986 33.5052 159.986 37.6523C159.986 39.9538 160.351 41.7425 161.08 43.0186C161.809 44.2946 162.823 44.9326 164.122 44.9326C165.74 44.9326 167.494 43.4401 169.386 40.4551C167.244 37.7663 166.173 34.8724 166.173 31.7734C166.173 28.1276 167.757 24.9831 170.924 22.3398ZM215.768 41.4463C210.367 47.0518 205.924 49.8545 202.438 49.8545C200.888 49.8545 199.601 49.3304 198.575 48.2822C197.573 47.2113 197.071 45.8669 197.071 44.249C197.071 41.5146 198.119 37.6637 200.216 32.6963C201.332 30.0075 201.891 28.2529 201.891 27.4326C201.891 26.4984 201.446 26.0312 200.558 26.0312C199.646 26.0312 198.325 26.6579 196.593 27.9111C194.861 29.1416 193.038 30.8278 191.124 32.9697C190.326 37.1624 189.928 42.1982 189.928 48.0771L182.306 49.8545C182.009 47.4619 181.861 44.8643 181.861 42.0615C181.861 35.2712 182.796 28.9479 184.664 23.0918C186.533 17.2357 189.472 11.0264 193.482 4.46387C196.467 3.25618 199.065 2.27637 201.275 1.52441C203.508 0.749674 204.785 0.362305 205.104 0.362305C205.696 0.362305 206.197 0.84082 206.607 1.79785C207.018 2.75488 207.223 3.95117 207.223 5.38672C207.223 7.80208 206.482 10.4795 205.001 13.4189C203.52 16.3356 201.196 19.8675 198.028 24.0146C201.059 22.2601 203.076 21.1549 204.078 20.6992C205.081 20.2435 206.106 20.0156 207.154 20.0156C208.316 20.0156 209.251 20.4372 209.957 21.2803C210.686 22.1006 211.051 23.1943 211.051 24.5615C211.051 26.6123 210.23 29.791 208.59 34.0977C206.972 38.4043 206.163 41.1045 206.163 42.1982C206.163 42.6995 206.311 43.1439 206.607 43.5312C206.926 43.9186 207.291 44.1123 207.701 44.1123C209.16 44.1123 211.848 41.9134 215.768 37.5156V41.4463ZM192.081 27.4326C200.216 17.9762 204.283 11.0036 204.283 6.51465C204.283 5.14746 203.907 4.46387 203.155 4.46387C201.902 4.46387 200.113 6.70833 197.789 11.1973C195.465 15.6862 193.562 21.098 192.081 27.4326Z" fill="url(#paint0_linear)"/>
    <defs>
        <linearGradient id="paint0_linear" x1="107.5" y1="-18" x2="147" y2="72" gradientUnits="userSpaceOnUse">
            <stop offset="0.166667" stop-color="#F27348"/>
            <stop offset="0.395833" stop-color="#254750"/>
            <stop offset="0.666667" stop-color="#76CDCD"/>
            <stop offset="0.828125" stop-color="#F9968B"/>
            <stop offset="0.989583" stop-color="#76CDCD"/>
        </linearGradient>
    </defs>
</svg>