<svg width="164" height="147" viewBox="0 0 164 147" fill="none"
    xmlns="http://www.w3.org/2000/svg">
    <path d="M8.87562 146.831L163.999 131.922L155.124 39.5751L-7.58546e-05 54.4845L8.87562 146.831Z" fill="#9FDCDC"/>
    <path opacity="0.1" d="M8.87562 146.831L163.999 131.922L155.124 39.5751L-7.58546e-05 54.4845L8.87562 146.831Z" fill="black"/>
    <path opacity="0.1" d="M82.4052 97.3999L0.000244141 54.4829L155.121 39.5702L82.4052 97.3999Z" fill="#263238"/>
    <path d="M63.6325 3.88354L0.0012207 54.4829L155.122 39.5702L83.0176 2.02278C79.9524 0.425756 76.4899 -0.248447 73.0494 0.0818024C69.6089 0.412052 66.338 1.73259 63.6325 3.88354Z" fill="#9FDCDC"/>
    <path opacity="0.2" d="M149.359 40.1285L80.8503 4.44845C78.5388 3.24315 75.9273 2.73411 73.3323 2.98299C70.7374 3.23187 68.2703 4.22799 66.23 5.85066L5.75537 53.9247L149.359 40.1285Z" fill="#263238"/>
    <path d="M120.849 16.564L141.943 24.305V48.5877L82.3609 97.1755L13.2507 57.4219V35.3365L120.849 16.564Z" fill="white"/>
    <path d="M120.71 18.0109L124.678 29.0027L141.704 23.6198" fill="#E0E0E0"/>
    <path d="M120.71 18.0109L122.751 27.0755L141.704 23.6198" fill="#F0F0F0"/>
    <path d="M82.5521 97.3099C80.7514 97.3133 78.9985 96.731 77.5577 95.6509L77.4684 95.5839L58.6597 81.1833C57.7887 80.5159 57.0576 79.6834 56.5082 78.7335C55.9589 77.7835 55.602 76.7347 55.458 75.6468C55.314 74.5589 55.3857 73.4533 55.669 72.3932C55.9522 71.333 56.4415 70.339 57.1089 69.4679C57.7764 68.5969 58.6088 67.8658 59.5588 67.3164C60.5087 66.7671 61.5576 66.4102 62.6454 66.2662C63.7333 66.1222 64.8389 66.1939 65.8991 66.4772C66.9592 66.7604 67.9532 67.2497 68.8243 67.9171L81.0071 77.2588L109.797 39.7125C110.465 38.8416 111.297 38.1108 112.248 37.5618C113.198 37.0128 114.247 36.6563 115.335 36.5127C116.423 36.369 117.528 36.4411 118.588 36.7248C119.648 37.0085 120.642 37.4982 121.513 38.1659L121.334 38.409L121.518 38.1695C123.274 39.5195 124.424 41.5112 124.713 43.7076C125.003 45.904 124.41 48.1257 123.064 49.8854L89.2002 94.0488C88.417 95.0665 87.4099 95.8901 86.2569 96.4556C85.104 97.0212 83.8363 97.3135 82.5521 97.3099Z" fill="#F27348"/>
    <path d="M94.7994 87.5246L164 131.924L8.87891 146.83L68.3501 90.0632C71.8365 86.7372 76.3392 84.6789 81.1356 84.2185C85.932 83.7582 90.744 84.9225 94.7994 87.5246Z" fill="#9FDCDC"/>
</svg>
