<svg width="611" height="511" viewBox="0 0 611 511" fill="none"
    xmlns="http://www.w3.org/2000/svg">
    <path opacity="0.7" d="M470.023 104.214C417.05 58.2139 343.368 31.5693 273.027 28.4691C202.062 25.3599 118.993 50.3848 91.1144 111.877C70.6126 156.989 102.442 200.435 94.8504 246.442C90.2437 274.384 68.4184 292.359 57.5099 317.132C48.2214 338.24 49.9882 361.999 60.9117 383.744C94.612 451.241 187.221 504.597 263.874 475.801C293.993 464.452 323.998 444.933 359.117 446.293C429.705 449.056 529.198 477.731 564.517 406.093C586.038 362.43 568.501 309.128 554.097 263.395C536 206.283 520.307 147.898 470.023 104.214Z" fill="#76CDCD" fill-opacity="0.5"/>
    <path opacity="0.7" d="M275.22 410.137C241.054 409.968 199.892 409.96 164.4 410.087C128.598 410.215 91.5712 410.538 88.1886 410.967C85.6825 411.282 108.904 411.478 112.967 411.772C115.437 411.95 107.651 412.104 106.448 412.276C105.427 412.423 110.352 412.562 119.486 412.671C147.734 413.009 202.854 413.139 236.049 412.807C249.087 412.676 260.676 412.496 278.363 412.432C313.919 412.302 368.257 412.269 373.61 411.764C376.869 411.456 359.073 411.17 344.123 410.924C325.4 410.616 307.654 410.296 275.22 410.137Z" fill="#26474E"/>
    <path d="M300.795 271.372L289.489 271.216L289.912 240.434C289.907 235.028 288.837 229.675 286.762 224.682C284.688 219.69 281.651 215.154 277.824 211.335C273.997 207.516 269.455 204.488 264.458 202.424C259.461 200.36 254.107 199.301 248.7 199.307C243.293 199.312 237.941 200.383 232.948 202.457C227.955 204.531 223.42 207.568 219.601 211.395C211.888 219.124 207.561 229.6 207.572 240.519L207.148 271.372L195.842 271.216L196.266 240.434C196.277 226.517 201.817 213.173 211.666 203.34C221.515 193.507 234.867 187.989 248.785 188C262.702 188.011 276.046 193.551 285.879 203.4C295.712 213.249 301.23 226.601 301.219 240.519L300.795 271.372Z" fill="#263238"/>
    <path d="M301.841 256.377H196.86C182.584 256.377 171.01 267.95 171.01 282.226V383.604C171.01 397.88 182.584 409.453 196.86 409.453H301.841C316.118 409.453 327.691 397.88 327.691 383.604V282.226C327.691 267.95 316.118 256.377 301.841 256.377Z" fill="#26474E"/>
    <g opacity="0.3">
        <path opacity="0.3" d="M264.954 324.838C264.964 322.114 264.261 319.435 262.915 317.067C261.569 314.699 259.628 312.723 257.283 311.338C254.938 309.952 252.271 309.203 249.548 309.167C246.824 309.13 244.138 309.806 241.757 311.128C239.375 312.45 237.381 314.372 235.972 316.703C234.563 319.034 233.788 321.693 233.724 324.417C233.66 327.14 234.31 329.832 235.608 332.227C236.906 334.621 238.809 336.634 241.125 338.067L237.126 356.567H262.735C262.735 356.567 259.908 344.935 258.043 337.77C260.165 336.344 261.904 334.419 263.109 332.164C264.314 329.91 264.947 327.394 264.954 324.838Z" fill="black"/>
    </g>
    <g opacity="0.2">
        <path opacity="0.2" d="M181.031 363.04C180.013 363.04 179.617 345.161 180.027 323.156C180.437 301.151 181.681 283.314 182.698 283.343C183.716 283.371 184.112 301.221 183.702 323.227C183.292 345.232 182.048 363.054 181.031 363.04Z" fill="white"/>
    </g>
    <g opacity="0.2">
        <path opacity="0.2" d="M181.144 380.749C180.127 380.749 179.293 379.025 179.264 376.862C179.236 374.7 180.028 372.947 181.045 372.933C182.063 372.919 182.911 374.657 182.939 376.82C182.967 378.982 182.162 380.735 181.144 380.749Z" fill="white"/>
    </g>
    <g opacity="0.2">
        <path opacity="0.2" d="M230.299 359.111C229.493 358.842 231.401 350.702 234.723 339.876L235.147 341.656C233.634 340.158 232.066 338.59 230.426 336.851C227.89 333.96 226.398 330.303 226.186 326.463C226.015 323.379 226.742 320.31 228.278 317.63C229.252 315.86 230.609 314.33 232.249 313.15C233.408 312.344 234.186 312.132 234.313 312.33C234.68 312.768 232.292 314.662 230.61 318.775C229.556 321.347 229.235 324.161 229.681 326.905C230.128 329.649 231.325 332.216 233.14 334.321L237.691 339.127L238.44 339.932L238.1 340.922C234.383 351.677 231.105 359.365 230.299 359.111Z" fill="white"/>
    </g>
    <g opacity="0.2">
        <path opacity="0.2" d="M294.973 267.005C294.973 267.514 288.712 267.938 278.606 268.192C268.501 268.446 254.58 268.545 239.033 268.432C231.317 268.432 223.967 268.263 217.282 268.121C210.597 267.98 204.563 267.57 199.743 268.121C195.918 268.398 192.227 269.643 189.016 271.739C186.769 273.28 185.85 274.566 185.596 274.396C185.341 274.227 185.949 272.686 188.111 270.637C191.298 267.866 195.231 266.096 199.418 265.549C202.224 265.113 205.059 264.891 207.898 264.885L217.396 264.786C224.081 264.786 231.43 264.786 239.147 264.786C254.58 264.899 268.544 265.224 278.649 265.634C288.754 266.044 294.973 266.496 294.973 267.005Z" fill="white"/>
    </g>
    <path d="M344.675 318.045C353.067 310.217 359.085 300.182 362.04 289.092C364.994 278.002 364.765 266.303 361.379 255.337C357.993 244.371 351.587 234.58 342.894 227.086C334.201 219.592 323.573 214.697 312.228 212.963C300.883 211.229 289.278 212.726 278.744 217.281C268.209 221.837 259.171 229.267 252.664 238.721C246.157 248.176 242.444 259.271 241.951 270.738C241.457 282.204 244.204 293.578 249.875 303.556L237.441 315.153L240.435 335.782L221.125 330.504L205.571 345.019L208.666 365.521L189.382 360.116L176.009 372.575L177.836 385.263L166.062 381.964L158.298 389.221L157.13 408.328L185.626 415.509L278.117 329.235C289.084 334.11 301.244 335.649 313.08 333.659C324.916 331.669 335.904 326.239 344.675 318.045ZM335.54 242.911C337.907 245.446 339.47 248.627 340.029 252.05C340.589 255.473 340.12 258.986 338.683 262.143C337.246 265.3 334.904 267.96 331.955 269.786C329.006 271.612 325.581 272.522 322.114 272.402C318.648 272.281 315.295 271.134 312.48 269.108C309.665 267.081 307.514 264.264 306.3 261.015C305.086 257.765 304.863 254.229 305.659 250.853C306.456 247.476 308.236 244.412 310.774 242.048C314.174 238.881 318.692 237.193 323.335 237.355C327.979 237.517 332.368 239.515 335.54 242.911Z" fill="#263238"/>
    <path d="M335.539 242.911C335.539 242.911 334.398 241.845 332.063 240.373C328.744 238.39 324.869 237.544 321.025 237.963C317.91 238.299 314.949 239.496 312.476 241.42C310.002 243.343 308.114 245.918 307.021 248.855C305.928 251.791 305.674 254.975 306.289 258.047C306.903 261.12 308.361 263.961 310.498 266.252C312.636 268.543 315.37 270.193 318.393 271.018C321.416 271.843 324.609 271.81 327.614 270.923C330.619 270.036 333.318 268.329 335.408 265.994C337.498 263.66 338.897 260.789 339.447 257.704C340.153 253.903 339.572 249.975 337.798 246.539C336.529 244.002 335.413 242.987 335.539 242.885C335.666 242.784 335.869 243.114 336.377 243.647C337.123 244.415 337.778 245.267 338.331 246.184C340.394 249.684 341.166 253.796 340.513 257.806C340.134 260.191 339.28 262.476 338.002 264.526C336.723 266.575 335.046 268.347 333.07 269.736C331.094 271.125 328.86 272.103 326.498 272.613C324.137 273.122 321.698 273.152 319.325 272.701C315.502 272 312.006 270.086 309.356 267.244C306.705 264.401 305.04 260.78 304.608 256.918C304.323 254.521 304.523 252.091 305.194 249.772C305.866 247.454 306.995 245.294 308.517 243.42C310.038 241.546 311.92 239.996 314.051 238.863C316.182 237.729 318.519 237.035 320.924 236.821C324.979 236.446 329.038 237.506 332.393 239.815C333.321 240.411 334.174 241.118 334.93 241.921C335.539 242.581 335.692 242.885 335.539 242.911Z" fill="#263238"/>
    <path d="M344.675 318.045C344.675 318.045 344.395 318.35 343.786 318.883L341.097 321.42C337.45 324.389 333.484 326.943 329.272 329.032C321.255 332.873 312.499 334.928 303.61 335.055C294.721 335.182 285.911 333.378 277.787 329.768H278.294L185.956 416.194L185.702 416.474H185.322L156.826 409.318L156.242 409.191V408.582C156.597 402.619 156.978 396.098 157.384 389.475V388.866L157.587 388.663L165.529 381.254L165.808 380.974H166.214L177.988 384.273L177.049 385.085C176.466 381.152 175.857 376.838 175.222 372.398V372.017L175.502 371.763L188.874 359.279L189.179 358.975H189.585L208.869 364.379L207.93 365.217C206.992 358.67 205.977 351.667 204.962 344.587V344.181L205.266 343.927L209.377 340.07L220.821 329.413L221.125 329.109H221.531L240.841 334.513L239.877 335.351C238.879 328.398 237.889 321.522 236.908 314.721V314.341L237.187 314.061L249.621 302.465L249.494 303.379C244.683 294.831 241.961 285.267 241.552 275.467C241.315 270.732 241.656 265.985 242.567 261.333C243.398 256.758 244.761 252.296 246.627 248.036C251.333 237.265 259.021 228.063 268.784 221.515C278.547 214.968 289.978 211.347 301.73 211.08C313.482 210.814 325.066 213.912 335.116 220.01C345.165 226.108 353.263 234.952 358.453 245.499C363.321 255.45 365.399 266.534 364.467 277.573C363.823 285.801 361.491 293.808 357.616 301.095C357.235 301.856 356.854 302.567 356.474 303.277L355.23 305.206C354.393 306.449 353.708 307.743 352.896 308.682C351.247 310.661 349.978 312.437 348.735 313.757L345.69 317.132L344.7 318.045C344.7 318.045 344.979 317.69 345.588 317.03L348.329 314.112C349.521 312.843 350.866 311.042 352.363 309.037C353.124 307.997 353.784 306.779 354.596 305.561C355.002 304.927 355.408 304.292 355.814 303.607L356.93 301.45C360.679 294.238 362.937 286.346 363.572 278.243C364.206 270.14 363.203 261.993 360.622 254.286C358.042 246.579 353.936 239.47 348.551 233.382C343.165 227.295 336.61 222.354 329.275 218.853C321.939 215.353 313.975 213.364 305.855 213.006C297.735 212.648 289.626 213.928 282.012 216.769C274.397 219.611 267.432 223.956 261.532 229.546C255.631 235.135 250.916 241.855 247.667 249.305C245.858 253.471 244.53 257.83 243.709 262.297C242.841 266.844 242.517 271.478 242.744 276.101C243.177 285.637 245.846 294.937 250.534 303.252L250.814 303.759L250.382 304.165L237.974 315.762L238.202 315.102C239.184 321.868 240.173 328.753 241.171 335.757L241.349 336.899L240.207 336.594L220.922 331.189L221.658 331.012L210.214 341.669L206.129 345.45L206.357 344.765C207.372 351.844 208.387 358.873 209.326 365.394L209.504 366.562L208.362 366.257L189.077 360.827L189.788 360.649C185.195 364.963 180.627 369.201 176.415 373.134L176.669 372.474C177.278 376.813 177.887 381.127 178.47 385.161L178.623 386.278L177.532 385.973L165.783 382.675L166.468 382.497L158.678 389.754L158.907 389.272C158.501 395.895 158.095 402.416 157.739 408.379L157.206 407.643L185.702 414.824L185.068 415.002L277.685 328.88L277.914 328.677H278.193C286.204 332.282 294.898 334.116 303.682 334.055C312.467 333.994 321.135 332.038 329.094 328.322C333.294 326.321 337.274 323.889 340.97 321.065L343.736 318.756L344.675 318.045Z" fill="#263238"/>
    <path d="M342.62 311.118C351.009 303.294 357.024 293.266 359.978 282.181C362.932 271.097 362.705 259.405 359.323 248.444C355.941 237.483 349.54 227.696 340.853 220.203C332.167 212.711 321.546 207.816 310.207 206.08C298.868 204.343 287.27 205.835 276.739 210.385C266.209 214.934 257.172 222.357 250.665 231.803C244.157 241.25 240.441 252.338 239.942 263.798C239.444 275.259 242.183 286.628 247.845 296.604L235.437 308.174L238.406 328.829L219.121 323.399L203.592 337.939L206.561 358.569L187.276 353.164L173.904 365.648L175.705 378.335L163.957 375.062L156.167 382.319L155 401.426L183.495 408.582L275.986 322.308C286.961 327.209 299.138 328.762 310.992 326.771C322.846 324.781 333.848 319.335 342.62 311.118ZM333.587 235.984C335.954 238.519 337.516 241.699 338.076 245.123C338.636 248.546 338.167 252.059 336.73 255.216C335.293 258.373 332.951 261.033 330.002 262.859C327.053 264.685 323.628 265.595 320.161 265.474C316.695 265.353 313.341 264.207 310.526 262.18C307.711 260.153 305.561 257.337 304.347 254.088C303.133 250.838 302.91 247.302 303.706 243.925C304.503 240.549 306.283 237.485 308.821 235.121C310.503 233.55 312.478 232.325 314.633 231.518C316.789 230.711 319.082 230.337 321.383 230.417C323.683 230.497 325.945 231.03 328.039 231.985C330.133 232.94 332.018 234.299 333.587 235.984Z" fill="#76CDCD"/>
    <path d="M333.585 235.984C333.585 235.984 332.443 234.918 330.109 233.446C326.823 231.397 322.947 230.504 319.096 230.909C315.989 231.25 313.038 232.449 310.574 234.372C308.109 236.295 306.228 238.866 305.141 241.796C304.054 244.727 303.803 247.903 304.418 250.968C305.032 254.032 306.487 256.866 308.619 259.152C310.752 261.437 313.478 263.084 316.494 263.909C319.509 264.733 322.694 264.703 325.693 263.82C328.692 262.938 331.386 261.239 333.474 258.913C335.563 256.587 336.963 253.726 337.518 250.65C338.218 246.846 337.629 242.917 335.844 239.485C334.575 236.948 333.484 235.933 333.585 235.831C333.687 235.73 333.915 236.06 334.448 236.593C335.185 237.362 335.832 238.214 336.377 239.13C338.448 242.636 339.22 246.759 338.559 250.777C338.177 253.158 337.321 255.439 336.044 257.485C334.766 259.53 333.091 261.3 331.119 262.688C329.147 264.076 326.916 265.055 324.559 265.568C322.203 266.08 319.767 266.116 317.396 265.672C313.575 265.009 310.068 263.133 307.395 260.323C304.721 257.513 303.023 253.916 302.552 250.066C302.275 247.671 302.479 245.244 303.154 242.928C303.828 240.612 304.958 238.455 306.478 236.582C307.999 234.71 309.878 233.16 312.005 232.025C314.133 230.889 316.466 230.19 318.868 229.97C322.927 229.6 326.987 230.669 330.337 232.989C331.271 233.578 332.124 234.286 332.875 235.095C333.408 235.654 333.636 235.958 333.585 235.984Z" fill="#263238"/>
    <path d="M342.619 311.118C342.619 311.118 342.34 311.422 341.756 311.955L339.066 314.341C335.415 317.302 331.449 319.855 327.242 321.953C319.22 325.792 310.46 327.846 301.567 327.973C292.674 328.1 283.86 326.297 275.731 322.689H276.239L183.926 409.115L183.647 409.369H183.291L154.77 402.213L154.212 402.061V401.477C154.567 395.514 154.973 388.993 155.354 382.37V382.066L155.557 381.888L163.347 374.605L163.651 374.326H164.057L175.806 377.6L174.867 378.437C174.309 374.504 173.674 370.19 173.04 365.75V365.369L173.344 365.09L186.691 352.631L186.996 352.326L187.427 352.453L206.712 357.858L205.748 358.695L202.779 338.117V337.711L203.058 337.431L207.194 333.6L218.613 322.943L218.917 322.638L219.349 322.765L238.633 328.17L237.669 329.007C236.671 322.054 235.682 315.178 234.7 308.377V307.971L235.005 307.718L247.438 296.121L247.286 297.035C242.475 288.487 239.753 278.923 239.344 269.123C239.119 264.388 239.46 259.643 240.359 254.989C241.195 250.415 242.557 245.953 244.419 241.693C250.192 228.27 260.554 217.34 273.649 210.858C286.745 204.377 301.719 202.767 315.893 206.316C330.067 209.866 342.516 218.344 351.011 230.232C359.506 242.121 363.493 256.644 362.259 271.204C361.612 279.431 359.28 287.438 355.408 294.726L354.266 296.908L353.023 298.837C352.185 300.08 351.5 301.374 350.713 302.313C349.064 304.292 347.795 306.068 346.552 307.388L343.608 310.204C342.974 310.839 342.619 311.143 342.619 311.143C342.619 311.143 342.923 310.763 343.532 310.103L346.247 307.21C347.44 305.942 348.785 304.14 350.282 302.135C351.043 301.12 351.728 299.902 352.54 298.659L353.758 296.731L354.849 294.548C358.6 287.302 360.836 279.368 361.422 271.229C362.5 256.979 358.502 242.806 350.136 231.219C341.771 219.633 329.576 211.379 315.71 207.919C301.844 204.458 287.201 206.014 274.372 212.312C261.543 218.609 251.355 229.241 245.611 242.327C243.81 246.494 242.491 250.853 241.678 255.319C240.797 259.864 240.473 264.499 240.714 269.123C241.139 278.657 243.799 287.957 248.479 296.274L248.783 296.781L248.352 297.187L235.918 308.783L236.147 308.124C237.145 314.89 238.134 321.767 239.116 328.753L239.293 329.921L238.177 329.591L218.816 324.161L219.526 323.983L208.108 334.666L203.972 338.497L204.2 337.837C205.24 344.917 206.23 351.92 207.169 358.467L207.346 359.634L206.23 359.304L186.92 353.9L187.656 353.722L174.283 366.181L174.512 365.547C175.121 369.886 175.755 374.174 176.313 378.107L176.465 379.249L175.374 378.944L163.626 375.646L164.311 375.468L156.546 382.725L156.775 382.218C156.369 388.841 155.963 395.387 155.582 401.325L155.049 400.589L183.545 407.795L182.911 407.973L275.528 321.851L275.757 321.648L276.036 321.775C284.051 325.362 292.744 327.187 301.525 327.125C310.307 327.064 318.972 325.118 326.937 321.42C331.142 319.415 335.13 316.983 338.838 314.163L341.579 311.854L342.619 311.118Z" fill="#263238"/>
    <path d="M423.96 247.633C424.374 252.457 423.348 257.295 421.013 261.535C418.677 265.776 415.136 269.228 410.837 271.455C406.539 273.683 401.676 274.586 396.865 274.049C392.054 273.513 387.509 271.562 383.807 268.442C380.105 265.323 377.411 261.175 376.066 256.525C374.721 251.874 374.786 246.929 376.252 242.315C377.719 237.701 380.52 233.626 384.303 230.604C388.086 227.583 392.68 225.751 397.503 225.341C400.705 225.064 403.93 225.421 406.993 226.392C410.057 227.362 412.899 228.928 415.356 230.999C417.814 233.069 419.839 235.604 421.315 238.459C422.792 241.313 423.69 244.431 423.96 247.633Z" fill="white"/>
    <path d="M423.96 247.633C424.515 254.184 422.518 260.696 418.387 265.81C414.255 270.924 408.309 274.246 401.788 275.081C398.425 275.432 395.026 275.109 391.789 274.132C388.552 273.155 385.542 271.543 382.934 269.39C380.327 267.238 378.174 264.587 376.602 261.594C375.03 258.6 374.07 255.324 373.777 251.955C373.485 248.587 373.867 245.194 374.899 241.974C375.932 238.755 377.596 235.773 379.794 233.203C381.991 230.634 384.679 228.527 387.699 227.007C390.719 225.487 394.012 224.584 397.385 224.35C403.964 224.049 410.404 226.304 415.357 230.644C420.311 234.984 423.394 241.072 423.96 247.633ZM423.96 247.633C423.697 244.475 422.796 241.403 421.313 238.603C419.829 235.803 417.792 233.333 415.327 231.342C412.861 229.351 410.018 227.881 406.968 227.02C403.918 226.159 400.726 225.925 397.583 226.333C391.603 227.182 386.169 230.273 382.383 234.979C378.597 239.686 376.743 245.656 377.195 251.679C377.721 257.714 380.555 263.313 385.107 267.311C389.658 271.308 395.577 273.395 401.629 273.138C404.794 273 407.899 272.222 410.756 270.851C413.612 269.48 416.161 267.544 418.248 265.16C420.335 262.776 421.918 259.994 422.899 256.982C423.881 253.969 424.242 250.789 423.96 247.633Z" fill="#263238"/>
    <path d="M371.206 292.732C371.431 295.411 370.857 298.096 369.557 300.449C368.257 302.802 366.288 304.717 363.901 305.953C361.513 307.188 358.813 307.689 356.142 307.391C353.47 307.093 350.946 306.01 348.889 304.28C346.832 302.549 345.334 300.248 344.584 297.666C343.834 295.085 343.865 292.339 344.674 289.775C345.483 287.212 347.033 284.945 349.129 283.262C351.225 281.578 353.773 280.554 356.451 280.317C360.053 280.009 363.631 281.144 366.397 283.472C369.164 285.799 370.893 289.13 371.206 292.732Z" fill="white"/>
    <path d="M371.206 292.732C371.544 296.448 370.458 300.153 368.168 303.099C365.878 306.044 362.554 308.01 358.87 308.598C355.974 309.045 353.01 308.613 350.362 307.357C347.715 306.1 345.505 304.078 344.02 301.552C342.534 299.026 341.841 296.112 342.031 293.187C342.22 290.263 343.283 287.463 345.082 285.149C346.88 282.836 349.332 281.115 352.12 280.211C354.907 279.307 357.902 279.26 360.716 280.077C363.531 280.894 366.035 282.537 367.905 284.793C369.775 287.049 370.925 289.815 371.206 292.732ZM371.206 292.732C371.037 290.963 370.506 289.247 369.646 287.691C368.786 286.135 367.616 284.773 366.208 283.688C364.253 282.224 361.917 281.357 359.481 281.192C357.044 281.026 354.612 281.569 352.477 282.755C350.343 283.941 348.597 285.719 347.45 287.875C346.304 290.031 345.806 292.473 346.016 294.906C346.226 297.339 347.136 299.659 348.636 301.586C350.136 303.513 352.161 304.966 354.468 305.767C356.774 306.569 359.264 306.686 361.635 306.105C364.007 305.523 366.16 304.268 367.834 302.49C369.034 301.181 369.953 299.639 370.532 297.961C371.112 296.282 371.342 294.503 371.206 292.732Z" fill="#263238"/>
    <path d="M606.975 133.834C608.501 146.266 606.729 158.881 601.838 170.412C596.947 181.943 589.108 191.985 579.109 199.528C569.11 207.072 557.302 211.852 544.871 213.389C532.44 214.926 519.824 213.166 508.288 208.285C502.678 215.586 495.462 221.495 487.199 225.556C478.935 229.616 469.848 231.718 460.641 231.699C451.434 231.68 442.356 229.54 434.11 225.445C425.864 221.35 418.672 215.41 413.092 208.087C410.503 208.88 407.848 209.438 405.159 209.753C395.821 210.919 386.345 209.35 377.881 205.237C369.417 201.124 362.328 194.644 357.473 186.582C352.619 178.519 350.209 169.222 350.534 159.817C350.86 150.412 353.907 141.303 359.306 133.596C348.646 120.217 343.144 103.455 343.802 86.3612C344.459 69.2673 351.232 52.9775 362.888 40.4567C374.544 27.9358 390.308 20.0162 407.312 18.1391C424.315 16.262 441.427 20.5522 455.534 30.229C462.147 21.965 470.83 15.5996 480.701 11.7801C490.572 7.96052 501.278 6.82303 511.731 8.48327C522.184 10.1435 532.011 14.5422 540.213 21.2322C548.414 27.9222 554.698 36.6648 558.425 46.571C560.922 45.724 563.501 45.1391 566.12 44.8257C574.069 43.8484 582.126 45.3299 589.207 49.0708C596.289 52.8117 602.054 58.6324 605.727 65.7492C609.4 72.866 610.804 80.9372 609.751 88.8763C608.697 96.8155 605.237 104.241 599.835 110.154C603.606 117.559 606.024 125.578 606.975 133.834Z" fill="white"/>
    <path d="M606.975 133.834C608.454 146.262 606.691 158.861 601.858 170.405C599.397 176.151 596.24 181.573 592.457 186.549C588.596 191.442 584.131 195.826 579.169 199.599C569.149 207.206 557.315 212.061 544.839 213.682C532.364 215.303 519.681 213.634 508.05 208.841H508.724C503.05 216.293 495.736 222.338 487.349 226.509C478.963 230.679 469.728 232.863 460.362 232.89C450.995 232.916 441.748 230.786 433.338 226.664C424.927 222.541 417.579 216.538 411.862 209.118L413.29 209.594C408.354 211.085 403.214 211.795 398.059 211.696C392.89 211.689 387.757 210.832 382.867 209.158C372.971 205.845 364.35 199.538 358.195 191.11C355.203 186.871 352.838 182.222 351.175 177.307C349.58 172.369 348.725 167.223 348.636 162.036C348.539 151.558 351.714 141.31 357.719 132.723V134.786C346.89 121.065 341.336 103.918 342.063 86.4529C342.791 68.9882 349.753 52.3624 361.686 39.5898C373.648 26.8798 389.723 18.8143 407.063 16.8221C424.363 14.9675 441.756 19.3719 456.089 29.2372L454.343 29.5149C461.138 21.1383 470.038 14.7185 480.13 10.913C490.222 7.10751 501.145 6.05309 511.778 7.85777C522.325 9.61145 532.222 14.1184 540.468 20.923C548.714 27.7276 555.018 36.5887 558.742 46.6105L558.226 46.3725C566.546 43.6791 575.52 43.7906 583.77 46.6898C589.902 48.8644 595.4 52.5239 599.772 57.3416C604.145 62.1593 607.256 67.9851 608.827 74.2984C610.399 80.6118 610.382 87.2161 608.778 93.5213C607.174 99.8266 604.034 105.636 599.637 110.432C603.446 117.738 605.93 125.661 606.975 133.834ZM606.975 133.834C605.996 125.531 603.538 117.471 599.716 110.035C604.053 105.258 607.137 99.4798 608.692 93.2177C610.246 86.9557 610.222 80.4058 608.622 74.1552C607.022 67.9047 603.896 62.1488 599.524 57.4038C595.152 52.6588 589.671 49.0728 583.572 46.9675C575.45 44.172 566.626 44.172 558.504 46.9675H558.107V46.5709C554.323 36.8067 548.029 28.2141 539.861 21.6612C531.74 15.0755 522.001 10.7882 511.659 9.24604C501.383 7.65889 490.87 8.8316 481.196 12.644C471.522 16.4565 463.035 22.7716 456.604 30.9428L455.89 31.8948L454.859 31.1808C440.997 21.9515 424.305 17.9532 407.766 19.9007C391.227 21.8481 375.92 29.6144 364.581 41.811C353.37 54.0297 346.848 69.8244 346.173 86.3938C345.497 102.963 350.712 119.236 360.893 132.327L361.726 133.398L360.932 134.548C355.323 142.477 352.34 151.966 352.404 161.679C352.439 166.512 353.201 171.312 354.665 175.919C356.183 180.507 358.361 184.85 361.131 188.81C366.844 196.703 374.828 202.666 384.017 205.905C388.605 207.536 393.428 208.407 398.297 208.484C403.161 208.664 408.022 208.061 412.695 206.699L413.568 206.421L414.163 207.175C419.605 214.368 426.601 220.239 434.63 224.35C446.87 230.536 460.881 232.273 474.262 229.263C487.642 226.252 499.559 218.682 507.971 207.849L508.248 207.492H508.645C520.081 212.437 532.625 214.257 544.995 212.766C557.365 211.274 569.117 206.525 579.05 199.004C584.013 195.264 588.49 190.92 592.378 186.073C596.161 181.189 599.331 175.861 601.818 170.207C606.641 158.729 608.417 146.2 606.975 133.834Z" fill="#263238"/>
    <path d="M490.755 131.89L488.494 142.719C488.325 143.815 487.927 144.864 487.327 145.797C486.727 146.73 485.938 147.527 485.012 148.136C484.085 148.745 483.04 149.153 481.946 149.334C480.851 149.515 479.731 149.464 478.657 149.184C477.583 148.962 476.563 148.531 475.657 147.914C474.75 147.297 473.974 146.507 473.373 145.589C472.772 144.671 472.359 143.644 472.156 142.566C471.953 141.488 471.966 140.381 472.192 139.308L475.801 121.974C475.801 121.974 475.801 121.974 476.039 121.696C476.277 121.419 476.039 121.696 476.039 121.3C476.551 119.169 477.861 117.315 479.698 116.12C481.535 114.924 483.76 114.479 485.916 114.874C490.871 115.926 496.041 114.967 500.288 112.207C504.536 109.447 507.513 105.113 508.565 100.158C509.617 95.2035 508.657 90.0337 505.898 85.7862C503.138 81.5388 498.804 78.5616 493.849 77.5096C490.608 76.8382 487.248 77.0268 484.103 78.0567C480.957 79.0865 478.136 80.9218 475.92 83.38C475.209 84.2676 474.324 85.0009 473.32 85.5351C472.316 86.0693 471.214 86.3933 470.08 86.4871C468.947 86.581 467.806 86.4428 466.727 86.0811C465.649 85.7193 464.656 85.1415 463.808 84.383C462.961 83.6245 462.276 82.7012 461.798 81.6695C461.319 80.6377 461.055 79.5192 461.023 78.3823C460.991 77.2453 461.191 76.1137 461.611 75.0567C462.031 73.9996 462.662 73.0392 463.466 72.2342C467.41 67.8289 472.386 64.4723 477.948 62.4659C483.51 60.4595 489.484 59.8661 495.332 60.739C501.18 61.6119 506.72 63.9238 511.453 67.467C516.187 71.0101 519.967 75.6737 522.453 81.0387C524.938 86.4037 526.053 92.3021 525.695 98.2042C525.338 104.106 523.52 109.827 520.405 114.853C517.29 119.879 512.975 124.052 507.848 126.998C502.722 129.944 496.944 131.571 491.033 131.732L490.755 131.89ZM483.179 168.382L482.544 171.397C482.343 172.481 481.923 173.513 481.312 174.431C480.7 175.349 479.909 176.134 478.987 176.738C478.064 177.342 477.028 177.753 475.942 177.947C474.856 178.14 473.742 178.111 472.668 177.862C470.509 177.395 468.621 176.097 467.411 174.249C466.201 172.401 465.767 170.151 466.202 167.986L466.837 164.971C467.331 162.832 468.638 160.969 470.482 159.777C472.325 158.585 474.56 158.158 476.714 158.585C478.866 159.034 480.754 160.316 481.965 162.151C483.177 163.987 483.613 166.226 483.179 168.382Z" fill="#F27348"/>
</svg>

